<svg width="31" height="31" viewBox="0 0 31 31" fill="none" xmlns="http://www.w3.org/2000/svg">
<g clip-path="url(#clip0)">
<path d="M14.5296 1.67628C12.897 1.78845 10.9366 2.32051 9.33193 3.08974C6.79937 4.30448 4.83193 6.10256 3.43309 8.48397C2.3203 10.3782 1.79007 12.4615 1.84239 14.7179C1.87728 16.1218 2.08309 17.2308 2.55053 18.5064C2.98309 19.6955 3.43309 20.5224 4.28076 21.6859L4.66449 22.2115L4.62262 22.407C4.54239 22.7853 4.24937 23.8109 3.37728 26.7853C3.10867 27.7051 2.91681 28.3878 2.92728 28.3878C2.94472 28.3878 4.70635 27.875 4.84937 27.8301C4.92611 27.8045 6.161 27.4295 7.59472 26.9936L10.2005 26.2083L10.7517 26.3942C11.9238 26.7949 12.7122 26.9808 13.8843 27.1282C14.418 27.1923 16.504 27.2212 17.1598 27.1731C19.6087 26.9808 22.1901 26.0449 24.2273 24.6122C26.9412 22.6987 28.7552 19.9936 29.4598 16.8045C29.6308 16.0256 29.6517 15.8109 29.6517 14.4455C29.6517 13.0513 29.6343 12.8397 29.4424 11.9776C28.3715 7.20833 24.6424 3.46794 19.6261 2.13781C18.897 1.9423 18.0738 1.78845 17.4947 1.73397C17.0098 1.68909 14.9377 1.65063 14.5296 1.67628ZM17.4424 3.76602C20.7982 4.24679 23.6412 5.89102 25.504 8.4391C26.5575 9.87499 27.1924 11.4487 27.4261 13.2019C27.5063 13.8173 27.5063 15.0256 27.4261 15.6314C27.0773 18.1763 25.968 20.2885 24.0563 22.0417C21.4715 24.4103 18.0319 25.5096 14.3796 25.1346C13.0994 25 12.0947 24.7436 10.8389 24.2308C10.5947 24.1314 10.3715 24.0513 10.3436 24.0545C10.3156 24.0545 9.63193 24.2532 8.82611 24.4936C6.57611 25.1667 6.15402 25.2853 6.13309 25.266C6.12262 25.2564 6.20983 24.9295 6.32495 24.5353C6.44355 24.141 6.66332 23.3942 6.8203 22.8718C6.97379 22.3494 7.09937 21.8878 7.09937 21.8429C7.09937 21.7564 7.09937 21.7532 6.62844 21.2083C6.011 20.4936 5.64821 19.9679 5.2296 19.1731C4.63658 18.0545 4.28425 16.9583 4.10983 15.6955C4.04007 15.1603 4.0296 13.8301 4.09588 13.2917C4.19704 12.4615 4.42728 11.5224 4.70983 10.8077C6.15053 7.15063 9.65983 4.44871 13.8075 3.80448C14.4982 3.69871 14.8331 3.67948 15.9424 3.6923C16.7761 3.70192 17.0831 3.71474 17.4424 3.76602Z" fill="black"/>
<path d="M9.95996 10.7436V11.7532H15.7855H21.6111V10.7436V9.73394H15.7855H9.95996V10.7436Z" fill="black"/>
<path d="M9.95996 14.7435V15.7916H12.7088C14.2193 15.7916 16.8321 15.782 18.5169 15.7692L21.5762 15.75V14.7435V13.7403H19.3855C18.1786 13.7403 15.5658 13.7307 13.5774 13.7179L9.95996 13.6987V14.7435Z" fill="black"/>
<path d="M9.95996 18.7564V19.766H14.6867H19.4134L19.4065 18.7628L19.396 17.7628L14.6797 17.7532L9.95996 17.7468V18.7564Z" fill="black"/>
</g>
<defs>
<clipPath id="clip0">
<rect width="30" height="30" fill="white" transform="translate(0.75 0.375)"/>
</clipPath>
</defs>
</svg>
