<svg width="24" height="6" viewBox="0 0 24 6" fill="none" xmlns="http://www.w3.org/2000/svg">
<path d="M4.2441 5.90931C6.09186 5.90931 7.58977 4.60679 7.58977 3.00004C7.58977 1.39329 6.09186 0.0907593 4.2441 0.0907593C2.39634 0.0907593 0.898438 1.39329 0.898438 3.00004C0.898438 4.60679 2.39634 5.90931 4.2441 5.90931Z" fill="black"/>
<path d="M12.3984 5.90931C14.2462 5.90931 15.7441 4.60679 15.7441 3.00004C15.7441 1.39329 14.2462 0.0907593 12.3984 0.0907593C10.5506 0.0907593 9.05273 1.39329 9.05273 3.00004C9.05273 4.60679 10.5506 5.90931 12.3984 5.90931Z" fill="black"/>
<path d="M20.5517 5.90931C22.3995 5.90931 23.8974 4.60679 23.8974 3.00004C23.8974 1.39329 22.3995 0.0907593 20.5517 0.0907593C18.704 0.0907593 17.2061 1.39329 17.2061 3.00004C17.2061 4.60679 18.704 5.90931 20.5517 5.90931Z" fill="black"/>
</svg>
