<svg width="30" height="31" viewBox="0 0 30 31" fill="none" xmlns="http://www.w3.org/2000/svg">
<g clip-path="url(#clip0)">
<path d="M15.0005 0.930908C6.71658 0.930908 0.000976562 7.64701 0.000976562 15.9306C0.000976562 24.2142 6.71658 30.9309 15.0005 30.9309C23.2844 30.9309 30.0008 24.2146 30.0008 15.9306C30.0008 7.64661 23.2844 0.930908 15.0005 0.930908ZM22.1311 11.7254L20.7064 13.1501L17.8063 10.2502L16.7061 11.3504L19.6062 14.2505L12.493 21.3631L9.59308 18.4635L8.49288 19.5637L11.3928 22.4636L10.684 23.1724L10.6705 23.1589C10.5919 23.2883 10.4641 23.3827 10.3123 23.4164L7.60798 24.0194C7.56748 24.0285 7.52628 24.0329 7.48558 24.0329C7.33798 24.0329 7.19458 23.9748 7.08828 23.8682C6.95188 23.7323 6.89508 23.536 6.93708 23.3479L7.53978 20.6444C7.57378 20.4927 7.66838 20.3646 7.79758 20.2862L7.78388 20.2725L19.2309 8.82501C19.3987 8.65751 19.6713 8.65751 19.8391 8.82551L22.1313 11.1172C22.2991 11.285 22.2991 11.5576 22.1311 11.7254Z" fill="black"/>
</g>
<defs>
<clipPath id="clip0">
<rect width="30" height="30" fill="white" transform="translate(0 0.930908)"/>
</clipPath>
</defs>
</svg>
