<svg width="24" height="30" viewBox="0 0 24 30" fill="none" xmlns="http://www.w3.org/2000/svg">
<path d="M3.15987 0.267626C2.45167 0.466845 1.23761 1.62231 1.03526 2.28638C0.818468 3.01685 0.804015 4.02622 0.818468 17.4668L0.847374 29.1942L1.2087 29.5129C1.43995 29.7254 1.71456 29.845 2.03253 29.845C2.45167 29.845 2.97198 29.4067 7.4669 25.2895L12.4243 20.7473L14.838 23.0051C16.1677 24.2403 18.4079 26.2989 19.8099 27.5473C22.0212 29.5395 22.4114 29.845 22.8017 29.845C23.1052 29.845 23.3942 29.7254 23.611 29.5129L23.9724 29.1942V16.0192C23.9724 6.07153 23.929 2.71138 23.7989 2.29966C23.5677 1.56919 22.3681 0.466845 21.5732 0.254345C20.7782 0.0418453 3.91144 0.0551262 3.15987 0.267626Z" fill="black"/>
</svg>
