<svg width="229" height="43" viewBox="0 0 229 43" fill="none" xmlns="http://www.w3.org/2000/svg">
<path d="M19.6431 1.53467L20.894 1.35596C21.45 1.35596 21.7578 1.81266 21.8174 2.72607C21.877 3.61963 21.9564 4.35433 22.0557 4.93018C22.1549 5.50602 22.2542 6.0223 22.3535 6.479C22.4528 6.93571 22.5322 7.32292 22.5918 7.64062C22.6712 7.95833 22.7109 8.2264 22.7109 8.44482C22.7109 8.64339 22.5918 8.84196 22.3535 9.04053C22.1351 9.21924 21.8968 9.30859 21.6387 9.30859C21.182 9.30859 20.7352 8.8221 20.2983 7.84912C19.4644 6.00244 18.7694 4.81104 18.2134 4.2749C16.9227 3.12321 15.0264 2.54736 12.5244 2.54736C9.02962 2.54736 6.68652 3.58984 5.49512 5.6748C5.11784 6.34993 4.9292 7.17399 4.9292 8.14697C4.9292 9.11995 5.15755 10.0334 5.61426 10.8872C6.09082 11.741 6.80566 12.6048 7.75879 13.4785C8.73177 14.3324 9.96289 15.2557 11.4521 16.2485C12.9414 17.2414 14.5399 18.3236 16.2476 19.4951C17.9552 20.6667 19.2856 21.729 20.2388 22.6821C21.1919 23.6154 21.9663 24.5487 22.562 25.4819C23.6938 27.2492 24.2598 28.9668 24.2598 30.6348C24.2598 32.3027 24.0215 33.792 23.5449 35.1025C23.0684 36.3932 22.2939 37.5251 21.2217 38.498C18.8984 40.6624 15.4632 41.7446 10.916 41.7446C8.61263 41.7446 6.07096 41.2383 3.29102 40.2256C2.6556 40.0072 2.25846 39.759 2.09961 39.481C1.9209 39.1434 1.76204 38.508 1.62305 37.5747C1.48405 36.6414 1.31527 35.7975 1.1167 35.043C0.937988 34.2884 0.769206 33.6133 0.610352 33.0176L0.193359 31.4688C0.0742188 31.012 0.0146484 30.6348 0.0146484 30.3369C0.0146484 29.6221 0.282715 29.2646 0.818848 29.2646C1.53369 29.2646 2.04997 29.8107 2.36768 30.9028C2.92367 32.8488 3.42008 34.1097 3.85693 34.6855C5.54476 36.9095 7.50065 38.359 9.72461 39.0342C10.3799 39.2327 11.2536 39.332 12.3457 39.332C13.4577 39.332 14.5399 39.1732 15.5923 38.8555C16.6646 38.5179 17.5482 38.0711 18.2432 37.5151C19.5537 36.4429 20.209 35.1423 20.209 33.6133C20.209 32.0645 19.7126 30.6745 18.7197 29.4434C17.7467 28.1924 16.5653 27.1102 15.1753 26.1968C13.8052 25.2635 12.7726 24.5785 12.0776 24.1416C11.4025 23.7048 10.7671 23.2878 10.1714 22.8906C5.14762 19.5348 2.17904 16.1989 1.26562 12.8828C1.02734 12.0091 0.908203 11.0063 0.908203 9.87451C0.908203 8.74268 1.1862 7.58105 1.74219 6.38965C2.29818 5.19824 3.09245 4.15576 4.125 3.26221C6.40853 1.31624 9.35726 0.343262 12.9712 0.343262C14.6193 0.343262 15.9398 0.512044 16.9326 0.849609C18.3226 1.30632 19.2261 1.53467 19.6431 1.53467ZM31.2295 41.4468C29.9388 41.4468 29.2935 41.0794 29.2935 40.3447C29.2935 39.7689 29.6509 39.481 30.3657 39.481L31.8252 39.6299C32.8975 39.6299 33.6421 39.1136 34.0591 38.0811C34.5158 36.9294 34.7441 34.755 34.7441 31.5581L34.5952 10.5298C34.5952 7.25342 34.4165 5.19824 34.0591 4.36426C33.7215 3.51042 33.3641 2.98421 32.9868 2.78564C32.6294 2.56722 32.1925 2.45801 31.6763 2.45801L30.2168 2.57715C29.502 2.57715 29.1445 2.28923 29.1445 1.71338C29.1445 0.978678 29.6906 0.611328 30.7827 0.611328C31.8748 0.611328 32.9074 0.690755 33.8804 0.849609C34.8732 1.00846 35.9058 1.08789 36.978 1.08789C38.0503 1.08789 39.0729 1.00846 40.0459 0.849609C41.0189 0.690755 42.0415 0.611328 43.1138 0.611328C44.2059 0.611328 44.752 0.978678 44.752 1.71338C44.752 2.28923 44.3945 2.57715 43.6797 2.57715L42.25 2.45801C41.1777 2.45801 40.4331 2.97428 40.0161 4.00684C39.5594 5.15853 39.3311 7.33285 39.3311 10.5298L39.48 31.5581C39.48 34.755 39.6686 36.7904 40.0459 37.6641C40.443 38.5378 40.8402 39.0838 41.2373 39.3022C41.6344 39.5207 42.0911 39.6299 42.6074 39.6299L44.0371 39.481C44.752 39.481 45.1094 39.7689 45.1094 40.3447C45.1094 41.0794 44.474 41.4468 43.2031 41.4468C42.5479 41.4468 41.8529 41.3872 41.1182 41.2681C38.6361 40.8709 36.5213 40.8014 34.7739 41.0596C33.0464 41.3177 31.8649 41.4468 31.2295 41.4468ZM88.9531 21.9971C89.7275 21.9971 90.1147 22.285 90.1147 22.8608C90.1147 23.1388 90.0254 23.3573 89.8467 23.5161C89.6878 23.6551 89.4198 23.804 89.0425 23.9629C88.6851 24.1019 88.4071 24.2905 88.2085 24.5288C88.0298 24.7472 87.8809 25.0848 87.7617 25.5415C87.5632 26.4152 87.4639 27.4676 87.4639 28.6987C87.4639 29.9299 87.4738 30.744 87.4937 31.1411C87.5135 31.5184 87.5433 31.9056 87.583 32.3027C87.6823 33.7523 87.7816 34.7054 87.8809 35.1621C87.9801 35.599 88.0298 36.0259 88.0298 36.4429C88.0298 36.8599 87.7716 37.3066 87.2554 37.7832C86.7391 38.2598 86.054 38.7065 85.2002 39.1235C84.3464 39.5405 83.3634 39.9178 82.2515 40.2554C81.1395 40.5731 79.9977 40.8511 78.8262 41.0894C76.3639 41.5858 74.1003 41.834 72.0352 41.834C64.9066 41.834 59.2871 39.7987 55.1768 35.728C51.4238 31.995 49.5474 27.279 49.5474 21.5801C49.5474 15.1663 51.6224 10.0135 55.7725 6.12158C59.9622 2.2098 65.5122 0.253906 72.4224 0.253906C77.5454 0.253906 81.626 0.869466 84.6641 2.10059C85.2598 2.35872 85.6668 2.62679 85.8853 2.90479C86.3022 3.44092 86.5405 4.2749 86.6001 5.40674C86.6795 6.53857 86.7292 7.32292 86.749 7.75977C86.8285 8.7526 86.8682 9.36816 86.8682 9.60645C86.8682 10.3809 86.6001 10.7681 86.064 10.7681C85.5477 10.7681 85.1406 10.2816 84.8428 9.30859C84.5648 8.31576 83.9989 7.38249 83.145 6.50879C82.2912 5.63509 81.2686 4.90039 80.0771 4.30469C77.6943 3.11328 75.0534 2.51758 72.1543 2.51758C69.2552 2.51758 66.793 2.91471 64.7676 3.70898C62.762 4.4834 61.0544 5.60531 59.6445 7.07471C56.6859 10.1326 55.2065 14.2629 55.2065 19.4653C55.2065 25.0252 56.9043 29.7313 60.2998 33.5835C61.9082 35.3905 63.8145 36.8201 66.0186 37.8726C68.2425 38.9051 70.665 39.4214 73.2861 39.4214C77.4362 39.4214 80.1466 38.637 81.4175 37.0684C82.2316 36.0358 82.6387 34.626 82.6387 32.8389V26.3755C82.6387 25.4422 82.4202 24.8664 81.9834 24.6479C81.4076 24.3501 80.6133 24.2012 79.6006 24.2012C77.8929 24.2012 77.0391 23.8239 77.0391 23.0693C77.0391 22.3148 77.7142 21.9375 79.0645 21.9375L85.0513 22.3247L88.9531 21.9971ZM96.2207 41.4468C94.93 41.4468 94.2847 41.0794 94.2847 40.3447C94.2847 39.7689 94.6421 39.481 95.3569 39.481L96.8164 39.6299C98.0078 39.6299 98.8021 38.9647 99.1992 37.6343C99.5566 36.5024 99.7354 34.4771 99.7354 31.5581V10.5894C99.7354 7.65055 99.5964 5.7443 99.3184 4.87061C99.0404 3.97705 98.7028 3.37142 98.3057 3.05371C97.9284 2.71615 97.432 2.54736 96.8164 2.54736L95.3569 2.69629C94.6421 2.69629 94.2847 2.39844 94.2847 1.80273C94.2847 1.02832 94.93 0.641113 96.2207 0.641113L100.123 1.08789C100.957 1.08789 101.701 1.02832 102.356 0.90918L129.789 32.8091V10.5298C129.789 7.6307 129.63 5.72445 129.312 4.81104C129.014 3.89762 128.667 3.28206 128.27 2.96436C127.872 2.62679 127.356 2.45801 126.721 2.45801L125.261 2.57715C124.546 2.57715 124.189 2.28923 124.189 1.71338C124.189 0.978678 124.834 0.611328 126.125 0.611328C126.621 0.611328 127.287 0.680827 128.121 0.819824C129.173 0.998535 130.126 1.08789 130.98 1.08789C131.834 1.08789 132.668 1.00846 133.482 0.849609C134.296 0.690755 135.249 0.611328 136.341 0.611328C137.433 0.611328 137.979 0.978678 137.979 1.71338C137.979 2.28923 137.622 2.57715 136.907 2.57715L135.448 2.45801C134.236 2.45801 133.432 3.12321 133.035 4.45361C132.698 5.50602 132.529 7.53141 132.529 10.5298V40.6128C132.529 41.2879 132.469 41.7347 132.35 41.9531C132.231 42.1715 132.042 42.2808 131.784 42.2808C131.427 42.2808 130.861 41.8638 130.086 41.0298L102.625 9.21924V31.5581C102.625 34.5565 102.754 36.4925 103.012 37.3662C103.29 38.2201 103.617 38.8158 103.995 39.1533C104.392 39.471 104.908 39.6299 105.543 39.6299L106.973 39.481C107.688 39.481 108.045 39.7689 108.045 40.3447C108.045 41.0794 107.47 41.4468 106.318 41.4468C105.186 41.4468 104.173 41.3674 103.28 41.2085C102.406 41.0695 101.552 41 100.718 41C99.8843 41 99.0602 41.0695 98.2461 41.2085C97.4518 41.3674 96.7767 41.4468 96.2207 41.4468ZM170.267 2.57715L168.837 2.45801C167.626 2.45801 166.802 3.12321 166.365 4.45361C165.987 5.62516 165.799 7.65055 165.799 10.5298V25.2437C165.799 28.0037 165.997 29.9894 166.395 31.2007C166.792 32.3921 167.348 33.4842 168.062 34.4771C168.797 35.4699 169.651 36.3138 170.624 37.0088C172.59 38.3988 174.804 39.0938 177.266 39.0938C179.748 39.0938 181.793 38.8058 183.402 38.23C185.01 37.6343 186.291 36.7507 187.244 35.5791C189.011 33.4346 189.895 29.9398 189.895 25.0947L189.835 10.5298C189.835 7.61084 189.696 5.70459 189.418 4.81104C189.14 3.89762 188.803 3.28206 188.406 2.96436C188.028 2.62679 187.532 2.45801 186.917 2.45801L185.457 2.57715C184.742 2.57715 184.385 2.28923 184.385 1.71338C184.385 0.978678 184.931 0.611328 186.023 0.611328C187.115 0.611328 188.068 0.690755 188.882 0.849609C189.696 1.00846 190.55 1.08789 191.444 1.08789L196.358 0.611328C197.629 0.611328 198.265 0.978678 198.265 1.71338C198.265 2.28923 197.907 2.57715 197.192 2.57715L195.763 2.45801C194.551 2.45801 193.747 3.12321 193.35 4.45361C193.013 5.60531 192.844 7.6307 192.844 10.5298L192.784 26.6138C192.784 31.0418 191.374 34.6657 188.555 37.4854C185.715 40.3249 181.932 41.7446 177.207 41.7446C172.064 41.7446 168.003 40.3249 165.024 37.4854C161.986 34.5465 160.467 30.466 160.467 25.2437V10.5298C160.467 7.65055 160.318 5.75423 160.021 4.84082C159.723 3.90755 159.375 3.28206 158.978 2.96436C158.581 2.62679 158.065 2.45801 157.429 2.45801L155.97 2.57715C155.255 2.57715 154.897 2.28923 154.897 1.71338C154.897 0.978678 155.444 0.611328 156.536 0.611328C157.648 0.611328 158.73 0.690755 159.782 0.849609C160.835 1.00846 161.937 1.08789 163.088 1.08789C164.26 1.08789 165.382 1.00846 166.454 0.849609C167.546 0.690755 168.628 0.611328 169.701 0.611328C170.793 0.611328 171.339 0.978678 171.339 1.71338C171.339 2.28923 170.981 2.57715 170.267 2.57715ZM203 41.4468C201.71 41.4468 201.064 41.0794 201.064 40.3447C201.064 39.7689 201.422 39.481 202.137 39.481L203.596 39.6299C204.788 39.6299 205.592 38.9647 206.009 37.6343C206.346 36.5024 206.515 34.4771 206.515 31.5581V10.5298C206.515 7.61084 206.376 5.70459 206.098 4.81104C205.82 3.89762 205.483 3.28206 205.085 2.96436C204.708 2.62679 204.212 2.45801 203.596 2.45801L202.137 2.57715C201.422 2.57715 201.064 2.28923 201.064 1.71338C201.064 0.978678 201.611 0.611328 202.703 0.611328C203.795 0.611328 204.827 0.690755 205.8 0.849609C206.793 1.00846 207.885 1.08789 209.077 1.08789C210.288 1.08789 211.35 1.00846 212.264 0.849609C213.197 0.690755 214.011 0.611328 214.706 0.611328C218.955 0.611328 222.391 1.90202 225.012 4.4834C227.395 6.84635 228.586 9.6958 228.586 13.0317C228.586 16.1095 227.395 18.7902 225.012 21.0737C222.669 23.2977 219.988 24.4097 216.97 24.4097C214.646 24.4097 213.058 23.953 212.204 23.0396C211.946 22.7616 211.817 22.4637 211.817 22.146C211.817 21.8084 211.906 21.5602 212.085 21.4014C212.284 21.2227 212.522 21.1333 212.8 21.1333C213.078 21.1333 213.465 21.3219 213.961 21.6992C214.736 22.2552 215.699 22.5332 216.851 22.5332C218.002 22.5332 218.975 22.3148 219.77 21.8779C220.584 21.4212 221.269 20.7858 221.825 19.9717C222.976 18.2839 223.552 16.0103 223.552 13.1509C223.552 9.93408 222.659 7.37256 220.872 5.46631C219.144 3.61963 216.9 2.69629 214.14 2.69629C213.127 2.69629 212.383 2.83529 211.906 3.11328C211.43 3.39128 211.191 3.86784 211.191 4.54297V31.5581C211.191 34.5565 211.32 36.4925 211.579 37.3662C211.857 38.2201 212.184 38.8158 212.562 39.1533C212.959 39.471 213.475 39.6299 214.11 39.6299L215.54 39.481C216.255 39.481 216.612 39.7689 216.612 40.3447C216.612 41.0794 215.977 41.4468 214.706 41.4468C214.051 41.4468 213.356 41.3872 212.621 41.2681C210.238 40.8908 208.193 40.8213 206.485 41.0596C204.798 41.3177 203.636 41.4468 203 41.4468Z" fill="black"/>
</svg>
