<svg width="31" height="29" viewBox="0 0 31 29" fill="none" xmlns="http://www.w3.org/2000/svg">
<path d="M18.6497 7.33499C18.1399 7.51058 17.8177 8.02034 17.8645 8.57542C17.8997 8.9719 18.1106 9.28909 18.4798 9.49866L18.761 9.65726L20.6712 9.68558L22.5813 9.7139L20.2434 12.376C18.9544 13.8373 17.8411 15.1117 17.7649 15.2024L17.6302 15.3666L14.9114 13.809C13.4231 12.9481 12.1341 12.2174 12.0579 12.1778C11.9759 12.1381 11.7766 12.1041 11.6067 12.0985C10.9739 12.0928 11.1087 11.9625 7.57547 16.0576C5.80008 18.1137 4.28836 19.9092 4.21805 20.0451C3.97782 20.4926 4.07743 21.008 4.46415 21.3875C4.88602 21.7953 5.50711 21.852 6.00516 21.5348C6.15751 21.4385 7.28251 20.1811 9.03446 18.1364C10.5696 16.3578 11.847 14.8965 11.8763 14.8965C11.8997 14.8965 13.1536 15.6102 14.6595 16.4824C16.1712 17.3604 17.4837 18.0797 17.595 18.1024C17.8528 18.1477 18.1341 18.108 18.4095 17.9778C18.5677 17.9098 19.3587 17.0489 21.3274 14.8285L24.0345 11.7699L24.0638 13.2936C24.0931 14.7832 24.0931 14.8172 24.2395 15.0664C24.6614 15.7858 25.6809 15.9047 26.2552 15.293C26.3665 15.1741 26.4837 14.9758 26.5188 14.8569C26.5598 14.7153 26.5833 13.5088 26.5833 11.3905V8.13929L26.4368 7.89007C26.2786 7.63519 25.9446 7.41995 25.6927 7.41995C25.6165 7.41995 25.5052 7.3803 25.4466 7.33499C25.2825 7.21605 19.0013 7.21605 18.6497 7.33499Z" fill="black"/>
</svg>
