<svg width="256" height="50" viewBox="0 0 256 50" fill="none" xmlns="http://www.w3.org/2000/svg">
<g clip-path="url(#clip0)">
<path d="M21.9151 14.9948C21.2003 15.1766 1.10124 23.3305 0.886788 23.5219C0.660421 23.7229 0.648507 23.8856 0.612765 26.0963C0.588937 28.2975 0.600851 28.4698 0.815304 28.7569C1.08933 29.1014 1.62546 29.2641 2.53093 29.2641H3.09089V29.7139C3.09089 30.8815 3.54362 31.2739 4.91374 31.2739H5.71198V31.8959C5.71198 32.9869 6.09323 33.2836 7.43952 33.2836H8.21394V33.9248C8.21394 34.7479 8.47605 35.1403 9.13132 35.2838C9.75085 35.4274 21.927 35.4274 22.5466 35.2838C23.2018 35.1403 23.4639 34.7479 23.4639 33.9248V33.2836H24.2383C25.5846 33.2836 25.9659 32.9869 25.9659 31.8959V31.2739H26.776C27.7887 31.2739 28.2772 31.0633 28.4559 30.5369C28.5274 30.3264 28.587 29.1301 28.587 27.6563V25.1489H31.0889H33.5909V27.6563C33.5909 29.1301 33.6505 30.3264 33.7219 30.5369C33.9007 31.0633 34.3891 31.2739 35.4137 31.2739H36.212V31.8959C36.212 32.9869 36.5932 33.2836 37.9395 33.2836H38.7139V33.9248C38.7139 34.7479 38.976 35.1403 39.6313 35.2838C40.2509 35.4274 52.427 35.4274 53.0466 35.2838C53.7018 35.1403 53.9639 34.7479 53.9639 33.9248V33.2836H54.7383C56.0846 33.2836 56.4659 32.9869 56.4659 31.8959V31.2739H57.276C58.6342 31.2739 59.087 30.8815 59.087 29.7139V29.2641H59.6589C60.5524 29.2641 61.0885 29.1014 61.3626 28.7569C61.577 28.4698 61.5889 28.2975 61.5651 26.0963C61.5294 23.8856 61.5175 23.7229 61.2911 23.5219C61.16 23.4071 56.3944 21.426 50.6876 19.1291L40.3223 14.9565H37.3796H34.4249L34.0436 15.2723L33.6505 15.5785L33.6147 16.7078C33.5551 18.0955 33.6981 18.5741 34.2223 18.8324C34.6989 19.0717 35.0921 19.0717 35.5805 18.8324C36.0094 18.6219 36.212 18.1912 36.212 17.4639V17.0141H37.9991H39.7862L47.3278 20.0479L54.8575 23.0912L42.9673 23.1199C36.4384 23.1295 25.7395 23.1295 19.1987 23.1199L7.32038 23.0912L14.8501 20.0479L22.3917 17.0141H24.1788H25.9659V17.4639C25.9659 18.1912 26.1684 18.6219 26.5973 18.8324C27.0858 19.0717 27.479 19.0717 27.9555 18.8324C28.4798 18.5741 28.6227 18.0955 28.5632 16.7078C28.5274 15.5785 28.5274 15.5785 28.1342 15.2723L27.753 14.9565L24.977 14.9373C23.4639 14.9278 22.0819 14.9565 21.9151 14.9948ZM10.7159 27.2065V28.2114H12.0264H13.337V29.2162V30.2211H14.588H15.8389V31.2739V32.3266H14.588H13.3489L13.3132 31.293L13.2774 30.269L12.0026 30.2403L10.7159 30.2115V29.2162V28.2114H9.46491H8.21394V27.2065V26.2016H9.46491H10.7159V27.2065ZM41.2159 27.2065V28.2114H42.5264H43.837V29.2162V30.2211H45.088H46.3389V31.2739V32.3266H45.088H43.8489L43.8132 31.293L43.7774 30.269L42.5026 30.2403L41.2159 30.2115V29.2162V28.2114H39.9649H38.7139V27.2065V26.2016H39.9649H41.2159V27.2065Z" fill="black"/>
</g>
<path d="M90.6011 21.6307H83.6323V40.5839H78.9448V21.6307H72.0698V17.8339H90.6011V21.6307ZM111.804 40.5839H107.117V30.8339H97.9761V40.5839H93.2886V17.8339H97.9761V27.0526H107.117V17.8339H111.804V40.5839ZM129.601 30.7245H120.601V36.8182H131.164V40.5839H115.914V17.8339H131.132V21.6307H120.601V27.0526H129.601V30.7245ZM160.382 40.5839H155.695L146.57 25.6151V40.5839H141.882V17.8339H146.57L155.71 32.8339V17.8339H160.382V40.5839ZM178.164 30.7245H169.164V36.8182H179.726V40.5839H164.476V17.8339H179.695V21.6307H169.164V27.0526H178.164V30.7245ZM190.898 32.2557H187.164V40.5839H182.476V17.8339H190.929C193.617 17.8339 195.69 18.4328 197.148 19.6307C198.606 20.8287 199.335 22.5214 199.335 24.7089C199.335 26.2609 198.997 27.5578 198.32 28.5995C197.653 29.6307 196.638 30.4537 195.273 31.0682L200.195 40.3651V40.5839H195.164L190.898 32.2557ZM187.164 28.4589H190.945C192.122 28.4589 193.033 28.162 193.679 27.5682C194.325 26.9641 194.648 26.1359 194.648 25.0839C194.648 24.0109 194.341 23.1672 193.726 22.5526C193.122 21.938 192.19 21.6307 190.929 21.6307H187.164V28.4589ZM202.914 40.5839V17.8339H209.914C211.914 17.8339 213.7 18.287 215.273 19.1932C216.856 20.0891 218.091 21.3703 218.976 23.037C219.861 24.6932 220.304 26.5787 220.304 28.6932V29.7401C220.304 31.8547 219.867 33.7349 218.992 35.3807C218.127 37.0266 216.903 38.3026 215.32 39.2089C213.736 40.1151 211.95 40.5734 209.96 40.5839H202.914ZM207.601 21.6307V36.8182H209.867C211.7 36.8182 213.101 36.2193 214.07 35.0214C215.039 33.8234 215.533 32.1099 215.554 29.8807V28.6776C215.554 26.3651 215.075 24.6151 214.117 23.4276C213.158 22.2297 211.757 21.6307 209.914 21.6307H207.601Z" fill="black"/>
<defs>
<clipPath id="clip0">
<rect width="61" height="49" fill="white" transform="translate(0.588379 0.648865)"/>
</clipPath>
</defs>
</svg>
