<svg width="30" height="31" viewBox="0 0 30 31" fill="none" xmlns="http://www.w3.org/2000/svg">
<path d="M13.7113 3.16897C10.934 3.45022 8.18009 4.76272 6.18204 6.76662C0.598058 12.3506 1.55314 21.667 8.15665 26.0205C11.0688 27.9365 14.7602 28.5401 18.1352 27.6612C22.5238 26.5127 25.9281 23.1084 27.0766 18.7198C28.1899 14.46 26.9418 9.88967 23.8188 6.76662C21.1762 4.11819 17.4496 2.79397 13.7113 3.16897ZM21.9848 9.36819L22.1781 9.53811V12.8721V16.2002L21.4926 16.2178L20.8012 16.2354V13.417V10.6045H15.0004H9.19962V14.4717V18.3448L9.5336 18.3272L9.86759 18.3096L11.1918 16.2471C11.9184 15.1104 12.5219 14.1846 12.5395 14.1846C12.557 14.1846 13.1606 15.1104 13.8871 16.2471L15.2055 18.3096L15.5805 18.3272C15.8852 18.3389 15.9496 18.3272 15.9203 18.2569C15.9027 18.21 15.6215 17.7588 15.2992 17.2549L14.7074 16.3408L15.0649 15.7725C15.2641 15.4619 15.4574 15.1748 15.4926 15.1338C15.5395 15.0869 15.8149 15.4737 16.6 16.7041L17.6488 18.3389H18.0531H18.4574L18.4692 19.7862L18.4867 21.2393L19.4711 21.2569L20.4496 21.2686V21.6201V21.9717H14.3266H8.20353L8.01603 21.8018L7.82267 21.6319V15.585V9.53811L8.01603 9.36819L8.20353 9.19827H15.0004H21.7973L21.9848 9.36819ZM19.1781 12.1397C19.8227 12.5733 19.934 13.417 19.4359 13.9854C18.9555 14.5303 18.1703 14.5537 17.6606 14.0381C17.0453 13.4229 17.2211 12.4385 18.018 12.0576C18.3578 11.8994 18.8793 11.9346 19.1781 12.1397ZM22.6762 18.0459V19.042H23.643H24.6098V19.7158V20.3897H23.643H22.6762V21.3565V22.3233H21.9731H21.2699V21.3565V20.3897H20.3031H19.3363V19.7158V19.042H20.3031H21.2699V18.0869C21.2699 17.5596 21.2875 17.1084 21.3109 17.0908C21.3285 17.0674 21.6449 17.0498 22.0141 17.0498H22.6762V18.0459Z" fill="black"/>
</svg>
