<?xml version="1.0" standalone="no"?>
<!DOCTYPE svg PUBLIC "-//W3C//DTD SVG 20010904//EN"
 "http://www.w3.org/TR/2001/REC-SVG-20010904/DTD/svg10.dtd">
<svg version="1.0" xmlns="http://www.w3.org/2000/svg"
 width="475.000000pt" height="475.000000pt" viewBox="0 0 475.000000 475.000000"
 preserveAspectRatio="xMidYMid meet">

<g transform="translate(0.000000,475.000000) scale(0.100000,-0.100000)"
fill="#000000" stroke="none">
<path d="M2520 4574 c-65 -24 -125 -68 -172 -127 -77 -97 -120 -214 -184 -504
-39 -177 -60 -223 -144 -318 -35 -38 -149 -178 -255 -310 -106 -132 -223 -269
-259 -305 l-67 -65 -407 -5 -407 -5 -45 -27 c-65 -38 -119 -95 -149 -158 l-26
-55 -3 -879 c-2 -784 -1 -885 14 -934 20 -70 64 -134 117 -173 90 -65 71 -63
557 -69 506 -7 413 7 802 -123 282 -95 481 -150 642 -177 116 -19 156 -21 503
-18 l378 3 91 32 c130 45 223 104 309 195 114 121 164 240 186 442 9 81 16
105 40 141 80 118 111 228 115 403 1 73 7 139 13 145 5 7 24 55 41 107 37 110
49 240 31 342 l-11 65 40 79 c62 122 83 223 78 363 -4 92 -10 132 -31 191 -64
180 -225 341 -408 408 -73 27 -78 27 -366 30 -179 2 -293 7 -293 13 0 5 11 36
25 69 97 230 117 506 54 748 -79 305 -307 474 -654 488 -85 3 -120 1 -155 -12z
m-1553 -3295 c53 -25 93 -88 93 -144 0 -56 -40 -119 -93 -144 -71 -34 -126
-25 -185 32 -61 59 -65 150 -8 215 56 63 119 77 193 41z"/>
</g>
</svg>
