<svg width="45" height="45" viewBox="0 0 45 45" fill="none" xmlns="http://www.w3.org/2000/svg">
<g clip-path="url(#clip0)">
<path d="M22.8672 44.085C35.0175 44.085 44.8672 34.2352 44.8672 22.085C44.8672 9.9347 35.0175 0.0849609 22.8672 0.0849609C10.7169 0.0849609 0.867188 9.9347 0.867188 22.085C0.867188 34.2352 10.7169 44.085 22.8672 44.085Z" fill="#FFC200"/>
<path fill-rule="evenodd" clip-rule="evenodd" d="M38.3076 37.7542C34.1558 41.8465 28.5493 44.1233 22.7198 44.0845C16.8903 44.0456 11.3147 41.6943 7.21777 37.547C7.74172 36.098 8.75937 34.88 10.092 34.1067C10.9902 33.4426 11.9641 32.8877 12.9933 32.4535C11.4284 27.0759 15.6825 24.4324 17.31 23.6713C17.31 26.1539 19.6346 24.5064 22.5196 24.5377C24.8947 24.5641 29.5916 26.9549 29.5916 23.8008C32.2046 24.5741 35.0525 29.5536 33.0924 32.613C33.8961 33.0059 34.6553 33.4838 35.3572 34.0384C36.7294 34.9115 37.7685 36.2204 38.3076 37.7549V37.7542Z" fill="#677079"/>
<path fill-rule="evenodd" clip-rule="evenodd" d="M17.9775 27.6243L28.6001 27.6883V30.1354L28.5952 30.1731C28.5878 30.284 28.5711 30.394 28.5453 30.5021L28.5097 30.7449L28.4884 30.7954C27.8006 34.408 24.7911 35.8042 22.9328 36.7767C20.9749 35.7102 18.2067 33.7886 17.9867 30.3889L17.9775 30.3469V30.2045C17.9759 30.1554 17.975 30.1062 17.9746 30.0571C17.9746 30.0827 17.9767 30.1069 17.9775 30.1326V27.6243Z" fill="#F9DCA4"/>
<path opacity="0.11" fill-rule="evenodd" clip-rule="evenodd" d="M28.601 27.5793V30.4308C28.599 30.6951 28.5764 30.9589 28.5334 31.2197C28.4795 31.5425 28.3887 31.8581 28.2629 32.1602C24.572 34.9476 18.6911 32.6614 17.752 27.9004L28.601 27.5793Z" fill="black"/>
<path fill-rule="evenodd" clip-rule="evenodd" d="M13.7565 18.0516C10.2394 18.9558 13.2297 23.2419 15.4418 23.2234C14.5497 21.6252 13.9773 19.8686 13.7565 18.0516Z" fill="#F9DCA4"/>
<path fill-rule="evenodd" clip-rule="evenodd" d="M32.0785 18.0516C35.5957 18.9558 32.6054 23.2419 30.3926 23.2227C31.2849 21.6248 31.8576 19.8684 32.0785 18.0516Z" fill="#F9DCA4"/>
<path fill-rule="evenodd" clip-rule="evenodd" d="M22.7486 8.17371C37.3605 8.17371 31.6661 31.2745 22.7486 31.2745C14.3259 31.2745 8.13672 8.17371 22.7486 8.17371Z" fill="#FFE8BE"/>
<path fill-rule="evenodd" clip-rule="evenodd" d="M15.8524 15.8232C15.9771 15.9599 16.0695 16.1227 16.1229 16.2998C16.1764 16.4769 16.1894 16.6637 16.1611 16.8464C16.1329 17.0292 16.064 17.2033 15.9595 17.356C15.8551 17.5086 15.7178 17.6359 15.5576 17.7285C14.5253 18.5779 14.4875 21.5397 14.4875 21.5397C14.0888 21.1438 14.0981 19.0236 13.2338 17.7983C12.3694 16.573 11.787 7.99934 16.6206 4.88159C16.3236 5.23096 16.1095 5.64305 15.9945 6.08696C15.8794 6.53086 15.8664 6.99505 15.9564 7.44471C15.9564 7.44471 19.314 2.62961 24.8845 2.76845C24.4429 3.00925 24.057 3.3404 23.7519 3.74031C23.4468 4.14023 23.2294 4.59994 23.1138 5.08949C23.1138 5.08949 27.9838 3.08029 32.042 5.4704C30.9869 5.76203 29.989 6.23077 29.0909 6.85662C31.0616 6.91073 32.9662 7.27668 34.4022 8.55397C34.0932 8.65319 33.8071 8.81335 33.561 9.02498C33.3149 9.23661 33.1137 9.49542 32.9692 9.78612C32.8248 10.0768 32.7401 10.3935 32.7202 10.7175C32.7002 11.0415 32.7453 11.3662 32.853 11.6724C33.4624 14.1665 33.5194 16.4868 32.9292 17.7342C32.3389 18.9816 32.0605 18.1763 31.691 20.7921C31.6729 20.9688 31.614 21.1389 31.5188 21.2889C31.4237 21.4389 31.2949 21.5648 31.1428 21.6565C31.1286 21.8459 31.4148 18.9823 30.6765 18.2198C29.9389 17.4579 30.4023 16.5217 30.6971 15.9678C32.7547 12.1039 26.5926 10.3531 23.2242 10.3574C20.303 10.361 13.2565 11.6888 15.8524 15.8232Z" fill="#8A5C42"/>
<path fill-rule="evenodd" clip-rule="evenodd" d="M14.957 35.0871C14.9784 35.1142 22.3744 44.6867 31.0691 34.9447C30.0189 37.8296 25.4893 40.1208 22.8984 40.1137C17.9502 40.0994 15.2119 36.1266 14.957 35.0871Z" fill="#434955"/>
<path fill-rule="evenodd" clip-rule="evenodd" d="M26.7376 43.7455C26.4456 43.7968 26.1523 43.8416 25.8568 43.8822V37.5193C25.8677 37.4127 25.9198 37.3146 26.002 37.2459C26.0842 37.1773 26.1901 37.1435 26.2968 37.1519C26.4038 37.1433 26.5098 37.177 26.5921 37.2457C26.6745 37.3143 26.7267 37.4126 26.7376 37.5193V43.7455ZM19.746 43.8637C19.4507 43.8214 19.1571 43.774 18.8652 43.7213V37.5193C18.8761 37.4127 18.9282 37.3146 19.0104 37.2459C19.0926 37.1773 19.1984 37.1435 19.3052 37.1519C19.4123 37.1431 19.5185 37.1767 19.601 37.2454C19.6835 37.3141 19.7358 37.4124 19.7467 37.5193L19.746 43.8637Z" fill="#E6E6E6"/>
</g>
<defs>
<clipPath id="clip0">
<rect width="44" height="44" fill="white" transform="translate(0.867188 0.0849609)"/>
</clipPath>
</defs>
</svg>
