<svg width="44" height="44" viewBox="0 0 44 44" fill="none" xmlns="http://www.w3.org/2000/svg">
<path fill-rule="evenodd" clip-rule="evenodd" d="M22.0263 39.4971C23.9971 39.4971 25.6096 37.8846 25.6096 35.9138H18.4429C18.4429 37.8846 20.0375 39.4971 22.0263 39.4971ZM32.7763 28.7471V19.7888C32.7763 14.2884 29.838 9.6838 24.7138 8.46546V7.24713C24.7138 5.76005 23.5134 4.55963 22.0263 4.55963C20.5392 4.55963 19.3388 5.76005 19.3388 7.24713V8.46546C14.1967 9.6838 11.2763 14.2705 11.2763 19.7888V28.7471L8.96503 31.0584C7.83628 32.1871 8.62461 34.1221 10.2192 34.1221H33.8155C35.41 34.1221 36.2163 32.1871 35.0875 31.0584L32.7763 28.7471Z" fill="#1D1D1D"/>
</svg>
