<svg width="524" height="364" viewBox="0 0 524 364" fill="none" xmlns="http://www.w3.org/2000/svg">
<path d="M49.7578 53.0776C49.7578 53.0776 47.1562 53.0415 41.9531 52.9692L40.7607 119.797C41.375 119.725 41.9893 119.688 42.6035 119.688C43.7598 119.688 44.7896 119.688 45.6929 119.688C46.5962 119.688 47.355 119.725 47.9692 119.797L49.7578 53.0776ZM18.6475 45.8691C26.1631 46.8809 35.9912 47.3867 48.1318 47.3867C60.2725 47.3867 68.583 47.2061 73.0635 46.8447H73.2803C73.9307 46.8447 74.5269 47.0796 75.0688 47.5493C75.6108 47.9829 75.8999 48.3804 75.936 48.7417C76.0083 49.0669 76.0986 49.5186 76.207 50.0967C76.3154 50.6748 76.46 51.4517 76.6406 52.4272C76.8213 53.4028 77.0381 54.5229 77.291 55.7876C77.5801 57.0522 77.8872 58.3711 78.2124 59.7441C79.0435 63.1406 79.8022 65.7964 80.4888 67.7114L80.5972 68.6328C80.5972 69.3916 80.29 70.0601 79.6758 70.6382C79.0977 71.2163 78.4834 71.5054 77.833 71.5054C76.46 71.5054 75.5386 70.8369 75.0688 69.5C73.1899 64.0439 71.8169 58.4614 70.9497 52.7524C66.8306 52.9692 61.6455 53.0776 55.3945 53.0776L53.606 120.014C59.8569 120.23 63.2715 120.682 63.8496 121.369C64.4277 122.019 64.7168 122.76 64.7168 123.591C64.7168 124.386 64.4097 125.036 63.7954 125.542C63.2173 126.084 62.603 126.355 61.9526 126.355H61.6274C56.6411 125.741 50.896 125.434 44.3921 125.434C37.8882 125.434 32.2695 125.741 27.5361 126.355H27.2109C26.416 126.355 25.7295 126.048 25.1514 125.434C24.6094 124.819 24.3384 124.151 24.3384 123.428C24.3384 122.706 24.5732 122.073 25.043 121.531C25.8018 120.772 29.144 120.267 35.0698 120.014L36.3164 52.7524C30.6074 52.5356 25.314 52.2285 20.436 51.8311C20.2192 52.8066 19.9482 53.999 19.623 55.4082C19.334 56.8174 19.0088 58.3169 18.6475 59.9067C17.4912 64.604 16.7505 67.5127 16.4253 68.6328C15.8472 70.5479 14.8896 71.5054 13.5527 71.5054C12.7217 71.5054 12.0352 71.2163 11.4932 70.6382C10.9512 70.0239 10.6802 69.5 10.6802 69.0664V68.1992C10.6802 68.0547 10.8247 67.4766 11.1138 66.4648C11.439 65.4531 11.8726 63.8091 12.4146 61.5327C12.9565 59.2563 13.4443 57.1245 13.8779 55.1372C14.9258 50.6206 15.4497 48.272 15.4497 48.0913C15.8472 46.6099 16.7686 45.8691 18.2139 45.8691H18.6475ZM111.816 52.3188C111.816 52.3188 110.497 52.3188 107.859 52.3188C106.595 52.3188 105.276 52.2827 103.903 52.2104L102.71 119.905H109.919L111.816 52.3188ZM170.514 45.0562C171.959 45.0562 172.88 45.7969 173.278 47.2783C173.278 49.1572 172.537 50.3135 171.056 50.7471C167.298 51.5059 163.54 52.0298 159.782 52.3188C157.759 70.5298 156.747 91.3965 156.747 114.919V120.23C160.18 120.23 163.811 120.411 167.641 120.772C169.339 121.134 170.188 122.182 170.188 123.916C170.116 124.675 169.791 125.289 169.213 125.759C168.671 126.229 168.039 126.463 167.316 126.463H167.099C162.583 126.066 158.59 125.867 155.121 125.867C151.544 125.867 147.732 126.066 143.685 126.463H143.306C142.475 126.463 141.788 126.174 141.246 125.596C140.704 125.018 140.433 124.368 140.433 123.645C140.433 122.922 140.668 122.29 141.138 121.748C141.644 121.206 142.42 120.881 143.468 120.772C145.311 120.592 147.858 120.411 151.11 120.23V114.919C151.11 107.006 151.219 99.5986 151.436 92.6973C146.232 93.2031 140.307 93.4561 133.658 93.4561C127.01 93.4561 121.247 93.2031 116.369 92.6973L115.718 120.122C117.778 120.267 120.614 120.483 124.228 120.772C124.95 120.881 125.546 121.206 126.016 121.748C126.522 122.29 126.775 122.958 126.775 123.753C126.775 124.512 126.468 125.145 125.854 125.65C125.239 126.192 124.589 126.463 123.902 126.463H123.686C112.159 125.307 100.759 125.307 89.4858 126.463H89.269C88.438 126.463 87.7515 126.174 87.2095 125.596C86.6675 125.018 86.3965 124.368 86.3965 123.645C86.3965 122.922 86.6313 122.29 87.1011 121.748C87.6069 121.206 88.3657 120.881 89.3774 120.772C90.4253 120.664 91.6177 120.556 92.9546 120.447C94.3276 120.339 95.6826 120.23 97.0195 120.122L98.2661 51.7227C95.1587 51.5059 92.0151 51.1807 88.8354 50.7471C88.1128 50.6387 87.5166 50.3135 87.0469 49.7715C86.6133 49.2295 86.3965 48.561 86.3965 47.7661C86.3965 46.9712 86.7217 46.3208 87.3721 45.8149C88.0225 45.3091 88.6548 45.0562 89.269 45.0562H89.5942C96.5317 46.104 103.289 46.6279 109.865 46.6279C116.441 46.6279 121.536 46.4473 125.149 46.0859H125.366C126.088 46.0859 126.721 46.3389 127.263 46.8447C127.841 47.3145 128.148 47.9648 128.184 48.7959C128.22 49.5908 127.967 50.2593 127.425 50.8013C126.919 51.3433 126.143 51.6504 125.095 51.7227C121.879 52.0117 119.332 52.2104 117.453 52.3188L116.585 86.9521C121.355 87.5303 126.143 87.8193 130.948 87.8193C139.512 87.8193 146.413 87.5664 151.652 87.0605C152.086 74.5586 152.899 63.0503 154.091 52.5356C150.442 52.355 147.967 52.1382 146.666 51.8853C144.426 51.5239 143.306 50.5483 143.306 48.9585C143.306 48.0552 143.613 47.3506 144.227 46.8447C144.877 46.3389 145.51 46.0859 146.124 46.0859H146.558C149.087 46.5918 152.339 46.8447 156.313 46.8447C160.288 46.8447 164.805 46.2485 169.863 45.0562H170.514ZM203.142 53.5112C200.612 53.6558 198.029 53.728 195.391 53.728V119.58C196.656 119.508 197.938 119.472 199.239 119.472C200.576 119.472 201.877 119.436 203.142 119.363V53.5112ZM210.35 119.363C220.07 119.363 228.778 119.616 236.474 120.122L238.425 105.597C238.57 104.874 238.895 104.296 239.401 103.862C239.943 103.393 240.593 103.158 241.352 103.158C242.147 103.158 242.797 103.465 243.303 104.079C243.845 104.693 244.116 105.308 244.116 105.922V106.355L241.786 123.537C241.677 124.259 241.352 124.837 240.81 125.271C240.268 125.741 239.636 125.976 238.913 125.976H238.805C229.085 125.325 219.564 125 210.242 125C200.919 125 191.904 125.325 183.196 125.976H182.925C182.094 125.903 181.408 125.614 180.866 125.108C180.324 124.603 180.053 123.97 180.053 123.211C180.053 122.417 180.306 121.766 180.812 121.26C181.317 120.718 182.04 120.411 182.979 120.339C183.955 120.23 185.021 120.158 186.177 120.122C187.37 120.05 188.544 119.978 189.7 119.905V53.8364C188.544 53.7642 187.388 53.728 186.231 53.728H182.817C182.058 53.6558 181.408 53.3667 180.866 52.8608C180.324 52.3188 180.053 51.6504 180.053 50.8555C180.053 50.0605 180.342 49.3921 180.92 48.8501C181.498 48.272 182.311 48.001 183.359 48.0371C184.443 48.0732 185.617 48.0913 186.882 48.0913H190.73C206.014 48.0913 221.172 47.0796 236.203 45.0562H236.691C237.414 45.0562 238.028 45.3091 238.534 45.8149C239.04 46.2847 239.347 46.8447 239.455 47.4951L241.786 65.8145V66.1938C241.786 67.0249 241.479 67.6934 240.864 68.1992C240.286 68.7051 239.636 68.958 238.913 68.958C238.227 68.958 237.612 68.7412 237.07 68.3076C236.564 67.8379 236.239 67.2417 236.095 66.519L234.144 51.0723C226.989 52.0479 218.552 52.7886 208.833 53.2944V89.0117C216.601 88.6865 222.671 88.1084 227.043 87.2773H227.585C228.344 87.2773 229.013 87.5664 229.591 88.1445C230.169 88.6865 230.458 89.3188 230.458 90.0415C230.458 91.5591 229.681 92.5166 228.127 92.9141C223.864 93.7451 217.432 94.3413 208.833 94.7026V119.363H210.35Z" fill="black"/>
<path d="M41.0142 192.146C41.0142 192.146 39.1963 192.146 35.5605 192.146C33.8174 192.146 31.9995 192.096 30.1069 191.996L28.4634 285.38H38.3994L41.0142 192.146ZM86.2866 182.957C88.7271 183.305 91.5908 183.479 94.8779 183.479C101.353 183.479 107.827 182.608 114.302 180.865C114.501 180.765 114.999 180.715 115.796 180.715C116.593 180.715 117.34 181.114 118.037 181.911C118.784 182.658 119.158 183.479 119.158 184.376C119.158 186.468 118.286 187.763 116.543 188.261C112.758 189.307 109.296 190.054 106.159 190.502C108.5 204.746 109.67 218.268 109.67 231.068C109.67 249.794 108.35 269.766 105.71 290.983C105.113 293.224 103.868 294.345 101.975 294.345C100.132 294.345 98.8872 293.548 98.2397 291.954C94.3052 282.441 88.5776 270.837 81.0571 257.141C73.5366 243.395 68.1826 233.658 64.9951 227.93C59.4668 218.168 54.0132 208.556 48.6343 199.093L46.3931 285.679C49.2319 285.878 53.1416 286.177 58.1221 286.575C59.1182 286.725 59.9399 287.173 60.5874 287.92C61.2847 288.667 61.6333 289.588 61.6333 290.684C61.6333 291.73 61.21 292.602 60.3633 293.299C59.5166 293.996 58.6201 294.345 57.6738 294.345H57.375C41.4873 292.751 25.7739 292.751 10.2349 294.345H9.93604C8.84033 294.345 7.89404 293.946 7.09717 293.149C6.3501 292.402 5.97656 291.531 5.97656 290.535C5.97656 289.539 6.30029 288.667 6.94775 287.92C7.64502 287.173 8.69092 286.725 10.0854 286.575C11.5298 286.426 13.1733 286.276 15.0161 286.127C16.9087 285.978 18.7764 285.828 20.6191 285.679L22.3374 191.398C18.0542 191.1 13.7212 190.651 9.33838 190.054C8.34229 189.904 7.52051 189.456 6.87305 188.709C6.27539 187.912 5.97656 186.966 5.97656 185.87C5.97656 184.774 6.4248 183.903 7.32129 183.255C8.21777 182.558 9.08936 182.209 9.93604 182.209H10.3843C21.4409 183.654 31.7505 184.376 41.313 184.376H46.8413C48.2856 184.376 49.2568 184.774 49.7549 185.571C50.2529 186.318 51.0498 187.638 52.1455 189.531C53.2412 191.423 54.6606 193.889 56.4038 196.927C58.147 199.965 60.1392 203.476 62.3804 207.46C64.6714 211.445 67.0869 215.703 69.627 220.235C72.2168 224.768 74.8564 229.474 77.5459 234.355C80.2354 239.236 82.875 244.092 85.4648 248.923C91.6904 260.478 96.397 269.517 99.5845 276.042C101.128 260.502 101.9 246.98 101.9 235.476C101.9 220.484 100.73 205.692 98.3892 191.1C97.7417 191.199 97.1191 191.249 96.5215 191.249H94.5791C87.8057 191.249 83.9956 190.776 83.1489 189.83C82.3022 188.833 81.8789 187.812 81.8789 186.767C81.8789 185.721 82.2773 184.824 83.0742 184.077C83.9209 183.33 84.8423 182.957 85.8384 182.957H86.2866ZM164.505 194.461C161.019 194.661 157.458 194.76 153.822 194.76V285.529C155.565 285.43 157.333 285.38 159.126 285.38C160.969 285.38 162.762 285.33 164.505 285.23V194.461ZM174.441 285.23C187.838 285.23 199.841 285.579 210.45 286.276L213.139 266.255C213.338 265.259 213.787 264.462 214.484 263.864C215.231 263.217 216.127 262.893 217.173 262.893C218.269 262.893 219.166 263.316 219.863 264.163C220.61 265.01 220.983 265.856 220.983 266.703V267.301L217.771 290.983C217.622 291.979 217.173 292.776 216.426 293.374C215.679 294.021 214.808 294.345 213.812 294.345H213.662C200.265 293.448 187.141 293 174.292 293C161.442 293 149.016 293.448 137.013 294.345H136.639C135.494 294.245 134.547 293.847 133.8 293.149C133.053 292.452 132.68 291.581 132.68 290.535C132.68 289.439 133.028 288.542 133.726 287.845C134.423 287.098 135.419 286.675 136.714 286.575C138.059 286.426 139.528 286.326 141.122 286.276C142.765 286.177 144.384 286.077 145.978 285.978V194.91C144.384 194.81 142.79 194.76 141.196 194.76H136.49C135.444 194.661 134.547 194.262 133.8 193.565C133.053 192.818 132.68 191.896 132.68 190.801C132.68 189.705 133.078 188.784 133.875 188.037C134.672 187.24 135.792 186.866 137.237 186.916C138.731 186.966 140.35 186.991 142.093 186.991H147.397C168.464 186.991 189.357 185.596 210.076 182.807H210.749C211.745 182.807 212.591 183.156 213.289 183.853C213.986 184.5 214.409 185.272 214.559 186.169L217.771 211.42V211.943C217.771 213.088 217.348 214.01 216.501 214.707C215.704 215.404 214.808 215.753 213.812 215.753C212.865 215.753 212.019 215.454 211.271 214.856C210.574 214.209 210.126 213.387 209.927 212.391L207.237 191.1C197.376 192.444 185.747 193.465 172.349 194.163V243.395C183.057 242.946 191.424 242.149 197.451 241.004H198.198C199.244 241.004 200.165 241.402 200.962 242.199C201.759 242.946 202.157 243.818 202.157 244.814C202.157 246.906 201.086 248.226 198.945 248.773C193.068 249.919 184.203 250.741 172.349 251.239V285.23H174.441ZM254.975 285.081C257.465 284.832 260.728 284.708 264.762 284.708L267.376 191.548C263.193 191.747 259.557 191.996 256.469 192.295L254.975 285.081ZM311.155 286.426C306.623 280.15 304.356 269.442 304.356 254.302V251.612C304.356 250.716 304.406 249.919 304.506 249.222C299.476 250.118 296.064 250.641 294.271 250.791C294.072 252.185 293.972 254.227 293.972 256.917C293.972 259.556 294.196 262.544 294.645 265.881C295.143 269.218 296.039 272.331 297.334 275.22C300.173 281.794 304.78 285.529 311.155 286.426ZM273.801 242.05C277.138 242.747 280.898 243.096 285.082 243.096C289.266 243.096 292.926 242.921 296.064 242.573C299.202 242.224 302.265 241.651 305.253 240.854C308.291 240.058 311.155 239.012 313.844 237.717C316.534 236.372 318.899 234.729 320.941 232.786C325.324 228.453 327.516 223.024 327.516 216.5C327.516 206.688 322.859 199.815 313.545 195.881C307.917 193.54 302.115 192.17 296.139 191.772C290.162 191.324 285.854 191.1 283.214 191.1H277.835C276.889 191.1 275.993 191.149 275.146 191.249L273.801 242.05ZM332.222 266.404L332.073 264.088C332.073 262.943 332.471 262.021 333.268 261.324C334.115 260.627 335.036 260.278 336.032 260.278C337.028 260.278 337.9 260.627 338.647 261.324C339.394 261.972 339.817 262.793 339.917 263.79L340.066 266.404C340.066 274.622 337.726 281.296 333.044 286.426C328.263 291.705 321.987 294.345 314.218 294.345H313.994C301.044 293.996 292.578 287.173 288.593 273.875C287 268.596 286.203 262.669 286.203 256.095L286.352 251.089C282.517 251.089 278.284 250.741 273.652 250.043L272.531 288.742C272.531 289.937 272.133 290.883 271.336 291.581C270.589 292.228 269.667 292.552 268.572 292.552C256.917 292.552 246.309 293.149 236.747 294.345H236.298C235.153 294.345 234.207 293.946 233.459 293.149C232.712 292.402 232.339 291.531 232.339 290.535C232.339 289.539 232.638 288.667 233.235 287.92C233.883 287.173 234.904 286.7 236.298 286.5C237.743 286.301 239.411 286.127 241.304 285.978C243.246 285.828 245.139 285.679 246.981 285.529L248.7 193.416L237.344 195.657C236.996 195.906 236.448 196.03 235.701 196.03C234.954 196.03 234.207 195.632 233.459 194.835C232.712 194.038 232.339 193.142 232.339 192.146C232.339 190.153 233.26 188.883 235.103 188.335C245.114 184.999 260.404 183.33 280.973 183.33C292.528 183.928 300.92 184.824 306.149 186.02C311.429 187.215 315.737 188.584 319.074 190.128C322.411 191.623 325.274 193.565 327.665 195.956C332.745 200.936 335.285 207.784 335.285 216.5C335.285 223.622 333.168 229.947 328.935 235.476C324.901 240.755 319.422 244.54 312.5 246.831C312.3 249.122 312.201 251.164 312.201 252.957C312.201 254.7 312.226 256.518 312.275 258.411C312.325 260.303 312.45 262.37 312.649 264.611C312.848 266.853 313.147 269.144 313.545 271.484C313.994 273.825 314.566 275.967 315.264 277.909C316.907 282.242 319.148 284.409 321.987 284.409C325.474 284.409 328.163 282.093 330.056 277.461C331.5 274.024 332.222 270.339 332.222 266.404ZM375.403 287.472C379.736 287.87 383.247 288.144 385.937 288.293V192.146C382.699 192.395 379.188 192.818 375.403 193.416V287.472ZM444.656 253.48C445.901 249.197 446.524 243.893 446.524 237.567C446.524 231.192 445.179 224.942 442.49 218.816C439.8 212.64 436.09 207.485 431.358 203.352C421.646 194.885 409.121 191.1 393.781 191.996V288.293C408.324 288.742 420.7 284.359 430.91 275.145C437.534 269.218 442.116 261.997 444.656 253.48ZM367.633 194.76L355.979 197.674C354.833 197.674 353.912 197.275 353.215 196.479C352.518 195.632 352.169 194.735 352.169 193.789C352.169 191.797 353.041 190.552 354.784 190.054C354.983 190.004 356.079 189.68 358.071 189.083C360.113 188.435 362.827 187.763 366.214 187.065C375.079 185.173 383.944 184.227 392.81 184.227C401.725 184.227 409.917 185.397 417.388 187.738C424.859 190.029 431.333 193.49 436.812 198.122C448.516 208.033 454.368 221.954 454.368 239.883C454.368 251.737 451.305 262.096 445.179 270.961C439.551 279.08 431.657 285.38 421.497 289.862C411.686 294.096 400.853 296.212 389 296.212C376.947 296.212 365.99 294.569 356.128 291.282C354.385 290.584 353.514 289.514 353.514 288.069C353.514 286.625 353.937 285.529 354.784 284.782C355.63 284.035 356.552 283.662 357.548 283.662L367.633 286.276V194.76ZM479.417 288.852C480.354 288.852 481.151 288.5 481.808 287.797C482.511 287.094 482.862 286.297 482.862 285.406C482.862 284.516 482.511 283.742 481.808 283.086C481.151 282.383 480.354 282.031 479.417 282.031C478.479 282.031 477.683 282.383 477.026 283.086C476.417 283.742 476.112 284.516 476.112 285.406C476.112 286.297 476.417 287.094 477.026 287.797C477.683 288.5 478.479 288.852 479.417 288.852ZM490.175 285.406C490.175 286.859 489.894 288.242 489.331 289.555C488.769 290.867 487.995 292.016 487.011 293C484.995 295.109 482.464 296.164 479.417 296.164C476.417 296.164 473.862 295.109 471.753 293C469.644 290.891 468.589 288.336 468.589 285.336C468.589 280.695 470.792 277.438 475.198 275.562C476.511 275 477.917 274.719 479.417 274.719C482.37 274.719 484.901 275.75 487.011 277.812C489.12 279.828 490.175 282.359 490.175 285.406Z" fill="black"/>
<path d="M360.428 54.4559C358.201 55.1461 295.598 86.0976 294.93 86.8242C294.225 87.5871 294.188 88.2047 294.076 96.5965C294.002 104.952 294.039 105.606 294.707 106.696C295.561 108.004 297.231 108.621 300.051 108.621H301.795V110.329C301.795 114.761 303.205 116.25 307.473 116.25H309.959V118.611C309.959 122.753 311.147 123.879 315.34 123.879H317.752V126.313C317.752 129.437 318.568 130.927 320.609 131.471C322.539 132.016 360.465 132.016 362.395 131.471C364.436 130.927 365.252 129.437 365.252 126.313V123.879H367.664C371.857 123.879 373.045 122.753 373.045 118.611V116.25H375.568C378.723 116.25 380.244 115.451 380.801 113.453C381.023 112.654 381.209 108.112 381.209 102.518V93H389.002H396.795V102.518C396.795 108.112 396.98 112.654 397.203 113.453C397.76 115.451 399.281 116.25 402.473 116.25H404.959V118.611C404.959 122.753 406.147 123.879 410.34 123.879H412.752V126.313C412.752 129.437 413.568 130.927 415.609 131.471C417.539 132.016 455.465 132.016 457.395 131.471C459.436 130.927 460.252 129.437 460.252 126.313V123.879H462.664C466.857 123.879 468.045 122.753 468.045 118.611V116.25H470.568C474.799 116.25 476.209 114.761 476.209 110.329V108.621H477.99C480.773 108.621 482.443 108.004 483.297 106.696C483.965 105.606 484.002 104.952 483.928 96.5965C483.816 88.2047 483.779 87.5871 483.074 86.8242C482.666 86.3883 467.822 78.8684 450.047 70.1496L417.762 54.3105H408.596H399.393L398.205 55.5094L396.98 56.6719L396.869 60.9586C396.684 66.2262 397.129 68.0426 398.762 69.0234C400.246 69.9316 401.471 69.9316 402.992 69.0234C404.328 68.2242 404.959 66.5894 404.959 63.8285V62.1211H410.525H416.092L439.582 73.6371L463.035 85.1894L426 85.2984C405.664 85.3348 372.34 85.3348 351.967 85.2984L314.969 85.1894L338.422 73.6371L361.912 62.1211H367.479H373.045V63.8285C373.045 66.5894 373.676 68.2242 375.012 69.0234C376.533 69.9316 377.758 69.9316 379.242 69.0234C380.875 68.0426 381.32 66.2262 381.135 60.9586C381.023 56.6719 381.023 56.6719 379.799 55.5094L378.611 54.3105L369.965 54.2379C365.252 54.2016 360.947 54.3105 360.428 54.4559ZM325.545 100.811V104.625H329.627H333.709V108.439V112.254H337.605H341.502V116.25V120.246H337.605H333.746L333.635 116.323L333.523 112.436L329.553 112.327L325.545 112.218V108.439V104.625H321.648H317.752V100.811V96.9961H321.648H325.545V100.811ZM420.545 100.811V104.625H424.627H428.709V108.439V112.254H432.605H436.502V116.25V120.246H432.605H428.746L428.635 116.323L428.523 112.436L424.553 112.327L420.545 112.218V108.439V104.625H416.648H412.752V100.811V96.9961H416.648H420.545V100.811Z" fill="black"/>
</svg>
