<svg width="121" height="113" viewBox="0 0 121 113" fill="none" xmlns="http://www.w3.org/2000/svg">
<path d="M52.9219 0.898163C44.7445 1.84446 35.4446 5.13161 28.0155 9.61408C22.938 12.702 14.0657 20.9697 10.752 25.7012C-0.418511 41.6887 -2.18227 62.059 6.10206 79.2418C11.9278 91.2947 24.381 102.7 37.3153 107.78C53.296 114.056 71.094 113.757 86.754 106.934C92.847 104.244 100.49 99.1639 104.499 95.1297C126.412 72.8169 126.412 39.5968 104.499 18.081C90.9764 4.78297 72.4302 -1.34308 52.9219 0.898163ZM72.1629 6.57596C88.2506 9.66389 102.468 20.0234 109.843 33.9688C119.517 52.1976 116.791 73.315 102.735 89.1531C101.559 90.4978 100.437 91.3943 100.223 91.1453C100.062 90.9461 99.4745 89.4021 98.94 87.7585C96.3746 79.8395 90.4954 72.5679 82.9593 67.936C80.1266 66.143 79.9128 65.9438 80.661 65.1469C81.0886 64.6987 82.1576 63.0053 82.9593 61.3617C84.3489 58.6224 84.4558 57.9252 84.4558 52.3968C84.4558 46.6194 84.4024 46.2707 82.7455 43.133C78.4163 35.0148 70.5061 30.2335 61.2062 30.2335C54.4184 30.2335 48.4858 32.6739 43.6755 37.4054C36.6739 44.3283 35.3377 53.9408 40.148 62.8061C41.1635 64.6987 41.9118 66.2426 41.8583 66.2925C41.7514 66.3423 40.3083 67.2388 38.598 68.2847C31.6499 72.6675 25.1827 80.9352 22.938 88.406L22.0294 91.5437L20.1587 89.9001C19.1966 89.0036 17.0053 86.4138 15.4019 84.1227C3.26935 67.2388 3.3228 45.3244 15.4553 28.3409C27.9086 10.909 50.1961 2.34251 72.1629 6.57596ZM69.0095 37.2062C72.9112 38.9992 75.7439 41.7385 77.7215 45.6233C78.8973 47.9641 79.1111 49.1096 79.1111 52.6458C79.1111 56.2318 78.8973 57.2777 77.668 59.6185C74.5146 65.645 68.7957 69.1812 61.7407 69.48C58.5873 69.6294 57.0908 69.4302 54.6857 68.5835C50.6237 67.1889 46.1875 63.4037 44.2634 59.7182C42.9807 57.2777 42.7669 56.2816 42.7669 52.6458C42.7669 49.1096 42.9807 47.9641 44.1565 45.6731C48.753 36.5089 59.4959 32.8233 69.0095 37.2062ZM48.272 71.3228C54.8994 75.5562 66.9785 75.5562 73.606 71.3228C74.6749 70.6255 75.7439 70.0777 75.9577 70.0777C76.1715 70.0777 77.8818 71.024 79.7524 72.1197C84.1886 74.8092 88.8919 79.6901 91.3505 84.0231C93.3281 87.4597 95.6263 94.6814 95.1987 95.827C94.7711 96.7733 88.6247 100.459 83.9748 102.501C66.7113 110.021 46.6686 108.577 30.6878 98.7157C26.5724 96.1258 26.412 95.7772 27.7482 91.1453C29.993 83.276 35.3377 76.4527 42.7135 71.9703C44.4772 70.9243 45.9737 70.0777 46.0806 70.0777C46.1875 70.0777 47.203 70.6255 48.272 71.3228Z" fill="black"/>
</svg>

