<svg width="20" height="24" viewBox="0 0 20 24" fill="none" xmlns="http://www.w3.org/2000/svg">
<path d="M1.42969 0.127441C1.20703 0.203613 0.925781 0.584473 0.867188 0.88916C0.800781 1.22939 0.800781 22.7708 0.867188 23.111C0.929688 23.436 1.20312 23.7915 1.45312 23.8728C1.71484 23.9591 18.2852 23.9591 18.5469 23.8728C18.7969 23.7915 19.0703 23.436 19.1328 23.111C19.1992 22.7708 19.1992 1.22939 19.1328 0.88916C19.0703 0.564161 18.7969 0.208693 18.5469 0.127441C18.3008 0.0461922 1.66016 0.0512695 1.42969 0.127441ZM15.457 7.85127C15.7891 8.15088 15.9141 8.76533 15.7422 9.22744C15.6328 9.52197 10.543 16.1286 10.3438 16.2403C10.1406 16.347 9.82422 16.3368 9.63281 16.2149C9.40625 16.0728 4.32422 9.45596 4.23828 9.19697C4.0625 8.63838 4.24219 8.05439 4.6875 7.74971C4.76562 7.69385 5.76562 7.68369 10.043 7.69893L15.3008 7.70908L15.457 7.85127Z" fill="black"/>
</svg>
