<svg width="468" height="96" viewBox="0 0 468 96" fill="none" xmlns="http://www.w3.org/2000/svg">
<g filter="url(#filter0_d)">
<rect x="4.5" width="459" height="88" rx="16" fill="#A7CBB6"/>
<g clip-path="url(#clip0)">
<path d="M80.5 44.5C80.5 29.8629 68.4132 18 53.5 18C38.5868 18 26.5 29.8629 26.5 44.5C26.5 57.7294 36.3719 68.6916 49.2812 70.6791V52.1602H42.4257V44.5H49.2812V38.6617C49.2812 32.0212 53.3102 28.3516 59.48 28.3516C62.4332 28.3516 65.5234 28.8691 65.5234 28.8691V35.3906H62.1168C58.7629 35.3906 57.7188 37.4351 57.7188 39.5313V44.5H65.207L64.01 52.1602H57.7188V70.6791C70.6281 68.6916 80.5 57.7294 80.5 44.5Z" fill="#1877F2"/>
<path d="M64.01 52.1602L65.207 44.5H57.7188V39.5312C57.7188 37.4351 58.7629 35.3906 62.1169 35.3906H65.5235V28.8691C65.5235 28.8691 62.4332 28.3516 59.4801 28.3516C53.3103 28.3516 49.2813 32.0211 49.2813 38.6617V44.5H42.4258V52.1602H49.2813V70.6791C50.6576 70.8913 52.0657 71 53.5001 71C54.9344 71 56.3425 70.8913 57.7188 70.6791V52.1602H64.01Z" fill="white"/>
</g>
<path d="M145.535 38.144C145.535 38.4868 145.417 38.6582 145.179 38.6582C144.968 38.6582 144.792 38.4473 144.652 38.0254C144.52 37.5947 144.265 37.1904 143.887 36.8125C143.509 36.4346 143.057 36.1182 142.529 35.8633C141.431 35.3271 140.249 35.0591 138.983 35.0591C137.726 35.0591 136.636 35.2305 135.713 35.5732C134.799 35.9072 134.013 36.3906 133.354 37.0234C131.982 38.3682 131.297 40.1831 131.297 42.4683C131.297 44.9995 132.07 47.0869 133.617 48.7305C135.155 50.3652 137.124 51.1826 139.523 51.1826C142.195 51.1826 144.261 49.9565 145.72 47.5044C145.816 47.3462 145.917 47.2583 146.023 47.2407C146.12 47.2407 146.216 47.3462 146.313 47.5571C146.41 47.7681 146.458 48.0054 146.458 48.269C146.458 48.7085 146.084 49.2798 145.337 49.9829C144.59 50.686 143.681 51.2529 142.608 51.6836C141.545 52.1143 140.301 52.3296 138.877 52.3296C137.462 52.3296 136.118 52.1011 134.843 51.644C133.578 51.1782 132.501 50.5454 131.613 49.7456C129.75 48.0757 128.818 45.9883 128.818 43.4834C128.818 40.6533 129.759 38.3682 131.64 36.6279C133.521 34.8789 135.995 34.0044 139.062 34.0044C141.277 34.0044 143.109 34.2988 144.56 34.8877C144.841 35.0107 145.025 35.1294 145.113 35.2437C145.289 35.4897 145.39 35.8589 145.417 36.3511C145.452 36.8345 145.474 37.1685 145.482 37.353C145.518 37.7837 145.535 38.0474 145.535 38.144ZM148.119 46.1465C148.119 45.2939 148.273 44.4678 148.581 43.668C148.888 42.8682 149.323 42.165 149.886 41.5586C151.116 40.2314 152.65 39.5679 154.487 39.5679C156.526 39.5679 158.095 40.1787 159.193 41.4004C160.187 42.5078 160.683 43.9448 160.683 45.7114C160.683 47.4956 160.09 49.0381 158.903 50.3389C157.69 51.666 156.161 52.3296 154.315 52.3296C152.276 52.3296 150.712 51.7188 149.622 50.4971C148.62 49.3896 148.119 47.9395 148.119 46.1465ZM150.347 45.5928C150.347 46.4541 150.466 47.2583 150.703 48.0054C150.94 48.7524 151.266 49.3721 151.679 49.8643C152.496 50.8662 153.529 51.3672 154.777 51.3672C155.884 51.3672 156.785 50.9277 157.479 50.0488C158.2 49.1348 158.561 47.957 158.561 46.5156C158.561 44.6084 158.121 43.1143 157.242 42.0332C156.416 41.04 155.379 40.5435 154.131 40.5435C153.023 40.5435 152.123 40.9829 151.428 41.8618C150.708 42.7759 150.347 44.0195 150.347 45.5928ZM175.937 50.2598C176.191 50.2598 176.319 50.374 176.319 50.6025C176.319 50.7256 176.262 50.8311 176.147 50.9189C176.042 51.0068 175.875 51.0991 175.646 51.1958C175.418 51.2837 175.238 51.3584 175.106 51.4199C174.974 51.4814 174.851 51.543 174.737 51.6045C174.552 51.7012 174.35 51.8242 174.13 51.9736C173.761 52.2109 173.506 52.3296 173.366 52.3296C173.234 52.3296 173.111 52.2944 172.997 52.2241C172.891 52.1626 172.781 52.0439 172.667 51.8682C172.403 51.4551 172.263 50.8486 172.245 50.0488C171.498 51.1035 170.54 51.7759 169.371 52.0659C169.011 52.1538 168.589 52.1978 168.105 52.1978C167.622 52.1978 167.121 52.1187 166.603 51.9604C166.093 51.7935 165.653 51.5254 165.284 51.1562C164.493 50.3916 164.098 49.2314 164.098 47.6758V43.8789C164.098 43.0352 164.045 42.4858 163.939 42.231C163.843 41.9761 163.733 41.8047 163.61 41.7168C163.496 41.6289 163.342 41.5674 163.148 41.5322C162.753 41.4443 162.555 41.2993 162.555 41.0972C162.555 40.8774 162.779 40.7236 163.228 40.6357C164.221 40.4336 164.88 40.2358 165.205 40.0425C165.671 39.7788 165.992 39.647 166.167 39.647C166.343 39.647 166.431 39.748 166.431 39.9502C166.431 40.0469 166.409 40.1479 166.365 40.2534C166.189 40.728 166.097 41.3169 166.088 42.02C166.08 42.7231 166.075 43.3076 166.075 43.7734V47.1484C166.075 48.9766 166.664 50.0928 167.842 50.4971C168.193 50.6113 168.541 50.6685 168.883 50.6685C169.226 50.6685 169.547 50.6289 169.846 50.5498C170.153 50.4619 170.452 50.3301 170.742 50.1543C171.366 49.7588 171.863 49.1787 172.232 48.4141L172.271 43.5889C172.271 42.8418 172.206 42.3628 172.074 42.1519C171.942 41.9321 171.797 41.7871 171.639 41.7168C171.48 41.6465 171.23 41.585 170.887 41.5322C170.553 41.4795 170.386 41.3389 170.386 41.1104C170.386 40.9082 170.597 40.7632 171.019 40.6753C171.45 40.5874 171.845 40.4819 172.206 40.3589C172.566 40.2271 172.882 40.104 173.155 39.9897C173.436 39.8755 173.665 39.7788 173.84 39.6997C174.025 39.6118 174.152 39.5679 174.223 39.5679C174.425 39.5679 174.526 39.6689 174.526 39.8711C174.526 39.9678 174.504 40.0688 174.46 40.1743C174.284 40.6489 174.192 41.251 174.183 41.9805C174.174 42.71 174.17 43.3076 174.17 43.7734V48.7173C174.17 49.394 174.227 49.8247 174.341 50.0093C174.517 50.2993 174.768 50.4443 175.093 50.4443L175.937 50.2598ZM178.613 52.1978C178.033 52.1978 177.743 52.0352 177.743 51.71C177.743 51.4551 177.905 51.3276 178.23 51.3276L178.929 51.3936C179.131 51.3936 179.298 51.3584 179.43 51.2881C179.562 51.209 179.663 51.0464 179.733 50.8003C179.874 50.3521 179.944 49.3589 179.944 47.8208V43.8789C179.944 42.9912 179.883 42.4375 179.76 42.2178C179.646 41.9893 179.505 41.8354 179.338 41.7563C179.171 41.6685 178.912 41.5981 178.56 41.5454C178.208 41.4839 178.033 41.3433 178.033 41.1235C178.033 40.9214 178.257 40.7764 178.705 40.6885C179.839 40.4512 180.595 40.2271 180.973 40.0161C181.491 39.7173 181.847 39.5679 182.041 39.5679C182.243 39.5679 182.344 39.6689 182.344 39.8711C182.344 39.9678 182.326 40.0688 182.291 40.1743C182.124 40.5962 182.027 41.2773 182.001 42.2178C182.502 41.3652 183.126 40.7104 183.873 40.2534C184.629 39.7964 185.372 39.5679 186.101 39.5679C186.839 39.5679 187.463 39.6602 187.973 39.8447C188.483 40.0293 188.918 40.3105 189.278 40.6885C190.017 41.4795 190.386 42.644 190.386 44.1821V47.8208C190.386 49.3589 190.438 50.3037 190.544 50.6553C190.649 50.998 190.768 51.209 190.9 51.2881C191.032 51.3584 191.199 51.3936 191.401 51.3936L192.086 51.3276C192.412 51.3276 192.574 51.4551 192.574 51.71C192.574 52.0352 192.28 52.1978 191.691 52.1978C191.348 52.1978 190.983 52.1626 190.597 52.0923C190.219 52.0308 189.81 52 189.371 52C188.94 52 188.527 52.0308 188.131 52.0923C187.736 52.1626 187.367 52.1978 187.024 52.1978C186.435 52.1978 186.141 52.0352 186.141 51.71C186.141 51.4551 186.303 51.3276 186.628 51.3276L187.314 51.3936C187.516 51.3936 187.683 51.3584 187.815 51.2881C187.947 51.209 188.052 51.0464 188.131 50.8003C188.272 50.3608 188.342 49.3677 188.342 47.8208V44.8149C188.342 42.3013 187.428 41.0444 185.6 41.0444C184.308 41.0444 183.302 41.6289 182.581 42.7979C182.326 43.2285 182.128 43.7559 181.988 44.3799V47.8208C181.988 49.3589 182.041 50.3037 182.146 50.6553C182.251 50.998 182.37 51.209 182.502 51.2881C182.634 51.3584 182.801 51.3936 183.003 51.3936L183.702 51.3276C184.027 51.3276 184.189 51.4551 184.189 51.71C184.189 52.0352 183.899 52.1978 183.319 52.1978C182.985 52.1978 182.629 52.1626 182.251 52.0923C181.882 52.0308 181.465 52 180.999 52C180.533 52 180.103 52.0308 179.707 52.0923C179.32 52.1626 178.956 52.1978 178.613 52.1978ZM201.275 40.873C201.275 41.1104 201.135 41.229 200.854 41.229L197.109 41.1895V48.4932C197.109 49.8555 197.439 50.6641 198.098 50.9189C198.3 50.998 198.538 51.0376 198.81 51.0376C199.083 51.0376 199.329 50.9937 199.548 50.9058C199.777 50.8091 199.979 50.708 200.155 50.6025C200.331 50.4971 200.48 50.4004 200.603 50.3125C200.726 50.2158 200.84 50.1675 200.946 50.1675C201.06 50.1675 201.161 50.229 201.249 50.3521C201.337 50.4751 201.381 50.5981 201.381 50.7212C201.381 51.0288 200.99 51.3979 200.208 51.8286C199.61 52.1626 198.858 52.3296 197.953 52.3296C197.048 52.3296 196.34 52.0088 195.831 51.3672C195.321 50.7168 195.066 49.8203 195.066 48.6777V41.1499H194.262C193.629 41.1499 193.312 40.9873 193.312 40.6621C193.312 40.4248 193.488 40.2622 193.84 40.1743C194.191 40.0864 194.495 39.9326 194.75 39.7129C195.004 39.4844 195.211 39.2295 195.369 38.9482C195.536 38.6582 195.668 38.3594 195.765 38.0518C195.861 37.7441 195.949 37.4629 196.028 37.208C196.222 36.6279 196.441 36.3379 196.688 36.3379C196.969 36.3379 197.109 36.5884 197.109 37.0894V40.0688L200.814 39.9897C200.999 39.9897 201.144 40.2095 201.249 40.6489C201.267 40.7456 201.275 40.8203 201.275 40.873ZM207.248 35.6392C207.248 36.0083 207.12 36.3247 206.865 36.5884C206.619 36.8433 206.281 36.9707 205.85 36.9707C205.428 36.9707 205.099 36.8477 204.861 36.6016C204.633 36.3467 204.519 36.0742 204.519 35.7842C204.519 35.4854 204.558 35.2568 204.637 35.0986C204.716 34.9404 204.817 34.8042 204.94 34.6899C205.213 34.4526 205.542 34.334 205.929 34.334C206.325 34.334 206.641 34.457 206.878 34.7031C207.125 34.9492 207.248 35.2612 207.248 35.6392ZM203.622 52.1978C203.033 52.1978 202.739 52.0352 202.739 51.71C202.739 51.4551 202.901 51.3276 203.227 51.3276L203.886 51.3936C204.088 51.3936 204.255 51.3584 204.387 51.2881C204.519 51.209 204.624 51.0464 204.703 50.8003C204.844 50.3608 204.914 49.3677 204.914 47.8208V43.8525C204.914 42.9824 204.853 42.4331 204.729 42.2046C204.615 41.9673 204.483 41.8091 204.334 41.73C204.185 41.6421 203.934 41.5762 203.583 41.5322C203.24 41.4795 203.068 41.3389 203.068 41.1104C203.068 40.9082 203.297 40.7588 203.754 40.6621C204.8 40.4512 205.521 40.2358 205.916 40.0161C206.461 39.7085 206.834 39.5547 207.037 39.5547C207.239 39.5547 207.34 39.6558 207.34 39.8579C207.34 39.9546 207.322 40.0557 207.287 40.1611C207.085 40.7676 206.984 41.9629 206.984 43.7471V47.8208C206.984 49.3677 207.037 50.3125 207.142 50.6553C207.256 50.998 207.379 51.209 207.511 51.2881C207.643 51.3584 207.81 51.3936 208.012 51.3936L208.671 51.3276C208.997 51.3276 209.159 51.4551 209.159 51.71C209.159 52.0352 208.865 52.1978 208.276 52.1978C207.942 52.1978 207.582 52.1626 207.195 52.0923C206.817 52.0308 206.408 52 205.969 52C205.529 52 205.112 52.0308 204.716 52.0923C204.321 52.1626 203.956 52.1978 203.622 52.1978ZM211.176 52.1978C210.596 52.1978 210.306 52.0352 210.306 51.71C210.306 51.4551 210.469 51.3276 210.794 51.3276L211.493 51.3936C211.695 51.3936 211.862 51.3584 211.994 51.2881C212.125 51.209 212.227 51.0464 212.297 50.8003C212.438 50.3521 212.508 49.3589 212.508 47.8208V43.8789C212.508 42.9912 212.446 42.4375 212.323 42.2178C212.209 41.9893 212.068 41.8354 211.901 41.7563C211.734 41.6685 211.475 41.5981 211.124 41.5454C210.772 41.4839 210.596 41.3433 210.596 41.1235C210.596 40.9214 210.82 40.7764 211.269 40.6885C212.402 40.4512 213.158 40.2271 213.536 40.0161C214.055 39.7173 214.411 39.5679 214.604 39.5679C214.806 39.5679 214.907 39.6689 214.907 39.8711C214.907 39.9678 214.89 40.0688 214.854 40.1743C214.688 40.5962 214.591 41.2773 214.564 42.2178C215.065 41.3652 215.689 40.7104 216.437 40.2534C217.192 39.7964 217.935 39.5679 218.665 39.5679C219.403 39.5679 220.027 39.6602 220.537 39.8447C221.046 40.0293 221.481 40.3105 221.842 40.6885C222.58 41.4795 222.949 42.644 222.949 44.1821V47.8208C222.949 49.3589 223.002 50.3037 223.107 50.6553C223.213 50.998 223.332 51.209 223.463 51.2881C223.595 51.3584 223.762 51.3936 223.964 51.3936L224.65 51.3276C224.975 51.3276 225.138 51.4551 225.138 51.71C225.138 52.0352 224.843 52.1978 224.254 52.1978C223.912 52.1978 223.547 52.1626 223.16 52.0923C222.782 52.0308 222.374 52 221.934 52C221.503 52 221.09 52.0308 220.695 52.0923C220.299 52.1626 219.93 52.1978 219.587 52.1978C218.999 52.1978 218.704 52.0352 218.704 51.71C218.704 51.4551 218.867 51.3276 219.192 51.3276L219.877 51.3936C220.08 51.3936 220.247 51.3584 220.378 51.2881C220.51 51.209 220.616 51.0464 220.695 50.8003C220.835 50.3608 220.906 49.3677 220.906 47.8208V44.8149C220.906 42.3013 219.992 41.0444 218.164 41.0444C216.872 41.0444 215.865 41.6289 215.145 42.7979C214.89 43.2285 214.692 43.7559 214.551 44.3799V47.8208C214.551 49.3589 214.604 50.3037 214.709 50.6553C214.815 50.998 214.934 51.209 215.065 51.2881C215.197 51.3584 215.364 51.3936 215.566 51.3936L216.265 51.3276C216.59 51.3276 216.753 51.4551 216.753 51.71C216.753 52.0352 216.463 52.1978 215.883 52.1978C215.549 52.1978 215.193 52.1626 214.815 52.0923C214.446 52.0308 214.028 52 213.562 52C213.097 52 212.666 52.0308 212.271 52.0923C211.884 52.1626 211.519 52.1978 211.176 52.1978ZM239.692 50.2598C239.947 50.2598 240.075 50.374 240.075 50.6025C240.075 50.7256 240.018 50.8311 239.903 50.9189C239.798 51.0068 239.631 51.0991 239.402 51.1958C239.174 51.2837 238.994 51.3584 238.862 51.4199C238.73 51.4814 238.607 51.543 238.493 51.6045C238.308 51.7012 238.106 51.8242 237.886 51.9736C237.517 52.2109 237.262 52.3296 237.122 52.3296C236.99 52.3296 236.867 52.2944 236.752 52.2241C236.647 52.1626 236.537 52.0439 236.423 51.8682C236.159 51.4551 236.019 50.8486 236.001 50.0488C235.254 51.1035 234.296 51.7759 233.127 52.0659C232.767 52.1538 232.345 52.1978 231.861 52.1978C231.378 52.1978 230.877 52.1187 230.358 51.9604C229.849 51.7935 229.409 51.5254 229.04 51.1562C228.249 50.3916 227.854 49.2314 227.854 47.6758V43.8789C227.854 43.0352 227.801 42.4858 227.695 42.231C227.599 41.9761 227.489 41.8047 227.366 41.7168C227.251 41.6289 227.098 41.5674 226.904 41.5322C226.509 41.4443 226.311 41.2993 226.311 41.0972C226.311 40.8774 226.535 40.7236 226.983 40.6357C227.977 40.4336 228.636 40.2358 228.961 40.0425C229.427 39.7788 229.748 39.647 229.923 39.647C230.099 39.647 230.187 39.748 230.187 39.9502C230.187 40.0469 230.165 40.1479 230.121 40.2534C229.945 40.728 229.853 41.3169 229.844 42.02C229.835 42.7231 229.831 43.3076 229.831 43.7734V47.1484C229.831 48.9766 230.42 50.0928 231.598 50.4971C231.949 50.6113 232.296 50.6685 232.639 50.6685C232.982 50.6685 233.303 50.6289 233.602 50.5498C233.909 50.4619 234.208 50.3301 234.498 50.1543C235.122 49.7588 235.619 49.1787 235.988 48.4141L236.027 43.5889C236.027 42.8418 235.961 42.3628 235.83 42.1519C235.698 41.9321 235.553 41.7871 235.395 41.7168C235.236 41.6465 234.986 41.585 234.643 41.5322C234.309 41.4795 234.142 41.3389 234.142 41.1104C234.142 40.9082 234.353 40.7632 234.775 40.6753C235.206 40.5874 235.601 40.4819 235.961 40.3589C236.322 40.2271 236.638 40.104 236.911 39.9897C237.192 39.8755 237.42 39.7788 237.596 39.6997C237.781 39.6118 237.908 39.5679 237.979 39.5679C238.181 39.5679 238.282 39.6689 238.282 39.8711C238.282 39.9678 238.26 40.0688 238.216 40.1743C238.04 40.6489 237.948 41.251 237.939 41.9805C237.93 42.71 237.926 43.3076 237.926 43.7734V48.7173C237.926 49.394 237.983 49.8247 238.097 50.0093C238.273 50.2993 238.523 50.4443 238.849 50.4443L239.692 50.2598ZM243.437 50.5234C242.927 49.9521 242.531 49.2798 242.25 48.5063C241.978 47.7329 241.841 46.876 241.841 45.9355C241.841 44.9863 242.004 44.1162 242.329 43.3252C242.654 42.5342 243.103 41.8574 243.674 41.2949C244.86 40.126 246.324 39.5415 248.064 39.5415C249.505 39.5415 250.67 40.0161 251.558 40.9653C252.401 41.8794 252.823 43.0088 252.823 44.3535C252.823 44.793 252.762 45.0962 252.639 45.2632C252.524 45.4214 252.379 45.5181 252.204 45.5532C252.028 45.5796 251.786 45.606 251.479 45.6323C251.171 45.6499 250.797 45.6719 250.358 45.6982C249.918 45.7246 249.426 45.751 248.881 45.7773C248.345 45.8037 247.796 45.8345 247.233 45.8696C245.941 45.9487 244.904 46.0278 244.122 46.1069C244.315 48.4712 245.221 50.0049 246.838 50.708C247.365 50.9365 247.928 51.0508 248.525 51.0508C249.791 51.0508 250.793 50.6816 251.531 49.9434C251.848 49.627 252.089 49.4688 252.256 49.4688C252.573 49.4688 252.731 49.6577 252.731 50.0356C252.731 50.229 252.599 50.4619 252.335 50.7344C252.072 51.0068 251.694 51.2881 251.202 51.5781C250.332 52.0791 249.316 52.3296 248.156 52.3296C246.996 52.3296 246.047 52.1714 245.309 51.855C244.579 51.5298 243.955 51.0859 243.437 50.5234ZM244.096 45.1313C248.218 44.9204 250.389 44.6963 250.608 44.459C250.688 44.3711 250.727 44.1118 250.727 43.6812C250.727 43.2505 250.644 42.833 250.477 42.4287C250.31 42.0156 250.085 41.6641 249.804 41.374C249.224 40.7852 248.503 40.4907 247.642 40.4907C246.667 40.4907 245.845 40.8994 245.177 41.7168C244.474 42.5693 244.113 43.7075 244.096 45.1313ZM280.72 39.6865C281.08 39.6865 281.26 39.7964 281.26 40.0161C281.26 40.2007 281.093 40.3545 280.759 40.4775C280.425 40.5918 280.179 40.7017 280.021 40.8071C279.872 40.9126 279.727 41.0664 279.586 41.2686C279.357 41.5938 279.037 42.2529 278.624 43.2461L274.893 51.9473C274.787 52.2021 274.673 52.3296 274.55 52.3296C274.365 52.3296 274.22 52.2021 274.115 51.9473L270.542 43.6548L267.114 51.9473C267.009 52.2021 266.895 52.3296 266.771 52.3296C266.587 52.3296 266.442 52.2021 266.336 51.9473L262.302 42.2178C262.074 41.6201 261.889 41.2378 261.749 41.0708C261.511 40.7808 261.199 40.5918 260.812 40.5039C260.435 40.4072 260.246 40.2402 260.246 40.0029C260.246 39.9238 260.294 39.8535 260.391 39.792C260.479 39.7217 260.61 39.6865 260.786 39.6865L262.83 39.8315C263.357 39.8315 263.748 39.814 264.003 39.7788C264.451 39.7173 264.82 39.6865 265.11 39.6865C265.708 39.6865 266.007 39.814 266.007 40.0688C266.007 40.3325 265.655 40.4819 264.952 40.5171C264.521 40.5347 264.289 40.6533 264.253 40.873C264.245 40.9346 264.24 41.0093 264.24 41.0972C264.24 41.2993 264.333 41.6509 264.517 42.1519L267.259 48.7568L269.909 42.2046L269.619 41.519C269.408 41.0269 269.188 40.7192 268.96 40.5962C268.872 40.5522 268.771 40.5083 268.657 40.4644C268.323 40.3413 268.156 40.1831 268.156 39.9897C268.156 39.7876 268.354 39.6865 268.749 39.6865L270.437 39.8315C270.981 39.8315 271.39 39.814 271.663 39.7788C272.137 39.7173 272.599 39.6865 273.047 39.6865C273.504 39.6865 273.732 39.814 273.732 40.0688C273.732 40.3325 273.381 40.4819 272.678 40.5171C272.133 40.5435 271.86 40.7236 271.86 41.0576C271.86 41.4004 272.036 41.9629 272.388 42.7451L275.077 48.915L276.91 44.3535C277.49 42.8945 277.797 42.02 277.833 41.73C277.868 41.4312 277.885 41.2158 277.885 41.084C277.885 40.75 277.657 40.5654 277.2 40.5303C276.743 40.4863 276.435 40.4336 276.277 40.3721C276.127 40.3105 276.053 40.2095 276.053 40.0688C276.053 39.814 276.352 39.6865 276.949 39.6865L279.19 39.8184L280.72 39.6865ZM285.901 35.6392C285.901 36.0083 285.773 36.3247 285.519 36.5884C285.272 36.8433 284.934 36.9707 284.503 36.9707C284.082 36.9707 283.752 36.8477 283.515 36.6016C283.286 36.3467 283.172 36.0742 283.172 35.7842C283.172 35.4854 283.211 35.2568 283.291 35.0986C283.37 34.9404 283.471 34.8042 283.594 34.6899C283.866 34.4526 284.196 34.334 284.583 34.334C284.978 34.334 285.294 34.457 285.532 34.7031C285.778 34.9492 285.901 35.2612 285.901 35.6392ZM282.275 52.1978C281.687 52.1978 281.392 52.0352 281.392 51.71C281.392 51.4551 281.555 51.3276 281.88 51.3276L282.539 51.3936C282.741 51.3936 282.908 51.3584 283.04 51.2881C283.172 51.209 283.277 51.0464 283.356 50.8003C283.497 50.3608 283.567 49.3677 283.567 47.8208V43.8525C283.567 42.9824 283.506 42.4331 283.383 42.2046C283.269 41.9673 283.137 41.8091 282.987 41.73C282.838 41.6421 282.587 41.5762 282.236 41.5322C281.893 41.4795 281.722 41.3389 281.722 41.1104C281.722 40.9082 281.95 40.7588 282.407 40.6621C283.453 40.4512 284.174 40.2358 284.569 40.0161C285.114 39.7085 285.488 39.5547 285.69 39.5547C285.892 39.5547 285.993 39.6558 285.993 39.8579C285.993 39.9546 285.976 40.0557 285.94 40.1611C285.738 40.7676 285.637 41.9629 285.637 43.7471V47.8208C285.637 49.3677 285.69 50.3125 285.795 50.6553C285.91 50.998 286.033 51.209 286.165 51.2881C286.296 51.3584 286.463 51.3936 286.666 51.3936L287.325 51.3276C287.65 51.3276 287.812 51.4551 287.812 51.71C287.812 52.0352 287.518 52.1978 286.929 52.1978C286.595 52.1978 286.235 52.1626 285.848 52.0923C285.47 52.0308 285.062 52 284.622 52C284.183 52 283.765 52.0308 283.37 52.0923C282.974 52.1626 282.609 52.1978 282.275 52.1978ZM296.698 40.873C296.698 41.1104 296.558 41.229 296.276 41.229L292.532 41.1895V48.4932C292.532 49.8555 292.862 50.6641 293.521 50.9189C293.723 50.998 293.96 51.0376 294.233 51.0376C294.505 51.0376 294.751 50.9937 294.971 50.9058C295.2 50.8091 295.402 50.708 295.578 50.6025C295.753 50.4971 295.903 50.4004 296.026 50.3125C296.149 50.2158 296.263 50.1675 296.369 50.1675C296.483 50.1675 296.584 50.229 296.672 50.3521C296.76 50.4751 296.804 50.5981 296.804 50.7212C296.804 51.0288 296.413 51.3979 295.63 51.8286C295.033 52.1626 294.281 52.3296 293.376 52.3296C292.471 52.3296 291.763 52.0088 291.253 51.3672C290.744 50.7168 290.489 49.8203 290.489 48.6777V41.1499H289.685C289.052 41.1499 288.735 40.9873 288.735 40.6621C288.735 40.4248 288.911 40.2622 289.263 40.1743C289.614 40.0864 289.917 39.9326 290.172 39.7129C290.427 39.4844 290.634 39.2295 290.792 38.9482C290.959 38.6582 291.091 38.3594 291.188 38.0518C291.284 37.7441 291.372 37.4629 291.451 37.208C291.645 36.6279 291.864 36.3379 292.11 36.3379C292.392 36.3379 292.532 36.5884 292.532 37.0894V40.0688L296.237 39.9897C296.421 39.9897 296.566 40.2095 296.672 40.6489C296.689 40.7456 296.698 40.8203 296.698 40.873ZM299.045 52.1978C298.465 52.1978 298.175 52.0352 298.175 51.71C298.175 51.4551 298.337 51.3276 298.663 51.3276L299.322 51.3936C299.524 51.3936 299.691 51.3584 299.823 51.2881C299.955 51.209 300.056 51.0464 300.126 50.8003C300.267 50.3521 300.337 49.3589 300.337 47.8208V37.4585C300.337 36.6235 300.271 36.083 300.139 35.8369C300.007 35.582 299.867 35.4106 299.717 35.3228C299.568 35.2349 299.326 35.1646 298.992 35.1118C298.667 35.0591 298.504 34.9229 298.504 34.7031C298.504 34.501 298.729 34.356 299.177 34.2681C300.223 34.0483 300.943 33.8286 301.339 33.6089C301.875 33.3013 302.24 33.1475 302.433 33.1475C302.635 33.1475 302.736 33.2485 302.736 33.4507C302.736 33.5474 302.719 33.6484 302.684 33.7539C302.499 34.2285 302.402 34.8306 302.394 35.5601C302.385 36.2896 302.38 36.8872 302.38 37.353V42.4946C303.11 41.0972 304.143 40.1875 305.479 39.7656C305.9 39.6338 306.322 39.5679 306.744 39.5679C308.027 39.5679 309.021 39.9414 309.724 40.6885C310.427 41.4355 310.778 42.6001 310.778 44.1821V47.8208C310.778 49.3589 310.831 50.3037 310.937 50.6553C311.042 50.998 311.161 51.209 311.292 51.2881C311.424 51.3584 311.591 51.3936 311.793 51.3936L312.453 51.3276C312.778 51.3276 312.94 51.4551 312.94 51.71C312.94 52.0352 312.646 52.1978 312.057 52.1978C311.723 52.1978 311.367 52.1626 310.989 52.0923C310.611 52.0308 310.203 52 309.763 52C309.333 52 308.919 52.0308 308.524 52.0923C308.137 52.1626 307.777 52.1978 307.443 52.1978C306.854 52.1978 306.56 52.0352 306.56 51.71C306.56 51.4551 306.722 51.3276 307.047 51.3276L307.707 51.3936C307.909 51.3936 308.076 51.3584 308.208 51.2881C308.339 51.209 308.445 51.0464 308.524 50.8003C308.665 50.3608 308.735 49.3677 308.735 47.8208V44.8149C308.735 42.3101 307.812 41.0576 305.966 41.0576C304.63 41.0576 303.615 41.752 302.921 43.1406C302.675 43.624 302.495 44.1953 302.38 44.8545V47.8208C302.38 49.3589 302.433 50.3037 302.539 50.6553C302.644 50.998 302.763 51.209 302.895 51.2881C303.026 51.3584 303.193 51.3936 303.396 51.3936L304.055 51.3276C304.38 51.3276 304.542 51.4551 304.542 51.71C304.542 52.0352 304.252 52.1978 303.672 52.1978C303.338 52.1978 302.991 52.1626 302.631 52.0923C302.271 52.0308 301.857 52 301.392 52C300.926 52 300.5 52.0308 300.113 52.0923C299.735 52.1626 299.379 52.1978 299.045 52.1978ZM321.998 52.1978C321.426 52.1978 321.141 52.0352 321.141 51.71C321.141 51.4551 321.299 51.3276 321.615 51.3276L322.261 51.3936C322.789 51.3936 323.145 51.0991 323.329 50.5103C323.479 50.0093 323.553 49.1128 323.553 47.8208V38.5132C323.553 37.2212 323.492 36.3774 323.369 35.9819C323.246 35.5776 323.096 35.3052 322.92 35.1646C322.753 35.0151 322.534 34.9404 322.261 34.9404L321.615 34.9932C321.299 34.9932 321.141 34.8657 321.141 34.6108C321.141 34.2856 321.374 34.123 321.839 34.123C322.314 34.123 322.701 34.1362 323 34.1626C323.298 34.1802 323.602 34.2021 323.909 34.2285C324.718 34.2988 325.329 34.334 325.742 34.334C326.155 34.334 326.599 34.3252 327.073 34.3076C327.548 34.2812 328.093 34.2549 328.708 34.2285C330.352 34.1582 331.494 34.123 332.136 34.123C332.777 34.123 333.133 34.1626 333.204 34.2417C333.283 34.3208 333.322 34.4307 333.322 34.5713C333.322 34.7031 333.318 34.8306 333.309 34.9536C333.309 35.0767 333.305 35.2129 333.296 35.3623C333.287 35.5645 333.261 35.8677 333.217 36.272C333.173 36.6675 333.12 36.9355 333.059 37.0762C332.997 37.208 332.909 37.2739 332.795 37.2739C332.681 37.2739 332.602 37.2476 332.558 37.1948C332.514 37.1333 332.452 37.0015 332.373 36.7993C332.303 36.5884 332.171 36.3906 331.978 36.2061C331.793 36.0127 331.494 35.8545 331.081 35.7314C330.299 35.4941 328.84 35.3755 326.704 35.3755H326.058C325.847 35.3755 325.711 35.4062 325.649 35.4678C325.597 35.5293 325.57 35.6699 325.57 35.8896V41.73C326.405 41.8267 327.152 41.875 327.812 41.875C328.471 41.875 328.945 41.8706 329.235 41.8618C329.534 41.853 329.78 41.8311 329.974 41.7959C330.316 41.7256 330.562 41.5674 330.712 41.3213C331.011 40.8555 331.252 40.6226 331.437 40.6226C331.674 40.6226 331.793 40.7456 331.793 40.9917L331.332 42.8638L331.384 43.8657C331.384 44.4985 331.235 44.8149 330.936 44.8149C330.681 44.8149 330.554 44.6479 330.554 44.314C330.554 43.9712 330.532 43.7163 330.488 43.5493C330.453 43.3823 330.343 43.2549 330.158 43.167C329.877 43.0176 329.099 42.9429 327.825 42.9429C327.798 42.9429 327.047 42.978 325.57 43.0483V47.8208C325.57 49.1479 325.627 50.0049 325.742 50.3916C325.865 50.7695 326.01 51.0332 326.177 51.1826C326.353 51.3232 326.581 51.3936 326.862 51.3936L327.574 51.3276C327.908 51.3276 328.075 51.4551 328.075 51.71C328.075 52.0352 327.785 52.1978 327.205 52.1978L324.727 52C324.085 52 323.54 52.0308 323.092 52.0923C322.644 52.1626 322.279 52.1978 321.998 52.1978ZM347.402 50.2334C347.657 50.2334 347.785 50.3521 347.785 50.5894C347.785 50.8179 347.53 51.0376 347.02 51.2485C346.51 51.4595 346.154 51.6528 345.952 51.8286C345.75 51.9956 345.601 52.1187 345.504 52.1978C345.407 52.2856 345.293 52.3296 345.161 52.3296C344.897 52.3296 344.678 52.2197 344.502 52C344.326 51.7803 344.089 51.3101 343.79 50.5894C343.289 51.1606 342.678 51.5957 341.958 51.8945C341.246 52.1846 340.538 52.3296 339.835 52.3296C338.508 52.3296 337.479 51.9912 336.75 51.3145C336.021 50.6377 335.656 49.7104 335.656 48.5327C335.656 47.355 336.205 46.4014 337.304 45.6719C338.411 44.9336 339.822 44.5645 341.536 44.5645C342.045 44.5645 342.718 44.6523 343.553 44.8281V43.7998C343.553 41.541 342.599 40.4116 340.692 40.4116C339.681 40.4116 338.938 40.8774 338.464 41.8091C338.051 42.644 337.646 43.0615 337.251 43.0615C336.961 43.0615 336.706 42.978 336.486 42.811C336.275 42.644 336.17 42.4331 336.17 42.1782C336.17 41.9233 336.302 41.6421 336.565 41.3345C336.829 41.0181 337.181 40.7324 337.62 40.4775C338.657 39.8711 339.795 39.5679 341.035 39.5679C343.232 39.5679 344.651 40.2842 345.293 41.7168C345.53 42.2266 345.649 42.8506 345.649 43.5889V48.8491C345.649 49.5259 345.715 49.9609 345.847 50.1543C345.979 50.3477 346.163 50.4443 346.4 50.4443C346.638 50.4443 346.831 50.4092 346.98 50.3389C347.13 50.2686 347.271 50.2334 347.402 50.2334ZM343.553 46.0542C342.92 45.6938 342.12 45.5137 341.153 45.5137C340.187 45.5137 339.409 45.7554 338.82 46.2388C338.24 46.7222 337.95 47.3726 337.95 48.1899C337.95 48.9985 338.174 49.6753 338.622 50.2202C339.07 50.7563 339.646 51.0244 340.349 51.0244C341.852 51.0244 342.933 50.5322 343.592 49.5479C343.566 49.3018 343.553 49.0293 343.553 48.7305V46.0542ZM349.05 45.9619C349.05 45.0303 349.217 44.1689 349.551 43.3779C349.894 42.5781 350.355 41.897 350.936 41.3345C352.166 40.1567 353.717 39.5679 355.589 39.5679C356.697 39.603 357.659 39.8623 358.477 40.3457C359.312 40.8291 359.747 41.4224 359.782 42.1255C359.782 42.5034 359.531 42.7539 359.03 42.877C358.898 42.9033 358.78 42.9165 358.674 42.9165C358.27 42.9165 357.94 42.6396 357.686 42.0859C357.185 41.04 356.336 40.5171 355.141 40.5171C354.086 40.5171 353.203 40.9521 352.491 41.8223C351.735 42.7451 351.357 43.9624 351.357 45.4741C351.357 47.1528 351.749 48.502 352.531 49.5215C353.348 50.5938 354.464 51.1299 355.879 51.1299C356.846 51.1299 357.694 50.7607 358.424 50.0225C358.74 49.7061 358.978 49.5479 359.136 49.5479C359.461 49.5479 359.624 49.7104 359.624 50.0356C359.624 50.3521 359.312 50.7388 358.688 51.1958C357.677 51.9517 356.433 52.3296 354.957 52.3296C353.19 52.3296 351.753 51.7275 350.646 50.5234C349.582 49.3545 349.05 47.834 349.05 45.9619ZM363.144 50.5234C362.634 49.9521 362.238 49.2798 361.957 48.5063C361.685 47.7329 361.548 46.876 361.548 45.9355C361.548 44.9863 361.711 44.1162 362.036 43.3252C362.361 42.5342 362.81 41.8574 363.381 41.2949C364.567 40.126 366.031 39.5415 367.771 39.5415C369.212 39.5415 370.377 40.0161 371.265 40.9653C372.108 41.8794 372.53 43.0088 372.53 44.3535C372.53 44.793 372.469 45.0962 372.346 45.2632C372.231 45.4214 372.086 45.5181 371.911 45.5532C371.735 45.5796 371.493 45.606 371.186 45.6323C370.878 45.6499 370.504 45.6719 370.065 45.6982C369.625 45.7246 369.133 45.751 368.588 45.7773C368.052 45.8037 367.503 45.8345 366.94 45.8696C365.648 45.9487 364.611 46.0278 363.829 46.1069C364.022 48.4712 364.928 50.0049 366.545 50.708C367.072 50.9365 367.635 51.0508 368.232 51.0508C369.498 51.0508 370.5 50.6816 371.238 49.9434C371.555 49.627 371.796 49.4688 371.963 49.4688C372.28 49.4688 372.438 49.6577 372.438 50.0356C372.438 50.229 372.306 50.4619 372.042 50.7344C371.779 51.0068 371.401 51.2881 370.909 51.5781C370.039 52.0791 369.023 52.3296 367.863 52.3296C366.703 52.3296 365.754 52.1714 365.016 51.855C364.286 51.5298 363.662 51.0859 363.144 50.5234ZM363.803 45.1313C367.925 44.9204 370.096 44.6963 370.315 44.459C370.395 44.3711 370.434 44.1118 370.434 43.6812C370.434 43.2505 370.351 42.833 370.184 42.4287C370.017 42.0156 369.792 41.6641 369.511 41.374C368.931 40.7852 368.21 40.4907 367.349 40.4907C366.374 40.4907 365.552 40.8994 364.884 41.7168C364.181 42.5693 363.82 43.7075 363.803 45.1313ZM377.435 51.3804C377.294 51.4419 377.105 51.5605 376.868 51.7363C376.463 52.0439 376.204 52.1978 376.09 52.1978C375.976 52.1978 375.879 52.1582 375.8 52.0791C375.729 52 375.694 51.9033 375.694 51.7891C375.694 51.6748 375.716 51.5518 375.76 51.4199C375.804 51.2793 375.839 51.1299 375.866 50.9717C375.892 50.8047 375.914 50.5981 375.932 50.3521C375.976 49.7368 375.998 48.9985 375.998 48.1372L376.037 37.4453C376.037 36.6191 375.967 36.083 375.826 35.8369C375.686 35.582 375.541 35.4106 375.391 35.3228C375.242 35.2349 375 35.1646 374.666 35.1118C374.341 35.0591 374.178 34.9229 374.178 34.7031C374.178 34.501 374.402 34.356 374.851 34.2681C375.932 34.0396 376.67 33.8154 377.065 33.5957C377.593 33.2969 377.949 33.1475 378.133 33.1475C378.335 33.1475 378.437 33.2485 378.437 33.4507C378.437 33.5474 378.419 33.6484 378.384 33.7539C378.199 34.2285 378.103 34.8306 378.094 35.5601C378.085 36.2896 378.081 36.8828 378.081 37.3398V41.3608C378.766 40.4731 379.711 39.9106 380.915 39.6733C381.267 39.603 381.605 39.5679 381.93 39.5679C383.574 39.5679 384.888 40.1787 385.872 41.4004C386.786 42.5518 387.243 44.0283 387.243 45.8301C387.243 47.7637 386.632 49.3413 385.411 50.563C384.233 51.7407 382.857 52.3296 381.284 52.3296C379.711 52.3296 378.428 52.0132 377.435 51.3804ZM378.081 49.3896C378.397 50.0225 378.854 50.5059 379.452 50.8398C380.058 51.1738 380.687 51.3408 381.337 51.3408C381.996 51.3408 382.541 51.231 382.972 51.0112C383.411 50.7915 383.78 50.4795 384.079 50.0752C384.712 49.2227 385.028 48.0669 385.028 46.6079C385.028 44.8853 384.686 43.5054 384 42.4683C383.323 41.4399 382.427 40.9258 381.311 40.9258C380.317 40.9258 379.456 41.2773 378.727 41.9805C378.48 42.2178 378.265 42.499 378.081 42.8242V49.3896ZM389.326 46.1465C389.326 45.2939 389.48 44.4678 389.788 43.668C390.095 42.8682 390.53 42.165 391.093 41.5586C392.323 40.2314 393.857 39.5679 395.694 39.5679C397.733 39.5679 399.302 40.1787 400.4 41.4004C401.394 42.5078 401.89 43.9448 401.89 45.7114C401.89 47.4956 401.297 49.0381 400.11 50.3389C398.897 51.666 397.368 52.3296 395.522 52.3296C393.483 52.3296 391.919 51.7188 390.829 50.4971C389.827 49.3896 389.326 47.9395 389.326 46.1465ZM391.554 45.5928C391.554 46.4541 391.673 47.2583 391.91 48.0054C392.147 48.7524 392.473 49.3721 392.886 49.8643C393.703 50.8662 394.736 51.3672 395.984 51.3672C397.091 51.3672 397.992 50.9277 398.687 50.0488C399.407 49.1348 399.768 47.957 399.768 46.5156C399.768 44.6084 399.328 43.1143 398.449 42.0332C397.623 41.04 396.586 40.5435 395.338 40.5435C394.23 40.5435 393.33 40.9829 392.635 41.8618C391.915 42.7759 391.554 44.0195 391.554 45.5928ZM403.828 46.1465C403.828 45.2939 403.982 44.4678 404.29 43.668C404.597 42.8682 405.032 42.165 405.595 41.5586C406.825 40.2314 408.359 39.5679 410.196 39.5679C412.235 39.5679 413.804 40.1787 414.902 41.4004C415.896 42.5078 416.392 43.9448 416.392 45.7114C416.392 47.4956 415.799 49.0381 414.612 50.3389C413.399 51.666 411.87 52.3296 410.024 52.3296C407.985 52.3296 406.421 51.7188 405.331 50.4971C404.329 49.3896 403.828 47.9395 403.828 46.1465ZM406.056 45.5928C406.056 46.4541 406.175 47.2583 406.412 48.0054C406.649 48.7524 406.975 49.3721 407.388 49.8643C408.205 50.8662 409.238 51.3672 410.486 51.3672C411.593 51.3672 412.494 50.9277 413.188 50.0488C413.909 49.1348 414.27 47.957 414.27 46.5156C414.27 44.6084 413.83 43.1143 412.951 42.0332C412.125 41.04 411.088 40.5435 409.84 40.5435C408.732 40.5435 407.832 40.9829 407.137 41.8618C406.417 42.7759 406.056 44.0195 406.056 45.5928ZM418.857 52.1978C418.277 52.1978 417.987 52.0352 417.987 51.71C417.987 51.4551 418.15 51.3276 418.475 51.3276L419.134 51.3936C419.336 51.3936 419.503 51.3584 419.635 51.2881C419.767 51.209 419.868 51.0464 419.938 50.8003C420.079 50.3521 420.149 49.3589 420.149 47.8208V37.4585C420.149 36.6235 420.083 36.083 419.952 35.8369C419.82 35.582 419.679 35.4106 419.53 35.3228C419.38 35.2349 419.139 35.1646 418.805 35.1118C418.479 35.0591 418.317 34.9229 418.317 34.7031C418.317 34.501 418.541 34.356 418.989 34.2681C420.035 34.0483 420.756 33.8286 421.151 33.6089C421.688 33.3013 422.052 33.1475 422.246 33.1475C422.448 33.1475 422.549 33.2485 422.549 33.4507C422.549 33.5474 422.531 33.6484 422.496 33.7539C422.312 34.2285 422.215 34.8306 422.206 35.5601C422.197 36.2896 422.193 36.8872 422.193 37.353V45.2368L426.148 41.4663C426.376 41.2554 426.491 41.0884 426.491 40.9653C426.491 40.8335 426.438 40.7368 426.333 40.6753C426.227 40.605 426.108 40.5391 425.977 40.4775C425.643 40.3281 425.476 40.1699 425.476 40.0029C425.476 39.7832 425.669 39.6733 426.056 39.6733L427.585 39.8052L429.826 39.6733C430.397 39.6733 430.683 39.8008 430.683 40.0557C430.683 40.2842 430.441 40.4204 429.958 40.4644C429.448 40.5171 428.987 40.6973 428.574 41.0049C428.161 41.3037 427.813 41.5762 427.532 41.8223L424.869 44.1558L429.022 50.3916C429.417 51.0332 429.958 51.354 430.644 51.354C431.048 51.354 431.294 51.3848 431.382 51.4463C431.479 51.499 431.527 51.6001 431.527 51.7495C431.527 52.0483 431.268 52.1978 430.749 52.1978L429.22 52.0527L428.152 52.1978C427.871 52.1978 427.646 52.1011 427.479 51.9077C427.321 51.7144 427.172 51.5298 427.031 51.354L423.248 45.5928L422.193 46.5288V47.8208C422.193 49.895 422.325 51.042 422.588 51.2617C422.685 51.3496 422.808 51.3936 422.958 51.3936L423.617 51.3276C423.933 51.3276 424.091 51.4551 424.091 51.71C424.091 52.0352 423.801 52.1978 423.221 52.1978C422.966 52.1978 422.676 52.1626 422.351 52.0923C422.026 52.0308 421.635 52 421.178 52C420.729 52 420.312 52.0308 419.925 52.0923C419.547 52.1626 419.191 52.1978 418.857 52.1978Z" fill="black"/>
</g>
<defs>
<filter id="filter0_d" x="0.5" y="0" width="467" height="96" filterUnits="userSpaceOnUse" color-interpolation-filters="sRGB">
<feFlood flood-opacity="0" result="BackgroundImageFix"/>
<feColorMatrix in="SourceAlpha" type="matrix" values="0 0 0 0 0 0 0 0 0 0 0 0 0 0 0 0 0 0 127 0"/>
<feOffset dy="4"/>
<feGaussianBlur stdDeviation="2"/>
<feColorMatrix type="matrix" values="0 0 0 0 0 0 0 0 0 0 0 0 0 0 0 0 0 0 0.25 0"/>
<feBlend mode="normal" in2="BackgroundImageFix" result="effect1_dropShadow"/>
<feBlend mode="normal" in="SourceGraphic" in2="effect1_dropShadow" result="shape"/>
</filter>
<clipPath id="clip0">
<rect width="54" height="53" fill="white" transform="translate(26.5 18)"/>
</clipPath>
</defs>
</svg>
