<svg width="449" height="88" viewBox="0 0 449 88" fill="none" xmlns="http://www.w3.org/2000/svg">
<rect width="449" height="88" rx="16" fill="#A7CBB6"/>
<g clip-path="url(#clip0)">
<path d="M74.3442 44.5C74.3442 29.8629 62.5208 18 47.9325 18C33.3441 18 21.5207 29.8629 21.5207 44.5C21.5207 57.7294 31.1775 68.6916 43.8056 70.6791V52.1602H37.0995V44.5H43.8056V38.6617C43.8056 32.0212 47.7468 28.3516 53.7822 28.3516C56.671 28.3516 59.6939 28.8691 59.6939 28.8691V35.3906H56.3616C53.0807 35.3906 52.0593 37.4351 52.0593 39.5313V44.5H59.3844L58.2135 52.1602H52.0593V70.6791C64.6874 68.6916 74.3442 57.7294 74.3442 44.5Z" fill="#1877F2"/>
<path d="M58.2135 52.1602L59.3844 44.5H52.0593V39.5312C52.0593 37.4351 53.0807 35.3906 56.3616 35.3906H59.6939V28.8691C59.6939 28.8691 56.671 28.3516 53.7822 28.3516C47.7468 28.3516 43.8056 32.0211 43.8056 38.6617V44.5H37.0995V52.1602H43.8056V70.6791C45.152 70.8913 46.5293 71 47.9325 71C49.3356 71 50.713 70.8913 52.0593 70.6791V52.1602H58.2135Z" fill="white"/>
</g>
<path d="M119.769 38.144C119.769 38.4868 119.651 38.6582 119.413 38.6582C119.202 38.6582 119.027 38.4473 118.886 38.0254C118.754 37.5947 118.499 37.1904 118.121 36.8125C117.743 36.4346 117.291 36.1182 116.763 35.8633C115.665 35.3271 114.483 35.0591 113.217 35.0591C111.96 35.0591 110.87 35.2305 109.948 35.5732C109.034 35.9072 108.247 36.3906 107.588 37.0234C106.217 38.3682 105.531 40.1831 105.531 42.4683C105.531 44.9995 106.305 47.0869 107.851 48.7305C109.389 50.3652 111.358 51.1826 113.758 51.1826C116.43 51.1826 118.495 49.9565 119.954 47.5044C120.051 47.3462 120.152 47.2583 120.257 47.2407C120.354 47.2407 120.451 47.3462 120.547 47.5571C120.644 47.7681 120.692 48.0054 120.692 48.269C120.692 48.7085 120.319 49.2798 119.572 49.9829C118.825 50.686 117.915 51.2529 116.843 51.6836C115.779 52.1143 114.535 52.3296 113.112 52.3296C111.697 52.3296 110.352 52.1011 109.077 51.644C107.812 51.1782 106.735 50.5454 105.847 49.7456C103.984 48.0757 103.053 45.9883 103.053 43.4834C103.053 40.6533 103.993 38.3682 105.874 36.6279C107.755 34.8789 110.229 34.0044 113.296 34.0044C115.511 34.0044 117.344 34.2988 118.794 34.8877C119.075 35.0107 119.26 35.1294 119.347 35.2437C119.523 35.4897 119.624 35.8589 119.651 36.3511C119.686 36.8345 119.708 37.1685 119.717 37.353C119.752 37.7837 119.769 38.0474 119.769 38.144ZM122.353 46.1465C122.353 45.2939 122.507 44.4678 122.815 43.668C123.122 42.8682 123.557 42.165 124.12 41.5586C125.35 40.2314 126.884 39.5679 128.721 39.5679C130.76 39.5679 132.329 40.1787 133.428 41.4004C134.421 42.5078 134.917 43.9448 134.917 45.7114C134.917 47.4956 134.324 49.0381 133.138 50.3389C131.925 51.666 130.395 52.3296 128.55 52.3296C126.511 52.3296 124.946 51.7188 123.856 50.4971C122.854 49.3896 122.353 47.9395 122.353 46.1465ZM124.581 45.5928C124.581 46.4541 124.7 47.2583 124.937 48.0054C125.175 48.7524 125.5 49.3721 125.913 49.8643C126.73 50.8662 127.763 51.3672 129.011 51.3672C130.118 51.3672 131.019 50.9277 131.714 50.0488C132.434 49.1348 132.795 47.957 132.795 46.5156C132.795 44.6084 132.355 43.1143 131.476 42.0332C130.65 41.04 129.613 40.5435 128.365 40.5435C127.258 40.5435 126.357 40.9829 125.662 41.8618C124.942 42.7759 124.581 44.0195 124.581 45.5928ZM150.171 50.2598C150.426 50.2598 150.553 50.374 150.553 50.6025C150.553 50.7256 150.496 50.8311 150.382 50.9189C150.276 51.0068 150.109 51.0991 149.881 51.1958C149.652 51.2837 149.472 51.3584 149.34 51.4199C149.208 51.4814 149.085 51.543 148.971 51.6045C148.786 51.7012 148.584 51.8242 148.365 51.9736C147.995 52.2109 147.741 52.3296 147.6 52.3296C147.468 52.3296 147.345 52.2944 147.231 52.2241C147.125 52.1626 147.015 52.0439 146.901 51.8682C146.638 51.4551 146.497 50.8486 146.479 50.0488C145.732 51.1035 144.774 51.7759 143.605 52.0659C143.245 52.1538 142.823 52.1978 142.34 52.1978C141.856 52.1978 141.355 52.1187 140.837 51.9604C140.327 51.7935 139.888 51.5254 139.518 51.1562C138.727 50.3916 138.332 49.2314 138.332 47.6758V43.8789C138.332 43.0352 138.279 42.4858 138.174 42.231C138.077 41.9761 137.967 41.8047 137.844 41.7168C137.73 41.6289 137.576 41.5674 137.383 41.5322C136.987 41.4443 136.789 41.2993 136.789 41.0972C136.789 40.8774 137.013 40.7236 137.462 40.6357C138.455 40.4336 139.114 40.2358 139.439 40.0425C139.905 39.7788 140.226 39.647 140.402 39.647C140.577 39.647 140.665 39.748 140.665 39.9502C140.665 40.0469 140.643 40.1479 140.599 40.2534C140.424 40.728 140.331 41.3169 140.323 42.02C140.314 42.7231 140.309 43.3076 140.309 43.7734V47.1484C140.309 48.9766 140.898 50.0928 142.076 50.4971C142.428 50.6113 142.775 50.6685 143.117 50.6685C143.46 50.6685 143.781 50.6289 144.08 50.5498C144.388 50.4619 144.686 50.3301 144.976 50.1543C145.6 49.7588 146.097 49.1787 146.466 48.4141L146.506 43.5889C146.506 42.8418 146.44 42.3628 146.308 42.1519C146.176 41.9321 146.031 41.7871 145.873 41.7168C145.715 41.6465 145.464 41.585 145.121 41.5322C144.787 41.4795 144.62 41.3389 144.62 41.1104C144.62 40.9082 144.831 40.7632 145.253 40.6753C145.684 40.5874 146.079 40.4819 146.44 40.3589C146.8 40.2271 147.117 40.104 147.389 39.9897C147.67 39.8755 147.899 39.7788 148.075 39.6997C148.259 39.6118 148.387 39.5679 148.457 39.5679C148.659 39.5679 148.76 39.6689 148.76 39.8711C148.76 39.9678 148.738 40.0688 148.694 40.1743C148.518 40.6489 148.426 41.251 148.417 41.9805C148.409 42.71 148.404 43.3076 148.404 43.7734V48.7173C148.404 49.394 148.461 49.8247 148.576 50.0093C148.751 50.2993 149.002 50.4443 149.327 50.4443L150.171 50.2598ZM152.847 52.1978C152.267 52.1978 151.977 52.0352 151.977 51.71C151.977 51.4551 152.139 51.3276 152.465 51.3276L153.163 51.3936C153.366 51.3936 153.533 51.3584 153.664 51.2881C153.796 51.209 153.897 51.0464 153.968 50.8003C154.108 50.3521 154.179 49.3589 154.179 47.8208V43.8789C154.179 42.9912 154.117 42.4375 153.994 42.2178C153.88 41.9893 153.739 41.8354 153.572 41.7563C153.405 41.6685 153.146 41.5981 152.794 41.5454C152.443 41.4839 152.267 41.3433 152.267 41.1235C152.267 40.9214 152.491 40.7764 152.939 40.6885C154.073 40.4512 154.829 40.2271 155.207 40.0161C155.725 39.7173 156.081 39.5679 156.275 39.5679C156.477 39.5679 156.578 39.6689 156.578 39.8711C156.578 39.9678 156.56 40.0688 156.525 40.1743C156.358 40.5962 156.262 41.2773 156.235 42.2178C156.736 41.3652 157.36 40.7104 158.107 40.2534C158.863 39.7964 159.606 39.5679 160.335 39.5679C161.074 39.5679 161.698 39.6602 162.207 39.8447C162.717 40.0293 163.152 40.3105 163.513 40.6885C164.251 41.4795 164.62 42.644 164.62 44.1821V47.8208C164.62 49.3589 164.673 50.3037 164.778 50.6553C164.884 50.998 165.002 51.209 165.134 51.2881C165.266 51.3584 165.433 51.3936 165.635 51.3936L166.321 51.3276C166.646 51.3276 166.808 51.4551 166.808 51.71C166.808 52.0352 166.514 52.1978 165.925 52.1978C165.582 52.1978 165.218 52.1626 164.831 52.0923C164.453 52.0308 164.044 52 163.605 52C163.174 52 162.761 52.0308 162.366 52.0923C161.97 52.1626 161.601 52.1978 161.258 52.1978C160.669 52.1978 160.375 52.0352 160.375 51.71C160.375 51.4551 160.537 51.3276 160.863 51.3276L161.548 51.3936C161.75 51.3936 161.917 51.3584 162.049 51.2881C162.181 51.209 162.286 51.0464 162.366 50.8003C162.506 50.3608 162.576 49.3677 162.576 47.8208V44.8149C162.576 42.3013 161.662 41.0444 159.834 41.0444C158.542 41.0444 157.536 41.6289 156.815 42.7979C156.56 43.2285 156.363 43.7559 156.222 44.3799V47.8208C156.222 49.3589 156.275 50.3037 156.38 50.6553C156.486 50.998 156.604 51.209 156.736 51.2881C156.868 51.3584 157.035 51.3936 157.237 51.3936L157.936 51.3276C158.261 51.3276 158.424 51.4551 158.424 51.71C158.424 52.0352 158.134 52.1978 157.554 52.1978C157.22 52.1978 156.864 52.1626 156.486 52.0923C156.117 52.0308 155.699 52 155.233 52C154.767 52 154.337 52.0308 153.941 52.0923C153.555 52.1626 153.19 52.1978 152.847 52.1978ZM175.51 40.873C175.51 41.1104 175.369 41.229 175.088 41.229L171.344 41.1895V48.4932C171.344 49.8555 171.673 50.6641 172.332 50.9189C172.534 50.998 172.772 51.0376 173.044 51.0376C173.317 51.0376 173.563 50.9937 173.783 50.9058C174.011 50.8091 174.213 50.708 174.389 50.6025C174.565 50.4971 174.714 50.4004 174.837 50.3125C174.96 50.2158 175.075 50.1675 175.18 50.1675C175.294 50.1675 175.395 50.229 175.483 50.3521C175.571 50.4751 175.615 50.5981 175.615 50.7212C175.615 51.0288 175.224 51.3979 174.442 51.8286C173.844 52.1626 173.093 52.3296 172.187 52.3296C171.282 52.3296 170.575 52.0088 170.065 51.3672C169.555 50.7168 169.3 49.8203 169.3 48.6777V41.1499H168.496C167.863 41.1499 167.547 40.9873 167.547 40.6621C167.547 40.4248 167.722 40.2622 168.074 40.1743C168.426 40.0864 168.729 39.9326 168.984 39.7129C169.239 39.4844 169.445 39.2295 169.603 38.9482C169.77 38.6582 169.902 38.3594 169.999 38.0518C170.096 37.7441 170.183 37.4629 170.263 37.208C170.456 36.6279 170.676 36.3379 170.922 36.3379C171.203 36.3379 171.344 36.5884 171.344 37.0894V40.0688L175.048 39.9897C175.233 39.9897 175.378 40.2095 175.483 40.6489C175.501 40.7456 175.51 40.8203 175.51 40.873ZM181.482 35.6392C181.482 36.0083 181.354 36.3247 181.099 36.5884C180.853 36.8433 180.515 36.9707 180.084 36.9707C179.662 36.9707 179.333 36.8477 179.096 36.6016C178.867 36.3467 178.753 36.0742 178.753 35.7842C178.753 35.4854 178.792 35.2568 178.871 35.0986C178.951 34.9404 179.052 34.8042 179.175 34.6899C179.447 34.4526 179.777 34.334 180.163 34.334C180.559 34.334 180.875 34.457 181.113 34.7031C181.359 34.9492 181.482 35.2612 181.482 35.6392ZM177.856 52.1978C177.267 52.1978 176.973 52.0352 176.973 51.71C176.973 51.4551 177.136 51.3276 177.461 51.3276L178.12 51.3936C178.322 51.3936 178.489 51.3584 178.621 51.2881C178.753 51.209 178.858 51.0464 178.937 50.8003C179.078 50.3608 179.148 49.3677 179.148 47.8208V43.8525C179.148 42.9824 179.087 42.4331 178.964 42.2046C178.849 41.9673 178.718 41.8091 178.568 41.73C178.419 41.6421 178.168 41.5762 177.817 41.5322C177.474 41.4795 177.303 41.3389 177.303 41.1104C177.303 40.9082 177.531 40.7588 177.988 40.6621C179.034 40.4512 179.755 40.2358 180.15 40.0161C180.695 39.7085 181.069 39.5547 181.271 39.5547C181.473 39.5547 181.574 39.6558 181.574 39.8579C181.574 39.9546 181.556 40.0557 181.521 40.1611C181.319 40.7676 181.218 41.9629 181.218 43.7471V47.8208C181.218 49.3677 181.271 50.3125 181.376 50.6553C181.491 50.998 181.614 51.209 181.745 51.2881C181.877 51.3584 182.044 51.3936 182.246 51.3936L182.906 51.3276C183.231 51.3276 183.393 51.4551 183.393 51.71C183.393 52.0352 183.099 52.1978 182.51 52.1978C182.176 52.1978 181.816 52.1626 181.429 52.0923C181.051 52.0308 180.642 52 180.203 52C179.763 52 179.346 52.0308 178.951 52.0923C178.555 52.1626 178.19 52.1978 177.856 52.1978ZM185.41 52.1978C184.83 52.1978 184.54 52.0352 184.54 51.71C184.54 51.4551 184.703 51.3276 185.028 51.3276L185.727 51.3936C185.929 51.3936 186.096 51.3584 186.228 51.2881C186.36 51.209 186.461 51.0464 186.531 50.8003C186.672 50.3521 186.742 49.3589 186.742 47.8208V43.8789C186.742 42.9912 186.68 42.4375 186.557 42.2178C186.443 41.9893 186.303 41.8354 186.136 41.7563C185.969 41.6685 185.709 41.5981 185.358 41.5454C185.006 41.4839 184.83 41.3433 184.83 41.1235C184.83 40.9214 185.055 40.7764 185.503 40.6885C186.637 40.4512 187.392 40.2271 187.77 40.0161C188.289 39.7173 188.645 39.5679 188.838 39.5679C189.04 39.5679 189.141 39.6689 189.141 39.8711C189.141 39.9678 189.124 40.0688 189.089 40.1743C188.922 40.5962 188.825 41.2773 188.799 42.2178C189.3 41.3652 189.924 40.7104 190.671 40.2534C191.427 39.7964 192.169 39.5679 192.899 39.5679C193.637 39.5679 194.261 39.6602 194.771 39.8447C195.281 40.0293 195.716 40.3105 196.076 40.6885C196.814 41.4795 197.183 42.644 197.183 44.1821V47.8208C197.183 49.3589 197.236 50.3037 197.342 50.6553C197.447 50.998 197.566 51.209 197.698 51.2881C197.829 51.3584 197.996 51.3936 198.199 51.3936L198.884 51.3276C199.209 51.3276 199.372 51.4551 199.372 51.71C199.372 52.0352 199.077 52.1978 198.489 52.1978C198.146 52.1978 197.781 52.1626 197.394 52.0923C197.016 52.0308 196.608 52 196.168 52C195.738 52 195.325 52.0308 194.929 52.0923C194.534 52.1626 194.164 52.1978 193.822 52.1978C193.233 52.1978 192.938 52.0352 192.938 51.71C192.938 51.4551 193.101 51.3276 193.426 51.3276L194.112 51.3936C194.314 51.3936 194.481 51.3584 194.613 51.2881C194.744 51.209 194.85 51.0464 194.929 50.8003C195.07 50.3608 195.14 49.3677 195.14 47.8208V44.8149C195.14 42.3013 194.226 41.0444 192.398 41.0444C191.106 41.0444 190.099 41.6289 189.379 42.7979C189.124 43.2285 188.926 43.7559 188.785 44.3799V47.8208C188.785 49.3589 188.838 50.3037 188.944 50.6553C189.049 50.998 189.168 51.209 189.3 51.2881C189.431 51.3584 189.598 51.3936 189.801 51.3936L190.499 51.3276C190.825 51.3276 190.987 51.4551 190.987 51.71C190.987 52.0352 190.697 52.1978 190.117 52.1978C189.783 52.1978 189.427 52.1626 189.049 52.0923C188.68 52.0308 188.263 52 187.797 52C187.331 52 186.9 52.0308 186.505 52.0923C186.118 52.1626 185.753 52.1978 185.41 52.1978ZM213.927 50.2598C214.181 50.2598 214.309 50.374 214.309 50.6025C214.309 50.7256 214.252 50.8311 214.138 50.9189C214.032 51.0068 213.865 51.0991 213.637 51.1958C213.408 51.2837 213.228 51.3584 213.096 51.4199C212.964 51.4814 212.841 51.543 212.727 51.6045C212.542 51.7012 212.34 51.8242 212.12 51.9736C211.751 52.2109 211.496 52.3296 211.356 52.3296C211.224 52.3296 211.101 52.2944 210.987 52.2241C210.881 52.1626 210.771 52.0439 210.657 51.8682C210.393 51.4551 210.253 50.8486 210.235 50.0488C209.488 51.1035 208.53 51.7759 207.361 52.0659C207.001 52.1538 206.579 52.1978 206.096 52.1978C205.612 52.1978 205.111 52.1187 204.593 51.9604C204.083 51.7935 203.643 51.5254 203.274 51.1562C202.483 50.3916 202.088 49.2314 202.088 47.6758V43.8789C202.088 43.0352 202.035 42.4858 201.93 42.231C201.833 41.9761 201.723 41.8047 201.6 41.7168C201.486 41.6289 201.332 41.5674 201.138 41.5322C200.743 41.4443 200.545 41.2993 200.545 41.0972C200.545 40.8774 200.769 40.7236 201.218 40.6357C202.211 40.4336 202.87 40.2358 203.195 40.0425C203.661 39.7788 203.982 39.647 204.158 39.647C204.333 39.647 204.421 39.748 204.421 39.9502C204.421 40.0469 204.399 40.1479 204.355 40.2534C204.18 40.728 204.087 41.3169 204.078 42.02C204.07 42.7231 204.065 43.3076 204.065 43.7734V47.1484C204.065 48.9766 204.654 50.0928 205.832 50.4971C206.183 50.6113 206.531 50.6685 206.873 50.6685C207.216 50.6685 207.537 50.6289 207.836 50.5498C208.143 50.4619 208.442 50.3301 208.732 50.1543C209.356 49.7588 209.853 49.1787 210.222 48.4141L210.262 43.5889C210.262 42.8418 210.196 42.3628 210.064 42.1519C209.932 41.9321 209.787 41.7871 209.629 41.7168C209.471 41.6465 209.22 41.585 208.877 41.5322C208.543 41.4795 208.376 41.3389 208.376 41.1104C208.376 40.9082 208.587 40.7632 209.009 40.6753C209.44 40.5874 209.835 40.4819 210.196 40.3589C210.556 40.2271 210.872 40.104 211.145 39.9897C211.426 39.8755 211.655 39.7788 211.83 39.6997C212.015 39.6118 212.142 39.5679 212.213 39.5679C212.415 39.5679 212.516 39.6689 212.516 39.8711C212.516 39.9678 212.494 40.0688 212.45 40.1743C212.274 40.6489 212.182 41.251 212.173 41.9805C212.164 42.71 212.16 43.3076 212.16 43.7734V48.7173C212.16 49.394 212.217 49.8247 212.331 50.0093C212.507 50.2993 212.758 50.4443 213.083 50.4443L213.927 50.2598ZM217.671 50.5234C217.161 49.9521 216.765 49.2798 216.484 48.5063C216.212 47.7329 216.076 46.876 216.076 45.9355C216.076 44.9863 216.238 44.1162 216.563 43.3252C216.888 42.5342 217.337 41.8574 217.908 41.2949C219.095 40.126 220.558 39.5415 222.298 39.5415C223.74 39.5415 224.904 40.0161 225.792 40.9653C226.636 41.8794 227.057 43.0088 227.057 44.3535C227.057 44.793 226.996 45.0962 226.873 45.2632C226.759 45.4214 226.614 45.5181 226.438 45.5532C226.262 45.5796 226.02 45.606 225.713 45.6323C225.405 45.6499 225.032 45.6719 224.592 45.6982C224.153 45.7246 223.66 45.751 223.116 45.7773C222.579 45.8037 222.03 45.8345 221.468 45.8696C220.176 45.9487 219.138 46.0278 218.356 46.1069C218.55 48.4712 219.455 50.0049 221.072 50.708C221.599 50.9365 222.162 51.0508 222.76 51.0508C224.025 51.0508 225.027 50.6816 225.765 49.9434C226.082 49.627 226.324 49.4688 226.491 49.4688C226.807 49.4688 226.965 49.6577 226.965 50.0356C226.965 50.229 226.833 50.4619 226.57 50.7344C226.306 51.0068 225.928 51.2881 225.436 51.5781C224.566 52.0791 223.551 52.3296 222.39 52.3296C221.23 52.3296 220.281 52.1714 219.543 51.855C218.813 51.5298 218.189 51.0859 217.671 50.5234ZM218.33 45.1313C222.452 44.9204 224.623 44.6963 224.843 44.459C224.922 44.3711 224.961 44.1118 224.961 43.6812C224.961 43.2505 224.878 42.833 224.711 42.4287C224.544 42.0156 224.32 41.6641 224.038 41.374C223.458 40.7852 222.738 40.4907 221.876 40.4907C220.901 40.4907 220.079 40.8994 219.411 41.7168C218.708 42.5693 218.347 43.7075 218.33 45.1313ZM254.954 39.6865C255.314 39.6865 255.494 39.7964 255.494 40.0161C255.494 40.2007 255.327 40.3545 254.993 40.4775C254.659 40.5918 254.413 40.7017 254.255 40.8071C254.106 40.9126 253.961 41.0664 253.82 41.2686C253.592 41.5938 253.271 42.2529 252.858 43.2461L249.127 51.9473C249.021 52.2021 248.907 52.3296 248.784 52.3296C248.599 52.3296 248.454 52.2021 248.349 51.9473L244.776 43.6548L241.348 51.9473C241.243 52.2021 241.129 52.3296 241.006 52.3296C240.821 52.3296 240.676 52.2021 240.571 51.9473L236.536 42.2178C236.308 41.6201 236.123 41.2378 235.983 41.0708C235.745 40.7808 235.433 40.5918 235.047 40.5039C234.669 40.4072 234.48 40.2402 234.48 40.0029C234.48 39.9238 234.528 39.8535 234.625 39.792C234.713 39.7217 234.845 39.6865 235.02 39.6865L237.064 39.8315C237.591 39.8315 237.982 39.814 238.237 39.7788C238.685 39.7173 239.055 39.6865 239.345 39.6865C239.942 39.6865 240.241 39.814 240.241 40.0688C240.241 40.3325 239.889 40.4819 239.186 40.5171C238.756 40.5347 238.523 40.6533 238.488 40.873C238.479 40.9346 238.474 41.0093 238.474 41.0972C238.474 41.2993 238.567 41.6509 238.751 42.1519L241.493 48.7568L244.143 42.2046L243.853 41.519C243.642 41.0269 243.423 40.7192 243.194 40.5962C243.106 40.5522 243.005 40.5083 242.891 40.4644C242.557 40.3413 242.39 40.1831 242.39 39.9897C242.39 39.7876 242.588 39.6865 242.983 39.6865L244.671 39.8315C245.216 39.8315 245.624 39.814 245.897 39.7788C246.371 39.7173 246.833 39.6865 247.281 39.6865C247.738 39.6865 247.967 39.814 247.967 40.0688C247.967 40.3325 247.615 40.4819 246.912 40.5171C246.367 40.5435 246.095 40.7236 246.095 41.0576C246.095 41.4004 246.27 41.9629 246.622 42.7451L249.311 48.915L251.144 44.3535C251.724 42.8945 252.032 42.02 252.067 41.73C252.102 41.4312 252.119 41.2158 252.119 41.084C252.119 40.75 251.891 40.5654 251.434 40.5303C250.977 40.4863 250.669 40.4336 250.511 40.3721C250.362 40.3105 250.287 40.2095 250.287 40.0688C250.287 39.814 250.586 39.6865 251.183 39.6865L253.425 39.8184L254.954 39.6865ZM260.135 35.6392C260.135 36.0083 260.008 36.3247 259.753 36.5884C259.507 36.8433 259.168 36.9707 258.738 36.9707C258.316 36.9707 257.986 36.8477 257.749 36.6016C257.52 36.3467 257.406 36.0742 257.406 35.7842C257.406 35.4854 257.446 35.2568 257.525 35.0986C257.604 34.9404 257.705 34.8042 257.828 34.6899C258.1 34.4526 258.43 34.334 258.817 34.334C259.212 34.334 259.529 34.457 259.766 34.7031C260.012 34.9492 260.135 35.2612 260.135 35.6392ZM256.51 52.1978C255.921 52.1978 255.626 52.0352 255.626 51.71C255.626 51.4551 255.789 51.3276 256.114 51.3276L256.773 51.3936C256.975 51.3936 257.142 51.3584 257.274 51.2881C257.406 51.209 257.512 51.0464 257.591 50.8003C257.731 50.3608 257.802 49.3677 257.802 47.8208V43.8525C257.802 42.9824 257.74 42.4331 257.617 42.2046C257.503 41.9673 257.371 41.8091 257.221 41.73C257.072 41.6421 256.822 41.5762 256.47 41.5322C256.127 41.4795 255.956 41.3389 255.956 41.1104C255.956 40.9082 256.184 40.7588 256.641 40.6621C257.687 40.4512 258.408 40.2358 258.804 40.0161C259.348 39.7085 259.722 39.5547 259.924 39.5547C260.126 39.5547 260.227 39.6558 260.227 39.8579C260.227 39.9546 260.21 40.0557 260.175 40.1611C259.972 40.7676 259.871 41.9629 259.871 43.7471V47.8208C259.871 49.3677 259.924 50.3125 260.03 50.6553C260.144 50.998 260.267 51.209 260.399 51.2881C260.531 51.3584 260.698 51.3936 260.9 51.3936L261.559 51.3276C261.884 51.3276 262.047 51.4551 262.047 51.71C262.047 52.0352 261.752 52.1978 261.163 52.1978C260.829 52.1978 260.469 52.1626 260.082 52.0923C259.704 52.0308 259.296 52 258.856 52C258.417 52 257.999 52.0308 257.604 52.0923C257.208 52.1626 256.844 52.1978 256.51 52.1978ZM270.932 40.873C270.932 41.1104 270.792 41.229 270.511 41.229L266.766 41.1895V48.4932C266.766 49.8555 267.096 50.6641 267.755 50.9189C267.957 50.998 268.195 51.0376 268.467 51.0376C268.74 51.0376 268.986 50.9937 269.205 50.9058C269.434 50.8091 269.636 50.708 269.812 50.6025C269.988 50.4971 270.137 50.4004 270.26 50.3125C270.383 50.2158 270.497 50.1675 270.603 50.1675C270.717 50.1675 270.818 50.229 270.906 50.3521C270.994 50.4751 271.038 50.5981 271.038 50.7212C271.038 51.0288 270.647 51.3979 269.865 51.8286C269.267 52.1626 268.515 52.3296 267.61 52.3296C266.705 52.3296 265.997 52.0088 265.488 51.3672C264.978 50.7168 264.723 49.8203 264.723 48.6777V41.1499H263.919C263.286 41.1499 262.97 40.9873 262.97 40.6621C262.97 40.4248 263.145 40.2622 263.497 40.1743C263.848 40.0864 264.152 39.9326 264.407 39.7129C264.661 39.4844 264.868 39.2295 265.026 38.9482C265.193 38.6582 265.325 38.3594 265.422 38.0518C265.518 37.7441 265.606 37.4629 265.685 37.208C265.879 36.6279 266.098 36.3379 266.345 36.3379C266.626 36.3379 266.766 36.5884 266.766 37.0894V40.0688L270.471 39.9897C270.656 39.9897 270.801 40.2095 270.906 40.6489C270.924 40.7456 270.932 40.8203 270.932 40.873ZM273.279 52.1978C272.699 52.1978 272.409 52.0352 272.409 51.71C272.409 51.4551 272.572 51.3276 272.897 51.3276L273.556 51.3936C273.758 51.3936 273.925 51.3584 274.057 51.2881C274.189 51.209 274.29 51.0464 274.36 50.8003C274.501 50.3521 274.571 49.3589 274.571 47.8208V37.4585C274.571 36.6235 274.505 36.083 274.373 35.8369C274.242 35.582 274.101 35.4106 273.951 35.3228C273.802 35.2349 273.56 35.1646 273.226 35.1118C272.901 35.0591 272.739 34.9229 272.739 34.7031C272.739 34.501 272.963 34.356 273.411 34.2681C274.457 34.0483 275.178 33.8286 275.573 33.6089C276.109 33.3013 276.474 33.1475 276.667 33.1475C276.869 33.1475 276.971 33.2485 276.971 33.4507C276.971 33.5474 276.953 33.6484 276.918 33.7539C276.733 34.2285 276.637 34.8306 276.628 35.5601C276.619 36.2896 276.615 36.8872 276.615 37.353V42.4946C277.344 41.0972 278.377 40.1875 279.713 39.7656C280.135 39.6338 280.556 39.5679 280.978 39.5679C282.262 39.5679 283.255 39.9414 283.958 40.6885C284.661 41.4355 285.013 42.6001 285.013 44.1821V47.8208C285.013 49.3589 285.065 50.3037 285.171 50.6553C285.276 50.998 285.395 51.209 285.527 51.2881C285.659 51.3584 285.826 51.3936 286.028 51.3936L286.687 51.3276C287.012 51.3276 287.175 51.4551 287.175 51.71C287.175 52.0352 286.88 52.1978 286.291 52.1978C285.957 52.1978 285.601 52.1626 285.223 52.0923C284.846 52.0308 284.437 52 283.997 52C283.567 52 283.154 52.0308 282.758 52.0923C282.371 52.1626 282.011 52.1978 281.677 52.1978C281.088 52.1978 280.794 52.0352 280.794 51.71C280.794 51.4551 280.956 51.3276 281.282 51.3276L281.941 51.3936C282.143 51.3936 282.31 51.3584 282.442 51.2881C282.574 51.209 282.679 51.0464 282.758 50.8003C282.899 50.3608 282.969 49.3677 282.969 47.8208V44.8149C282.969 42.3101 282.046 41.0576 280.201 41.0576C278.865 41.0576 277.849 41.752 277.155 43.1406C276.909 43.624 276.729 44.1953 276.615 44.8545V47.8208C276.615 49.3589 276.667 50.3037 276.773 50.6553C276.878 50.998 276.997 51.209 277.129 51.2881C277.261 51.3584 277.428 51.3936 277.63 51.3936L278.289 51.3276C278.614 51.3276 278.777 51.4551 278.777 51.71C278.777 52.0352 278.487 52.1978 277.907 52.1978C277.573 52.1978 277.225 52.1626 276.865 52.0923C276.505 52.0308 276.092 52 275.626 52C275.16 52 274.734 52.0308 274.347 52.0923C273.969 52.1626 273.613 52.1978 273.279 52.1978ZM296.232 52.1978C295.66 52.1978 295.375 52.0352 295.375 51.71C295.375 51.4551 295.533 51.3276 295.849 51.3276L296.495 51.3936C297.023 51.3936 297.379 51.0991 297.563 50.5103C297.713 50.0093 297.787 49.1128 297.787 47.8208V38.5132C297.787 37.2212 297.726 36.3774 297.603 35.9819C297.48 35.5776 297.33 35.3052 297.155 35.1646C296.988 35.0151 296.768 34.9404 296.495 34.9404L295.849 34.9932C295.533 34.9932 295.375 34.8657 295.375 34.6108C295.375 34.2856 295.608 34.123 296.074 34.123C296.548 34.123 296.935 34.1362 297.234 34.1626C297.533 34.1802 297.836 34.2021 298.143 34.2285C298.952 34.2988 299.563 34.334 299.976 34.334C300.389 34.334 300.833 34.3252 301.307 34.3076C301.782 34.2812 302.327 34.2549 302.942 34.2285C304.586 34.1582 305.728 34.123 306.37 34.123C307.012 34.123 307.367 34.1626 307.438 34.2417C307.517 34.3208 307.556 34.4307 307.556 34.5713C307.556 34.7031 307.552 34.8306 307.543 34.9536C307.543 35.0767 307.539 35.2129 307.53 35.3623C307.521 35.5645 307.495 35.8677 307.451 36.272C307.407 36.6675 307.354 36.9355 307.293 37.0762C307.231 37.208 307.143 37.2739 307.029 37.2739C306.915 37.2739 306.836 37.2476 306.792 37.1948C306.748 37.1333 306.686 37.0015 306.607 36.7993C306.537 36.5884 306.405 36.3906 306.212 36.2061C306.027 36.0127 305.728 35.8545 305.315 35.7314C304.533 35.4941 303.074 35.3755 300.938 35.3755H300.292C300.081 35.3755 299.945 35.4062 299.884 35.4678C299.831 35.5293 299.805 35.6699 299.805 35.8896V41.73C300.639 41.8267 301.387 41.875 302.046 41.875C302.705 41.875 303.18 41.8706 303.47 41.8618C303.768 41.853 304.014 41.8311 304.208 41.7959C304.551 41.7256 304.797 41.5674 304.946 41.3213C305.245 40.8555 305.487 40.6226 305.671 40.6226C305.909 40.6226 306.027 40.7456 306.027 40.9917L305.566 42.8638L305.618 43.8657C305.618 44.4985 305.469 44.8149 305.17 44.8149C304.915 44.8149 304.788 44.6479 304.788 44.314C304.788 43.9712 304.766 43.7163 304.722 43.5493C304.687 43.3823 304.577 43.2549 304.392 43.167C304.111 43.0176 303.333 42.9429 302.059 42.9429C302.033 42.9429 301.281 42.978 299.805 43.0483V47.8208C299.805 49.1479 299.862 50.0049 299.976 50.3916C300.099 50.7695 300.244 51.0332 300.411 51.1826C300.587 51.3232 300.815 51.3936 301.096 51.3936L301.808 51.3276C302.142 51.3276 302.309 51.4551 302.309 51.71C302.309 52.0352 302.019 52.1978 301.439 52.1978L298.961 52C298.319 52 297.774 52.0308 297.326 52.0923C296.878 52.1626 296.513 52.1978 296.232 52.1978ZM321.637 50.2334C321.891 50.2334 322.019 50.3521 322.019 50.5894C322.019 50.8179 321.764 51.0376 321.254 51.2485C320.744 51.4595 320.388 51.6528 320.186 51.8286C319.984 51.9956 319.835 52.1187 319.738 52.1978C319.641 52.2856 319.527 52.3296 319.395 52.3296C319.132 52.3296 318.912 52.2197 318.736 52C318.56 51.7803 318.323 51.3101 318.024 50.5894C317.523 51.1606 316.912 51.5957 316.192 51.8945C315.48 52.1846 314.772 52.3296 314.069 52.3296C312.742 52.3296 311.714 51.9912 310.984 51.3145C310.255 50.6377 309.89 49.7104 309.89 48.5327C309.89 47.355 310.439 46.4014 311.538 45.6719C312.645 44.9336 314.056 44.5645 315.77 44.5645C316.28 44.5645 316.952 44.6523 317.787 44.8281V43.7998C317.787 41.541 316.833 40.4116 314.926 40.4116C313.915 40.4116 313.173 40.8774 312.698 41.8091C312.285 42.644 311.881 43.0615 311.485 43.0615C311.195 43.0615 310.94 42.978 310.721 42.811C310.51 42.644 310.404 42.4331 310.404 42.1782C310.404 41.9233 310.536 41.6421 310.8 41.3345C311.063 41.0181 311.415 40.7324 311.854 40.4775C312.891 39.8711 314.03 39.5679 315.269 39.5679C317.466 39.5679 318.886 40.2842 319.527 41.7168C319.764 42.2266 319.883 42.8506 319.883 43.5889V48.8491C319.883 49.5259 319.949 49.9609 320.081 50.1543C320.213 50.3477 320.397 50.4443 320.635 50.4443C320.872 50.4443 321.065 50.4092 321.215 50.3389C321.364 50.2686 321.505 50.2334 321.637 50.2334ZM317.787 46.0542C317.154 45.6938 316.354 45.5137 315.388 45.5137C314.421 45.5137 313.643 45.7554 313.054 46.2388C312.474 46.7222 312.184 47.3726 312.184 48.1899C312.184 48.9985 312.408 49.6753 312.856 50.2202C313.305 50.7563 313.88 51.0244 314.583 51.0244C316.086 51.0244 317.167 50.5322 317.826 49.5479C317.8 49.3018 317.787 49.0293 317.787 48.7305V46.0542ZM323.284 45.9619C323.284 45.0303 323.451 44.1689 323.785 43.3779C324.128 42.5781 324.59 41.897 325.17 41.3345C326.4 40.1567 327.951 39.5679 329.824 39.5679C330.931 39.603 331.893 39.8623 332.711 40.3457C333.546 40.8291 333.981 41.4224 334.016 42.1255C334.016 42.5034 333.765 42.7539 333.264 42.877C333.133 42.9033 333.014 42.9165 332.909 42.9165C332.504 42.9165 332.175 42.6396 331.92 42.0859C331.419 41.04 330.571 40.5171 329.375 40.5171C328.321 40.5171 327.437 40.9521 326.725 41.8223C325.97 42.7451 325.592 43.9624 325.592 45.4741C325.592 47.1528 325.983 48.502 326.765 49.5215C327.582 50.5938 328.699 51.1299 330.114 51.1299C331.08 51.1299 331.929 50.7607 332.658 50.0225C332.974 49.7061 333.212 49.5479 333.37 49.5479C333.695 49.5479 333.858 49.7104 333.858 50.0356C333.858 50.3521 333.546 50.7388 332.922 51.1958C331.911 51.9517 330.667 52.3296 329.191 52.3296C327.424 52.3296 325.987 51.7275 324.88 50.5234C323.816 49.3545 323.284 47.834 323.284 45.9619ZM337.378 50.5234C336.868 49.9521 336.472 49.2798 336.191 48.5063C335.919 47.7329 335.783 46.876 335.783 45.9355C335.783 44.9863 335.945 44.1162 336.27 43.3252C336.596 42.5342 337.044 41.8574 337.615 41.2949C338.802 40.126 340.265 39.5415 342.005 39.5415C343.447 39.5415 344.611 40.0161 345.499 40.9653C346.343 41.8794 346.764 43.0088 346.764 44.3535C346.764 44.793 346.703 45.0962 346.58 45.2632C346.466 45.4214 346.321 45.5181 346.145 45.5532C345.969 45.5796 345.727 45.606 345.42 45.6323C345.112 45.6499 344.739 45.6719 344.299 45.6982C343.86 45.7246 343.367 45.751 342.823 45.7773C342.286 45.8037 341.737 45.8345 341.175 45.8696C339.883 45.9487 338.846 46.0278 338.063 46.1069C338.257 48.4712 339.162 50.0049 340.779 50.708C341.306 50.9365 341.869 51.0508 342.467 51.0508C343.732 51.0508 344.734 50.6816 345.472 49.9434C345.789 49.627 346.031 49.4688 346.198 49.4688C346.514 49.4688 346.672 49.6577 346.672 50.0356C346.672 50.229 346.54 50.4619 346.277 50.7344C346.013 51.0068 345.635 51.2881 345.143 51.5781C344.273 52.0791 343.258 52.3296 342.097 52.3296C340.937 52.3296 339.988 52.1714 339.25 51.855C338.52 51.5298 337.896 51.0859 337.378 50.5234ZM338.037 45.1313C342.159 44.9204 344.33 44.6963 344.55 44.459C344.629 44.3711 344.668 44.1118 344.668 43.6812C344.668 43.2505 344.585 42.833 344.418 42.4287C344.251 42.0156 344.027 41.6641 343.745 41.374C343.165 40.7852 342.445 40.4907 341.583 40.4907C340.608 40.4907 339.786 40.8994 339.118 41.7168C338.415 42.5693 338.055 43.7075 338.037 45.1313ZM351.669 51.3804C351.528 51.4419 351.339 51.5605 351.102 51.7363C350.698 52.0439 350.438 52.1978 350.324 52.1978C350.21 52.1978 350.113 52.1582 350.034 52.0791C349.964 52 349.929 51.9033 349.929 51.7891C349.929 51.6748 349.951 51.5518 349.994 51.4199C350.038 51.2793 350.074 51.1299 350.1 50.9717C350.126 50.8047 350.148 50.5981 350.166 50.3521C350.21 49.7368 350.232 48.9985 350.232 48.1372L350.271 37.4453C350.271 36.6191 350.201 36.083 350.06 35.8369C349.92 35.582 349.775 35.4106 349.625 35.3228C349.476 35.2349 349.234 35.1646 348.9 35.1118C348.575 35.0591 348.412 34.9229 348.412 34.7031C348.412 34.501 348.637 34.356 349.085 34.2681C350.166 34.0396 350.904 33.8154 351.3 33.5957C351.827 33.2969 352.183 33.1475 352.367 33.1475C352.57 33.1475 352.671 33.2485 352.671 33.4507C352.671 33.5474 352.653 33.6484 352.618 33.7539C352.433 34.2285 352.337 34.8306 352.328 35.5601C352.319 36.2896 352.315 36.8828 352.315 37.3398V41.3608C353 40.4731 353.945 39.9106 355.149 39.6733C355.501 39.603 355.839 39.5679 356.164 39.5679C357.808 39.5679 359.122 40.1787 360.106 41.4004C361.02 42.5518 361.477 44.0283 361.477 45.8301C361.477 47.7637 360.867 49.3413 359.645 50.563C358.467 51.7407 357.092 52.3296 355.518 52.3296C353.945 52.3296 352.662 52.0132 351.669 51.3804ZM352.315 49.3896C352.631 50.0225 353.088 50.5059 353.686 50.8398C354.292 51.1738 354.921 51.3408 355.571 51.3408C356.23 51.3408 356.775 51.231 357.206 51.0112C357.645 50.7915 358.014 50.4795 358.313 50.0752C358.946 49.2227 359.263 48.0669 359.263 46.6079C359.263 44.8853 358.92 43.5054 358.234 42.4683C357.557 41.4399 356.661 40.9258 355.545 40.9258C354.552 40.9258 353.69 41.2773 352.961 41.9805C352.715 42.2178 352.499 42.499 352.315 42.8242V49.3896ZM363.56 46.1465C363.56 45.2939 363.714 44.4678 364.022 43.668C364.329 42.8682 364.764 42.165 365.327 41.5586C366.557 40.2314 368.091 39.5679 369.928 39.5679C371.967 39.5679 373.536 40.1787 374.635 41.4004C375.628 42.5078 376.124 43.9448 376.124 45.7114C376.124 47.4956 375.531 49.0381 374.345 50.3389C373.132 51.666 371.602 52.3296 369.757 52.3296C367.718 52.3296 366.153 51.7188 365.063 50.4971C364.061 49.3896 363.56 47.9395 363.56 46.1465ZM365.788 45.5928C365.788 46.4541 365.907 47.2583 366.144 48.0054C366.382 48.7524 366.707 49.3721 367.12 49.8643C367.937 50.8662 368.97 51.3672 370.218 51.3672C371.326 51.3672 372.226 50.9277 372.921 50.0488C373.641 49.1348 374.002 47.957 374.002 46.5156C374.002 44.6084 373.562 43.1143 372.683 42.0332C371.857 41.04 370.82 40.5435 369.572 40.5435C368.465 40.5435 367.564 40.9829 366.869 41.8618C366.149 42.7759 365.788 44.0195 365.788 45.5928ZM378.062 46.1465C378.062 45.2939 378.216 44.4678 378.524 43.668C378.831 42.8682 379.266 42.165 379.829 41.5586C381.059 40.2314 382.593 39.5679 384.43 39.5679C386.469 39.5679 388.038 40.1787 389.137 41.4004C390.13 42.5078 390.626 43.9448 390.626 45.7114C390.626 47.4956 390.033 49.0381 388.846 50.3389C387.634 51.666 386.104 52.3296 384.259 52.3296C382.22 52.3296 380.655 51.7188 379.565 50.4971C378.563 49.3896 378.062 47.9395 378.062 46.1465ZM380.29 45.5928C380.29 46.4541 380.409 47.2583 380.646 48.0054C380.884 48.7524 381.209 49.3721 381.622 49.8643C382.439 50.8662 383.472 51.3672 384.72 51.3672C385.827 51.3672 386.728 50.9277 387.423 50.0488C388.143 49.1348 388.504 47.957 388.504 46.5156C388.504 44.6084 388.064 43.1143 387.185 42.0332C386.359 41.04 385.322 40.5435 384.074 40.5435C382.967 40.5435 382.066 40.9829 381.371 41.8618C380.651 42.7759 380.29 44.0195 380.29 45.5928ZM393.092 52.1978C392.512 52.1978 392.221 52.0352 392.221 51.71C392.221 51.4551 392.384 51.3276 392.709 51.3276L393.368 51.3936C393.571 51.3936 393.738 51.3584 393.869 51.2881C394.001 51.209 394.102 51.0464 394.173 50.8003C394.313 50.3521 394.384 49.3589 394.384 47.8208V37.4585C394.384 36.6235 394.318 36.083 394.186 35.8369C394.054 35.582 393.913 35.4106 393.764 35.3228C393.615 35.2349 393.373 35.1646 393.039 35.1118C392.714 35.0591 392.551 34.9229 392.551 34.7031C392.551 34.501 392.775 34.356 393.223 34.2681C394.269 34.0483 394.99 33.8286 395.386 33.6089C395.922 33.3013 396.286 33.1475 396.48 33.1475C396.682 33.1475 396.783 33.2485 396.783 33.4507C396.783 33.5474 396.765 33.6484 396.73 33.7539C396.546 34.2285 396.449 34.8306 396.44 35.5601C396.431 36.2896 396.427 36.8872 396.427 37.353V45.2368L400.382 41.4663C400.611 41.2554 400.725 41.0884 400.725 40.9653C400.725 40.8335 400.672 40.7368 400.567 40.6753C400.461 40.605 400.343 40.5391 400.211 40.4775C399.877 40.3281 399.71 40.1699 399.71 40.0029C399.71 39.7832 399.903 39.6733 400.29 39.6733L401.819 39.8052L404.06 39.6733C404.632 39.6733 404.917 39.8008 404.917 40.0557C404.917 40.2842 404.676 40.4204 404.192 40.4644C403.682 40.5171 403.221 40.6973 402.808 41.0049C402.395 41.3037 402.048 41.5762 401.766 41.8223L399.103 44.1558L403.256 50.3916C403.652 51.0332 404.192 51.354 404.878 51.354C405.282 51.354 405.528 51.3848 405.616 51.4463C405.713 51.499 405.761 51.6001 405.761 51.7495C405.761 52.0483 405.502 52.1978 404.983 52.1978L403.454 52.0527L402.386 52.1978C402.105 52.1978 401.881 52.1011 401.714 51.9077C401.555 51.7144 401.406 51.5298 401.265 51.354L397.482 45.5928L396.427 46.5288V47.8208C396.427 49.895 396.559 51.042 396.823 51.2617C396.919 51.3496 397.042 51.3936 397.192 51.3936L397.851 51.3276C398.167 51.3276 398.326 51.4551 398.326 51.71C398.326 52.0352 398.035 52.1978 397.455 52.1978C397.201 52.1978 396.91 52.1626 396.585 52.0923C396.26 52.0308 395.869 52 395.412 52C394.964 52 394.546 52.0308 394.159 52.0923C393.782 52.1626 393.426 52.1978 393.092 52.1978Z" fill="black"/>
<defs>
<clipPath id="clip0">
<rect width="52.8235" height="53" fill="white" transform="translate(21.5207 18)"/>
</clipPath>
</defs>
</svg>
