<svg width="38" height="35" viewBox="0 0 38 35" fill="none" xmlns="http://www.w3.org/2000/svg">
<path d="M9.58002 2.40459C8.87181 2.61709 7.65775 3.75928 7.44095 4.43662C7.31088 4.84834 7.26752 8.2085 7.26752 18.1562V31.3312L7.62885 31.6499C7.8601 31.8624 8.1347 31.9819 8.45267 31.9819C8.87181 31.9819 9.39213 31.5437 13.8726 27.4397L18.83 22.8843L23.7874 27.4397C28.2679 31.5437 28.7882 31.9819 29.2074 31.9819C29.5253 31.9819 29.7999 31.8624 30.0312 31.6499L30.3925 31.3312V18.1562C30.3925 8.2085 30.3492 4.84834 30.2191 4.43662C29.9878 3.70615 28.7882 2.60381 27.9933 2.39131C27.1984 2.17881 10.3316 2.19209 9.58002 2.40459ZM27.7187 4.68896L28.08 5.00771V16.6687V28.3296L23.7007 24.3054C19.6828 20.6265 19.2781 20.2944 18.83 20.2944C18.382 20.2944 17.9773 20.6265 13.9593 24.3054L9.58002 28.3163V16.6687V5.00771L9.94135 4.68896L10.2882 4.35693H18.83H27.3718L27.7187 4.68896Z" fill="black"/>
</svg>
