<svg width="30" height="31" viewBox="0 0 30 31" fill="none" xmlns="http://www.w3.org/2000/svg">
<g clip-path="url(#clip0)">
<path d="M14.9998 15.9726C17.0706 15.9726 18.8381 15.2399 20.3028 13.7752C21.7676 12.3104 22.5002 10.5429 22.5002 8.47233C22.5002 6.40209 21.7676 4.6345 20.3028 3.16942C18.8377 1.70475 17.0701 0.972412 14.9998 0.972412C12.9295 0.972412 11.1616 1.70475 9.69693 3.16942C8.23198 4.6345 7.49951 6.40202 7.49951 8.47233C7.49951 10.5429 8.23198 12.3104 9.69693 13.7752C11.162 15.2399 12.9294 15.9726 14.9998 15.9726Z" fill="black"/>
<path d="M28.6814 23.8924C28.6358 23.2351 28.5445 22.5252 28.408 21.7634C28.2713 21.0016 28.0985 20.2955 27.8901 19.6442C27.6818 18.9934 27.4018 18.3585 27.0502 17.7399C26.6988 17.1214 26.2952 16.5942 25.8391 16.1578C25.3831 15.7215 24.8266 15.3735 24.1695 15.1131C23.5116 14.8528 22.7856 14.7224 21.9913 14.7224C21.8743 14.7224 21.6008 14.8624 21.171 15.1424C20.7417 15.4224 20.2566 15.735 19.7162 16.0802C19.1759 16.4247 18.4723 16.7375 17.6068 17.017C16.7409 17.297 15.8719 17.4371 14.9991 17.4371C14.1268 17.4371 13.2577 17.297 12.3919 17.017C11.5261 16.7375 10.8228 16.4247 10.2824 16.0802C9.74213 15.735 9.25717 15.4225 8.82755 15.1424C8.39773 14.8624 8.12443 14.7224 8.00724 14.7224C7.213 14.7224 6.48702 14.8528 5.82953 15.1131C5.1719 15.3735 4.61531 15.7218 4.15949 16.1578C3.70381 16.5942 3.30012 17.1214 2.94869 17.7399C2.59727 18.3585 2.31733 18.9936 2.10895 19.6442C1.90064 20.2955 1.72804 21.0016 1.59136 21.7634C1.45454 22.5252 1.36342 23.2346 1.31779 23.8924C1.27222 24.5503 1.24951 25.2241 1.24951 25.9142C1.24951 27.4765 1.7249 28.7105 2.67532 29.6155C3.62596 30.5202 4.88909 30.9724 6.46458 30.9724H23.5353C25.1106 30.9724 26.3736 30.5202 27.3244 29.6155C28.2754 28.7105 28.7504 27.4767 28.7504 25.9142C28.7503 25.2241 28.7276 24.5503 28.6814 23.8924Z" fill="black"/>
</g>
<defs>
<clipPath id="clip0">
<rect width="30" height="30" fill="white" transform="translate(0 0.972412)"/>
</clipPath>
</defs>
</svg>
