<svg width="30" height="31" viewBox="0 0 30 31" fill="none" xmlns="http://www.w3.org/2000/svg">
<g clip-path="url(#clip0)">
<path d="M15.0005 0.972412C6.71658 0.972412 0.000976562 7.68851 0.000976562 15.9721C0.000976562 24.2557 6.71658 30.9724 15.0005 30.9724C23.2844 30.9724 30.0008 24.2561 30.0008 15.9721C30.0008 7.68811 23.2847 0.972412 15.0005 0.972412ZM23.4761 21.1513L15.3465 25.1804C15.2376 25.2343 15.1193 25.2616 15.001 25.2616C14.8827 25.2616 14.7642 25.2346 14.6555 25.1807L6.52588 21.1516C6.14078 20.9607 5.98328 20.4939 6.17418 20.1087C6.36478 19.7241 6.83218 19.5661 7.21678 19.757L15.0012 23.615L22.7853 19.7573C23.1697 19.5662 23.637 19.7238 23.8279 20.1087C24.0187 20.4935 23.8612 20.9604 23.4761 21.1513ZM23.4761 18.1904L15.3465 22.2195C15.2376 22.2734 15.1193 22.3007 15.001 22.3007C14.8827 22.3007 14.7642 22.2737 14.6555 22.2198L6.52588 18.1907C6.14078 17.9998 5.98328 17.533 6.17418 17.1478C6.36478 16.7629 6.83218 16.6057 7.21678 16.7961L15.0012 20.6541L22.7853 16.7964C23.1697 16.6047 23.637 16.7629 23.8279 17.1478C24.0187 17.5327 23.8612 17.9995 23.4761 18.1904ZM23.4761 15.2296L15.3465 19.2587C15.2376 19.3126 15.1193 19.3399 15.001 19.3399C14.8827 19.3399 14.7642 19.3129 14.6555 19.259L6.52588 15.2296C6.14078 15.0387 5.98328 14.5719 6.17418 14.187C6.36478 13.8021 6.83218 13.6444 7.21678 13.8353L15.0012 17.6933L22.7853 13.8353C23.1697 13.6447 23.637 13.8018 23.8279 14.187C24.0187 14.5719 23.8612 15.0387 23.4761 15.2296ZM23.4761 12.123L15.3465 16.1519C15.2376 16.2058 15.1193 16.2328 15.001 16.2328C14.8827 16.2328 14.7642 16.2058 14.6555 16.1519L6.52588 12.123C6.26108 11.9918 6.09328 11.7215 6.09328 11.4258C6.09328 11.1301 6.26078 10.8599 6.52588 10.7286L14.6558 6.69921C14.8734 6.59131 15.1291 6.59131 15.3467 6.69921L23.4763 10.7286C23.7411 10.8598 23.9089 11.1301 23.9089 11.4258C23.9089 11.7215 23.7412 11.9915 23.4761 12.123Z" fill="black"/>
</g>
<defs>
<clipPath id="clip0">
<rect width="30" height="30" fill="white" transform="translate(0 0.972412)"/>
</clipPath>
</defs>
</svg>
