<svg width="538" height="182" viewBox="0 0 538 182" fill="none" xmlns="http://www.w3.org/2000/svg">
<g clip-path="url(#clip0)">
<path d="M45.3006 53.2848C43.799 53.9602 1.5769 84.2461 1.12639 84.957C0.650864 85.7035 0.625836 86.3078 0.550752 94.5191C0.500697 102.695 0.525724 103.335 0.976227 104.401C1.55187 105.681 2.67812 106.285 4.58024 106.285H5.75656V107.956C5.75656 112.293 6.70762 113.75 9.58582 113.75H11.2627V116.061C11.2627 120.113 12.0636 121.215 14.8917 121.215H16.5186V123.596C16.5186 126.654 17.0692 128.111 18.4457 128.644C19.7472 129.177 45.3257 129.177 46.6271 128.644C48.0037 128.111 48.5543 126.654 48.5543 123.596V121.215H50.1811C53.0092 121.215 53.8101 120.113 53.8101 116.061V113.75H55.512C57.6394 113.75 58.6655 112.968 59.041 111.013C59.1911 110.231 59.3163 105.788 59.3163 100.313V91H64.5721H69.828V100.313C69.828 105.788 69.9531 110.231 70.1033 111.013C70.4787 112.968 71.5048 113.75 73.6572 113.75H75.3341V116.061C75.3341 120.113 76.135 121.215 78.9632 121.215H80.59V123.596C80.59 126.654 81.1406 128.111 82.5171 128.644C83.8186 129.177 109.397 129.177 110.699 128.644C112.075 128.111 112.626 126.654 112.626 123.596V121.215H114.252C117.081 121.215 117.882 120.113 117.882 116.061V113.75H119.583C122.437 113.75 123.388 112.293 123.388 107.956V106.285H124.589C126.466 106.285 127.592 105.681 128.168 104.401C128.619 103.335 128.644 102.695 128.593 94.5191C128.518 86.3078 128.493 85.7035 128.018 84.957C127.743 84.5305 117.731 77.1723 105.743 68.641L83.9687 53.1426H77.7868H71.5799L70.779 54.3156L69.9531 55.4531L69.878 59.6477C69.7529 64.802 70.0532 66.5793 71.1545 67.5391C72.1556 68.4277 72.9815 68.4277 74.0076 67.5391C74.9086 66.757 75.3341 65.1574 75.3341 62.4559V60.7852H79.0883H82.8425L98.6851 72.0535L114.503 83.3574L89.5249 83.4641C75.8096 83.4996 53.3346 83.4996 39.5943 83.4641L14.6415 83.3574L30.4591 72.0535L46.3018 60.7852H50.0559H53.8101V62.4559C53.8101 65.1574 54.2356 66.757 55.1366 67.5391C56.1627 68.4277 56.9887 68.4277 57.9898 67.5391C59.091 66.5793 59.3913 64.802 59.2662 59.6477C59.1911 55.4531 59.1911 55.4531 58.3652 54.3156L57.5643 53.1426L51.7328 53.0715C48.5543 53.0359 45.651 53.1426 45.3006 53.2848ZM21.7744 98.6426V102.375H24.5275H27.2806V106.107V109.84H29.9085H32.5364V113.75V117.66H29.9085H27.3056L27.2305 113.821L27.1554 110.018L24.4774 109.911L21.7744 109.804V106.107V102.375H19.1465H16.5186V98.6426V94.9102H19.1465H21.7744V98.6426ZM85.8458 98.6426V102.375H88.5989H91.352V106.107V109.84H93.9799H96.6078V113.75V117.66H93.9799H91.377L91.3019 113.821L91.2268 110.018L88.5488 109.911L85.8458 109.804V106.107V102.375H83.2179H80.59V98.6426V94.9102H83.2179H85.8458V98.6426Z" fill="black"/>
</g>
<path d="M188.2 87.7632H172.303V131H161.609V87.7632H145.926V79.1016H188.2V87.7632ZM236.57 131H225.876V108.758H205.024V131H194.331V79.1016H205.024V100.132H225.876V79.1016H236.57V131ZM277.169 108.508H256.638V122.41H280.733V131H245.944V79.1016H280.662V87.7632H256.638V100.132H277.169V108.508ZM347.389 131H336.695L315.879 96.8525V131H305.186V79.1016H315.879L336.731 113.32V79.1016H347.389V131ZM387.952 108.508H367.421V122.41H391.517V131H356.728V79.1016H391.445V87.7632H367.421V100.132H387.952V108.508ZM417.002 112.001H408.483V131H397.79V79.1016H417.074C423.205 79.1016 427.933 80.4679 431.26 83.2007C434.587 85.9334 436.25 89.7949 436.25 94.7852C436.25 98.3258 435.478 101.284 433.934 103.661C432.413 106.013 430.096 107.89 426.983 109.292L438.211 130.501V131H426.733L417.002 112.001ZM408.483 103.34H417.109C419.795 103.34 421.874 102.663 423.347 101.308C424.82 99.9299 425.557 98.0407 425.557 95.6406C425.557 93.193 424.856 91.2682 423.454 89.8662C422.076 88.4642 419.949 87.7632 417.074 87.7632H408.483V103.34ZM444.413 131V79.1016H460.382C464.944 79.1016 469.02 80.1353 472.608 82.2026C476.22 84.2463 479.036 87.1691 481.056 90.9712C483.076 94.7495 484.085 99.0506 484.085 103.875V106.263C484.085 111.087 483.087 115.376 481.091 119.13C479.119 122.885 476.327 125.796 472.715 127.863C469.103 129.931 465.028 130.976 460.489 131H444.413ZM455.106 87.7632V122.41H460.275C464.457 122.41 467.653 121.043 469.863 118.311C472.073 115.578 473.202 111.669 473.25 106.583V103.839C473.25 98.5635 472.156 94.5713 469.97 91.8623C467.784 89.1296 464.588 87.7632 460.382 87.7632H455.106Z" fill="black"/>
<defs>
<clipPath id="clip0">
<rect width="128.143" height="182" fill="white" transform="translate(0.5)"/>
</clipPath>
</defs>
</svg>
