<svg width="36" height="36" viewBox="0 0 36 36" fill="none" xmlns="http://www.w3.org/2000/svg">
<g clip-path="url(#clip0)">
<path d="M33.2315 30.1L26.1965 23.065C28.1705 20.699 29.357 17.6575 29.357 14.3325C29.3605 6.79695 23.26 0.699951 15.728 0.699951C8.19246 0.699951 2.09546 6.79695 2.09546 14.3325C2.09546 21.8645 8.19246 27.965 15.728 27.965C17.8665 27.965 19.893 27.4715 21.6955 26.5965C21.8005 26.761 21.9265 26.915 22.07 27.0585L29.175 34.1635C30.295 35.2835 32.115 35.2835 33.235 34.1635C34.3515 33.04 34.3515 31.22 33.2315 30.1ZM4.96546 14.3325C4.96546 8.38945 9.78496 3.56995 15.728 3.56995C21.671 3.56995 26.4905 8.38945 26.4905 14.3325C26.4905 20.2755 21.6675 25.095 15.728 25.095C9.78496 25.095 4.96546 20.2755 4.96546 14.3325Z" fill="black"/>
</g>
<defs>
<clipPath id="clip0">
<rect width="35" height="35" fill="white" transform="translate(0.583496 0.349976)"/>
</clipPath>
</defs>
</svg>
