<svg width="446" height="362" viewBox="0 0 446 362" fill="none" xmlns="http://www.w3.org/2000/svg">
<path d="M21.0938 10.9922H13.1133V33H8.70117V10.9922H0.791016V7.40625H21.0938V10.9922ZM28.2656 16.0547C29.6602 14.4375 31.4238 13.6289 33.5566 13.6289C37.6113 13.6289 39.668 15.9434 39.7266 20.5723V33H35.4551V20.7305C35.4551 19.418 35.168 18.4922 34.5938 17.9531C34.0312 17.4023 33.1992 17.127 32.0977 17.127C30.3867 17.127 29.1094 17.8887 28.2656 19.4121V33H23.9941V6H28.2656V16.0547ZM52.4355 33.3516C49.7285 33.3516 47.5312 32.502 45.8438 30.8027C44.168 29.0918 43.3301 26.8184 43.3301 23.9824V23.4551C43.3301 21.5566 43.6934 19.8633 44.4199 18.375C45.1582 16.875 46.1895 15.709 47.5137 14.877C48.8379 14.0449 50.3145 13.6289 51.9434 13.6289C54.5332 13.6289 56.5312 14.4551 57.9375 16.1074C59.3555 17.7598 60.0645 20.0977 60.0645 23.1211V24.8438H47.6367C47.7656 26.4141 48.2871 27.6562 49.2012 28.5703C50.127 29.4844 51.2871 29.9414 52.6816 29.9414C54.6387 29.9414 56.2324 29.1504 57.4629 27.5684L59.7656 29.7656C59.0039 30.9023 57.9844 31.7871 56.707 32.4199C55.4414 33.041 54.0176 33.3516 52.4355 33.3516ZM51.9258 17.0566C50.7539 17.0566 49.8047 17.4668 49.0781 18.2871C48.3633 19.1074 47.9062 20.25 47.707 21.7148H55.8457V21.3984C55.752 19.9688 55.3711 18.8906 54.7031 18.1641C54.0352 17.4258 53.1094 17.0566 51.9258 17.0566ZM80.1738 29.9414C81.2402 29.9414 82.125 29.6309 82.8281 29.0098C83.5312 28.3887 83.9062 27.6211 83.9531 26.707H87.9785C87.9316 27.8906 87.5625 28.998 86.8711 30.0293C86.1797 31.0488 85.2422 31.8574 84.0586 32.4551C82.875 33.0527 81.5977 33.3516 80.2266 33.3516C77.5664 33.3516 75.457 32.4902 73.8984 30.7676C72.3398 29.0449 71.5605 26.666 71.5605 23.6309V23.1914C71.5605 20.2969 72.334 17.9824 73.8809 16.248C75.4277 14.502 77.5371 13.6289 80.209 13.6289C82.4707 13.6289 84.3105 14.291 85.7285 15.6152C87.1582 16.9277 87.9082 18.6562 87.9785 20.8008H83.9531C83.9062 19.7109 83.5312 18.8145 82.8281 18.1113C82.1367 17.4082 81.252 17.0566 80.1738 17.0566C78.791 17.0566 77.7246 17.5605 76.9746 18.5684C76.2246 19.5645 75.8438 21.082 75.832 23.1211V23.8066C75.832 25.8691 76.2012 27.4102 76.9395 28.4297C77.6895 29.4375 78.7676 29.9414 80.1738 29.9414ZM90.4043 23.3145C90.4043 21.4512 90.7734 19.7754 91.5117 18.2871C92.25 16.7871 93.2871 15.6387 94.623 14.8418C95.959 14.0332 97.4941 13.6289 99.2285 13.6289C101.795 13.6289 103.875 14.4551 105.469 16.1074C107.074 17.7598 107.941 19.9512 108.07 22.6816L108.088 23.6836C108.088 25.5586 107.725 27.2344 106.998 28.7109C106.283 30.1875 105.252 31.3301 103.904 32.1387C102.568 32.9473 101.021 33.3516 99.2637 33.3516C96.5801 33.3516 94.4297 32.4609 92.8125 30.6797C91.207 28.8867 90.4043 26.502 90.4043 23.5254V23.3145ZM94.6758 23.6836C94.6758 25.6406 95.0801 27.1758 95.8887 28.2891C96.6973 29.3906 97.8223 29.9414 99.2637 29.9414C100.705 29.9414 101.824 29.3789 102.621 28.2539C103.43 27.1289 103.834 25.4824 103.834 23.3145C103.834 21.3926 103.418 19.8691 102.586 18.7441C101.766 17.6191 100.646 17.0566 99.2285 17.0566C97.834 17.0566 96.7266 17.6133 95.9062 18.7266C95.0859 19.8281 94.6758 21.4805 94.6758 23.6836ZM115.664 13.9805L115.787 16.1777C117.193 14.4785 119.039 13.6289 121.324 13.6289C125.285 13.6289 127.301 15.8965 127.371 20.4316V33H123.1V20.6777C123.1 19.4707 122.836 18.5801 122.309 18.0059C121.793 17.4199 120.943 17.127 119.76 17.127C118.037 17.127 116.754 17.9062 115.91 19.4648V33H111.639V13.9805H115.664ZM137.092 9.35742V13.9805H140.449V17.1445H137.092V27.7617C137.092 28.4883 137.232 29.0156 137.514 29.3438C137.807 29.6602 138.322 29.8184 139.061 29.8184C139.553 29.8184 140.051 29.7598 140.555 29.6426V32.9473C139.582 33.2168 138.645 33.3516 137.742 33.3516C134.461 33.3516 132.82 31.541 132.82 27.9199V17.1445H129.691V13.9805H132.82V9.35742H137.092ZM152.104 33.3516C149.396 33.3516 147.199 32.502 145.512 30.8027C143.836 29.0918 142.998 26.8184 142.998 23.9824V23.4551C142.998 21.5566 143.361 19.8633 144.088 18.375C144.826 16.875 145.857 15.709 147.182 14.877C148.506 14.0449 149.982 13.6289 151.611 13.6289C154.201 13.6289 156.199 14.4551 157.605 16.1074C159.023 17.7598 159.732 20.0977 159.732 23.1211V24.8438H147.305C147.434 26.4141 147.955 27.6562 148.869 28.5703C149.795 29.4844 150.955 29.9414 152.35 29.9414C154.307 29.9414 155.9 29.1504 157.131 27.5684L159.434 29.7656C158.672 30.9023 157.652 31.7871 156.375 32.4199C155.109 33.041 153.686 33.3516 152.104 33.3516ZM151.594 17.0566C150.422 17.0566 149.473 17.4668 148.746 18.2871C148.031 19.1074 147.574 20.25 147.375 21.7148H155.514V21.3984C155.42 19.9688 155.039 18.8906 154.371 18.1641C153.703 17.4258 152.777 17.0566 151.594 17.0566ZM167.027 13.9805L167.15 16.1777C168.557 14.4785 170.402 13.6289 172.688 13.6289C176.648 13.6289 178.664 15.8965 178.734 20.4316V33H174.463V20.6777C174.463 19.4707 174.199 18.5801 173.672 18.0059C173.156 17.4199 172.307 17.127 171.123 17.127C169.4 17.127 168.117 17.9062 167.273 19.4648V33H163.002V13.9805H167.027ZM188.455 9.35742V13.9805H191.812V17.1445H188.455V27.7617C188.455 28.4883 188.596 29.0156 188.877 29.3438C189.17 29.6602 189.686 29.8184 190.424 29.8184C190.916 29.8184 191.414 29.7598 191.918 29.6426V32.9473C190.945 33.2168 190.008 33.3516 189.105 33.3516C185.824 33.3516 184.184 31.541 184.184 27.9199V17.1445H181.055V13.9805H184.184V9.35742H188.455ZM211.869 29.9414C212.936 29.9414 213.82 29.6309 214.523 29.0098C215.227 28.3887 215.602 27.6211 215.648 26.707H219.674C219.627 27.8906 219.258 28.998 218.566 30.0293C217.875 31.0488 216.938 31.8574 215.754 32.4551C214.57 33.0527 213.293 33.3516 211.922 33.3516C209.262 33.3516 207.152 32.4902 205.594 30.7676C204.035 29.0449 203.256 26.666 203.256 23.6309V23.1914C203.256 20.2969 204.029 17.9824 205.576 16.248C207.123 14.502 209.232 13.6289 211.904 13.6289C214.166 13.6289 216.006 14.291 217.424 15.6152C218.854 16.9277 219.604 18.6562 219.674 20.8008H215.648C215.602 19.7109 215.227 18.8145 214.523 18.1113C213.832 17.4082 212.947 17.0566 211.869 17.0566C210.486 17.0566 209.42 17.5605 208.67 18.5684C207.92 19.5645 207.539 21.082 207.527 23.1211V23.8066C207.527 25.8691 207.896 27.4102 208.635 28.4297C209.385 29.4375 210.463 29.9414 211.869 29.9414ZM234.264 33C234.076 32.6367 233.912 32.0449 233.771 31.2246C232.412 32.6426 230.748 33.3516 228.779 33.3516C226.869 33.3516 225.311 32.8066 224.104 31.7168C222.896 30.627 222.293 29.2793 222.293 27.6738C222.293 25.6465 223.043 24.0938 224.543 23.0156C226.055 21.9258 228.211 21.3809 231.012 21.3809H233.631V20.1328C233.631 19.1484 233.355 18.3633 232.805 17.7773C232.254 17.1797 231.416 16.8809 230.291 16.8809C229.318 16.8809 228.521 17.127 227.9 17.6191C227.279 18.0996 226.969 18.7148 226.969 19.4648H222.697C222.697 18.4219 223.043 17.4492 223.734 16.5469C224.426 15.6328 225.363 14.918 226.547 14.4023C227.742 13.8867 229.072 13.6289 230.537 13.6289C232.764 13.6289 234.539 14.1914 235.863 15.3164C237.188 16.4297 237.867 18 237.902 20.0273V28.6055C237.902 30.3164 238.143 31.6816 238.623 32.7012V33H234.264ZM229.57 29.9238C230.414 29.9238 231.205 29.7188 231.943 29.3086C232.693 28.8984 233.256 28.3477 233.631 27.6562V24.0703H231.328C229.746 24.0703 228.557 24.3457 227.76 24.8965C226.963 25.4473 226.564 26.2266 226.564 27.2344C226.564 28.0547 226.834 28.7109 227.373 29.2031C227.924 29.6836 228.656 29.9238 229.57 29.9238ZM246.34 13.9805L246.463 16.1777C247.869 14.4785 249.715 13.6289 252 13.6289C255.961 13.6289 257.977 15.8965 258.047 20.4316V33H253.775V20.6777C253.775 19.4707 253.512 18.5801 252.984 18.0059C252.469 17.4199 251.619 17.127 250.436 17.127C248.713 17.127 247.43 17.9062 246.586 19.4648V33H242.314V13.9805H246.34ZM261.193 15L259.014 13.6465C260.068 12.1113 260.613 10.4883 260.648 8.77734V6H264.393V8.42578C264.393 9.63281 264.082 10.8516 263.461 12.082C262.852 13.3008 262.096 14.2734 261.193 15ZM273.463 9.35742V13.9805H276.82V17.1445H273.463V27.7617C273.463 28.4883 273.604 29.0156 273.885 29.3438C274.178 29.6602 274.693 29.8184 275.432 29.8184C275.924 29.8184 276.422 29.7598 276.926 29.6426V32.9473C275.953 33.2168 275.016 33.3516 274.113 33.3516C270.832 33.3516 269.191 31.541 269.191 27.9199V17.1445H266.062V13.9805H269.191V9.35742H273.463ZM305.754 23.6836C305.754 26.6367 305.092 28.9863 303.768 30.7324C302.455 32.4785 300.645 33.3516 298.336 33.3516C296.109 33.3516 294.375 32.5488 293.133 30.9434L292.922 33H289.055V6H293.326V15.8086C294.557 14.3555 296.215 13.6289 298.301 13.6289C300.621 13.6289 302.443 14.4902 303.768 16.2129C305.092 17.9355 305.754 20.3438 305.754 23.4375V23.6836ZM301.482 23.3145C301.482 21.252 301.119 19.7051 300.393 18.6738C299.666 17.6426 298.611 17.127 297.229 17.127C295.377 17.127 294.076 17.9355 293.326 19.5527V27.3926C294.088 29.0449 295.4 29.8711 297.264 29.8711C298.6 29.8711 299.631 29.373 300.357 28.377C301.084 27.3809 301.459 25.875 301.482 23.8594V23.3145ZM317.725 33.3516C315.018 33.3516 312.82 32.502 311.133 30.8027C309.457 29.0918 308.619 26.8184 308.619 23.9824V23.4551C308.619 21.5566 308.982 19.8633 309.709 18.375C310.447 16.875 311.479 15.709 312.803 14.877C314.127 14.0449 315.604 13.6289 317.232 13.6289C319.822 13.6289 321.82 14.4551 323.227 16.1074C324.645 17.7598 325.354 20.0977 325.354 23.1211V24.8438H312.926C313.055 26.4141 313.576 27.6562 314.49 28.5703C315.416 29.4844 316.576 29.9414 317.971 29.9414C319.928 29.9414 321.521 29.1504 322.752 27.5684L325.055 29.7656C324.293 30.9023 323.273 31.7871 321.996 32.4199C320.73 33.041 319.307 33.3516 317.725 33.3516ZM317.215 17.0566C316.043 17.0566 315.094 17.4668 314.367 18.2871C313.652 19.1074 313.195 20.25 312.996 21.7148H321.135V21.3984C321.041 19.9688 320.66 18.8906 319.992 18.1641C319.324 17.4258 318.398 17.0566 317.215 17.0566ZM339.152 33V17.1445H336.252V13.9805H339.152V12.2402C339.152 10.1309 339.738 8.50195 340.91 7.35352C342.082 6.20508 343.723 5.63086 345.832 5.63086C346.582 5.63086 347.379 5.73633 348.223 5.94727L348.117 9.28711C347.648 9.19336 347.104 9.14648 346.482 9.14648C344.443 9.14648 343.424 10.1953 343.424 12.293V13.9805H347.291V17.1445H343.424V33H339.152ZM349.611 23.3145C349.611 21.4512 349.98 19.7754 350.719 18.2871C351.457 16.7871 352.494 15.6387 353.83 14.8418C355.166 14.0332 356.701 13.6289 358.436 13.6289C361.002 13.6289 363.082 14.4551 364.676 16.1074C366.281 17.7598 367.148 19.9512 367.277 22.6816L367.295 23.6836C367.295 25.5586 366.932 27.2344 366.205 28.7109C365.49 30.1875 364.459 31.3301 363.111 32.1387C361.775 32.9473 360.229 33.3516 358.471 33.3516C355.787 33.3516 353.637 32.4609 352.02 30.6797C350.414 28.8867 349.611 26.502 349.611 23.5254V23.3145ZM353.883 23.6836C353.883 25.6406 354.287 27.1758 355.096 28.2891C355.904 29.3906 357.029 29.9414 358.471 29.9414C359.912 29.9414 361.031 29.3789 361.828 28.2539C362.637 27.1289 363.041 25.4824 363.041 23.3145C363.041 21.3926 362.625 19.8691 361.793 18.7441C360.973 17.6191 359.854 17.0566 358.436 17.0566C357.041 17.0566 355.934 17.6133 355.113 18.7266C354.293 19.8281 353.883 21.4805 353.883 23.6836ZM382.43 31.1367C381.176 32.6133 379.395 33.3516 377.086 33.3516C375.023 33.3516 373.459 32.748 372.393 31.541C371.338 30.334 370.811 28.5879 370.811 26.3027V13.9805H375.082V26.25C375.082 28.6641 376.084 29.8711 378.088 29.8711C380.162 29.8711 381.562 29.127 382.289 27.6387V13.9805H386.561V33H382.535L382.43 31.1367ZM394.875 13.9805L394.998 16.1777C396.404 14.4785 398.25 13.6289 400.535 13.6289C404.496 13.6289 406.512 15.8965 406.582 20.4316V33H402.311V20.6777C402.311 19.4707 402.047 18.5801 401.52 18.0059C401.004 17.4199 400.154 17.127 398.971 17.127C397.248 17.127 395.965 17.9062 395.121 19.4648V33H390.85V13.9805H394.875ZM410.15 23.3496C410.15 20.4199 410.83 18.0703 412.189 16.3008C413.549 14.5195 415.371 13.6289 417.656 13.6289C419.672 13.6289 421.301 14.332 422.543 15.7383V6H426.814V33H422.947L422.736 31.0312C421.459 32.5781 419.754 33.3516 417.621 33.3516C415.395 33.3516 413.59 32.4551 412.207 30.6621C410.836 28.8691 410.15 26.4316 410.15 23.3496ZM414.422 23.7188C414.422 25.6523 414.791 27.1641 415.529 28.2539C416.279 29.332 417.34 29.8711 418.711 29.8711C420.457 29.8711 421.734 29.0918 422.543 27.5332V19.4121C421.758 17.8887 420.492 17.127 418.746 17.127C417.363 17.127 416.297 17.6777 415.547 18.7793C414.797 19.8691 414.422 21.5156 414.422 23.7188ZM435.797 25.459H432.123L431.719 7.40625H436.219L435.797 25.459ZM431.596 30.9785C431.596 30.3105 431.812 29.7598 432.246 29.3262C432.68 28.8809 433.271 28.6582 434.021 28.6582C434.771 28.6582 435.363 28.8809 435.797 29.3262C436.23 29.7598 436.447 30.3105 436.447 30.9785C436.447 31.623 436.236 32.1621 435.814 32.5957C435.393 33.0293 434.795 33.2461 434.021 33.2461C433.248 33.2461 432.65 33.0293 432.229 32.5957C431.807 32.1621 431.596 31.623 431.596 30.9785Z" fill="black"/>
<path d="M106.025 255.889V144.93H83.4204L8.60596 260.708V273.216H84.7974V312H106.025V273.216H129.319V255.889H106.025ZM32.1289 255.889L81.355 179.583L84.7974 173.157V255.889H32.1289ZM265.981 248.086V208.958C265.981 198.325 264.757 188.916 262.31 180.73C259.862 172.469 256.343 165.507 251.753 159.847C247.087 154.186 241.388 149.902 234.656 146.995C228 144.012 220.389 142.52 211.821 142.52C203.33 142.52 195.719 144.012 188.987 146.995C182.332 149.902 176.709 154.186 172.119 159.847C167.453 165.507 163.896 172.469 161.448 180.73C159 188.916 157.776 198.325 157.776 208.958V248.086C157.776 258.72 159 268.167 161.448 276.429C163.896 284.614 167.453 291.499 172.119 297.083C176.785 302.82 182.485 307.142 189.216 310.049C195.948 312.88 203.56 314.295 212.051 314.295C220.618 314.295 228.23 312.841 234.885 309.935C241.541 307.028 247.163 302.744 251.753 297.083C256.343 291.499 259.862 284.614 262.31 276.429C264.757 268.167 265.981 258.72 265.981 248.086ZM179.119 243.841C179.119 241.852 179.119 239.901 179.119 237.989C179.119 236.076 179.119 234.164 179.119 232.251V204.253C179.119 196.451 179.884 189.604 181.414 183.714C183.02 177.747 185.43 172.889 188.643 169.141C191.32 166.158 194.571 163.901 198.396 162.371C202.297 160.765 206.772 159.961 211.821 159.961C216.794 159.961 221.154 160.688 224.902 162.142C228.727 163.595 231.94 165.775 234.541 168.682C237.218 171.513 239.322 175.07 240.852 179.354C242.458 183.561 243.568 188.418 244.18 193.926L179.119 243.841ZM244.639 252.562C244.639 260.747 243.797 267.861 242.114 273.904C240.508 279.948 237.945 284.843 234.426 288.592C231.825 291.346 228.651 293.449 224.902 294.903C221.154 296.356 216.87 297.083 212.051 297.083C207.461 297.083 203.33 296.433 199.658 295.132C195.986 293.755 192.85 291.766 190.249 289.166C187.419 286.412 185.124 282.931 183.364 278.724C181.605 274.44 180.381 269.506 179.692 263.921L244.639 214.236C244.639 216.378 244.639 219.094 244.639 222.383C244.639 225.596 244.639 227.776 244.639 228.924V252.562ZM388.301 255.889V144.93H365.696L290.881 260.708V273.216H367.073V312H388.301V273.216H411.594V255.889H388.301ZM314.404 255.889L363.63 179.583L367.073 173.157V255.889H314.404Z" fill="black"/>
</svg>
