<svg width="15" height="13" viewBox="0 0 15 13" fill="none" xmlns="http://www.w3.org/2000/svg">
<path d="M13.8859 5.34831H8.43816V0.688585C8.43816 0.601215 8.37006 0.542969 8.26791 0.542969H6.22501C6.12286 0.542969 6.05476 0.601215 6.05476 0.688585V5.34831H0.60701C0.504864 5.34831 0.436768 5.40656 0.436768 5.49393V7.24132C0.436768 7.32869 0.504864 7.38694 0.60701 7.38694H6.05476V12.0467C6.05476 12.134 6.12286 12.1923 6.22501 12.1923H8.26791C8.37006 12.1923 8.43816 12.134 8.43816 12.0467V7.38694H13.8859C13.9881 7.38694 14.0562 7.32869 14.0562 7.24132V5.49393C14.0562 5.40656 13.9881 5.34831 13.8859 5.34831Z" fill="#FFF9F4"/>
</svg>
