<svg width="21" height="21" viewBox="0 0 21 21" fill="none" xmlns="http://www.w3.org/2000/svg">
<g clip-path="url(#clip0)">
<path d="M10.3382 20.5C15.861 20.5 20.3382 16.0228 20.3382 10.5C20.3382 4.97715 15.861 0.5 10.3382 0.5C4.81535 0.5 0.338196 4.97715 0.338196 10.5C0.338196 16.0228 4.81535 20.5 10.3382 20.5Z" fill="#31AF91"/>
<path d="M16.4319 9.40625H11.4319V4.40625C11.4319 4.3125 11.3694 4.25 11.2757 4.25H9.4007C9.30695 4.25 9.24445 4.3125 9.24445 4.40625V9.40625H4.24445C4.1507 9.40625 4.0882 9.46875 4.0882 9.5625V11.4375C4.0882 11.5312 4.1507 11.5938 4.24445 11.5938H9.24445V16.5938C9.24445 16.6875 9.30695 16.75 9.4007 16.75H11.2757C11.3694 16.75 11.4319 16.6875 11.4319 16.5938V11.5938H16.4319C16.5257 11.5938 16.5882 11.5312 16.5882 11.4375V9.5625C16.5882 9.46875 16.5257 9.40625 16.4319 9.40625Z" fill="white"/>
</g>
<defs>
<clipPath id="clip0">
<rect width="20" height="20" fill="white" transform="translate(0.338196 0.5)"/>
</clipPath>
</defs>
</svg>
