<svg width="24" height="30" viewBox="0 0 24 30" fill="none" xmlns="http://www.w3.org/2000/svg">
<path d="M3.16211 0.264452C2.45391 0.476952 1.23984 1.61914 1.02305 2.29648C0.892969 2.7082 0.849609 6.06836 0.849609 16.016V29.191L1.21094 29.5098C1.44219 29.7223 1.7168 29.8418 2.03477 29.8418C2.45391 29.8418 2.97422 29.4035 7.45469 25.2996L12.4121 20.7441L17.3695 25.2996C21.85 29.4035 22.3703 29.8418 22.7895 29.8418C23.1074 29.8418 23.382 29.7223 23.6133 29.5098L23.9746 29.191V16.016C23.9746 6.06836 23.9312 2.7082 23.8012 2.29648C23.5699 1.56602 22.3703 0.463671 21.5754 0.251171C20.7805 0.0386715 3.91367 0.0519524 3.16211 0.264452ZM21.3008 2.54883L21.6621 2.86758V14.5285V26.1895L17.2828 22.1652C13.2648 18.4863 12.8602 18.1543 12.4121 18.1543C11.9641 18.1543 11.5594 18.4863 7.54141 22.1652L3.16211 26.1762V14.5285V2.86758L3.52344 2.54883L3.87031 2.2168H12.4121H20.9539L21.3008 2.54883Z" fill="black"/>
</svg>
