<svg width="31" height="29" viewBox="0 0 31 29" fill="none" xmlns="http://www.w3.org/2000/svg">
<g clip-path="url(#clip0)">
<path d="M22.9644 16.6951V13.206H15.4878V9.71694H22.9644V6.22788L30.4409 11.4833L22.9644 16.6951ZM19.2261 21.9505H11.7495V6.22788L4.27295 2.73882H19.2729V7.99429H21.1655V2.73882C21.1655 1.79272 20.3335 0.972412 19.2729 0.972412H2.38037C1.3667 0.972412 0.487793 1.74897 0.487793 2.73882V22.6396C0.487793 23.3287 0.903809 23.9302 1.50146 24.231L11.7026 28.9724V23.7169H19.1792C20.1929 23.7169 21.0718 22.9404 21.0718 21.9505V14.9724H19.1792V21.9505H19.2261Z" fill="#333333"/>
</g>
<defs>
<clipPath id="clip0">
<rect width="30" height="28" fill="white" transform="translate(0.464355 0.972412)"/>
</clipPath>
</defs>
</svg>
