<svg width="294" height="95" viewBox="0 0 294 95" fill="none" xmlns="http://www.w3.org/2000/svg">
<path d="M31.815 27.8135C30.7486 28.166 0.76479 43.9746 0.444869 44.3457C0.107173 44.7354 0.0893999 45.0508 0.0360796 49.3369C0.0005327 53.6045 0.0183061 53.9385 0.338228 54.4951C0.747017 55.1631 1.54682 55.4785 2.8976 55.4785H3.73295V56.3506C3.73295 58.6143 4.40834 59.375 6.45229 59.375H7.64311V60.5811C7.64311 62.6963 8.21186 63.2715 10.2203 63.2715H11.3755V64.5146C11.3755 66.1104 11.7665 66.8711 12.7441 67.1494C13.6683 67.4277 31.8328 67.4277 32.757 67.1494C33.7345 66.8711 34.1255 66.1104 34.1255 64.5146V63.2715H35.2808C37.2892 63.2715 37.858 62.6963 37.858 60.5811V59.375H39.0665C40.5773 59.375 41.306 58.9668 41.5726 57.9463C41.6792 57.5381 41.7681 55.2188 41.7681 52.3613V47.5H45.5005H49.233V52.3613C49.233 55.2188 49.3218 57.5381 49.4285 57.9463C49.6951 58.9668 50.4238 59.375 51.9523 59.375H53.1431V60.5811C53.1431 62.6963 53.7119 63.2715 55.7203 63.2715H56.8755V64.5146C56.8755 66.1104 57.2665 66.8711 58.2441 67.1494C59.1683 67.4277 77.3328 67.4277 78.257 67.1494C79.2345 66.8711 79.6255 66.1104 79.6255 64.5146V63.2715H80.7808C82.7892 63.2715 83.3579 62.6963 83.3579 60.5811V59.375H84.5665C86.5927 59.375 87.2681 58.6143 87.2681 56.3506V55.4785H88.1212C89.4542 55.4785 90.254 55.1631 90.6628 54.4951C90.9828 53.9385 91.0005 53.6045 90.965 49.3369C90.9117 45.0508 90.8939 44.7354 90.5562 44.3457C90.3607 44.1231 83.2513 40.2822 74.7378 35.8291L59.2749 27.7393H54.8849H50.4771L49.9083 28.3516L49.3218 28.9453L49.2685 31.1348C49.1796 33.8252 49.3929 34.7529 50.1749 35.2539C50.8859 35.7178 51.4724 35.7178 52.2011 35.2539C52.841 34.8457 53.1431 34.0108 53.1431 32.6006V31.7285H55.8091H58.4751L69.7257 37.6104L80.9585 43.5107L63.2206 43.5664C53.4808 43.585 37.5203 43.585 27.7626 43.5664L10.0425 43.5107L21.2753 37.6104L32.5259 31.7285H35.1919H37.858V32.6006C37.858 34.0108 38.1601 34.8457 38.7999 35.2539C39.5287 35.7178 40.1152 35.7178 40.8261 35.2539C41.6081 34.7529 41.8214 33.8252 41.7326 31.1348C41.6792 28.9453 41.6792 28.9453 41.0927 28.3516L40.524 27.7393L36.3828 27.7022C34.1255 27.6836 32.0638 27.7393 31.815 27.8135ZM15.108 51.4893V53.4375H17.063H19.0181V55.3857V57.334H20.8843H22.7505V59.375V61.416H20.8843H19.0359L18.9826 59.4121L18.9292 57.4268L17.0275 57.3711L15.108 57.3154V55.3857V53.4375H13.2417H11.3755V51.4893V49.541H13.2417H15.108V51.4893ZM60.608 51.4893V53.4375H62.563H64.5181V55.3857V57.334H66.3843H68.2505V59.375V61.416H66.3843H64.5359L64.4826 59.4121L64.4292 57.4268L62.5275 57.3711L60.608 57.3154V55.3857V53.4375H58.7417H56.8755V51.4893V49.541H58.7417H60.608V51.4893Z" fill="black"/>
<path d="M124.748 45.4932H116.473V68H110.906V45.4932H102.742V40.9844H124.748V45.4932ZM149.927 68H144.36V56.4219H133.506V68H127.939V40.9844H133.506V51.9316H144.36V40.9844H149.927V68ZM171.061 56.292H160.373V63.5283H172.916V68H154.807V40.9844H172.879V45.4932H160.373V51.9316H171.061V56.292ZM207.613 68H202.047L191.211 50.2246V68H185.645V40.9844H191.211L202.065 58.7969V40.9844H207.613V68ZM228.729 56.292H218.041V63.5283H230.584V68H212.475V40.9844H230.547V45.4932H218.041V51.9316H228.729V56.292ZM243.851 58.1104H239.416V68H233.85V40.9844H243.888C247.079 40.9844 249.541 41.6956 251.272 43.1182C253.004 44.5407 253.87 46.5508 253.87 49.1484C253.87 50.9915 253.468 52.5316 252.664 53.7686C251.872 54.9932 250.666 55.9704 249.046 56.7002L254.891 67.7402V68H248.916L243.851 58.1104ZM239.416 53.6016H243.906C245.304 53.6016 246.386 53.249 247.153 52.5439C247.92 51.8265 248.304 50.8431 248.304 49.5938C248.304 48.3197 247.939 47.3177 247.209 46.5879C246.492 45.8581 245.384 45.4932 243.888 45.4932H239.416V53.6016ZM258.119 68V40.9844H266.432C268.807 40.9844 270.928 41.5225 272.796 42.5986C274.676 43.6624 276.142 45.1839 277.193 47.1631C278.245 49.1299 278.771 51.3688 278.771 53.8799V55.123C278.771 57.6341 278.251 59.8669 277.212 61.8213C276.185 63.7757 274.732 65.291 272.852 66.3672C270.971 67.4434 268.85 67.9876 266.487 68H258.119ZM263.686 45.4932V63.5283H266.376C268.553 63.5283 270.217 62.8171 271.367 61.3945C272.518 59.972 273.105 57.9372 273.13 55.29V53.8613C273.13 51.1152 272.561 49.0371 271.423 47.627C270.285 46.2044 268.621 45.4932 266.432 45.4932H263.686Z" fill="black"/>
</svg>
