<svg width="468" height="97" viewBox="0 0 468 97" fill="none" xmlns="http://www.w3.org/2000/svg">
<g filter="url(#filter0_d)">
<rect x="4.5" width="459" height="88" rx="16" fill="#A7CBB6"/>
</g>
<g clip-path="url(#clip0)">
<path d="M32.4292 28.5436C31.8953 28.8293 16.883 41.6426 16.7228 41.9434C16.5537 42.2592 16.5448 42.5148 16.5181 45.9889C16.5003 49.4479 16.5092 49.7186 16.6694 50.1697C16.8741 50.7111 17.2745 50.9668 17.9508 50.9668H18.3691V51.6736C18.3691 53.5084 18.7072 54.125 19.7306 54.125H20.3268V55.1025C20.3268 56.817 20.6116 57.2832 21.6172 57.2832H22.1956V58.2908C22.1956 59.5842 22.3914 60.2008 22.8808 60.4264C23.3435 60.652 32.4381 60.652 32.9008 60.4264C33.3903 60.2008 33.5861 59.5842 33.5861 58.2908V57.2832H34.1645C35.17 57.2832 35.4548 56.817 35.4548 55.1025V54.125H36.0599C36.8163 54.125 37.1812 53.7941 37.3147 52.967C37.3681 52.6361 37.4125 50.7563 37.4125 48.4402V44.5H39.2813H41.15V48.4402C41.15 50.7563 41.1945 52.6361 41.2479 52.967C41.3814 53.7941 41.7463 54.125 42.5116 54.125H43.1078V55.1025C43.1078 56.817 43.3925 57.2832 44.3981 57.2832H44.9765V58.2908C44.9765 59.5842 45.1723 60.2008 45.6617 60.4264C46.1245 60.652 55.2191 60.652 55.6818 60.4264C56.1712 60.2008 56.367 59.5842 56.367 58.2908V57.2832H56.9454C57.951 57.2832 58.2358 56.817 58.2358 55.1025V54.125H58.8409C59.8553 54.125 60.1935 53.5084 60.1935 51.6736V50.9668H60.6206C61.2881 50.9668 61.6885 50.7111 61.8932 50.1697C62.0533 49.7186 62.0622 49.4479 62.0444 45.9889C62.0178 42.5148 62.0089 42.2592 61.8398 41.9434C61.7419 41.7629 58.1824 38.6498 53.9198 35.0404L46.1779 28.4834H43.9799H41.773L41.4882 28.9797L41.1945 29.4609L41.1678 31.2356C41.1233 33.4162 41.2301 34.1682 41.6217 34.5742C41.9776 34.9502 42.2713 34.9502 42.6361 34.5742C42.9565 34.2434 43.1078 33.5666 43.1078 32.4236V31.7168H44.4426H45.7774L51.4104 36.4842L57.0344 41.2666L48.1534 41.3117C43.2769 41.3268 35.2857 41.3268 30.4003 41.3117L21.5282 41.2666L27.1522 36.4842L32.7852 31.7168H34.12H35.4548V32.4236C35.4548 33.5666 35.6061 34.2434 35.9264 34.5742C36.2913 34.9502 36.585 34.9502 36.9409 34.5742C37.3325 34.1682 37.4392 33.4162 37.3947 31.2356C37.3681 29.4609 37.3681 29.4609 37.0744 28.9797L36.7896 28.4834L34.7162 28.4533C33.5861 28.4383 32.5538 28.4834 32.4292 28.5436ZM24.0643 47.7334V49.3125H25.0432H26.0221V50.8916V52.4707H26.9564H27.8908V54.125V55.7793H26.9564H26.031L26.0043 54.1551L25.9776 52.5459L25.0254 52.5008L24.0643 52.4557V50.8916V49.3125H23.13H22.1956V47.7334V46.1543H23.13H24.0643V47.7334ZM46.8453 47.7334V49.3125H47.8242H48.803V50.8916V52.4707H49.7374H50.6718V54.125V55.7793H49.7374H48.8119L48.7852 54.1551L48.7585 52.5459L47.8064 52.5008L46.8453 52.4557V50.8916V49.3125H45.9109H44.9765V47.7334V46.1543H45.9109H46.8453V47.7334Z" fill="black"/>
</g>
<path d="M72.2386 30.9312H68.5365V41H66.0463V30.9312H62.3939V28.9141H72.2386V30.9312ZM83.5028 41H81.0126V35.8203H76.1566V41H73.6664V28.9141H76.1566V33.8115H81.0126V28.9141H83.5028V41ZM92.9574 35.7622H88.1761V38.9995H93.7875V41H85.6859V28.9141H93.7709V30.9312H88.1761V33.8115H92.9574V35.7622ZM72.9691 61H70.4789L65.6312 53.0479V61H63.141V48.9141H65.6312L70.4872 56.8828V48.9141H72.9691V61ZM82.4154 55.7622H77.6342V58.9995H83.2455V61H75.1439V48.9141H83.2289V50.9312H77.6342V53.8115H82.4154V55.7622ZM89.1805 56.5757H87.1967V61H84.7064V48.9141H89.1971C90.6249 48.9141 91.7261 49.2323 92.5009 49.8687C93.2756 50.505 93.663 51.4043 93.663 52.5664C93.663 53.391 93.4831 54.0799 93.1234 54.6333C92.7692 55.1812 92.2297 55.6183 91.5048 55.9448L94.1195 60.8838V61H91.4467L89.1805 56.5757ZM87.1967 54.5586H89.2054C89.8308 54.5586 90.315 54.4009 90.6581 54.0854C91.0012 53.7645 91.1727 53.3245 91.1727 52.7656C91.1727 52.1956 91.0095 51.7474 90.683 51.4209C90.362 51.0944 89.8667 50.9312 89.1971 50.9312H87.1967V54.5586ZM95.5638 61V48.9141H99.2826C100.345 48.9141 101.294 49.1548 102.13 49.6362C102.971 50.1121 103.627 50.7928 104.097 51.6782C104.567 52.5581 104.803 53.5597 104.803 54.6831V55.2393C104.803 56.3626 104.57 57.3615 104.105 58.2358C103.646 59.1102 102.996 59.7881 102.155 60.2695C101.314 60.751 100.364 60.9945 99.3075 61H95.5638ZM98.0541 50.9312V58.9995H99.2577C100.232 58.9995 100.976 58.6813 101.491 58.0449C102.005 57.4085 102.268 56.4982 102.279 55.314V54.6748C102.279 53.4463 102.025 52.5166 101.516 51.8857C101.006 51.2493 100.262 50.9312 99.2826 50.9312H98.0541Z" fill="black"/>
<path d="M129.293 55.1978C128.722 55.1978 128.436 55.0352 128.436 54.71C128.436 54.4551 128.594 54.3276 128.911 54.3276L129.557 54.3936C130.084 54.3936 130.436 54.0991 130.611 53.5103C130.77 53.0093 130.849 52.1128 130.849 50.8208V41.5396C130.849 40.2388 130.787 39.395 130.664 39.0083C130.541 38.6128 130.392 38.3447 130.216 38.2041C130.049 38.0547 129.829 37.98 129.557 37.98L128.911 38.0459C128.594 38.0459 128.436 37.9141 128.436 37.6504C128.436 37.3076 128.722 37.1362 129.293 37.1362L131.02 37.334C131.389 37.334 131.719 37.3076 132.009 37.2549L144.151 51.3745V41.5132C144.151 40.23 144.081 39.3862 143.94 38.9819C143.808 38.5776 143.654 38.3052 143.479 38.1646C143.303 38.0151 143.074 37.9404 142.793 37.9404L142.147 37.9932C141.831 37.9932 141.672 37.8657 141.672 37.6108C141.672 37.2856 141.958 37.123 142.529 37.123C142.749 37.123 143.043 37.1538 143.413 37.2153C143.878 37.2944 144.3 37.334 144.678 37.334C145.056 37.334 145.425 37.2988 145.786 37.2285C146.146 37.1582 146.568 37.123 147.051 37.123C147.535 37.123 147.776 37.2856 147.776 37.6108C147.776 37.8657 147.618 37.9932 147.302 37.9932L146.656 37.9404C146.12 37.9404 145.764 38.2349 145.588 38.8237C145.438 39.2896 145.364 40.186 145.364 41.5132V54.8286C145.364 55.1274 145.337 55.3252 145.285 55.4219C145.232 55.5186 145.148 55.5669 145.034 55.5669C144.876 55.5669 144.625 55.3823 144.283 55.0132L132.127 40.9331V50.8208C132.127 52.1479 132.185 53.0049 132.299 53.3916C132.422 53.7695 132.567 54.0332 132.734 54.1826C132.91 54.3232 133.138 54.3936 133.419 54.3936L134.052 54.3276C134.369 54.3276 134.527 54.4551 134.527 54.71C134.527 55.0352 134.272 55.1978 133.762 55.1978C133.261 55.1978 132.813 55.1626 132.417 55.0923C132.031 55.0308 131.653 55 131.284 55C130.915 55 130.55 55.0308 130.189 55.0923C129.838 55.1626 129.539 55.1978 129.293 55.1978ZM150.677 53.5234C150.167 52.9521 149.771 52.2798 149.49 51.5063C149.218 50.7329 149.082 49.876 149.082 48.9355C149.082 47.9863 149.244 47.1162 149.569 46.3252C149.895 45.5342 150.343 44.8574 150.914 44.2949C152.101 43.126 153.564 42.5415 155.304 42.5415C156.746 42.5415 157.91 43.0161 158.798 43.9653C159.642 44.8794 160.063 46.0088 160.063 47.3535C160.063 47.793 160.002 48.0962 159.879 48.2632C159.765 48.4214 159.62 48.5181 159.444 48.5532C159.268 48.5796 159.026 48.606 158.719 48.6323C158.411 48.6499 158.038 48.6719 157.598 48.6982C157.159 48.7246 156.667 48.751 156.122 48.7773C155.585 48.8037 155.036 48.8345 154.474 48.8696C153.182 48.9487 152.145 49.0278 151.362 49.1069C151.556 51.4712 152.461 53.0049 154.078 53.708C154.605 53.9365 155.168 54.0508 155.766 54.0508C157.031 54.0508 158.033 53.6816 158.771 52.9434C159.088 52.627 159.33 52.4688 159.497 52.4688C159.813 52.4688 159.971 52.6577 159.971 53.0356C159.971 53.229 159.839 53.4619 159.576 53.7344C159.312 54.0068 158.934 54.2881 158.442 54.5781C157.572 55.0791 156.557 55.3296 155.396 55.3296C154.236 55.3296 153.287 55.1714 152.549 54.855C151.819 54.5298 151.195 54.0859 150.677 53.5234ZM151.336 48.1313C155.458 47.9204 157.629 47.6963 157.849 47.459C157.928 47.3711 157.967 47.1118 157.967 46.6812C157.967 46.2505 157.884 45.833 157.717 45.4287C157.55 45.0156 157.326 44.6641 157.044 44.374C156.464 43.7852 155.744 43.4907 154.882 43.4907C153.907 43.4907 153.085 43.8994 152.417 44.7168C151.714 45.5693 151.354 46.7075 151.336 48.1313ZM181.025 42.6865C181.386 42.6865 181.566 42.7964 181.566 43.0161C181.566 43.2007 181.399 43.3545 181.065 43.4775C180.731 43.5918 180.485 43.7017 180.327 43.8071C180.177 43.9126 180.032 44.0664 179.892 44.2686C179.663 44.5938 179.342 45.2529 178.929 46.2461L175.198 54.9473C175.093 55.2021 174.979 55.3296 174.855 55.3296C174.671 55.3296 174.526 55.2021 174.42 54.9473L170.848 46.6548L167.42 54.9473C167.314 55.2021 167.2 55.3296 167.077 55.3296C166.893 55.3296 166.748 55.2021 166.642 54.9473L162.608 45.2178C162.379 44.6201 162.195 44.2378 162.054 44.0708C161.817 43.7808 161.505 43.5918 161.118 43.5039C160.74 43.4072 160.551 43.2402 160.551 43.0029C160.551 42.9238 160.6 42.8535 160.696 42.792C160.784 42.7217 160.916 42.6865 161.092 42.6865L163.135 42.8315C163.663 42.8315 164.054 42.814 164.309 42.7788C164.757 42.7173 165.126 42.6865 165.416 42.6865C166.014 42.6865 166.312 42.814 166.312 43.0688C166.312 43.3325 165.961 43.4819 165.258 43.5171C164.827 43.5347 164.594 43.6533 164.559 43.873C164.55 43.9346 164.546 44.0093 164.546 44.0972C164.546 44.2993 164.638 44.6509 164.823 45.1519L167.565 51.7568L170.215 45.2046L169.925 44.519C169.714 44.0269 169.494 43.7192 169.266 43.5962C169.178 43.5522 169.077 43.5083 168.962 43.4644C168.628 43.3413 168.461 43.1831 168.461 42.9897C168.461 42.7876 168.659 42.6865 169.055 42.6865L170.742 42.8315C171.287 42.8315 171.696 42.814 171.968 42.7788C172.443 42.7173 172.904 42.6865 173.353 42.6865C173.81 42.6865 174.038 42.814 174.038 43.0688C174.038 43.3325 173.687 43.4819 172.983 43.5171C172.438 43.5435 172.166 43.7236 172.166 44.0576C172.166 44.4004 172.342 44.9629 172.693 45.7451L175.383 51.915L177.215 47.3535C177.795 45.8945 178.103 45.02 178.138 44.73C178.173 44.4312 178.191 44.2158 178.191 44.084C178.191 43.75 177.962 43.5654 177.505 43.5303C177.048 43.4863 176.741 43.4336 176.583 43.3721C176.433 43.3105 176.358 43.2095 176.358 43.0688C176.358 42.814 176.657 42.6865 177.255 42.6865L179.496 42.8184L181.025 42.6865ZM193.154 55.1978C192.583 55.1978 192.297 55.0352 192.297 54.71C192.297 54.4551 192.456 54.3276 192.772 54.3276L193.418 54.3936C193.945 54.3936 194.297 54.0991 194.473 53.5103C194.631 53.0093 194.71 52.1128 194.71 50.8208V38.4941H194.354C192.816 38.4941 191.59 38.6523 190.676 38.9688C190.043 39.1973 189.612 39.5884 189.384 40.1421C189.217 40.5464 189.041 40.7485 188.856 40.7485C188.602 40.7485 188.474 40.5991 188.474 40.3003C188.474 40.2124 188.492 40.1113 188.527 39.9971C188.571 39.8828 188.619 39.7466 188.672 39.5884C188.812 39.1665 188.896 38.7271 188.922 38.27C188.949 37.813 188.997 37.5098 189.067 37.3604C189.146 37.2021 189.252 37.123 189.384 37.123C189.516 37.123 189.634 37.1362 189.74 37.1626C189.845 37.1802 189.999 37.2021 190.201 37.2285C190.729 37.2988 191.392 37.334 192.192 37.334H200.55C201.201 37.334 201.671 37.2988 201.961 37.2285C202.26 37.1582 202.475 37.123 202.607 37.123C202.897 37.123 203.042 37.2593 203.042 37.5317C203.042 37.6724 203.016 37.8394 202.963 38.0327C202.831 38.4634 202.743 38.8369 202.699 39.1533C202.664 39.4609 202.629 39.7158 202.594 39.918C202.559 40.1113 202.519 40.2651 202.475 40.3794C202.405 40.5728 202.299 40.6694 202.159 40.6694C202.018 40.6694 201.926 40.6211 201.882 40.5244C201.847 40.4189 201.807 40.2212 201.763 39.9312C201.719 39.6411 201.645 39.4038 201.539 39.2192C201.434 39.0347 201.293 38.8896 201.117 38.7842C200.81 38.5908 200.309 38.4941 199.614 38.4941H196.78V50.8208C196.78 52.1479 196.837 53.0049 196.951 53.3916C197.074 53.7695 197.219 54.0332 197.386 54.1826C197.562 54.3232 197.791 54.3936 198.072 54.3936L198.705 54.3276C199.021 54.3276 199.179 54.4551 199.179 54.71C199.179 55.0352 198.898 55.1978 198.335 55.1978C198.045 55.1978 197.738 55.1714 197.413 55.1187C196.358 54.9517 195.453 54.9209 194.697 55.0264C193.95 55.1406 193.436 55.1978 193.154 55.1978ZM205.547 55.1978C204.967 55.1978 204.677 55.0352 204.677 54.71C204.677 54.4551 204.839 54.3276 205.165 54.3276L205.824 54.3936C206.026 54.3936 206.193 54.3584 206.325 54.2881C206.457 54.209 206.558 54.0464 206.628 53.8003C206.769 53.3521 206.839 52.3589 206.839 50.8208V40.4585C206.839 39.6235 206.773 39.083 206.641 38.8369C206.509 38.582 206.369 38.4106 206.219 38.3228C206.07 38.2349 205.828 38.1646 205.494 38.1118C205.169 38.0591 205.006 37.9229 205.006 37.7031C205.006 37.501 205.23 37.356 205.679 37.2681C206.725 37.0483 207.445 36.8286 207.841 36.6089C208.377 36.3013 208.742 36.1475 208.935 36.1475C209.137 36.1475 209.238 36.2485 209.238 36.4507C209.238 36.5474 209.221 36.6484 209.186 36.7539C209.001 37.2285 208.904 37.8306 208.896 38.5601C208.887 39.2896 208.882 39.8872 208.882 40.353V45.4946C209.612 44.0972 210.645 43.1875 211.98 42.7656C212.402 42.6338 212.824 42.5679 213.246 42.5679C214.529 42.5679 215.522 42.9414 216.226 43.6885C216.929 44.4355 217.28 45.6001 217.28 47.1821V50.8208C217.28 52.3589 217.333 53.3037 217.438 53.6553C217.544 53.998 217.663 54.209 217.794 54.2881C217.926 54.3584 218.093 54.3936 218.295 54.3936L218.955 54.3276C219.28 54.3276 219.442 54.4551 219.442 54.71C219.442 55.0352 219.148 55.1978 218.559 55.1978C218.225 55.1978 217.869 55.1626 217.491 55.0923C217.113 55.0308 216.705 55 216.265 55C215.834 55 215.421 55.0308 215.026 55.0923C214.639 55.1626 214.279 55.1978 213.945 55.1978C213.356 55.1978 213.062 55.0352 213.062 54.71C213.062 54.4551 213.224 54.3276 213.549 54.3276L214.208 54.3936C214.411 54.3936 214.578 54.3584 214.709 54.2881C214.841 54.209 214.947 54.0464 215.026 53.8003C215.167 53.3608 215.237 52.3677 215.237 50.8208V47.8149C215.237 45.3101 214.314 44.0576 212.468 44.0576C211.132 44.0576 210.117 44.752 209.423 46.1406C209.177 46.624 208.997 47.1953 208.882 47.8545V50.8208C208.882 52.3589 208.935 53.3037 209.041 53.6553C209.146 53.998 209.265 54.209 209.396 54.2881C209.528 54.3584 209.695 54.3936 209.897 54.3936L210.557 54.3276C210.882 54.3276 211.044 54.4551 211.044 54.71C211.044 55.0352 210.754 55.1978 210.174 55.1978C209.84 55.1978 209.493 55.1626 209.133 55.0923C208.772 55.0308 208.359 55 207.894 55C207.428 55 207.001 55.0308 206.615 55.0923C206.237 55.1626 205.881 55.1978 205.547 55.1978ZM222.475 53.5234C221.965 52.9521 221.569 52.2798 221.288 51.5063C221.016 50.7329 220.879 49.876 220.879 48.9355C220.879 47.9863 221.042 47.1162 221.367 46.3252C221.692 45.5342 222.141 44.8574 222.712 44.2949C223.898 43.126 225.362 42.5415 227.102 42.5415C228.543 42.5415 229.708 43.0161 230.596 43.9653C231.439 44.8794 231.861 46.0088 231.861 47.3535C231.861 47.793 231.8 48.0962 231.677 48.2632C231.562 48.4214 231.417 48.5181 231.242 48.5532C231.066 48.5796 230.824 48.606 230.517 48.6323C230.209 48.6499 229.835 48.6719 229.396 48.6982C228.957 48.7246 228.464 48.751 227.919 48.7773C227.383 48.8037 226.834 48.8345 226.271 48.8696C224.979 48.9487 223.942 49.0278 223.16 49.1069C223.354 51.4712 224.259 53.0049 225.876 53.708C226.403 53.9365 226.966 54.0508 227.563 54.0508C228.829 54.0508 229.831 53.6816 230.569 52.9434C230.886 52.627 231.127 52.4688 231.294 52.4688C231.611 52.4688 231.769 52.6577 231.769 53.0356C231.769 53.229 231.637 53.4619 231.374 53.7344C231.11 54.0068 230.732 54.2881 230.24 54.5781C229.37 55.0791 228.354 55.3296 227.194 55.3296C226.034 55.3296 225.085 55.1714 224.347 54.855C223.617 54.5298 222.993 54.0859 222.475 53.5234ZM223.134 48.1313C227.256 47.9204 229.427 47.6963 229.646 47.459C229.726 47.3711 229.765 47.1118 229.765 46.6812C229.765 46.2505 229.682 45.833 229.515 45.4287C229.348 45.0156 229.124 44.6641 228.842 44.374C228.262 43.7852 227.542 43.4907 226.68 43.4907C225.705 43.4907 224.883 43.8994 224.215 44.7168C223.512 45.5693 223.151 46.7075 223.134 48.1313ZM241.538 55.1978C240.967 55.1978 240.681 55.0352 240.681 54.71C240.681 54.4551 240.839 54.3276 241.156 54.3276L241.802 54.3936C242.329 54.3936 242.681 54.0991 242.856 53.5103C243.015 53.0093 243.094 52.1128 243.094 50.8208V41.5396C243.094 40.2388 243.032 39.395 242.909 39.0083C242.786 38.6128 242.637 38.3447 242.461 38.2041C242.294 38.0547 242.074 37.98 241.802 37.98L241.156 38.0459C240.839 38.0459 240.681 37.9141 240.681 37.6504C240.681 37.3076 240.967 37.1362 241.538 37.1362L243.265 37.334C243.634 37.334 243.964 37.3076 244.254 37.2549L256.396 51.3745V41.5132C256.396 40.23 256.326 39.3862 256.185 38.9819C256.053 38.5776 255.899 38.3052 255.724 38.1646C255.548 38.0151 255.319 37.9404 255.038 37.9404L254.392 37.9932C254.076 37.9932 253.917 37.8657 253.917 37.6108C253.917 37.2856 254.203 37.123 254.774 37.123C254.994 37.123 255.289 37.1538 255.658 37.2153C256.124 37.2944 256.545 37.334 256.923 37.334C257.301 37.334 257.67 37.2988 258.031 37.2285C258.391 37.1582 258.813 37.123 259.296 37.123C259.78 37.123 260.021 37.2856 260.021 37.6108C260.021 37.8657 259.863 37.9932 259.547 37.9932L258.901 37.9404C258.365 37.9404 258.009 38.2349 257.833 38.8237C257.684 39.2896 257.609 40.186 257.609 41.5132V54.8286C257.609 55.1274 257.583 55.3252 257.53 55.4219C257.477 55.5186 257.394 55.5669 257.279 55.5669C257.121 55.5669 256.871 55.3823 256.528 55.0132L244.373 40.9331V50.8208C244.373 52.1479 244.43 53.0049 244.544 53.3916C244.667 53.7695 244.812 54.0332 244.979 54.1826C245.155 54.3232 245.383 54.3936 245.665 54.3936L246.297 54.3276C246.614 54.3276 246.772 54.4551 246.772 54.71C246.772 55.0352 246.517 55.1978 246.007 55.1978C245.506 55.1978 245.058 55.1626 244.663 55.0923C244.276 55.0308 243.898 55 243.529 55C243.16 55 242.795 55.0308 242.435 55.0923C242.083 55.1626 241.784 55.1978 241.538 55.1978ZM262.922 53.5234C262.412 52.9521 262.017 52.2798 261.735 51.5063C261.463 50.7329 261.327 49.876 261.327 48.9355C261.327 47.9863 261.489 47.1162 261.814 46.3252C262.14 45.5342 262.588 44.8574 263.159 44.2949C264.346 43.126 265.809 42.5415 267.549 42.5415C268.991 42.5415 270.155 43.0161 271.043 43.9653C271.887 44.8794 272.309 46.0088 272.309 47.3535C272.309 47.793 272.247 48.0962 272.124 48.2632C272.01 48.4214 271.865 48.5181 271.689 48.5532C271.513 48.5796 271.271 48.606 270.964 48.6323C270.656 48.6499 270.283 48.6719 269.843 48.6982C269.404 48.7246 268.912 48.751 268.367 48.7773C267.831 48.8037 267.281 48.8345 266.719 48.8696C265.427 48.9487 264.39 49.0278 263.607 49.1069C263.801 51.4712 264.706 53.0049 266.323 53.708C266.851 53.9365 267.413 54.0508 268.011 54.0508C269.276 54.0508 270.278 53.6816 271.017 52.9434C271.333 52.627 271.575 52.4688 271.742 52.4688C272.058 52.4688 272.216 52.6577 272.216 53.0356C272.216 53.229 272.084 53.4619 271.821 53.7344C271.557 54.0068 271.179 54.2881 270.687 54.5781C269.817 55.0791 268.802 55.3296 267.642 55.3296C266.481 55.3296 265.532 55.1714 264.794 54.855C264.064 54.5298 263.44 54.0859 262.922 53.5234ZM263.581 48.1313C267.703 47.9204 269.874 47.6963 270.094 47.459C270.173 47.3711 270.212 47.1118 270.212 46.6812C270.212 46.2505 270.129 45.833 269.962 45.4287C269.795 45.0156 269.571 44.6641 269.29 44.374C268.709 43.7852 267.989 43.4907 267.127 43.4907C266.152 43.4907 265.33 43.8994 264.662 44.7168C263.959 45.5693 263.599 46.7075 263.581 48.1313ZM274.8 55.1978C274.211 55.1978 273.917 55.0352 273.917 54.71C273.917 54.4551 274.08 54.3276 274.405 54.3276L275.064 54.3936C275.266 54.3936 275.433 54.3584 275.565 54.2881C275.697 54.209 275.798 54.0464 275.868 53.8003C276.009 53.3521 276.079 52.3589 276.079 50.8208V46.8789C276.079 45.9824 276.022 45.4243 275.908 45.2046C275.802 44.9761 275.67 44.8223 275.512 44.7432C275.363 44.6553 275.112 44.585 274.761 44.5322C274.418 44.4795 274.247 44.3433 274.247 44.1235C274.247 43.9214 274.471 43.7764 274.919 43.6885C275.965 43.4688 276.686 43.249 277.081 43.0293C277.617 42.7217 277.982 42.5679 278.175 42.5679C278.377 42.5679 278.479 42.6689 278.479 42.8711C278.479 42.9678 278.457 43.0688 278.413 43.1743C278.377 43.2798 278.338 43.4072 278.294 43.5566C278.224 43.8555 278.171 44.418 278.136 45.2441C278.9 43.9609 279.823 43.1611 280.904 42.8447C281.221 42.748 281.572 42.6997 281.959 42.6997C282.354 42.6997 282.702 42.8403 283 43.1216C283.308 43.4028 283.462 43.7017 283.462 44.0181C283.462 44.3345 283.427 44.5674 283.356 44.7168C283.286 44.8662 283.198 44.9937 283.093 45.0991C282.864 45.3276 282.658 45.4419 282.473 45.4419C282.297 45.4419 282.161 45.3979 282.064 45.3101C281.968 45.2134 281.858 45.042 281.735 44.7959C281.515 44.3564 281.269 44.1367 280.997 44.1367C280.724 44.1367 280.465 44.1982 280.219 44.3213C279.973 44.4355 279.727 44.6113 279.48 44.8486C278.944 45.3496 278.492 46.0308 278.123 46.8921V50.8208C278.123 52.4907 278.167 53.4751 278.254 53.7739C278.351 54.064 278.465 54.2397 278.597 54.3013C278.738 54.354 278.927 54.3804 279.164 54.3804L280.337 54.2749C280.513 54.2749 280.654 54.3188 280.759 54.4067C280.865 54.4858 280.917 54.5869 280.917 54.71C280.917 55.0352 280.597 55.1978 279.955 55.1978L277.173 55C276.725 55 276.299 55.0308 275.895 55.0923C275.499 55.1626 275.134 55.1978 274.8 55.1978ZM294.18 53.8267C293.24 54.8286 292.005 55.3296 290.476 55.3296C288.683 55.3296 287.268 54.71 286.23 53.4707C285.272 52.3105 284.793 50.834 284.793 49.041C284.793 47.248 285.382 45.7231 286.56 44.4663C287.747 43.2007 289.223 42.5679 290.99 42.5679C292.15 42.5679 293.121 42.7876 293.903 43.2271V40.4453C293.903 39.6191 293.837 39.083 293.706 38.8369C293.574 38.582 293.433 38.4106 293.284 38.3228C293.134 38.2349 292.893 38.1646 292.559 38.1118C292.233 38.0591 292.071 37.9229 292.071 37.7031C292.071 37.501 292.295 37.356 292.743 37.2681C293.798 37.0483 294.523 36.8242 294.918 36.5957C295.455 36.2969 295.815 36.1475 296 36.1475C296.202 36.1475 296.303 36.2485 296.303 36.4507C296.303 36.5474 296.285 36.6484 296.25 36.7539C296.065 37.2285 295.969 37.8306 295.96 38.5601C295.951 39.2896 295.947 39.8828 295.947 40.3398V51.1372C295.947 52.104 296.004 52.728 296.118 53.0093C296.232 53.2905 296.347 53.4751 296.461 53.563C296.575 53.6421 296.711 53.6816 296.87 53.6816L297.661 53.5103C297.916 53.5103 298.043 53.6245 298.043 53.853C298.043 53.9849 297.986 54.0947 297.872 54.1826C297.766 54.2705 297.582 54.3716 297.318 54.4858C297.054 54.6001 296.834 54.7188 296.659 54.8418C296.483 54.9648 296.329 55.0791 296.197 55.1846C295.898 55.4395 295.666 55.5669 295.499 55.5669C294.927 55.5669 294.488 54.9868 294.18 53.8267ZM293.903 45.1914C293.104 44.1016 291.996 43.5566 290.581 43.5566C289.518 43.5566 288.665 43.9653 288.023 44.7827C287.338 45.644 286.995 46.8218 286.995 48.3159C286.995 50.0562 287.439 51.4492 288.327 52.4951C289.153 53.4795 290.142 53.9717 291.293 53.9717C292.462 53.9717 293.354 53.5586 293.969 52.7324C293.925 52.4072 293.903 52.0293 293.903 51.5986V45.1914ZM318.267 53.2334C318.521 53.2334 318.649 53.3521 318.649 53.5894C318.649 53.8179 318.394 54.0376 317.884 54.2485C317.375 54.4595 317.019 54.6528 316.816 54.8286C316.614 54.9956 316.465 55.1187 316.368 55.1978C316.271 55.2856 316.157 55.3296 316.025 55.3296C315.762 55.3296 315.542 55.2197 315.366 55C315.19 54.7803 314.953 54.3101 314.654 53.5894C314.153 54.1606 313.542 54.5957 312.822 54.8945C312.11 55.1846 311.402 55.3296 310.699 55.3296C309.372 55.3296 308.344 54.9912 307.614 54.3145C306.885 53.6377 306.52 52.7104 306.52 51.5327C306.52 50.355 307.069 49.4014 308.168 48.6719C309.275 47.9336 310.686 47.5645 312.4 47.5645C312.91 47.5645 313.582 47.6523 314.417 47.8281V46.7998C314.417 44.541 313.463 43.4116 311.556 43.4116C310.545 43.4116 309.803 43.8774 309.328 44.8091C308.915 45.644 308.511 46.0615 308.115 46.0615C307.825 46.0615 307.57 45.978 307.351 45.811C307.14 45.644 307.034 45.4331 307.034 45.1782C307.034 44.9233 307.166 44.6421 307.43 44.3345C307.693 44.0181 308.045 43.7324 308.484 43.4775C309.521 42.8711 310.66 42.5679 311.899 42.5679C314.096 42.5679 315.516 43.2842 316.157 44.7168C316.395 45.2266 316.513 45.8506 316.513 46.5889V51.8491C316.513 52.5259 316.579 52.9609 316.711 53.1543C316.843 53.3477 317.027 53.4443 317.265 53.4443C317.502 53.4443 317.695 53.4092 317.845 53.3389C317.994 53.2686 318.135 53.2334 318.267 53.2334ZM314.417 49.0542C313.784 48.6938 312.984 48.5137 312.018 48.5137C311.051 48.5137 310.273 48.7554 309.684 49.2388C309.104 49.7222 308.814 50.3726 308.814 51.1899C308.814 51.9985 309.038 52.6753 309.486 53.2202C309.935 53.7563 310.51 54.0244 311.213 54.0244C312.716 54.0244 313.797 53.5322 314.457 52.5479C314.43 52.3018 314.417 52.0293 314.417 51.7305V49.0542ZM319.915 48.9619C319.915 48.0303 320.082 47.1689 320.416 46.3779C320.758 45.5781 321.22 44.897 321.8 44.3345C323.03 43.1567 324.582 42.5679 326.454 42.5679C327.561 42.603 328.523 42.8623 329.341 43.3457C330.176 43.8291 330.611 44.4224 330.646 45.1255C330.646 45.5034 330.396 45.7539 329.895 45.877C329.763 45.9033 329.644 45.9165 329.539 45.9165C329.134 45.9165 328.805 45.6396 328.55 45.0859C328.049 44.04 327.201 43.5171 326.005 43.5171C324.951 43.5171 324.067 43.9521 323.355 44.8223C322.6 45.7451 322.222 46.9624 322.222 48.4741C322.222 50.1528 322.613 51.502 323.395 52.5215C324.212 53.5938 325.329 54.1299 326.744 54.1299C327.71 54.1299 328.559 53.7607 329.288 53.0225C329.604 52.7061 329.842 52.5479 330 52.5479C330.325 52.5479 330.488 52.7104 330.488 53.0356C330.488 53.3521 330.176 53.7388 329.552 54.1958C328.541 54.9517 327.297 55.3296 325.821 55.3296C324.054 55.3296 322.617 54.7275 321.51 53.5234C320.446 52.3545 319.915 50.834 319.915 48.9619ZM332.439 48.9619C332.439 48.0303 332.606 47.1689 332.94 46.3779C333.283 45.5781 333.744 44.897 334.324 44.3345C335.555 43.1567 337.106 42.5679 338.978 42.5679C340.085 42.603 341.048 42.8623 341.865 43.3457C342.7 43.8291 343.135 44.4224 343.17 45.1255C343.17 45.5034 342.92 45.7539 342.419 45.877C342.287 45.9033 342.168 45.9165 342.063 45.9165C341.659 45.9165 341.329 45.6396 341.074 45.0859C340.573 44.04 339.725 43.5171 338.53 43.5171C337.475 43.5171 336.592 43.9521 335.88 44.8223C335.124 45.7451 334.746 46.9624 334.746 48.4741C334.746 50.1528 335.137 51.502 335.919 52.5215C336.737 53.5938 337.853 54.1299 339.268 54.1299C340.235 54.1299 341.083 53.7607 341.812 53.0225C342.129 52.7061 342.366 52.5479 342.524 52.5479C342.85 52.5479 343.012 52.7104 343.012 53.0356C343.012 53.3521 342.7 53.7388 342.076 54.1958C341.065 54.9517 339.822 55.3296 338.345 55.3296C336.579 55.3296 335.142 54.7275 334.034 53.5234C332.971 52.3545 332.439 50.834 332.439 48.9619ZM344.871 49.1465C344.871 48.2939 345.025 47.4678 345.333 46.668C345.64 45.8682 346.075 45.165 346.638 44.5586C347.868 43.2314 349.402 42.5679 351.239 42.5679C353.278 42.5679 354.847 43.1787 355.945 44.4004C356.938 45.5078 357.435 46.9448 357.435 48.7114C357.435 50.4956 356.842 52.0381 355.655 53.3389C354.442 54.666 352.913 55.3296 351.067 55.3296C349.028 55.3296 347.464 54.7188 346.374 53.4971C345.372 52.3896 344.871 50.9395 344.871 49.1465ZM347.099 48.5928C347.099 49.4541 347.218 50.2583 347.455 51.0054C347.692 51.7524 348.018 52.3721 348.431 52.8643C349.248 53.8662 350.281 54.3672 351.529 54.3672C352.636 54.3672 353.537 53.9277 354.231 53.0488C354.952 52.1348 355.312 50.957 355.312 49.5156C355.312 47.6084 354.873 46.1143 353.994 45.0332C353.168 44.04 352.131 43.5435 350.883 43.5435C349.775 43.5435 348.875 43.9829 348.18 44.8618C347.459 45.7759 347.099 47.0195 347.099 48.5928ZM372.688 53.2598C372.943 53.2598 373.071 53.374 373.071 53.6025C373.071 53.7256 373.014 53.8311 372.899 53.9189C372.794 54.0068 372.627 54.0991 372.398 54.1958C372.17 54.2837 371.99 54.3584 371.858 54.4199C371.726 54.4814 371.603 54.543 371.489 54.6045C371.304 54.7012 371.102 54.8242 370.882 54.9736C370.513 55.2109 370.258 55.3296 370.118 55.3296C369.986 55.3296 369.863 55.2944 369.749 55.2241C369.643 55.1626 369.533 55.0439 369.419 54.8682C369.155 54.4551 369.015 53.8486 368.997 53.0488C368.25 54.1035 367.292 54.7759 366.123 55.0659C365.763 55.1538 365.341 55.1978 364.857 55.1978C364.374 55.1978 363.873 55.1187 363.354 54.9604C362.845 54.7935 362.405 54.5254 362.036 54.1562C361.245 53.3916 360.85 52.2314 360.85 50.6758V46.8789C360.85 46.0352 360.797 45.4858 360.691 45.231C360.595 44.9761 360.485 44.8047 360.362 44.7168C360.248 44.6289 360.094 44.5674 359.9 44.5322C359.505 44.4443 359.307 44.2993 359.307 44.0972C359.307 43.8774 359.531 43.7236 359.979 43.6357C360.973 43.4336 361.632 43.2358 361.957 43.0425C362.423 42.7788 362.744 42.647 362.919 42.647C363.095 42.647 363.183 42.748 363.183 42.9502C363.183 43.0469 363.161 43.1479 363.117 43.2534C362.941 43.728 362.849 44.3169 362.84 45.02C362.832 45.7231 362.827 46.3076 362.827 46.7734V50.1484C362.827 51.9766 363.416 53.0928 364.594 53.4971C364.945 53.6113 365.292 53.6685 365.635 53.6685C365.978 53.6685 366.299 53.6289 366.598 53.5498C366.905 53.4619 367.204 53.3301 367.494 53.1543C368.118 52.7588 368.615 52.1787 368.984 51.4141L369.023 46.5889C369.023 45.8418 368.958 45.3628 368.826 45.1519C368.694 44.9321 368.549 44.7871 368.391 44.7168C368.232 44.6465 367.982 44.585 367.639 44.5322C367.305 44.4795 367.138 44.3389 367.138 44.1104C367.138 43.9082 367.349 43.7632 367.771 43.6753C368.202 43.5874 368.597 43.4819 368.958 43.3589C369.318 43.2271 369.634 43.104 369.907 42.9897C370.188 42.8755 370.417 42.7788 370.592 42.6997C370.777 42.6118 370.904 42.5679 370.975 42.5679C371.177 42.5679 371.278 42.6689 371.278 42.8711C371.278 42.9678 371.256 43.0688 371.212 43.1743C371.036 43.6489 370.944 44.251 370.935 44.9805C370.926 45.71 370.922 46.3076 370.922 46.7734V51.7173C370.922 52.394 370.979 52.8247 371.093 53.0093C371.269 53.2993 371.52 53.4443 371.845 53.4443L372.688 53.2598ZM375.365 55.1978C374.785 55.1978 374.495 55.0352 374.495 54.71C374.495 54.4551 374.657 54.3276 374.982 54.3276L375.681 54.3936C375.883 54.3936 376.05 54.3584 376.182 54.2881C376.314 54.209 376.415 54.0464 376.485 53.8003C376.626 53.3521 376.696 52.3589 376.696 50.8208V46.8789C376.696 45.9912 376.635 45.4375 376.512 45.2178C376.397 44.9893 376.257 44.8354 376.09 44.7563C375.923 44.6685 375.664 44.5981 375.312 44.5454C374.96 44.4839 374.785 44.3433 374.785 44.1235C374.785 43.9214 375.009 43.7764 375.457 43.6885C376.591 43.4512 377.347 43.2271 377.725 43.0161C378.243 42.7173 378.599 42.5679 378.792 42.5679C378.995 42.5679 379.096 42.6689 379.096 42.8711C379.096 42.9678 379.078 43.0688 379.043 43.1743C378.876 43.5962 378.779 44.2773 378.753 45.2178C379.254 44.3652 379.878 43.7104 380.625 43.2534C381.381 42.7964 382.124 42.5679 382.853 42.5679C383.591 42.5679 384.215 42.6602 384.725 42.8447C385.235 43.0293 385.67 43.3105 386.03 43.6885C386.769 44.4795 387.138 45.644 387.138 47.1821V50.8208C387.138 52.3589 387.19 53.3037 387.296 53.6553C387.401 53.998 387.52 54.209 387.652 54.2881C387.784 54.3584 387.951 54.3936 388.153 54.3936L388.838 54.3276C389.164 54.3276 389.326 54.4551 389.326 54.71C389.326 55.0352 389.032 55.1978 388.443 55.1978C388.1 55.1978 387.735 55.1626 387.349 55.0923C386.971 55.0308 386.562 55 386.123 55C385.692 55 385.279 55.0308 384.883 55.0923C384.488 55.1626 384.119 55.1978 383.776 55.1978C383.187 55.1978 382.893 55.0352 382.893 54.71C382.893 54.4551 383.055 54.3276 383.38 54.3276L384.066 54.3936C384.268 54.3936 384.435 54.3584 384.567 54.2881C384.699 54.209 384.804 54.0464 384.883 53.8003C385.024 53.3608 385.094 52.3677 385.094 50.8208V47.8149C385.094 45.3013 384.18 44.0444 382.352 44.0444C381.06 44.0444 380.054 44.6289 379.333 45.7979C379.078 46.2285 378.88 46.7559 378.74 47.3799V50.8208C378.74 52.3589 378.792 53.3037 378.898 53.6553C379.003 53.998 379.122 54.209 379.254 54.2881C379.386 54.3584 379.553 54.3936 379.755 54.3936L380.454 54.3276C380.779 54.3276 380.941 54.4551 380.941 54.71C380.941 55.0352 380.651 55.1978 380.071 55.1978C379.737 55.1978 379.381 55.1626 379.003 55.0923C378.634 55.0308 378.217 55 377.751 55C377.285 55 376.854 55.0308 376.459 55.0923C376.072 55.1626 375.708 55.1978 375.365 55.1978ZM398.027 43.873C398.027 44.1104 397.887 44.229 397.605 44.229L393.861 44.1895V51.4932C393.861 52.8555 394.191 53.6641 394.85 53.9189C395.052 53.998 395.29 54.0376 395.562 54.0376C395.834 54.0376 396.081 53.9937 396.3 53.9058C396.529 53.8091 396.731 53.708 396.907 53.6025C397.083 53.4971 397.232 53.4004 397.355 53.3125C397.478 53.2158 397.592 53.1675 397.698 53.1675C397.812 53.1675 397.913 53.229 398.001 53.3521C398.089 53.4751 398.133 53.5981 398.133 53.7212C398.133 54.0288 397.742 54.3979 396.959 54.8286C396.362 55.1626 395.61 55.3296 394.705 55.3296C393.8 55.3296 393.092 55.0088 392.583 54.3672C392.073 53.7168 391.818 52.8203 391.818 51.6777V44.1499H391.014C390.381 44.1499 390.064 43.9873 390.064 43.6621C390.064 43.4248 390.24 43.2622 390.592 43.1743C390.943 43.0864 391.247 42.9326 391.501 42.7129C391.756 42.4844 391.963 42.2295 392.121 41.9482C392.288 41.6582 392.42 41.3594 392.517 41.0518C392.613 40.7441 392.701 40.4629 392.78 40.208C392.974 39.6279 393.193 39.3379 393.439 39.3379C393.721 39.3379 393.861 39.5884 393.861 40.0894V43.0688L397.566 42.9897C397.75 42.9897 397.896 43.2095 398.001 43.6489C398.019 43.7456 398.027 43.8203 398.027 43.873Z" fill="black"/>
<defs>
<filter id="filter0_d" x="0.5" y="0" width="467" height="97" filterUnits="userSpaceOnUse" color-interpolation-filters="sRGB">
<feFlood flood-opacity="0" result="BackgroundImageFix"/>
<feColorMatrix in="SourceAlpha" type="matrix" values="0 0 0 0 0 0 0 0 0 0 0 0 0 0 0 0 0 0 127 0"/>
<feOffset dy="5"/>
<feGaussianBlur stdDeviation="2"/>
<feColorMatrix type="matrix" values="0 0 0 0 0 0 0 0 0 0 0 0 0 0 0 0 0 0 0.25 0"/>
<feBlend mode="normal" in2="BackgroundImageFix" result="effect1_dropShadow"/>
<feBlend mode="normal" in="SourceGraphic" in2="effect1_dropShadow" result="shape"/>
</filter>
<clipPath id="clip0">
<rect width="45.5619" height="77" fill="white" transform="translate(16.5 6)"/>
</clipPath>
</defs>
</svg>
