<svg width="206" height="121" viewBox="0 0 206 121" fill="none" xmlns="http://www.w3.org/2000/svg">
<path d="M17.6787 19.8291C17.6787 19.8291 16.5537 19.8135 14.3037 19.7822L13.7881 48.6807C14.0537 48.6494 14.3193 48.6338 14.585 48.6338C15.085 48.6338 15.5303 48.6338 15.9209 48.6338C16.3115 48.6338 16.6396 48.6494 16.9053 48.6807L17.6787 19.8291ZM4.22559 16.7119C7.47559 17.1494 11.7256 17.3682 16.9756 17.3682C22.2256 17.3682 25.8193 17.29 27.7568 17.1338H27.8506C28.1318 17.1338 28.3896 17.2354 28.624 17.4385C28.8584 17.626 28.9834 17.7979 28.999 17.9541C29.0303 18.0947 29.0693 18.29 29.1162 18.54C29.1631 18.79 29.2256 19.126 29.3037 19.5479C29.3818 19.9697 29.4756 20.4541 29.585 21.001C29.71 21.5479 29.8428 22.1182 29.9834 22.7119C30.3428 24.1807 30.6709 25.3291 30.9678 26.1572L31.0146 26.5557C31.0146 26.8838 30.8818 27.1729 30.6162 27.4229C30.3662 27.6729 30.1006 27.7979 29.8193 27.7979C29.2256 27.7979 28.8271 27.5088 28.624 26.9307C27.8115 24.5713 27.2178 22.1572 26.8428 19.6885C25.0615 19.7822 22.8193 19.8291 20.1162 19.8291L19.3428 48.7744C22.0459 48.8682 23.5225 49.0635 23.7725 49.3604C24.0225 49.6416 24.1475 49.9619 24.1475 50.3213C24.1475 50.665 24.0146 50.9463 23.749 51.165C23.499 51.3994 23.2334 51.5166 22.9521 51.5166H22.8115C20.6553 51.251 18.1709 51.1182 15.3584 51.1182C12.5459 51.1182 10.1162 51.251 8.06934 51.5166H7.92871C7.58496 51.5166 7.28809 51.3838 7.03809 51.1182C6.80371 50.8525 6.68652 50.5635 6.68652 50.251C6.68652 49.9385 6.78809 49.665 6.99121 49.4307C7.31934 49.1025 8.76465 48.8838 11.3271 48.7744L11.8662 19.6885C9.39746 19.5947 7.1084 19.4619 4.99902 19.29C4.90527 19.7119 4.78809 20.2275 4.64746 20.8369C4.52246 21.4463 4.38184 22.0947 4.22559 22.7822C3.72559 24.8135 3.40527 26.0713 3.26465 26.5557C3.01465 27.3838 2.60059 27.7979 2.02246 27.7979C1.66309 27.7979 1.36621 27.6729 1.13184 27.4229C0.897461 27.1572 0.780273 26.9307 0.780273 26.7432V26.3682C0.780273 26.3057 0.842773 26.0557 0.967773 25.6182C1.1084 25.1807 1.2959 24.4697 1.53027 23.4854C1.76465 22.501 1.97559 21.5791 2.16309 20.7197C2.61621 18.7666 2.84277 17.751 2.84277 17.6729C3.01465 17.0322 3.41309 16.7119 4.03809 16.7119H4.22559ZM44.5146 19.501C44.5146 19.501 43.9443 19.501 42.8037 19.501C42.2568 19.501 41.6865 19.4854 41.0928 19.4541L40.5771 48.7275H43.6943L44.5146 19.501ZM69.8975 16.3604C70.5225 16.3604 70.9209 16.6807 71.0928 17.3213C71.0928 18.1338 70.7725 18.6338 70.1318 18.8213C68.5068 19.1494 66.8818 19.376 65.2568 19.501C64.3818 27.376 63.9443 36.3994 63.9443 46.5713V48.8682C65.4287 48.8682 66.999 48.9463 68.6553 49.1025C69.3896 49.2588 69.7568 49.7119 69.7568 50.4619C69.7256 50.79 69.585 51.0557 69.335 51.2588C69.1006 51.4619 68.8271 51.5635 68.5146 51.5635H68.4209C66.4678 51.3916 64.7412 51.3057 63.2412 51.3057C61.6943 51.3057 60.0459 51.3916 58.2959 51.5635H58.1318C57.7725 51.5635 57.4756 51.4385 57.2412 51.1885C57.0068 50.9385 56.8896 50.6572 56.8896 50.3447C56.8896 50.0322 56.9912 49.7588 57.1943 49.5244C57.4131 49.29 57.749 49.1494 58.2021 49.1025C58.999 49.0244 60.1006 48.9463 61.5068 48.8682V46.5713C61.5068 43.1494 61.5537 39.9463 61.6475 36.9619C59.3975 37.1807 56.835 37.29 53.96 37.29C51.085 37.29 48.5928 37.1807 46.4834 36.9619L46.2021 48.8213C47.0928 48.8838 48.3193 48.9775 49.8818 49.1025C50.1943 49.1494 50.4521 49.29 50.6553 49.5244C50.874 49.7588 50.9834 50.0479 50.9834 50.3916C50.9834 50.7197 50.8506 50.9932 50.585 51.2119C50.3193 51.4463 50.0381 51.5635 49.7412 51.5635H49.6475C44.6631 51.0635 39.7334 51.0635 34.8584 51.5635H34.7646C34.4053 51.5635 34.1084 51.4385 33.874 51.1885C33.6396 50.9385 33.5225 50.6572 33.5225 50.3447C33.5225 50.0322 33.624 49.7588 33.8271 49.5244C34.0459 49.29 34.374 49.1494 34.8115 49.1025C35.2646 49.0557 35.7803 49.0088 36.3584 48.9619C36.9521 48.915 37.5381 48.8682 38.1162 48.8213L38.6553 19.2432C37.3115 19.1494 35.9521 19.0088 34.5771 18.8213C34.2646 18.7744 34.0068 18.6338 33.8037 18.3994C33.6162 18.165 33.5225 17.876 33.5225 17.5322C33.5225 17.1885 33.6631 16.9072 33.9443 16.6885C34.2256 16.4697 34.499 16.3604 34.7646 16.3604H34.9053C37.9053 16.8135 40.8271 17.04 43.6709 17.04C46.5146 17.04 48.7178 16.9619 50.2803 16.8057H50.374C50.6865 16.8057 50.96 16.915 51.1943 17.1338C51.4443 17.3369 51.5771 17.6182 51.5928 17.9775C51.6084 18.3213 51.499 18.6104 51.2646 18.8447C51.0459 19.0791 50.71 19.2119 50.2568 19.2432C48.8662 19.3682 47.7646 19.4541 46.9521 19.501L46.5771 34.4775C48.6396 34.7275 50.71 34.8525 52.7881 34.8525C56.4912 34.8525 59.4756 34.7432 61.7412 34.5244C61.9287 29.1182 62.2803 24.1416 62.7959 19.5947C61.2178 19.5166 60.1475 19.4229 59.585 19.3135C58.6162 19.1572 58.1318 18.7354 58.1318 18.0479C58.1318 17.6572 58.2646 17.3525 58.5303 17.1338C58.8115 16.915 59.085 16.8057 59.3506 16.8057H59.5381C60.6318 17.0244 62.0381 17.1338 63.7568 17.1338C65.4756 17.1338 67.4287 16.876 69.6162 16.3604H69.8975ZM84.0068 20.0166C82.9131 20.0791 81.7959 20.1104 80.6553 20.1104V48.5869C81.2021 48.5557 81.7568 48.54 82.3193 48.54C82.8975 48.54 83.46 48.5244 84.0068 48.4932V20.0166ZM87.124 48.4932C91.3271 48.4932 95.0928 48.6025 98.4209 48.8213L99.2646 42.54C99.3271 42.2275 99.4678 41.9775 99.6865 41.79C99.9209 41.5869 100.202 41.4854 100.53 41.4854C100.874 41.4854 101.155 41.6182 101.374 41.8838C101.608 42.1494 101.726 42.415 101.726 42.6807V42.8682L100.718 50.2979C100.671 50.6104 100.53 50.8604 100.296 51.0479C100.062 51.251 99.7881 51.3525 99.4756 51.3525H99.4287C95.2256 51.0713 91.1084 50.9307 87.0771 50.9307C83.0459 50.9307 79.1475 51.0713 75.3818 51.3525H75.2646C74.9053 51.3213 74.6084 51.1963 74.374 50.9775C74.1396 50.7588 74.0225 50.4854 74.0225 50.1572C74.0225 49.8135 74.1318 49.5322 74.3506 49.3135C74.5693 49.0791 74.8818 48.9463 75.2881 48.915C75.71 48.8682 76.1709 48.8369 76.6709 48.8213C77.1865 48.79 77.6943 48.7588 78.1943 48.7275V20.1572C77.6943 20.126 77.1943 20.1104 76.6943 20.1104H75.2178C74.8896 20.0791 74.6084 19.9541 74.374 19.7354C74.1396 19.501 74.0225 19.2119 74.0225 18.8682C74.0225 18.5244 74.1475 18.2354 74.3975 18.001C74.6475 17.751 74.999 17.6338 75.4521 17.6494C75.9209 17.665 76.4287 17.6729 76.9756 17.6729H78.6396C85.249 17.6729 91.8037 17.2354 98.3037 16.3604H98.5146C98.8271 16.3604 99.0928 16.4697 99.3115 16.6885C99.5303 16.8916 99.6631 17.1338 99.71 17.415L100.718 25.3369V25.501C100.718 25.8604 100.585 26.1494 100.319 26.3682C100.069 26.5869 99.7881 26.6963 99.4756 26.6963C99.1787 26.6963 98.9131 26.6025 98.6787 26.415C98.46 26.2119 98.3193 25.9541 98.2568 25.6416L97.4131 18.9619C94.3193 19.3838 90.6709 19.7041 86.4678 19.9229V35.3682C89.8271 35.2275 92.4521 34.9775 94.3428 34.6182H94.5771C94.9053 34.6182 95.1943 34.7432 95.4443 34.9932C95.6943 35.2275 95.8193 35.501 95.8193 35.8135C95.8193 36.4697 95.4834 36.8838 94.8115 37.0557C92.9678 37.415 90.1865 37.6729 86.4678 37.8291V48.4932H87.124Z" fill="black"/>
<path d="M18.3901 76.8125C18.3901 76.8125 17.6297 76.8125 16.1089 76.8125C15.3797 76.8125 14.6193 76.7917 13.8276 76.75L13.1401 115.812H17.2964L18.3901 76.8125ZM37.3276 72.9688C38.3485 73.1146 39.5464 73.1875 40.9214 73.1875C43.6297 73.1875 46.3381 72.8229 49.0464 72.0938C49.1297 72.0521 49.3381 72.0312 49.6714 72.0312C50.0047 72.0312 50.3172 72.1979 50.6089 72.5312C50.9214 72.8438 51.0776 73.1875 51.0776 73.5625C51.0776 74.4375 50.7131 74.9792 49.9839 75.1875C48.4006 75.625 46.9526 75.9375 45.6401 76.125C46.6193 82.0833 47.1089 87.7396 47.1089 93.0938C47.1089 100.927 46.5568 109.281 45.4526 118.156C45.2026 119.094 44.6818 119.562 43.8901 119.562C43.1193 119.562 42.5985 119.229 42.3276 118.562C40.6818 114.583 38.286 109.729 35.1401 104C31.9943 98.25 29.7547 94.1771 28.4214 91.7812C26.1089 87.6979 23.8276 83.6771 21.5776 79.7188L20.6401 115.938C21.8276 116.021 23.4631 116.146 25.5464 116.312C25.9631 116.375 26.3068 116.562 26.5776 116.875C26.8693 117.188 27.0151 117.573 27.0151 118.031C27.0151 118.469 26.8381 118.833 26.4839 119.125C26.1297 119.417 25.7547 119.562 25.3589 119.562H25.2339C18.5881 118.896 12.0151 118.896 5.51514 119.562H5.39014C4.9318 119.562 4.53597 119.396 4.20264 119.062C3.89014 118.75 3.73389 118.385 3.73389 117.969C3.73389 117.552 3.8693 117.188 4.14014 116.875C4.4318 116.562 4.8693 116.375 5.45264 116.312C6.0568 116.25 6.7443 116.188 7.51514 116.125C8.3068 116.062 9.08805 116 9.85889 115.938L10.5776 76.5C8.78597 76.375 6.97347 76.1875 5.14014 75.9375C4.72347 75.875 4.37972 75.6875 4.10889 75.375C3.85889 75.0417 3.73389 74.6458 3.73389 74.1875C3.73389 73.7292 3.92139 73.3646 4.29639 73.0938C4.67139 72.8021 5.03597 72.6562 5.39014 72.6562H5.57764C10.2026 73.2604 14.5151 73.5625 18.5151 73.5625H20.8276C21.4318 73.5625 21.8381 73.7292 22.0464 74.0625C22.2547 74.375 22.5881 74.9271 23.0464 75.7188C23.5047 76.5104 24.0985 77.5417 24.8276 78.8125C25.5568 80.0833 26.3901 81.5521 27.3276 83.2188C28.286 84.8854 29.2964 86.6667 30.3589 88.5625C31.4422 90.4583 32.5464 92.4271 33.6714 94.4688C34.7964 96.5104 35.9006 98.5417 36.9839 100.562C39.5881 105.396 41.5568 109.177 42.8901 111.906C43.536 105.406 43.8589 99.75 43.8589 94.9375C43.8589 88.6667 43.3693 82.4792 42.3901 76.375C42.1193 76.4167 41.8589 76.4375 41.6089 76.4375H40.7964C37.9631 76.4375 36.3693 76.2396 36.0151 75.8438C35.661 75.4271 35.4839 75 35.4839 74.5625C35.4839 74.125 35.6506 73.75 35.9839 73.4375C36.3381 73.125 36.7235 72.9688 37.1401 72.9688H37.3276ZM70.0464 77.7812C68.5881 77.8646 67.0985 77.9062 65.5776 77.9062V115.875C66.3068 115.833 67.0464 115.812 67.7964 115.812C68.5672 115.812 69.3172 115.792 70.0464 115.75V77.7812ZM74.2026 115.75C79.8068 115.75 84.8276 115.896 89.2651 116.188L90.3901 107.812C90.4735 107.396 90.661 107.062 90.9526 106.812C91.2651 106.542 91.6401 106.406 92.0776 106.406C92.536 106.406 92.911 106.583 93.2026 106.938C93.5151 107.292 93.6714 107.646 93.6714 108V108.25L92.3276 118.156C92.2651 118.573 92.0776 118.906 91.7651 119.156C91.4526 119.427 91.0881 119.562 90.6714 119.562H90.6089C85.0047 119.188 79.5151 119 74.1401 119C68.7651 119 63.5672 119.188 58.5464 119.562H58.3901C57.911 119.521 57.5151 119.354 57.2026 119.062C56.8901 118.771 56.7339 118.406 56.7339 117.969C56.7339 117.51 56.8797 117.135 57.1714 116.844C57.4631 116.531 57.8797 116.354 58.4214 116.312C58.9839 116.25 59.5985 116.208 60.2651 116.188C60.9526 116.146 61.6297 116.104 62.2964 116.062V77.9688C61.6297 77.9271 60.9631 77.9062 60.2964 77.9062H58.3276C57.8901 77.8646 57.5151 77.6979 57.2026 77.4062C56.8901 77.0938 56.7339 76.7083 56.7339 76.25C56.7339 75.7917 56.9006 75.4062 57.2339 75.0938C57.5672 74.7604 58.036 74.6042 58.6401 74.625C59.2651 74.6458 59.9422 74.6562 60.6714 74.6562H62.8901C71.7026 74.6562 80.4422 74.0729 89.1089 72.9062H89.3901C89.8068 72.9062 90.161 73.0521 90.4526 73.3438C90.7443 73.6146 90.9214 73.9375 90.9839 74.3125L92.3276 84.875V85.0938C92.3276 85.5729 92.1506 85.9583 91.7964 86.25C91.4631 86.5417 91.0881 86.6875 90.6714 86.6875C90.2756 86.6875 89.9214 86.5625 89.6089 86.3125C89.3172 86.0417 89.1297 85.6979 89.0464 85.2812L87.9214 76.375C83.7964 76.9375 78.9318 77.3646 73.3276 77.6562V98.25C77.8068 98.0625 81.3068 97.7292 83.8276 97.25H84.1401C84.5776 97.25 84.9631 97.4167 85.2964 97.75C85.6297 98.0625 85.7964 98.4271 85.7964 98.8438C85.7964 99.7188 85.3485 100.271 84.4526 100.5C81.9943 100.979 78.286 101.323 73.3276 101.531V115.75H74.2026ZM107.89 115.688C108.932 115.583 110.296 115.531 111.984 115.531L113.078 76.5625C111.328 76.6458 109.807 76.75 108.515 76.875L107.89 115.688ZM131.39 116.25C129.494 113.625 128.546 109.146 128.546 102.812V101.688C128.546 101.312 128.567 100.979 128.609 100.688C126.505 101.062 125.078 101.281 124.328 101.344C124.244 101.927 124.203 102.781 124.203 103.906C124.203 105.01 124.296 106.26 124.484 107.656C124.692 109.052 125.067 110.354 125.609 111.562C126.796 114.312 128.723 115.875 131.39 116.25ZM115.765 97.6875C117.161 97.9792 118.734 98.125 120.484 98.125C122.234 98.125 123.765 98.0521 125.078 97.9062C126.39 97.7604 127.671 97.5208 128.921 97.1875C130.192 96.8542 131.39 96.4167 132.515 95.875C133.64 95.3125 134.63 94.625 135.484 93.8125C137.317 92 138.234 89.7292 138.234 87C138.234 82.8958 136.286 80.0208 132.39 78.375C130.036 77.3958 127.609 76.8229 125.109 76.6562C122.609 76.4688 120.807 76.375 119.703 76.375H117.453C117.057 76.375 116.682 76.3958 116.328 76.4375L115.765 97.6875ZM140.203 107.875L140.14 106.906C140.14 106.427 140.307 106.042 140.64 105.75C140.994 105.458 141.38 105.312 141.796 105.312C142.213 105.312 142.578 105.458 142.89 105.75C143.203 106.021 143.38 106.365 143.421 106.781L143.484 107.875C143.484 111.312 142.505 114.104 140.546 116.25C138.546 118.458 135.921 119.562 132.671 119.562H132.578C127.161 119.417 123.619 116.562 121.953 111C121.286 108.792 120.953 106.312 120.953 103.562L121.015 101.469C119.411 101.469 117.64 101.323 115.703 101.031L115.234 117.219C115.234 117.719 115.067 118.115 114.734 118.406C114.421 118.677 114.036 118.812 113.578 118.812C108.703 118.812 104.265 119.062 100.265 119.562H100.078C99.5985 119.562 99.2026 119.396 98.8901 119.062C98.5776 118.75 98.4214 118.385 98.4214 117.969C98.4214 117.552 98.5464 117.188 98.7964 116.875C99.0672 116.562 99.4943 116.365 100.078 116.281C100.682 116.198 101.38 116.125 102.171 116.062C102.984 116 103.776 115.938 104.546 115.875L105.265 77.3438L100.515 78.2812C100.369 78.3854 100.14 78.4375 99.8276 78.4375C99.5151 78.4375 99.2026 78.2708 98.8901 77.9375C98.5776 77.6042 98.4214 77.2292 98.4214 76.8125C98.4214 75.9792 98.8068 75.4479 99.5776 75.2188C103.765 73.8229 110.161 73.125 118.765 73.125C123.598 73.375 127.109 73.75 129.296 74.25C131.505 74.75 133.307 75.3229 134.703 75.9688C136.098 76.5938 137.296 77.4062 138.296 78.4062C140.421 80.4896 141.484 83.3542 141.484 87C141.484 89.9792 140.598 92.625 138.828 94.9375C137.14 97.1458 134.848 98.7292 131.953 99.6875C131.869 100.646 131.828 101.5 131.828 102.25C131.828 102.979 131.838 103.74 131.859 104.531C131.88 105.323 131.932 106.188 132.015 107.125C132.098 108.062 132.223 109.021 132.39 110C132.578 110.979 132.817 111.875 133.109 112.688C133.796 114.5 134.734 115.406 135.921 115.406C137.38 115.406 138.505 114.438 139.296 112.5C139.901 111.062 140.203 109.521 140.203 107.875ZM158.265 116.688C160.078 116.854 161.546 116.969 162.671 117.031V76.8125C161.317 76.9167 159.848 77.0938 158.265 77.3438V116.688ZM187.234 102.469C187.755 100.677 188.015 98.4583 188.015 95.8125C188.015 93.1458 187.453 90.5312 186.328 87.9688C185.203 85.3854 183.651 83.2292 181.671 81.5C177.609 77.9583 172.369 76.375 165.953 76.75V117.031C172.036 117.219 177.213 115.385 181.484 111.531C184.255 109.052 186.171 106.031 187.234 102.469ZM155.015 77.9062L150.14 79.125C149.661 79.125 149.276 78.9583 148.984 78.625C148.692 78.2708 148.546 77.8958 148.546 77.5C148.546 76.6667 148.911 76.1458 149.64 75.9375C149.723 75.9167 150.182 75.7812 151.015 75.5312C151.869 75.2604 153.005 74.9792 154.421 74.6875C158.13 73.8958 161.838 73.5 165.546 73.5C169.276 73.5 172.703 73.9896 175.828 74.9688C178.953 75.9271 181.661 77.375 183.953 79.3125C188.848 83.4583 191.296 89.2812 191.296 96.7812C191.296 101.74 190.015 106.073 187.453 109.781C185.098 113.177 181.796 115.812 177.546 117.688C173.442 119.458 168.911 120.344 163.953 120.344C158.911 120.344 154.328 119.656 150.203 118.281C149.473 117.99 149.109 117.542 149.109 116.938C149.109 116.333 149.286 115.875 149.64 115.562C149.994 115.25 150.38 115.094 150.796 115.094L155.015 116.188V77.9062Z" fill="black"/>
<g clip-path="url(#clip0)">
<path d="M138.771 27.3955C137.845 27.6033 111.815 36.9221 111.537 37.1408C111.244 37.3705 111.229 37.5564 111.182 40.083C111.151 42.5986 111.167 42.7955 111.445 43.1236C111.799 43.5174 112.494 43.7033 113.666 43.7033H114.392V44.2174C114.392 45.5518 114.978 46.0002 116.752 46.0002H117.786V46.7111C117.786 47.958 118.28 48.2971 120.023 48.2971H121.026V49.0299C121.026 49.9705 121.366 50.4189 122.214 50.583C123.017 50.7471 138.786 50.7471 139.588 50.583C140.437 50.4189 140.776 49.9705 140.776 49.0299V48.2971H141.779C143.523 48.2971 144.017 47.958 144.017 46.7111V46.0002H145.066C146.377 46.0002 147.01 45.7596 147.241 45.158C147.334 44.9174 147.411 43.5502 147.411 41.8658V39.0002H150.651H153.892V41.8658C153.892 43.5502 153.969 44.9174 154.061 45.158C154.293 45.7596 154.925 46.0002 156.252 46.0002H157.286V46.7111C157.286 47.958 157.78 48.2971 159.523 48.2971H160.526V49.0299C160.526 49.9705 160.866 50.4189 161.714 50.583C162.517 50.7471 178.286 50.7471 179.088 50.583C179.937 50.4189 180.276 49.9705 180.276 49.0299V48.2971H181.279C183.023 48.2971 183.517 47.958 183.517 46.7111V46.0002H184.566C186.325 46.0002 186.911 45.5518 186.911 44.2174V43.7033H187.652C188.809 43.7033 189.503 43.5174 189.858 43.1236C190.136 42.7955 190.151 42.5986 190.121 40.083C190.074 37.5564 190.059 37.3705 189.766 37.1408C189.596 37.0096 183.424 34.7455 176.033 32.1205L162.609 27.3518H158.798H154.972L154.478 27.7127L153.969 28.0627L153.922 29.3533C153.845 30.9393 154.03 31.4861 154.709 31.7815C155.327 32.0549 155.836 32.0549 156.468 31.7815C157.024 31.5408 157.286 31.0486 157.286 30.2174V29.7033H159.601H161.915L171.682 33.1705L181.434 36.6486L166.035 36.6814C157.579 36.6924 143.723 36.6924 135.253 36.6814L119.869 36.6486L129.621 33.1705L139.388 29.7033H141.702H144.017V30.2174C144.017 31.0486 144.279 31.5408 144.834 31.7815C145.467 32.0549 145.976 32.0549 146.593 31.7815C147.272 31.4861 147.457 30.9393 147.38 29.3533C147.334 28.0627 147.334 28.0627 146.825 27.7127L146.331 27.3518L142.736 27.3299C140.776 27.319 138.987 27.3518 138.771 27.3955ZM124.267 41.3518V42.5002H125.964H127.661V43.6486V44.7971H129.281H130.901V46.0002V47.2033H129.281H127.677L127.63 46.0221L127.584 44.8518L125.933 44.8189L124.267 44.7861V43.6486V42.5002H122.647H121.026V41.3518V40.2033H122.647H124.267V41.3518ZM163.767 41.3518V42.5002H165.464H167.161V43.6486V44.7971H168.781H170.401V46.0002V47.2033H168.781H167.177L167.13 46.0221L167.084 44.8518L165.433 44.8189L163.767 44.7861V43.6486V42.5002H162.146H160.526V41.3518V40.2033H162.146H163.767V41.3518Z" fill="black"/>
</g>
<defs>
<clipPath id="clip0">
<rect width="79" height="56" fill="white" transform="translate(111.15 11)"/>
</clipPath>
</defs>
</svg>
