<svg width="945" height="599" viewBox="0 0 945 599" fill="none" xmlns="http://www.w3.org/2000/svg">
<path d="M356.543 288.006C356.543 288.006 353.942 287.97 348.739 287.898L347.546 354.725C348.161 354.653 348.775 354.617 349.389 354.617C350.545 354.617 351.575 354.617 352.479 354.617C353.382 354.617 354.141 354.653 354.755 354.725L356.543 288.006ZM325.433 280.798C332.949 281.809 342.777 282.315 354.917 282.315C367.058 282.315 375.369 282.135 379.849 281.773H380.066C380.716 281.773 381.312 282.008 381.854 282.478C382.396 282.911 382.686 283.309 382.722 283.67C382.794 283.995 382.884 284.447 382.993 285.025C383.101 285.603 383.246 286.38 383.426 287.356C383.607 288.331 383.824 289.452 384.077 290.716C384.366 291.981 384.673 293.3 384.998 294.673C385.829 298.069 386.588 300.725 387.274 302.64L387.383 303.561C387.383 304.32 387.076 304.989 386.461 305.567C385.883 306.145 385.269 306.434 384.619 306.434C383.246 306.434 382.324 305.766 381.854 304.429C379.976 298.973 378.603 293.39 377.735 287.681C373.616 287.898 368.431 288.006 362.18 288.006L360.392 354.942C366.643 355.159 370.057 355.611 370.635 356.297C371.213 356.948 371.502 357.688 371.502 358.519C371.502 359.314 371.195 359.965 370.581 360.471C370.003 361.013 369.389 361.284 368.738 361.284H368.413C363.427 360.669 357.682 360.362 351.178 360.362C344.674 360.362 339.055 360.669 334.322 361.284H333.997C333.202 361.284 332.515 360.976 331.937 360.362C331.395 359.748 331.124 359.079 331.124 358.357C331.124 357.634 331.359 357.002 331.829 356.46C332.587 355.701 335.93 355.195 341.855 354.942L343.102 287.681C337.393 287.464 332.1 287.157 327.222 286.76C327.005 287.735 326.734 288.928 326.409 290.337C326.12 291.746 325.794 293.245 325.433 294.835C324.277 299.533 323.536 302.441 323.211 303.561C322.633 305.476 321.675 306.434 320.338 306.434C319.507 306.434 318.821 306.145 318.279 305.567C317.737 304.953 317.466 304.429 317.466 303.995V303.128C317.466 302.983 317.61 302.405 317.899 301.393C318.225 300.382 318.658 298.738 319.2 296.461C319.742 294.185 320.23 292.053 320.664 290.066C321.711 285.549 322.235 283.201 322.235 283.02C322.633 281.538 323.554 280.798 325 280.798H325.433ZM418.602 287.247C418.602 287.247 417.283 287.247 414.645 287.247C413.38 287.247 412.062 287.211 410.688 287.139L409.496 354.834H416.705L418.602 287.247ZM477.299 279.985C478.745 279.985 479.666 280.725 480.063 282.207C480.063 284.086 479.323 285.242 477.841 285.676C474.083 286.434 470.326 286.958 466.568 287.247C464.544 305.458 463.533 326.325 463.533 349.848V355.159C466.965 355.159 470.597 355.34 474.427 355.701C476.125 356.062 476.974 357.11 476.974 358.845C476.902 359.603 476.577 360.218 475.999 360.687C475.457 361.157 474.824 361.392 474.102 361.392H473.885C469.368 360.995 465.375 360.796 461.907 360.796C458.33 360.796 454.518 360.995 450.471 361.392H450.091C449.26 361.392 448.574 361.103 448.032 360.525C447.49 359.947 447.219 359.296 447.219 358.574C447.219 357.851 447.454 357.219 447.923 356.677C448.429 356.135 449.206 355.809 450.254 355.701C452.097 355.52 454.644 355.34 457.896 355.159V349.848C457.896 341.934 458.004 334.527 458.221 327.626C453.018 328.132 447.092 328.385 440.444 328.385C433.795 328.385 428.032 328.132 423.154 327.626L422.504 355.051C424.563 355.195 427.4 355.412 431.013 355.701C431.736 355.809 432.332 356.135 432.802 356.677C433.308 357.219 433.561 357.887 433.561 358.682C433.561 359.441 433.253 360.073 432.639 360.579C432.025 361.121 431.375 361.392 430.688 361.392H430.471C418.945 360.236 407.545 360.236 396.271 361.392H396.055C395.224 361.392 394.537 361.103 393.995 360.525C393.453 359.947 393.182 359.296 393.182 358.574C393.182 357.851 393.417 357.219 393.887 356.677C394.393 356.135 395.151 355.809 396.163 355.701C397.211 355.593 398.403 355.484 399.74 355.376C401.113 355.267 402.468 355.159 403.805 355.051L405.052 286.651C401.944 286.434 398.801 286.109 395.621 285.676C394.898 285.567 394.302 285.242 393.833 284.7C393.399 284.158 393.182 283.49 393.182 282.695C393.182 281.9 393.507 281.249 394.158 280.744C394.808 280.238 395.44 279.985 396.055 279.985H396.38C403.317 281.033 410.074 281.557 416.65 281.557C423.227 281.557 428.321 281.376 431.935 281.015H432.151C432.874 281.015 433.506 281.267 434.048 281.773C434.626 282.243 434.934 282.893 434.97 283.724C435.006 284.519 434.753 285.188 434.211 285.73C433.705 286.272 432.928 286.579 431.88 286.651C428.665 286.94 426.117 287.139 424.238 287.247L423.371 321.881C428.141 322.459 432.928 322.748 437.734 322.748C446.297 322.748 453.199 322.495 458.438 321.989C458.872 309.487 459.685 297.979 460.877 287.464C457.228 287.284 454.752 287.067 453.452 286.814C451.211 286.453 450.091 285.477 450.091 283.887C450.091 282.984 450.398 282.279 451.013 281.773C451.663 281.267 452.295 281.015 452.91 281.015H453.343C455.873 281.52 459.125 281.773 463.099 281.773C467.074 281.773 471.59 281.177 476.649 279.985H477.299ZM509.927 288.44C507.398 288.584 504.814 288.657 502.177 288.657V354.509C503.441 354.436 504.724 354.4 506.025 354.4C507.362 354.4 508.663 354.364 509.927 354.292V288.44ZM517.136 354.292C526.855 354.292 535.563 354.545 543.26 355.051L545.211 340.525C545.355 339.803 545.681 339.224 546.187 338.791C546.729 338.321 547.379 338.086 548.138 338.086C548.933 338.086 549.583 338.393 550.089 339.008C550.631 339.622 550.902 340.236 550.902 340.85V341.284L548.571 358.465C548.463 359.188 548.138 359.766 547.596 360.2C547.054 360.669 546.421 360.904 545.699 360.904H545.59C535.871 360.254 526.35 359.929 517.027 359.929C507.705 359.929 498.69 360.254 489.982 360.904H489.711C488.88 360.832 488.193 360.543 487.651 360.037C487.109 359.531 486.838 358.899 486.838 358.14C486.838 357.345 487.091 356.695 487.597 356.189C488.103 355.647 488.826 355.34 489.765 355.267C490.741 355.159 491.807 355.087 492.963 355.051C494.155 354.978 495.33 354.906 496.486 354.834V288.765C495.33 288.693 494.173 288.657 493.017 288.657H489.603C488.844 288.584 488.193 288.295 487.651 287.789C487.109 287.247 486.838 286.579 486.838 285.784C486.838 284.989 487.127 284.321 487.706 283.779C488.284 283.201 489.097 282.93 490.145 282.966C491.229 283.002 492.403 283.02 493.667 283.02H497.516C512.8 283.02 527.958 282.008 542.989 279.985H543.477C544.199 279.985 544.813 280.238 545.319 280.744C545.825 281.213 546.132 281.773 546.241 282.424L548.571 300.743V301.122C548.571 301.953 548.264 302.622 547.65 303.128C547.072 303.634 546.421 303.887 545.699 303.887C545.012 303.887 544.398 303.67 543.856 303.236C543.35 302.766 543.025 302.17 542.88 301.448L540.929 286.001C533.775 286.976 525.338 287.717 515.618 288.223V323.94C523.387 323.615 529.457 323.037 533.829 322.206H534.371C535.13 322.206 535.798 322.495 536.376 323.073C536.955 323.615 537.244 324.247 537.244 324.97C537.244 326.488 536.467 327.445 534.913 327.843C530.649 328.674 524.218 329.27 515.618 329.631V354.292H517.136Z" fill="black"/>
<path d="M347.8 427.074C347.8 427.074 345.982 427.074 342.346 427.074C340.603 427.074 338.785 427.024 336.893 426.925L335.249 520.308H345.185L347.8 427.074ZM393.072 417.885C395.513 418.234 398.376 418.408 401.664 418.408C408.138 418.408 414.613 417.536 421.087 415.793C421.287 415.694 421.785 415.644 422.582 415.644C423.378 415.644 424.125 416.042 424.823 416.839C425.57 417.586 425.943 418.408 425.943 419.305C425.943 421.396 425.072 422.691 423.329 423.189C419.543 424.235 416.082 424.982 412.944 425.431C415.285 439.675 416.456 453.197 416.456 465.996C416.456 484.723 415.136 504.695 412.496 525.911C411.898 528.153 410.653 529.273 408.761 529.273C406.918 529.273 405.673 528.476 405.025 526.883C401.091 517.37 395.363 505.766 387.843 492.069C380.322 478.323 374.968 468.586 371.781 462.859C366.252 453.097 360.799 443.485 355.42 434.022L353.179 520.607C356.018 520.807 359.927 521.105 364.908 521.504C365.904 521.653 366.726 522.101 367.373 522.849C368.07 523.596 368.419 524.517 368.419 525.613C368.419 526.659 367.996 527.53 367.149 528.227C366.302 528.925 365.406 529.273 364.459 529.273H364.161C348.273 527.68 332.56 527.68 317.021 529.273H316.722C315.626 529.273 314.68 528.875 313.883 528.078C313.136 527.331 312.762 526.459 312.762 525.463C312.762 524.467 313.086 523.596 313.733 522.849C314.431 522.101 315.477 521.653 316.871 521.504C318.315 521.354 319.959 521.205 321.802 521.056C323.694 520.906 325.562 520.757 327.405 520.607L329.123 426.327C324.84 426.028 320.507 425.58 316.124 424.982C315.128 424.833 314.306 424.385 313.659 423.638C313.061 422.841 312.762 421.894 312.762 420.799C312.762 419.703 313.21 418.831 314.107 418.184C315.003 417.487 315.875 417.138 316.722 417.138H317.17C328.227 418.582 338.536 419.305 348.099 419.305H353.627C355.071 419.305 356.042 419.703 356.541 420.5C357.039 421.247 357.835 422.567 358.931 424.459C360.027 426.352 361.446 428.817 363.189 431.855C364.933 434.893 366.925 438.405 369.166 442.389C371.457 446.373 373.873 450.632 376.413 455.164C379.002 459.696 381.642 464.403 384.332 469.284C387.021 474.164 389.661 479.02 392.25 483.851C398.476 495.406 403.183 504.446 406.37 510.97C407.914 495.431 408.686 481.909 408.686 470.404C408.686 455.413 407.516 440.621 405.175 426.028C404.527 426.128 403.905 426.178 403.307 426.178H401.365C394.591 426.178 390.781 425.704 389.935 424.758C389.088 423.762 388.665 422.741 388.665 421.695C388.665 420.649 389.063 419.753 389.86 419.006C390.707 418.259 391.628 417.885 392.624 417.885H393.072ZM471.291 429.39C467.804 429.589 464.243 429.689 460.607 429.689V520.458C462.351 520.358 464.119 520.308 465.912 520.308C467.754 520.308 469.547 520.259 471.291 520.159V429.39ZM481.227 520.159C494.624 520.159 506.627 520.508 517.235 521.205L519.925 501.183C520.124 500.187 520.572 499.391 521.27 498.793C522.017 498.145 522.913 497.822 523.959 497.822C525.055 497.822 525.951 498.245 526.648 499.092C527.396 499.938 527.769 500.785 527.769 501.632V502.229L524.557 525.911C524.407 526.908 523.959 527.704 523.212 528.302C522.465 528.95 521.593 529.273 520.597 529.273H520.448C507.05 528.377 493.927 527.929 481.077 527.929C468.228 527.929 455.801 528.377 443.798 529.273H443.425C442.279 529.174 441.333 528.775 440.586 528.078C439.839 527.381 439.465 526.509 439.465 525.463C439.465 524.368 439.814 523.471 440.511 522.774C441.208 522.027 442.205 521.603 443.5 521.504C444.844 521.354 446.313 521.255 447.907 521.205C449.551 521.105 451.169 521.006 452.763 520.906V429.838C451.169 429.739 449.576 429.689 447.982 429.689H443.275C442.229 429.589 441.333 429.191 440.586 428.494C439.839 427.746 439.465 426.825 439.465 425.729C439.465 424.634 439.864 423.712 440.661 422.965C441.458 422.168 442.578 421.795 444.022 421.845C445.517 421.894 447.135 421.919 448.878 421.919H454.183C475.25 421.919 496.143 420.525 516.862 417.736H517.534C518.53 417.736 519.377 418.084 520.074 418.782C520.771 419.429 521.195 420.201 521.344 421.098L524.557 446.349V446.871C524.557 448.017 524.133 448.938 523.287 449.636C522.49 450.333 521.593 450.682 520.597 450.682C519.651 450.682 518.804 450.383 518.057 449.785C517.36 449.138 516.912 448.316 516.712 447.32L514.023 426.028C504.162 427.373 492.532 428.394 479.135 429.091V478.323C489.843 477.875 498.21 477.078 504.236 475.932H504.983C506.029 475.932 506.951 476.331 507.748 477.128C508.544 477.875 508.943 478.746 508.943 479.743C508.943 481.834 507.872 483.154 505.73 483.702C499.854 484.848 490.988 485.669 479.135 486.167V520.159H481.227ZM561.761 520.01C564.251 519.761 567.513 519.636 571.547 519.636L574.162 426.476C569.979 426.676 566.343 426.925 563.255 427.224L561.761 520.01ZM617.94 521.354C613.408 515.079 611.142 504.371 611.142 489.23V486.541C611.142 485.644 611.192 484.848 611.292 484.15C606.261 485.047 602.85 485.57 601.057 485.719C600.857 487.114 600.758 489.156 600.758 491.845C600.758 494.485 600.982 497.473 601.43 500.81C601.928 504.147 602.825 507.26 604.12 510.148C606.958 516.723 611.565 520.458 617.94 521.354ZM580.587 476.978C583.924 477.676 587.684 478.024 591.868 478.024C596.051 478.024 599.712 477.85 602.85 477.501C605.987 477.153 609.05 476.58 612.039 475.783C615.077 474.986 617.94 473.94 620.63 472.645C623.319 471.301 625.685 469.657 627.727 467.715C632.11 463.382 634.301 457.953 634.301 451.429C634.301 441.617 629.645 434.744 620.331 430.809C614.703 428.469 608.901 427.099 602.924 426.701C596.948 426.252 592.64 426.028 590 426.028H584.621C583.675 426.028 582.778 426.078 581.932 426.178L580.587 476.978ZM639.008 501.333L638.858 499.017C638.858 497.871 639.257 496.95 640.054 496.253C640.9 495.556 641.822 495.207 642.818 495.207C643.814 495.207 644.686 495.556 645.433 496.253C646.18 496.9 646.603 497.722 646.703 498.718L646.852 501.333C646.852 509.551 644.511 516.224 639.83 521.354C635.048 526.634 628.773 529.273 621.003 529.273H620.779C607.83 528.925 599.363 522.101 595.379 508.804C593.785 503.524 592.988 497.598 592.988 491.023L593.138 486.018C589.303 486.018 585.069 485.669 580.438 484.972L579.317 523.67C579.317 524.866 578.918 525.812 578.122 526.509C577.375 527.157 576.453 527.48 575.357 527.48C563.703 527.48 553.095 528.078 543.532 529.273H543.084C541.938 529.273 540.992 528.875 540.245 528.078C539.498 527.331 539.125 526.459 539.125 525.463C539.125 524.467 539.423 523.596 540.021 522.849C540.668 522.101 541.689 521.628 543.084 521.429C544.528 521.23 546.197 521.056 548.089 520.906C550.032 520.757 551.924 520.607 553.767 520.458L555.485 428.344L544.13 430.585C543.781 430.834 543.233 430.959 542.486 430.959C541.739 430.959 540.992 430.56 540.245 429.764C539.498 428.967 539.125 428.07 539.125 427.074C539.125 425.082 540.046 423.812 541.889 423.264C551.899 419.927 567.189 418.259 587.759 418.259C599.313 418.856 607.706 419.753 612.935 420.948C618.214 422.143 622.522 423.513 625.859 425.057C629.196 426.551 632.06 428.494 634.451 430.884C639.531 435.865 642.071 442.713 642.071 451.429C642.071 458.551 639.954 464.876 635.721 470.404C631.687 475.683 626.208 479.469 619.285 481.76C619.086 484.051 618.986 486.093 618.986 487.886C618.986 489.629 619.011 491.447 619.061 493.339C619.111 495.232 619.235 497.299 619.435 499.54C619.634 501.781 619.933 504.072 620.331 506.413C620.779 508.754 621.352 510.895 622.049 512.838C623.693 517.171 625.934 519.337 628.773 519.337C632.259 519.337 634.949 517.021 636.841 512.39C638.286 508.953 639.008 505.267 639.008 501.333ZM682.188 522.4C686.521 522.799 690.033 523.073 692.722 523.222V427.074C689.485 427.323 685.974 427.746 682.188 428.344V522.4ZM751.442 488.409C752.687 484.125 753.31 478.821 753.31 472.496C753.31 466.121 751.965 459.87 749.275 453.745C746.586 447.569 742.875 442.414 738.144 438.28C728.432 429.813 715.906 426.028 700.566 426.925V523.222C715.109 523.67 727.486 519.287 737.696 510.074C744.32 504.147 748.902 496.925 751.442 488.409ZM674.419 429.689L662.765 432.602C661.619 432.602 660.698 432.204 660 431.407C659.303 430.56 658.955 429.664 658.955 428.718C658.955 426.725 659.826 425.48 661.569 424.982C661.769 424.932 662.864 424.609 664.856 424.011C666.898 423.364 669.613 422.691 673 421.994C681.865 420.101 690.73 419.155 699.595 419.155C708.51 419.155 716.703 420.326 724.174 422.666C731.645 424.957 738.119 428.419 743.598 433.051C755.302 442.962 761.154 456.882 761.154 474.812C761.154 486.665 758.091 497.025 751.965 505.89C746.337 514.008 738.443 520.308 728.283 524.791C718.471 529.024 707.639 531.141 695.785 531.141C683.732 531.141 672.775 529.497 662.914 526.21C661.171 525.513 660.299 524.442 660.299 522.998C660.299 521.554 660.723 520.458 661.569 519.711C662.416 518.964 663.337 518.59 664.333 518.59L674.419 521.205V429.689ZM786.203 523.78C787.14 523.78 787.937 523.429 788.593 522.725C789.296 522.022 789.648 521.225 789.648 520.335C789.648 519.444 789.296 518.671 788.593 518.015C787.937 517.311 787.14 516.96 786.203 516.96C785.265 516.96 784.468 517.311 783.812 518.015C783.203 518.671 782.898 519.444 782.898 520.335C782.898 521.225 783.203 522.022 783.812 522.725C784.468 523.429 785.265 523.78 786.203 523.78ZM796.96 520.335C796.96 521.788 796.679 523.171 796.117 524.483C795.554 525.796 794.781 526.944 793.796 527.929C791.781 530.038 789.25 531.093 786.203 531.093C783.203 531.093 780.648 530.038 778.539 527.929C776.429 525.819 775.375 523.265 775.375 520.265C775.375 515.624 777.578 512.366 781.984 510.491C783.296 509.929 784.703 509.647 786.203 509.647C789.156 509.647 791.687 510.679 793.796 512.741C795.906 514.757 796.96 517.288 796.96 520.335Z" fill="black"/>
<g clip-path="url(#clip0)">
<path d="M667.213 289.384C664.987 290.075 602.383 321.026 601.715 321.753C601.01 322.516 600.973 323.133 600.862 331.525C600.788 339.88 600.825 340.534 601.493 341.624C602.346 342.932 604.016 343.55 606.836 343.55H608.581V345.257C608.581 349.689 609.991 351.179 614.258 351.179H616.745V353.54C616.745 357.681 617.932 358.807 622.125 358.807H624.538V361.241C624.538 364.366 625.354 365.855 627.395 366.4C629.325 366.945 667.25 366.945 669.18 366.4C671.221 365.855 672.038 364.366 672.038 361.241V358.807H674.45C678.643 358.807 679.831 357.681 679.831 353.54V351.179H682.354C685.508 351.179 687.03 350.379 687.586 348.381C687.809 347.582 687.995 343.041 687.995 337.447V327.929H695.788H703.58V337.447C703.58 343.041 703.766 347.582 703.989 348.381C704.545 350.379 706.067 351.179 709.258 351.179H711.745V353.54C711.745 357.681 712.932 358.807 717.125 358.807H719.538V361.241C719.538 364.366 720.354 365.855 722.395 366.4C724.325 366.945 762.25 366.945 764.18 366.4C766.221 365.855 767.038 364.366 767.038 361.241V358.807H769.45C773.643 358.807 774.83 357.681 774.83 353.54V351.179H777.354C781.584 351.179 782.995 349.689 782.995 345.257V343.55H784.776C787.559 343.55 789.229 342.932 790.082 341.624C790.75 340.534 790.788 339.88 790.713 331.525C790.602 323.133 790.565 322.516 789.86 321.753C789.452 321.317 774.608 313.797 756.832 305.078L724.547 289.239H715.381H706.178L704.991 290.438L703.766 291.6L703.655 295.887C703.469 301.155 703.914 302.971 705.547 303.952C707.032 304.86 708.256 304.86 709.778 303.952C711.114 303.153 711.745 301.518 711.745 298.757V297.05H717.311H722.877L746.368 308.566L769.821 320.118L732.786 320.227C712.45 320.263 679.125 320.263 658.752 320.227L621.754 320.118L645.207 308.566L668.698 297.05H674.264H679.831V298.757C679.831 301.518 680.461 303.153 681.797 303.952C683.319 304.86 684.543 304.86 686.028 303.952C687.661 302.971 688.106 301.155 687.92 295.887C687.809 291.6 687.809 291.6 686.584 290.438L685.397 289.239L676.75 289.166C672.038 289.13 667.733 289.239 667.213 289.384ZM632.331 335.739V339.554H636.413H640.495V343.368V347.182H644.391H648.288V351.179V355.175H644.391H640.532L640.42 351.251L640.309 347.364L636.338 347.255L632.331 347.146V343.368V339.554H628.434H624.538V335.739V331.925H628.434H632.331V335.739ZM727.33 335.739V339.554H731.413H735.495V343.368V347.182H739.391H743.288V351.179V355.175H739.391H735.532L735.42 351.251L735.309 347.364L731.338 347.255L727.33 347.146V343.368V339.554H723.434H719.538V335.739V331.925H723.434H727.33V335.739Z" fill="black"/>
</g>
<path d="M40.313 97.6659C42.4601 97.5396 44.5915 97.4764 46.707 97.4764V72.8475C38.7184 65.522 30.7614 54.4864 22.8359 39.7406C22.2676 39.8038 21.6834 39.8353 21.0835 39.8353C19.7573 39.8353 18.589 39.8353 17.5786 39.8353C16.5998 39.8353 15.7788 39.8038 15.1157 39.7406C21.1782 51.5498 27.5249 61.354 34.1558 69.1532C35.8924 71.174 37.6922 73.0212 39.5552 74.6947C40.0604 75.1999 40.313 75.7998 40.313 76.4945V97.6659ZM64.8472 34.5306C68.3205 34.5306 71.9517 34.2307 75.7407 33.6307H76.1196C76.7827 33.6307 77.3669 33.8991 77.8721 34.4359C78.3773 34.9411 78.6299 35.5095 78.6299 36.141C78.6299 36.7409 78.4246 37.2777 78.0142 37.7513C77.6037 38.225 77.0985 38.5092 76.4985 38.6039C73.3726 39.0775 70.2624 39.3617 67.168 39.4564C64.7682 48.045 61.7528 55.7652 58.1216 62.6171C56.006 66.6272 53.8589 69.9742 51.6802 72.6581V97.5712C54.3957 97.6659 57.1427 97.8553 59.9214 98.1395C60.5529 98.2343 61.0739 98.5184 61.4844 98.9921C61.9264 99.4657 62.1475 100.066 62.1475 100.792C62.1475 101.487 61.8633 102.039 61.2949 102.45C60.7266 102.892 60.174 103.113 59.6372 103.113H59.3057C55.7061 102.639 51.2539 102.402 45.9492 102.402C40.6445 102.402 34.7557 103.05 28.2827 104.344H27.8091C27.1144 104.344 26.5145 104.092 26.0093 103.586C25.5356 103.113 25.2988 102.56 25.2988 101.929C25.2988 100.602 25.9777 99.7657 27.3354 99.4183C30.493 98.8184 33.1769 98.3921 35.3872 98.1395V77.5839C26.5776 69.2795 17.8786 56.5388 9.29004 39.3617C6.16406 39.1091 4.06429 38.9038 2.99072 38.746C1.09619 38.4302 0.148926 37.5619 0.148926 36.141C0.148926 35.32 0.433105 34.7043 1.00146 34.2938C1.56982 33.8518 2.1224 33.6307 2.65918 33.6307H2.99072C8.35856 34.4833 13.7896 34.9095 19.2837 34.9095C24.7778 34.9095 30.0825 34.4833 35.1978 33.6307H35.4819C36.2082 33.6307 36.8081 33.8833 37.2817 34.3885C37.7554 34.8938 37.9922 35.4621 37.9922 36.0936C37.9922 36.7251 37.7869 37.2777 37.3765 37.7513C36.9976 38.225 36.3503 38.5249 35.4346 38.6512C33.3506 38.9986 30.9982 39.267 28.3774 39.4564C32.4823 47.0661 37.1081 54.1233 42.2549 60.6278C44.3704 63.3117 46.5965 65.7904 48.9331 68.0638C52.0591 63.9274 55.2166 57.9123 58.4058 50.0184C59.6688 46.8609 60.8844 43.3086 62.0527 39.3617C58.0742 39.2038 55.4377 39.0144 54.1431 38.7933C52.0275 38.446 50.9697 37.5619 50.9697 36.141C50.9697 35.3832 51.2381 34.7832 51.7749 34.3412C52.3433 33.8676 52.8958 33.6307 53.4326 33.6307H53.8115C57.7585 34.2307 61.437 34.5306 64.8472 34.5306ZM95.4438 59.2543C89.7918 61.433 86.0659 65.522 84.2661 71.5214C83.6346 73.6053 83.3188 75.9577 83.3188 78.5785C83.3188 81.1993 83.6188 83.5516 84.2188 85.6356C84.8187 87.7196 85.6239 89.551 86.6343 91.1298C88.592 94.0663 91.3075 96.245 94.7808 97.6659C91.6232 93.2769 90.0444 86.8355 90.0444 78.3417C90.0444 69.8479 91.8442 63.4854 95.4438 59.2543ZM119.552 92.5033C121.036 90.6088 122.157 88.4458 122.915 86.0145C123.704 83.5832 124.099 81.3413 124.099 79.2889C124.099 77.2365 123.925 75.4209 123.578 73.8422C123.23 72.2634 122.725 70.732 122.062 69.2479C121.399 67.7639 120.594 66.3746 119.646 65.08C118.699 63.7854 117.641 62.6486 116.473 61.6698C113.916 59.6174 111.121 58.5912 108.09 58.5912C101.964 58.5912 97.9699 62.1908 96.1069 69.39C95.4123 72.0424 95.0649 74.5052 95.0649 76.7787C95.0649 79.0205 95.1281 80.9309 95.2544 82.5096C95.3807 84.0568 95.6017 85.604 95.9175 87.1512C96.2332 88.6669 96.6595 90.1351 97.1963 91.556C97.7331 92.9769 98.4277 94.2242 99.2803 95.2977C101.143 97.6343 103.527 98.8026 106.432 98.8026C109.369 98.8026 111.91 98.2343 114.058 97.0975C116.236 95.9292 118.068 94.3978 119.552 92.5033ZM129.024 78.7679C129.024 82.3991 128.346 85.7935 126.988 88.951C125.63 92.1086 123.799 94.8241 121.494 97.0975C116.599 101.865 110.663 104.249 103.685 104.249C96.0122 104.249 89.8708 101.913 85.2607 97.2396C80.6823 92.598 78.3931 86.3619 78.3931 78.5311C78.3931 71.1109 80.8244 64.9537 85.687 60.0594C90.4865 55.1968 96.4858 52.7655 103.685 52.7655C111.011 52.7655 117.105 55.3231 121.967 60.4384C126.672 65.3641 129.024 71.474 129.024 78.7679ZM183.35 58.8754H181.456C180.508 58.8754 179.308 58.8122 177.856 58.6859L176.625 98.5184C178.961 98.1395 181.282 97.8869 183.587 97.7606L184.345 58.7806C183.997 58.8438 183.666 58.8754 183.35 58.8754ZM175.725 53.4286C177.43 53.6812 180.256 53.8075 184.203 53.8075C188.15 53.8075 191.891 53.3654 195.428 52.4813C196.154 52.4813 196.754 52.7497 197.228 53.2865C197.701 53.7917 197.938 54.3443 197.938 54.9442C197.938 55.5441 197.749 56.0809 197.37 56.5546C197.022 57.0282 196.407 57.3597 195.522 57.5492C194.67 57.7071 193.691 57.8649 192.586 58.0228C191.481 58.1491 190.391 58.2912 189.318 58.4491L188.56 97.6659C191.307 97.6659 193.296 97.7448 194.528 97.9027C196.549 98.1553 197.559 99.0079 197.559 100.46C197.559 101.25 197.291 101.865 196.754 102.307C196.249 102.781 195.712 103.018 195.144 103.018H194.859C187.881 102.165 181.124 102.481 174.588 103.965H174.067C173.404 103.965 172.82 103.713 172.314 103.207C171.809 102.734 171.557 102.181 171.557 101.55V101.455L171.841 92.7875C167.768 100.239 162.494 103.965 156.021 103.965C150.433 103.965 146.249 101.455 143.47 96.4344C141.26 92.3612 140.155 87.5617 140.155 82.036C140.155 73.479 141.765 65.6641 144.986 58.5912L136.46 58.3544C135.766 58.2912 135.182 58.0386 134.708 57.5966C134.266 57.1229 134.045 56.5546 134.045 55.8915C134.045 55.2284 134.282 54.66 134.755 54.1864C135.229 53.6812 135.829 53.4286 136.555 53.4286L149.059 53.7128C149.754 53.8075 150.322 54.0917 150.764 54.5653C151.238 55.0074 151.475 55.4494 151.475 55.8915C151.475 56.4598 151.348 56.9966 151.096 57.5018C148.98 59.6174 147.228 65.1747 145.838 74.1737C145.333 77.4576 145.081 80.0941 145.081 82.0834C145.081 84.0726 145.238 86.0777 145.554 88.0985C145.902 90.0878 146.486 91.8876 147.307 93.4979C149.17 97.1923 152.043 99.0394 155.927 99.0394C159.811 99.0394 163.205 96.8765 166.11 92.5507C169.015 88.288 171.099 82.3676 172.362 74.7894L172.93 55.7494C172.93 55.0547 173.199 54.5022 173.735 54.0917C174.272 53.6496 174.84 53.4286 175.44 53.4286H175.725ZM264.815 85.3514C264.689 84.2779 264.625 83.1412 264.625 81.9413H262.873C257.695 81.9413 252.611 82.8885 247.622 84.7831C241.244 87.1828 238.055 90.6088 238.055 95.0609C238.055 96.7028 238.797 97.9816 240.281 98.8973C241.512 99.6236 243.123 99.9867 245.112 99.9867C247.101 99.9867 249.09 99.5604 251.08 98.7079C253.1 97.8238 254.963 96.6871 256.668 95.2977C259.7 92.7717 262.415 89.4563 264.815 85.3514ZM276.229 97.0975C276.324 96.1503 276.372 94.2557 276.372 91.4139C276.372 88.5721 276.308 85.8724 276.182 83.3148C276.087 80.7256 275.851 78.2312 275.472 75.8314C275.093 73.4317 274.524 71.174 273.767 69.0585C273.009 66.9429 271.983 65.1115 270.688 63.5643C267.815 60.1542 263.82 58.4491 258.705 58.4491C258.61 58.4491 258.531 58.4807 258.468 58.5438C258.405 58.5754 258.326 58.5912 258.231 58.5912H258.421C263.505 61.3383 266.804 65.9009 268.32 72.2792C269.172 75.7841 269.63 79.1153 269.693 82.2728C269.788 85.3988 269.835 87.8617 269.835 89.6615C269.835 92.5033 269.709 95.3609 269.457 98.2343C271.73 97.7606 273.988 97.3817 276.229 97.0975ZM284.187 96.5765L287.597 96.6713C288.291 96.7344 288.844 97.0028 289.254 97.4764C289.696 97.9501 289.917 98.5342 289.917 99.2289C289.917 99.892 289.681 100.476 289.207 100.981C288.765 101.487 288.197 101.739 287.502 101.739H287.312C286.776 101.676 286.223 101.644 285.655 101.644H283.997C278.219 101.644 272.63 102.418 267.23 103.965L266.567 104.06C265.841 104.06 265.241 103.776 264.768 103.207C264.326 102.671 264.104 102.118 264.104 101.55V101.171C264.104 101.108 264.183 100.476 264.341 99.2762C264.499 98.0448 264.657 96.3397 264.815 94.161C258.405 101.329 251.743 104.912 244.828 104.912C241.639 104.912 238.923 104.028 236.681 102.26C234.281 100.397 233.082 98.1395 233.082 95.4872C233.082 92.8348 233.587 90.6088 234.597 88.809C235.639 87.0092 236.997 85.4462 238.67 84.12C240.344 82.7622 242.238 81.6413 244.354 80.7572C246.501 79.8415 248.68 79.0995 250.89 78.5311C254.995 77.5207 258.989 77.0155 262.873 77.0155H264.01C264.01 73.0054 262.731 69.5005 260.173 66.5009C257.458 63.3433 254.158 61.7645 250.274 61.7645C247.369 61.7645 244.654 63.2486 242.128 66.2167C239.665 69.09 238.434 72.1055 238.434 75.2631C238.434 75.8946 238.165 76.4314 237.628 76.8734C237.123 77.2839 236.539 77.4891 235.876 77.4891C235.213 77.4891 234.629 77.2365 234.124 76.7313C233.618 76.1945 233.366 75.3894 233.366 74.3158C233.366 73.2422 233.634 71.8845 234.171 70.2426C234.708 68.5691 235.481 66.9429 236.492 65.3641C237.534 63.7538 238.781 62.2382 240.233 60.8173C241.717 59.3964 243.407 58.1333 245.301 57.0282C249.343 54.6916 253.448 53.5233 257.616 53.5233C261.815 53.5233 265.162 54.0759 267.657 55.181C270.183 56.2862 272.283 57.786 273.956 59.6805C275.661 61.5751 277.003 63.7696 277.982 66.264C278.961 68.7585 279.703 71.3951 280.208 74.1737C280.997 78.5311 281.392 84.1042 281.392 90.8929L281.297 96.6713L284.187 96.5765ZM311.799 60.8173C310.599 61.0067 308.421 61.1014 305.263 61.1014H304.884V95.9135C305.484 95.8503 306.068 95.8187 306.637 95.8187C306.637 95.8187 308.358 95.8187 311.799 95.8187V60.8173ZM338.275 71.3319C338.465 70.9214 338.56 70.3531 338.56 69.6268C338.56 68.9006 338.212 68.2059 337.518 67.5428C336.854 66.8482 336.034 66.5009 335.055 66.5009C334.076 66.5009 333.239 66.8482 332.544 67.5428C331.881 68.2059 331.55 68.9006 331.55 69.6268C331.55 70.3531 331.645 70.9214 331.834 71.3319C332.023 71.7424 332.276 72.1213 332.592 72.4686C333.255 73.1633 334.076 73.5106 335.055 73.5106C336.539 73.5106 337.612 72.7844 338.275 71.3319ZM316.82 61.2909C319.977 56.9019 324.145 54.7074 329.324 54.7074C333.618 54.8337 337.091 56.1441 339.744 58.6385C342.459 61.133 343.817 64.4011 343.817 68.4427C343.817 71.1267 343.028 73.4475 341.449 75.4052C339.807 77.426 337.675 78.4364 335.055 78.4364C332.718 78.4364 330.729 77.6154 329.087 75.9735C327.445 74.3316 326.624 72.3423 326.624 70.0057C326.624 67.7007 327.445 65.7115 329.087 64.038C330.729 62.3329 332.718 61.4803 335.055 61.4803C335.213 61.4803 335.355 61.4961 335.481 61.5277C335.639 61.5593 335.797 61.5751 335.955 61.5751C334.281 60.2805 332.308 59.6332 330.034 59.6332C327.761 59.6332 325.961 60.0121 324.635 60.7699C323.309 61.4961 322.172 62.4276 321.225 63.5643C320.309 64.6695 319.567 65.8851 318.999 67.2113C318.43 68.5059 317.988 69.7216 317.672 70.8583C317.104 72.7844 316.82 74.2526 316.82 75.2631L316.725 96.2924C317.83 96.3871 318.935 96.5292 320.041 96.7186C321.177 96.9081 322.188 97.0975 323.072 97.287C324.714 97.6027 325.535 98.4395 325.535 99.7972C325.535 100.492 325.266 101.076 324.729 101.55C324.193 101.992 323.624 102.213 323.024 102.213H322.551C317.278 101.234 312.557 100.745 308.389 100.745C304.284 100.745 299.595 101.234 294.322 102.213H293.849C293.122 102.213 292.538 101.976 292.096 101.502C291.654 100.997 291.433 100.445 291.433 99.8446C291.433 98.4869 292.08 97.6343 293.375 97.287C294.48 97.0975 295.585 96.9081 296.69 96.7186C297.796 96.5292 298.885 96.3871 299.958 96.2924V61.0067C295.791 60.8173 293.359 60.5804 292.665 60.2963C292.033 60.2331 291.512 59.9805 291.102 59.5385C290.723 59.0648 290.533 58.4807 290.533 57.786C290.533 57.0598 290.802 56.4756 291.338 56.0336C291.907 55.5915 292.475 55.3705 293.043 55.3705H293.375C293.596 55.5915 295.27 55.781 298.396 55.9388C301.553 56.0651 303.874 56.1283 305.358 56.1283C308.863 56.1283 311.168 56.002 312.273 55.7494C313.378 55.4968 314.167 55.3705 314.641 55.3705C315.146 55.3705 315.636 55.6389 316.109 56.1757C316.583 56.6809 316.82 57.2492 316.82 57.8807V61.2909ZM366.978 59.5385C358.673 62.5381 354.521 68.8374 354.521 78.4364C354.521 84.4673 356.605 89.5194 360.773 93.5927C362.068 94.8557 363.552 95.9135 365.225 96.766C362.51 92.7243 361.152 87.1986 361.152 80.1888C361.152 75.2315 361.515 71.5372 362.241 69.1058C363.378 65.2536 364.957 62.0645 366.978 59.5385ZM366.172 78.1522C369.709 79.2574 373.766 79.8099 378.345 79.8099C382.923 79.8099 387.375 78.8469 391.701 76.9208V76.1156C391.701 68.4743 389.254 63.2012 384.36 60.2963C382.655 59.2858 380.602 58.607 378.203 58.2596C370.498 59.1438 366.488 65.7746 366.172 78.1522ZM396.627 76.0209L396.532 78.7679C396.216 81.3887 392.049 83.2517 384.028 84.3568C381.471 84.7041 378.755 84.8778 375.882 84.8778C373.04 84.8778 369.835 84.3884 366.267 83.4095C366.962 90.5772 369.361 95.424 373.466 97.9501C374.982 98.8658 376.466 99.3236 377.918 99.3236C379.403 99.3236 380.65 99.2289 381.66 99.0394C382.671 98.8184 383.665 98.5184 384.644 98.1395C386.854 97.2238 388.402 96.1187 389.286 94.8241C389.822 94.1926 390.438 93.8768 391.133 93.8768C391.859 93.8768 392.475 94.1452 392.98 94.682C393.485 95.1872 393.738 95.7714 393.738 96.4344C393.738 97.066 393.533 97.5712 393.122 97.9501C391.764 100.066 389.238 101.739 385.544 102.971C378.692 105.212 372.109 105.023 365.793 102.402C359.163 99.6867 354.458 95.1083 351.679 88.6669C350.29 85.5093 349.595 82.0202 349.595 78.1996C349.595 74.3474 350.195 70.8583 351.395 67.7323C352.595 64.5747 354.3 61.9224 356.51 59.7753C361.026 55.3547 367.262 53.1444 375.219 53.1444C389.491 53.7443 396.627 61.3698 396.627 76.0209ZM451.663 61.1014C450.053 61.354 447.89 61.4803 445.174 61.4803H444.795V97.0975C446.374 97.0975 447.732 97.0975 448.869 97.0975C450.037 97.0975 450.968 97.1291 451.663 97.1923V61.1014ZM445.269 56.4125C448.679 56.4125 451.647 56.1599 454.173 55.6547C454.9 55.6547 455.5 55.9231 455.973 56.4598C456.478 56.965 456.731 57.5334 456.731 58.1649V63.0433C460.425 57.6123 465.493 54.8969 471.935 54.8969C478.408 54.8969 482.623 58.8754 484.581 66.8324C485.275 69.5479 485.623 72.1844 485.623 74.7421C485.623 77.2997 485.544 79.5258 485.386 81.4203C485.228 83.2832 485.023 85.1462 484.77 87.0092C484.328 90.7035 483.775 93.8926 483.112 96.5765C484.312 96.6397 485.544 96.7028 486.807 96.766C488.101 96.8291 489.254 96.9081 490.264 97.0028C492.096 97.2238 493.011 98.1553 493.011 99.7972C492.948 100.429 492.664 100.966 492.159 101.408C491.653 101.818 491.085 102.023 490.454 102.023H490.264C487.233 101.708 483.917 101.55 480.318 101.55C476.75 101.55 473.403 101.897 470.277 102.592C469.614 102.592 469.03 102.339 468.524 101.834C468.019 101.297 467.767 100.729 467.767 100.129C467.767 99.5288 467.956 98.9921 468.335 98.5184C468.745 98.0448 469.424 97.729 470.372 97.5712C471.792 97.287 474.319 96.987 477.95 96.6713C478.992 93.0717 479.702 89.1563 480.081 84.9252C480.46 80.6625 480.649 77.7575 480.649 76.2103C480.649 65.2852 477.744 59.8226 471.935 59.8226C467.767 59.8226 464.151 61.733 461.088 65.5536C458.183 69.1216 456.731 72.8475 456.731 76.7313V76.826L456.636 97.6659C457.205 97.729 457.757 97.7922 458.294 97.8553C458.831 97.8869 459.383 97.9501 459.952 98.0448C460.552 98.108 461.057 98.3763 461.467 98.85C461.909 99.292 462.13 99.8446 462.13 100.508C462.13 101.171 461.862 101.755 461.325 102.26C460.82 102.765 460.378 103.018 459.999 103.018C459.62 103.018 459.399 102.971 459.336 102.876C453.652 102.307 449.737 102.023 447.59 102.023C443.39 102.023 440.075 102.244 437.644 102.686C435.212 103.16 433.76 103.397 433.286 103.397C432.844 103.397 432.402 103.128 431.96 102.592C431.518 102.055 431.297 101.487 431.297 100.887C431.297 100.287 431.471 99.7499 431.818 99.2762C432.165 98.8026 432.781 98.4869 433.665 98.329C435.433 97.9816 437.486 97.6975 439.822 97.4764V61.2909C435.591 61.1014 433.176 60.8804 432.576 60.6278C431.944 60.5647 431.423 60.2963 431.013 59.8226C430.634 59.349 430.444 58.7649 430.444 58.0702C430.444 57.3755 430.713 56.8072 431.25 56.3651C431.786 55.8915 432.228 55.6547 432.576 55.6547C432.955 55.6547 433.16 55.6705 433.191 55.702C433.255 55.7336 433.633 55.781 434.328 55.8441C435.023 55.9073 435.923 55.9862 437.028 56.0809C439.649 56.302 442.396 56.4125 445.269 56.4125ZM514.23 59.2543C508.578 61.433 504.852 65.522 503.052 71.5214C502.421 73.6053 502.105 75.9577 502.105 78.5785C502.105 81.1993 502.405 83.5516 503.005 85.6356C503.605 87.7196 504.41 89.551 505.42 91.1298C507.378 94.0663 510.094 96.245 513.567 97.6659C510.409 93.2769 508.831 86.8355 508.831 78.3417C508.831 69.8479 510.63 63.4854 514.23 59.2543ZM538.338 92.5033C539.822 90.6088 540.943 88.4458 541.701 86.0145C542.49 83.5832 542.885 81.3413 542.885 79.2889C542.885 77.2365 542.711 75.4209 542.364 73.8422C542.016 72.2634 541.511 70.732 540.848 69.2479C540.185 67.7639 539.38 66.3746 538.433 65.08C537.485 63.7854 536.428 62.6486 535.259 61.6698C532.702 59.6174 529.907 58.5912 526.876 58.5912C520.75 58.5912 516.756 62.1908 514.893 69.39C514.198 72.0424 513.851 74.5052 513.851 76.7787C513.851 79.0205 513.914 80.9309 514.041 82.5096C514.167 84.0568 514.388 85.604 514.704 87.1512C515.019 88.6669 515.446 90.1351 515.982 91.556C516.519 92.9769 517.214 94.2242 518.066 95.2977C519.929 97.6343 522.313 98.8026 525.218 98.8026C528.155 98.8026 530.697 98.2343 532.844 97.0975C535.022 95.9292 536.854 94.3978 538.338 92.5033ZM547.811 78.7679C547.811 82.3991 547.132 85.7935 545.774 88.951C544.416 92.1086 542.585 94.8241 540.28 97.0975C535.386 101.865 529.449 104.249 522.471 104.249C514.798 104.249 508.657 101.913 504.047 97.2396C499.468 92.598 497.179 86.3619 497.179 78.5311C497.179 71.1109 499.611 64.9537 504.473 60.0594C509.273 55.1968 515.272 52.7655 522.471 52.7655C529.797 52.7655 535.891 55.3231 540.753 60.4384C545.458 65.3641 547.811 71.474 547.811 78.7679ZM577.271 97.4764C579.102 94.1926 580.239 92.1244 580.681 91.2719C577.144 85.7461 574.223 79.3205 571.918 71.995C570.403 67.2587 569.345 62.7118 568.745 58.3544C567.829 58.4175 566.898 58.4491 565.951 58.4491H562.446C563.488 66.8798 566.14 75.7998 570.403 85.2094C572.203 89.2194 574.492 93.3085 577.271 97.4764ZM603.368 98.1395C605.199 94.8557 606.32 92.8191 606.73 92.0297C601.773 84.641 597.637 76.9524 594.321 68.9637C593.627 71.9318 592.695 75.0262 591.527 78.2469C593.863 84.12 597.81 90.7509 603.368 98.1395ZM609.762 52.7655C611.53 53.2076 614.04 53.4286 617.292 53.4286C620.576 53.4286 623.955 53.1128 627.428 52.4813C628.091 52.4813 628.675 52.7497 629.181 53.2865C629.686 53.7917 629.938 54.3443 629.938 54.9442C629.938 55.5441 629.733 56.0809 629.323 56.5546C628.533 57.5018 625.66 58.0702 620.703 58.2596C618.303 73.8264 615.287 85.4777 611.656 93.2137C610.267 96.1503 608.278 99.7025 605.688 103.87C605.12 104.66 604.441 105.055 603.652 105.055C602.894 105.055 602.215 104.723 601.615 104.06C596.279 97.3975 592.111 90.9719 589.111 84.7831C585.543 92.6138 582.338 98.7868 579.497 103.302C578.96 104.06 578.249 104.439 577.365 104.439C576.513 104.439 575.834 104.092 575.329 103.397C567.656 92.8191 562.288 81.1993 559.225 68.5375C558.246 64.559 557.631 61.1646 557.378 58.3544C556.652 58.2912 555.941 58.2439 555.247 58.2123C554.583 58.1807 553.92 58.1333 553.257 58.0702C552.594 57.9755 552.042 57.6913 551.6 57.2177C551.189 56.744 550.984 56.1757 550.984 55.5126C550.984 54.8179 551.252 54.2496 551.789 53.8075C552.357 53.3654 552.926 53.1444 553.494 53.1444H553.684C557.631 53.397 561.451 53.5233 565.146 53.5233C568.871 53.5233 573.26 53.2076 578.312 52.576L578.739 52.4813C579.465 52.4813 580.049 52.7497 580.491 53.2865C580.933 53.7917 581.154 54.3601 581.154 54.9916C581.154 55.6231 580.949 56.1757 580.539 56.6493C580.16 57.0913 579.607 57.3755 578.881 57.5018C578.155 57.5966 577.334 57.6913 576.418 57.786C575.502 57.8807 574.587 57.9755 573.671 58.0702C575.565 68.6796 578.739 77.9312 583.191 85.8251C587.738 75.7841 590.359 66.864 591.053 59.0648C591.116 58.3386 591.401 57.786 591.906 57.4071C592.411 57.0282 592.948 56.8387 593.516 56.8387C594.748 56.8387 595.537 57.4229 595.884 58.5912C599.137 68.5691 603.541 77.8996 609.099 86.5829C610.93 81.8781 612.351 76.8418 613.361 71.474C614.403 66.0746 615.208 61.6698 615.777 58.2596C613.63 58.2596 611.877 58.1491 610.52 57.9281C609.162 57.7071 608.278 57.3755 607.867 56.9335C607.457 56.4598 607.251 55.8915 607.251 55.2284C607.251 54.5653 607.504 53.9969 608.009 53.5233C608.546 53.0181 609.13 52.7655 609.762 52.7655ZM694.4 85.3514C694.274 84.2779 694.21 83.1412 694.21 81.9413H692.458C687.28 81.9413 682.196 82.8885 677.207 84.7831C670.829 87.1828 667.64 90.6088 667.64 95.0609C667.64 96.7028 668.382 97.9816 669.866 98.8973C671.097 99.6236 672.708 99.9867 674.697 99.9867C676.686 99.9867 678.675 99.5604 680.665 98.7079C682.685 97.8238 684.548 96.6871 686.253 95.2977C689.285 92.7717 692 89.4563 694.4 85.3514ZM705.814 97.0975C705.909 96.1503 705.957 94.2557 705.957 91.4139C705.957 88.5721 705.893 85.8724 705.767 83.3148C705.672 80.7256 705.436 78.2312 705.057 75.8314C704.678 73.4317 704.109 71.174 703.352 69.0585C702.594 66.9429 701.568 65.1115 700.273 63.5643C697.4 60.1542 693.405 58.4491 688.29 58.4491C688.195 58.4491 688.116 58.4807 688.053 58.5438C687.99 58.5754 687.911 58.5912 687.816 58.5912H688.006C693.09 61.3383 696.389 65.9009 697.905 72.2792C698.757 75.7841 699.215 79.1153 699.278 82.2728C699.373 85.3988 699.42 87.8617 699.42 89.6615C699.42 92.5033 699.294 95.3609 699.042 98.2343C701.315 97.7606 703.573 97.3817 705.814 97.0975ZM713.771 96.5765L717.182 96.6713C717.876 96.7344 718.429 97.0028 718.839 97.4764C719.281 97.9501 719.502 98.5342 719.502 99.2289C719.502 99.892 719.266 100.476 718.792 100.981C718.35 101.487 717.782 101.739 717.087 101.739H716.897C716.361 101.676 715.808 101.644 715.24 101.644H713.582C707.804 101.644 702.215 102.418 696.815 103.965L696.152 104.06C695.426 104.06 694.826 103.776 694.353 103.207C693.91 102.671 693.689 102.118 693.689 101.55V101.171C693.689 101.108 693.768 100.476 693.926 99.2762C694.084 98.0448 694.242 96.3397 694.4 94.161C687.99 101.329 681.328 104.912 674.413 104.912C671.223 104.912 668.508 104.028 666.266 102.26C663.866 100.397 662.667 98.1395 662.667 95.4872C662.667 92.8348 663.172 90.6088 664.182 88.809C665.224 87.0092 666.582 85.4462 668.255 84.12C669.929 82.7622 671.823 81.6413 673.939 80.7572C676.086 79.8415 678.265 79.0995 680.475 78.5311C684.58 77.5207 688.574 77.0155 692.458 77.0155H693.595C693.595 73.0054 692.316 69.5005 689.758 66.5009C687.043 63.3433 683.743 61.7645 679.859 61.7645C676.954 61.7645 674.239 63.2486 671.713 66.2167C669.25 69.09 668.019 72.1055 668.019 75.2631C668.019 75.8946 667.75 76.4314 667.213 76.8734C666.708 77.2839 666.124 77.4891 665.461 77.4891C664.798 77.4891 664.214 77.2365 663.708 76.7313C663.203 76.1945 662.951 75.3894 662.951 74.3158C662.951 73.2422 663.219 71.8845 663.756 70.2426C664.293 68.5691 665.066 66.9429 666.077 65.3641C667.119 63.7538 668.366 62.2382 669.818 60.8173C671.302 59.3964 672.992 58.1333 674.886 57.0282C678.928 54.6916 683.033 53.5233 687.201 53.5233C691.4 53.5233 694.747 54.0759 697.242 55.181C699.768 56.2862 701.868 57.786 703.541 59.6805C705.246 61.5751 706.588 63.7696 707.567 66.264C708.546 68.7585 709.288 71.3951 709.793 74.1737C710.582 78.5311 710.977 84.1042 710.977 90.8929L710.882 96.6713L713.771 96.5765ZM21.9834 229.766C23.8464 229.766 25.2988 229.813 26.3408 229.908V194.575C24.7305 194.828 22.5675 194.954 19.8521 194.954H19.4731V229.766H21.9834ZM34.0137 235.592C24.7936 234.36 16.2524 234.534 8.39014 236.113C7.6639 236.113 7.07975 235.844 6.6377 235.307C6.19564 234.771 5.97461 234.202 5.97461 233.602C5.97461 233.002 6.14827 232.466 6.49561 231.992C6.84294 231.518 7.45866 231.203 8.34277 231.045C10.111 230.697 12.1634 230.413 14.5 230.192V194.765L7.25342 194.196C6.62191 194.101 6.10091 193.817 5.69043 193.344C5.31152 192.87 5.12207 192.286 5.12207 191.591C5.12207 190.865 5.40625 190.297 5.97461 189.886C6.54297 189.444 7.09554 189.223 7.63232 189.223H7.9165C7.94808 189.223 8.3112 189.27 9.00586 189.365C9.70052 189.428 10.6004 189.523 11.7056 189.649C14.4526 189.902 17.1997 190.028 19.9468 190.028C23.5148 190.028 26.325 189.76 28.3774 189.223H28.8511C29.5773 189.223 30.1772 189.476 30.6509 189.981C31.1561 190.486 31.4087 191.054 31.4087 191.686V197.891C34.0926 193.533 37.4396 190.628 41.4497 189.176C42.9338 188.639 44.481 188.37 46.0913 188.37C47.7017 188.37 49.1226 188.592 50.354 189.034C51.5854 189.476 52.6906 190.091 53.6694 190.881C55.564 192.491 56.9375 194.654 57.79 197.37C61.6738 191.37 66.7417 188.37 72.9937 188.37C77.7616 188.37 81.2664 190.391 83.5083 194.433C85.245 197.559 86.1133 201.853 86.1133 207.316C86.1133 212.778 85.3081 220.104 83.6978 229.292C88.3709 229.292 91.0864 229.719 91.8442 230.571C92.2863 231.045 92.5073 231.613 92.5073 232.276C92.5073 232.908 92.2389 233.476 91.7021 233.981C91.1969 234.487 90.6286 234.739 89.9971 234.739H89.6655C87.3289 234.423 84.7397 234.266 81.8979 234.266C79.0877 234.266 75.7091 234.581 71.7622 235.213H71.3359C70.6729 235.213 70.1045 234.976 69.6309 234.502C69.1572 233.997 68.9204 233.429 68.9204 232.797C68.9204 232.166 69.1099 231.613 69.4888 231.14C69.8993 230.666 70.5939 230.35 71.5728 230.192C74.3198 229.813 76.6406 229.545 78.5352 229.387C80.2087 221.02 81.0454 213.552 81.0454 206.984C81.0454 203.069 80.6665 200.227 79.9087 198.459C79.1509 196.691 78.2352 195.396 77.1616 194.575C76.1196 193.723 74.604 193.296 72.6147 193.296C70.6571 193.296 68.873 193.754 67.2627 194.67C65.6839 195.585 64.3262 196.722 63.1895 198.08C61.3896 200.196 59.9056 203.037 58.7373 206.605C58.7373 212.289 58.0584 219.883 56.7007 229.387C57.9006 229.387 59.9688 229.513 62.9053 229.766C63.5999 229.829 64.1367 230.098 64.5156 230.571C64.9261 231.045 65.1313 231.629 65.1313 232.324C65.1313 233.018 64.8787 233.602 64.3735 234.076C63.8683 234.518 63.3158 234.739 62.7158 234.739H62.4316C57.1901 234.108 51.3328 234.266 44.8599 235.213H44.481C43.7863 235.213 43.2021 234.976 42.7285 234.502C42.2865 233.997 42.0654 233.429 42.0654 232.797C42.0654 232.166 42.2549 231.613 42.6338 231.14C43.0443 230.666 43.7547 230.35 44.7651 230.192C47.5122 229.813 49.8172 229.577 51.6802 229.482C53.1011 220.609 53.8115 212.92 53.8115 206.416C53.8115 202.564 53.4642 199.817 52.7695 198.175C52.0749 196.533 51.2223 195.317 50.2119 194.528C49.2331 193.707 47.9227 193.296 46.2808 193.296C44.6704 193.296 43.2021 193.659 41.876 194.386C40.5498 195.08 39.3499 195.98 38.2764 197.085C37.2028 198.159 36.2555 199.359 35.4346 200.685C34.6452 201.98 33.9663 203.227 33.3979 204.427C32.4507 206.447 31.7876 208.168 31.4087 209.589L31.314 230.287C31.8823 230.35 32.4349 230.413 32.9717 230.476C33.5085 230.54 34.061 230.619 34.6294 230.713C35.2293 230.776 35.7345 231.045 36.145 231.518C36.5871 231.992 36.8081 232.56 36.8081 233.224C36.8081 233.887 36.5397 234.455 36.0029 234.929C35.4977 235.371 34.9294 235.592 34.2979 235.592H34.0137ZM115.289 192.538C106.985 195.538 102.833 201.837 102.833 211.436C102.833 217.467 104.917 222.519 109.084 226.593C110.379 227.856 111.863 228.913 113.537 229.766C110.821 225.724 109.463 220.199 109.463 213.189C109.463 208.231 109.826 204.537 110.553 202.106C111.689 198.254 113.268 195.064 115.289 192.538ZM114.484 211.152C118.02 212.257 122.078 212.81 126.656 212.81C131.235 212.81 135.687 211.847 140.013 209.921V209.116C140.013 201.474 137.566 196.201 132.671 193.296C130.966 192.286 128.914 191.607 126.514 191.26C118.81 192.144 114.8 198.775 114.484 211.152ZM144.938 209.021L144.844 211.768C144.528 214.389 140.36 216.252 132.34 217.357C129.782 217.704 127.067 217.878 124.193 217.878C121.352 217.878 118.147 217.388 114.579 216.41C115.273 223.577 117.673 228.424 121.778 230.95C123.293 231.866 124.778 232.324 126.23 232.324C127.714 232.324 128.961 232.229 129.972 232.039C130.982 231.818 131.977 231.518 132.956 231.14C135.166 230.224 136.713 229.119 137.597 227.824C138.134 227.193 138.75 226.877 139.444 226.877C140.171 226.877 140.786 227.145 141.292 227.682C141.797 228.187 142.049 228.771 142.049 229.434C142.049 230.066 141.844 230.571 141.434 230.95C140.076 233.066 137.55 234.739 133.855 235.971C127.004 238.212 120.42 238.023 114.105 235.402C107.474 232.687 102.769 228.108 99.9907 221.667C98.6014 218.509 97.9067 215.02 97.9067 211.2C97.9067 207.347 98.5067 203.858 99.7065 200.732C100.906 197.575 102.611 194.922 104.822 192.775C109.337 188.355 115.573 186.144 123.53 186.144C137.802 186.744 144.938 194.37 144.938 209.021ZM166.536 229.766C168.399 229.766 169.852 229.813 170.894 229.908V194.575C169.283 194.828 167.12 194.954 164.405 194.954H164.026V229.766H166.536ZM178.566 235.592C169.346 234.36 160.805 234.534 152.943 236.113C152.217 236.113 151.632 235.844 151.19 235.307C150.748 234.771 150.527 234.202 150.527 233.602C150.527 233.002 150.701 232.466 151.048 231.992C151.396 231.518 152.011 231.203 152.896 231.045C154.664 230.697 156.716 230.413 159.053 230.192V194.765L151.806 194.196C151.175 194.101 150.654 193.817 150.243 193.344C149.864 192.87 149.675 192.286 149.675 191.591C149.675 190.865 149.959 190.297 150.527 189.886C151.096 189.444 151.648 189.223 152.185 189.223H152.469C152.501 189.223 152.864 189.27 153.559 189.365C154.253 189.428 155.153 189.523 156.258 189.649C159.005 189.902 161.752 190.028 164.5 190.028C168.068 190.028 170.878 189.76 172.93 189.223H173.404C174.13 189.223 174.73 189.476 175.204 189.981C175.709 190.486 175.961 191.054 175.961 191.686V197.891C178.645 193.533 181.992 190.628 186.002 189.176C187.486 188.639 189.034 188.37 190.644 188.37C192.254 188.37 193.675 188.592 194.907 189.034C196.138 189.476 197.243 190.091 198.222 190.881C200.117 192.491 201.49 194.654 202.343 197.37C206.227 191.37 211.294 188.37 217.546 188.37C222.314 188.37 225.819 190.391 228.061 194.433C229.798 197.559 230.666 201.853 230.666 207.316C230.666 212.778 229.861 220.104 228.25 229.292C232.924 229.292 235.639 229.719 236.397 230.571C236.839 231.045 237.06 231.613 237.06 232.276C237.06 232.908 236.792 233.476 236.255 233.981C235.75 234.487 235.181 234.739 234.55 234.739H234.218C231.882 234.423 229.292 234.266 226.451 234.266C223.64 234.266 220.262 234.581 216.315 235.213H215.889C215.226 235.213 214.657 234.976 214.184 234.502C213.71 233.997 213.473 233.429 213.473 232.797C213.473 232.166 213.663 231.613 214.042 231.14C214.452 230.666 215.147 230.35 216.125 230.192C218.873 229.813 221.193 229.545 223.088 229.387C224.761 221.02 225.598 213.552 225.598 206.984C225.598 203.069 225.219 200.227 224.461 198.459C223.704 196.691 222.788 195.396 221.714 194.575C220.672 193.723 219.157 193.296 217.167 193.296C215.21 193.296 213.426 193.754 211.815 194.67C210.237 195.585 208.879 196.722 207.742 198.08C205.942 200.196 204.458 203.037 203.29 206.605C203.29 212.289 202.611 219.883 201.253 229.387C202.453 229.387 204.521 229.513 207.458 229.766C208.153 229.829 208.689 230.098 209.068 230.571C209.479 231.045 209.684 231.629 209.684 232.324C209.684 233.018 209.431 233.602 208.926 234.076C208.421 234.518 207.868 234.739 207.269 234.739H206.984C201.743 234.108 195.886 234.266 189.413 235.213H189.034C188.339 235.213 187.755 234.976 187.281 234.502C186.839 233.997 186.618 233.429 186.618 232.797C186.618 232.166 186.808 231.613 187.187 231.14C187.597 230.666 188.307 230.35 189.318 230.192C192.065 229.813 194.37 229.577 196.233 229.482C197.654 220.609 198.364 212.92 198.364 206.416C198.364 202.564 198.017 199.817 197.322 198.175C196.628 196.533 195.775 195.317 194.765 194.528C193.786 193.707 192.475 193.296 190.833 193.296C189.223 193.296 187.755 193.659 186.429 194.386C185.103 195.08 183.903 195.98 182.829 197.085C181.756 198.159 180.808 199.359 179.987 200.685C179.198 201.98 178.519 203.227 177.951 204.427C177.003 206.447 176.34 208.168 175.961 209.589L175.867 230.287C176.435 230.35 176.988 230.413 177.524 230.476C178.061 230.54 178.614 230.619 179.182 230.713C179.782 230.776 180.287 231.045 180.698 231.518C181.14 231.992 181.361 232.56 181.361 233.224C181.361 233.887 181.092 234.455 180.556 234.929C180.05 235.371 179.482 235.592 178.851 235.592H178.566ZM249.848 172.646L249.611 200.022C249.611 208.074 249.674 213.505 249.801 216.315C249.959 219.093 250.432 221.477 251.222 223.467C252.011 225.456 253.1 227.193 254.49 228.677C257.426 231.803 261.136 233.429 265.62 233.555C260 230.145 257.095 223.877 256.905 214.752C256.779 211.152 256.716 206.89 256.716 201.964C256.716 197.006 256.732 191.907 256.763 186.665C256.795 181.424 256.811 176.403 256.811 171.604C254.853 172.078 252.532 172.425 249.848 172.646ZM288.023 209.542C288.023 207.047 287.802 204.727 287.36 202.579C286.918 200.401 286.192 198.506 285.181 196.896C283.066 193.423 279.782 191.686 275.33 191.686C271.793 191.686 268.572 193.296 265.667 196.517C263.236 199.138 261.894 201.459 261.642 203.479C261.642 212.384 261.942 218.051 262.542 220.483C263.141 222.883 263.915 224.793 264.862 226.214C266.883 229.245 269.788 230.761 273.577 230.761C278.313 230.761 281.992 228.487 284.613 223.94C286.886 219.993 288.023 215.194 288.023 209.542ZM244.875 216.646C244.749 213.141 244.686 206.226 244.686 195.901C244.686 185.576 244.749 177.887 244.875 172.835C242.254 172.835 240.123 172.725 238.481 172.504C236.839 172.283 235.829 172.141 235.45 172.078C235.071 171.983 234.692 171.699 234.313 171.225C233.934 170.751 233.745 170.278 233.745 169.804C233.745 169.299 233.839 168.888 234.029 168.573C234.187 168.257 234.392 167.988 234.645 167.767C235.15 167.325 235.56 167.104 235.876 167.104H236.444C236.507 167.104 236.571 167.12 236.634 167.152C236.665 167.183 236.902 167.231 237.344 167.294C237.786 167.357 238.386 167.42 239.144 167.483C241.102 167.704 243.091 167.815 245.112 167.815C250.164 167.815 254.679 167.231 258.658 166.062C258.91 165.936 259.258 165.873 259.7 165.873C260.173 165.873 260.647 166.141 261.121 166.678C261.626 167.183 261.878 167.752 261.878 168.383V168.478C261.878 168.509 261.863 169.22 261.831 170.609C261.799 171.967 261.768 173.798 261.736 176.103C261.736 178.377 261.721 181.013 261.689 184.013C261.657 187.013 261.642 190.139 261.642 193.391C263.883 190.233 267.041 188.165 271.114 187.186C272.44 186.871 274.224 186.713 276.466 186.713C278.74 186.713 280.997 187.313 283.239 188.513C285.481 189.681 287.328 191.291 288.781 193.344C291.591 197.385 292.996 202.769 292.996 209.495C292.996 217.83 290.707 224.682 286.128 230.05C281.297 235.702 274.824 238.528 266.709 238.528C260.647 238.528 255.563 236.523 251.458 232.513C247.291 228.471 245.096 223.182 244.875 216.646ZM318.288 192.538C309.984 195.538 305.832 201.837 305.832 211.436C305.832 217.467 307.916 222.519 312.083 226.593C313.378 227.856 314.862 228.913 316.536 229.766C313.82 225.724 312.462 220.199 312.462 213.189C312.462 208.231 312.826 204.537 313.552 202.106C314.688 198.254 316.267 195.064 318.288 192.538ZM317.483 211.152C321.019 212.257 325.077 212.81 329.655 212.81C334.234 212.81 338.686 211.847 343.012 209.921V209.116C343.012 201.474 340.565 196.201 335.67 193.296C333.965 192.286 331.913 191.607 329.513 191.26C321.809 192.144 317.799 198.775 317.483 211.152ZM347.938 209.021L347.843 211.768C347.527 214.389 343.359 216.252 335.339 217.357C332.781 217.704 330.066 217.878 327.192 217.878C324.351 217.878 321.146 217.388 317.578 216.41C318.272 223.577 320.672 228.424 324.777 230.95C326.292 231.866 327.777 232.324 329.229 232.324C330.713 232.324 331.96 232.229 332.971 232.039C333.981 231.818 334.976 231.518 335.955 231.14C338.165 230.224 339.712 229.119 340.596 227.824C341.133 227.193 341.749 226.877 342.443 226.877C343.17 226.877 343.785 227.145 344.291 227.682C344.796 228.187 345.048 228.771 345.048 229.434C345.048 230.066 344.843 230.571 344.433 230.95C343.075 233.066 340.549 234.739 336.854 235.971C330.003 238.212 323.419 238.023 317.104 235.402C310.473 232.687 305.768 228.108 302.99 221.667C301.6 218.509 300.906 215.02 300.906 211.2C300.906 207.347 301.506 203.858 302.706 200.732C303.905 197.575 305.611 194.922 307.821 192.775C312.336 188.355 318.572 186.144 326.529 186.144C340.801 186.744 347.938 194.37 347.938 209.021ZM374.982 193.817C373.782 194.007 371.603 194.101 368.446 194.101H368.067V228.913C368.667 228.85 369.251 228.819 369.819 228.819C369.819 228.819 371.54 228.819 374.982 228.819V193.817ZM401.458 204.332C401.647 203.921 401.742 203.353 401.742 202.627C401.742 201.901 401.395 201.206 400.7 200.543C400.037 199.848 399.216 199.501 398.237 199.501C397.258 199.501 396.422 199.848 395.727 200.543C395.064 201.206 394.732 201.901 394.732 202.627C394.732 203.353 394.827 203.921 395.017 204.332C395.206 204.742 395.459 205.121 395.774 205.469C396.438 206.163 397.258 206.511 398.237 206.511C399.721 206.511 400.795 205.784 401.458 204.332ZM380.002 194.291C383.16 189.902 387.328 187.707 392.506 187.707C396.801 187.834 400.274 189.144 402.926 191.639C405.642 194.133 407 197.401 407 201.443C407 204.127 406.21 206.447 404.631 208.405C402.989 210.426 400.858 211.436 398.237 211.436C395.901 211.436 393.911 210.615 392.27 208.974C390.628 207.332 389.807 205.342 389.807 203.006C389.807 200.701 390.628 198.711 392.27 197.038C393.911 195.333 395.901 194.48 398.237 194.48C398.395 194.48 398.537 194.496 398.664 194.528C398.821 194.559 398.979 194.575 399.137 194.575C397.464 193.28 395.49 192.633 393.217 192.633C390.943 192.633 389.144 193.012 387.817 193.77C386.491 194.496 385.354 195.428 384.407 196.564C383.492 197.669 382.75 198.885 382.181 200.211C381.613 201.506 381.171 202.722 380.855 203.858C380.287 205.784 380.002 207.253 380.002 208.263L379.908 229.292C381.013 229.387 382.118 229.529 383.223 229.719C384.36 229.908 385.37 230.098 386.254 230.287C387.896 230.603 388.717 231.439 388.717 232.797C388.717 233.492 388.449 234.076 387.912 234.55C387.375 234.992 386.807 235.213 386.207 235.213H385.733C380.46 234.234 375.74 233.745 371.572 233.745C367.467 233.745 362.778 234.234 357.505 235.213H357.031C356.305 235.213 355.721 234.976 355.279 234.502C354.837 233.997 354.616 233.445 354.616 232.845C354.616 231.487 355.263 230.634 356.558 230.287C357.663 230.098 358.768 229.908 359.873 229.719C360.978 229.529 362.068 229.387 363.141 229.292V194.007C358.973 193.817 356.542 193.58 355.847 193.296C355.216 193.233 354.695 192.981 354.284 192.538C353.905 192.065 353.716 191.481 353.716 190.786C353.716 190.06 353.984 189.476 354.521 189.034C355.089 188.592 355.658 188.37 356.226 188.37H356.558C356.779 188.592 358.452 188.781 361.578 188.939C364.736 189.065 367.056 189.128 368.541 189.128C372.045 189.128 374.35 189.002 375.456 188.749C376.561 188.497 377.35 188.37 377.824 188.37C378.329 188.37 378.818 188.639 379.292 189.176C379.766 189.681 380.002 190.249 380.002 190.881V194.291ZM24.7778 325.254C19.1258 327.433 15.3999 331.522 13.6001 337.521C12.9686 339.605 12.6528 341.958 12.6528 344.578C12.6528 347.199 12.9528 349.552 13.5527 351.636C14.1527 353.72 14.9578 355.551 15.9683 357.13C17.9259 360.066 20.6414 362.245 24.1147 363.666C20.9572 359.277 19.3784 352.835 19.3784 344.342C19.3784 335.848 21.1782 329.485 24.7778 325.254ZM48.8857 358.503C50.3698 356.609 51.4907 354.446 52.2485 352.015C53.0379 349.583 53.4326 347.341 53.4326 345.289C53.4326 343.237 53.259 341.421 52.9116 339.842C52.5643 338.263 52.0591 336.732 51.396 335.248C50.7329 333.764 49.9277 332.375 48.9805 331.08C48.0332 329.785 46.9754 328.649 45.8071 327.67C43.2495 325.617 40.4551 324.591 37.4238 324.591C31.2982 324.591 27.3039 328.191 25.4409 335.39C24.7463 338.042 24.3989 340.505 24.3989 342.779C24.3989 345.021 24.4621 346.931 24.5884 348.51C24.7147 350.057 24.9357 351.604 25.2515 353.151C25.5672 354.667 25.9935 356.135 26.5303 357.556C27.0671 358.977 27.7617 360.224 28.6143 361.298C30.4772 363.634 32.8612 364.803 35.7661 364.803C38.7026 364.803 41.2445 364.234 43.3916 363.098C45.5703 361.929 47.4017 360.398 48.8857 358.503ZM58.3584 344.768C58.3584 348.399 57.6795 351.793 56.3218 354.951C54.964 358.109 53.1326 360.824 50.8276 363.098C45.9334 367.865 39.9972 370.249 33.019 370.249C25.3462 370.249 19.2048 367.913 14.5947 363.24C10.0163 358.598 7.72705 352.362 7.72705 344.531C7.72705 337.111 10.1584 330.954 15.021 326.059C19.8205 321.197 25.8198 318.766 33.019 318.766C40.3446 318.766 46.4386 321.323 51.3013 326.438C56.006 331.364 58.3584 337.474 58.3584 344.768ZM92.3652 300.72C88.1973 301.731 84.9924 304.02 82.7505 307.588C80.7612 310.714 79.7666 314.534 79.7666 319.05V361.724C80.335 361.661 80.9191 361.629 81.519 361.629C82.6242 361.629 83.5872 361.629 84.4082 361.629C85.2292 361.629 85.908 361.661 86.4448 361.724V320.518C86.4448 311.266 88.4183 304.667 92.3652 300.72ZM98.7593 368.118C93.5493 367.076 88.4025 366.555 83.3188 366.555C78.2668 366.555 73.1357 367.076 67.9258 368.118C67.1995 368.118 66.5996 367.865 66.126 367.36C65.6523 366.823 65.4155 366.255 65.4155 365.655C65.4155 364.203 66.0944 363.382 67.4521 363.192C70.1045 362.624 72.5516 362.261 74.7935 362.103V325.728C72.1411 325.728 69.9466 325.681 68.21 325.586C66.4733 325.491 65.3682 325.207 64.8945 324.733C64.4525 324.26 64.2314 323.691 64.2314 323.028C64.2314 322.334 64.484 321.749 64.9893 321.276C65.4945 320.771 66.0786 320.518 66.7417 320.518H66.8364L74.7935 320.802V319.05C74.7935 311.977 76.7196 306.293 80.5718 301.999C84.5187 297.578 89.8392 295.368 96.5332 295.368C102.185 295.368 106.795 297.184 110.363 300.815C113.679 304.193 115.273 308.172 115.147 312.75V312.845C115.147 313.508 114.894 314.077 114.389 314.55C113.916 315.024 113.331 315.261 112.637 315.261C111.942 315.261 111.358 315.024 110.884 314.55C110.442 314.077 110.174 313.366 110.079 312.419C110.016 311.44 109.779 310.303 109.369 309.009C108.99 307.714 108.437 306.546 107.711 305.504C106.069 303.136 103.953 301.952 101.364 301.952C96.5016 301.952 93.4072 305.63 92.0811 312.987C91.6706 315.261 91.4653 317.771 91.4653 320.518V320.802L99.4224 320.518H99.5171C100.212 320.518 100.796 320.755 101.27 321.228C101.743 321.67 101.996 322.255 102.027 322.981C102.059 323.675 101.838 324.26 101.364 324.733C100.891 325.207 99.8013 325.491 98.0962 325.586C96.3911 325.681 94.1808 325.728 91.4653 325.728V362.008C94.3387 362.356 96.5016 362.671 97.9541 362.955C99.4066 363.208 100.306 363.571 100.654 364.045C101.001 364.487 101.175 365.071 101.175 365.797C101.175 366.492 100.906 367.06 100.37 367.502C99.8328 367.913 99.2961 368.118 98.7593 368.118Z" fill="black"/>
<defs>
<clipPath id="clip0">
<rect width="190" height="186" fill="white" transform="translate(600.786 234.929)"/>
</clipPath>
</defs>
</svg>
