<svg width="512" height="108" viewBox="0 0 512 108" fill="none" xmlns="http://www.w3.org/2000/svg">
<rect x="0.5" y="0.357178" width="510.648" height="107.143" rx="16" fill="#A7CBB6"/>
<path d="M66.2929 39.3817C62.7096 41.1525 60.9179 44.439 60.9179 49.2411C60.9179 52.4494 61.8502 54.8817 63.7148 56.538C64.3294 57.09 65.0586 57.59 65.9023 58.038C64.1315 55.8921 63.2461 52.7671 63.2461 48.663C63.2461 44.59 64.2617 41.4963 66.2929 39.3817ZM71.2148 36.6317C74.1211 36.6317 76.4284 37.6473 78.1367 39.6786L78.9961 37.2098C79.1315 36.8244 79.3502 36.6317 79.6523 36.6317C79.9544 36.6317 80.1836 36.7203 80.3398 36.8973C80.5065 37.064 80.5898 37.2255 80.5898 37.3817C80.5898 37.5275 80.569 37.6421 80.5273 37.7255L78.0429 44.9911C77.9388 45.3453 77.72 45.5223 77.3867 45.5223C77.0638 45.5223 76.8242 45.4338 76.6679 45.2567C76.5117 45.0796 76.4336 44.9286 76.4336 44.8036C76.4336 44.6682 76.4544 44.5588 76.4961 44.4755L77.4961 41.5536C76.6106 40.1369 75.4284 39.1682 73.9492 38.6473C73.4596 38.4807 72.8502 38.3973 72.1211 38.3973C71.4023 38.3973 70.6679 38.5432 69.9179 38.8348C69.1784 39.1265 68.5273 39.5223 67.9648 40.0223C67.4127 40.5223 66.9388 41.1109 66.5429 41.788C66.1471 42.4546 65.8294 43.1682 65.5898 43.9286C65.1211 45.3661 64.8867 46.9442 64.8867 48.663C64.8867 51.1942 65.2825 53.4182 66.0742 55.3348C66.6888 56.814 67.5586 57.8661 68.6836 58.4911C69.2669 58.814 69.9752 58.9755 70.8086 58.9755C71.6523 58.9755 72.4804 58.8453 73.2929 58.5848C74.1159 58.3244 74.8606 57.9494 75.5273 57.4598C76.9336 56.4494 77.9179 55.1161 78.4804 53.4598C78.595 53.0328 78.8138 52.8192 79.1367 52.8192C79.4596 52.8192 79.6992 52.9078 79.8554 53.0848C80.0117 53.2619 80.0898 53.4546 80.0898 53.663V53.8505C80.0794 53.8713 80.0429 53.9755 79.9804 54.163C79.9284 54.3505 79.8398 54.5953 79.7148 54.8973C78.7252 57.1369 77.1211 58.7463 74.9023 59.7255C73.569 60.3088 72.0898 60.59 70.4648 60.5692C68.8502 60.5588 67.3346 60.2828 65.9179 59.7411C64.5117 59.189 63.319 58.4182 62.3398 57.4286C60.2981 55.3973 59.2773 52.6682 59.2773 49.2411C59.2773 44.8348 60.5794 41.5432 63.1836 39.3661C65.3815 37.5432 68.0586 36.6317 71.2148 36.6317ZM88.3398 39.163C87.6627 39.2255 86.9492 39.2567 86.1992 39.2567H86.0742V58.1317H88.3398V39.163ZM84.4492 39.2255L82.5273 39.0067C82.319 38.9755 82.1471 38.8817 82.0117 38.7255C81.8867 38.5692 81.8242 38.3765 81.8242 38.1473C81.8242 37.9078 81.9179 37.7203 82.1054 37.5848C82.2929 37.439 82.4752 37.3661 82.6523 37.3661H82.7461C82.7565 37.3661 82.8502 37.3817 83.0273 37.413C83.2044 37.4338 83.444 37.4598 83.7461 37.4911C84.4961 37.5848 85.3242 37.6317 86.2304 37.6317C87.345 37.6317 88.095 37.59 88.4804 37.5067C88.8659 37.413 89.1367 37.3661 89.2929 37.3661C89.4596 37.3661 89.6211 37.4546 89.7773 37.6317C89.9336 37.7984 90.0117 37.9859 90.0117 38.1942L89.9804 58.3036C90.2721 58.3348 90.5013 58.3661 90.6679 58.3973C90.845 58.4182 90.9909 58.439 91.1054 58.4598C91.2304 58.4703 91.3867 58.4963 91.5742 58.538C91.7721 58.5796 91.9336 58.6734 92.0586 58.8192C92.1836 58.965 92.2461 59.1473 92.2461 59.3661C92.2461 59.5744 92.1575 59.7567 91.9804 59.913C91.8138 60.0692 91.6263 60.1473 91.4179 60.1473H91.2617C88.3763 59.6369 85.5273 59.6473 82.7148 60.1786H82.5586C82.2981 60.1786 82.1002 60.0953 81.9648 59.9286C81.8294 59.7723 81.7617 59.59 81.7617 59.3817C81.7617 58.9442 81.9752 58.6682 82.4023 58.5536C83.0273 58.4494 83.7096 58.3661 84.4492 58.3036V39.2255ZM100.48 46.3036C99.9492 46.3869 99.2356 46.4286 98.3398 46.4286H98.2148V58.1942C98.4127 58.1734 98.6054 58.163 98.7929 58.163C99.1679 58.163 99.4961 58.163 99.7773 58.163C100.059 58.163 100.293 58.1734 100.48 58.1942V46.3036ZM100.293 39.7723C100.293 39.4494 100.178 39.1786 99.9492 38.9598C99.7304 38.7307 99.4596 38.6161 99.1367 38.6161C98.8138 38.6161 98.5429 38.7307 98.3242 38.9598C98.1054 39.1786 97.9961 39.4494 97.9961 39.7723C97.9961 40.0953 98.1054 40.3661 98.3242 40.5848C98.5429 40.8036 98.8138 40.913 99.1367 40.913C99.4596 40.913 99.7304 40.8036 99.9492 40.5848C100.178 40.3661 100.293 40.0953 100.293 39.7723ZM104.199 60.3192C102.48 59.9755 100.876 59.8036 99.3867 59.8036C97.8971 59.8036 96.2929 59.9755 94.5742 60.3192C94.3346 60.3192 94.1367 60.2307 93.9804 60.0536C93.8346 59.8765 93.7617 59.689 93.7617 59.4911C93.7617 59.2932 93.819 59.1161 93.9336 58.9598C94.0586 58.8036 94.2565 58.6994 94.5273 58.6473C94.8086 58.5848 95.1315 58.5328 95.4961 58.4911C95.8711 58.439 96.2356 58.3869 96.5898 58.3348V46.3661L94.1836 46.163C93.9752 46.1317 93.8034 46.038 93.6679 45.8817C93.5429 45.7255 93.4804 45.5328 93.4804 45.3036C93.4804 45.064 93.5742 44.8765 93.7617 44.7411C93.9492 44.6057 94.1315 44.538 94.3086 44.538H94.4023C94.4127 44.538 94.5325 44.5536 94.7617 44.5848C94.9909 44.6057 95.2877 44.6317 95.6523 44.663C96.6419 44.7463 97.5481 44.788 98.3711 44.788C99.5169 44.788 100.444 44.7046 101.152 44.538H101.324C101.564 44.538 101.762 44.6213 101.918 44.788C102.074 44.9442 102.152 45.1265 102.152 45.3348L102.121 58.3348C102.486 58.3869 102.85 58.439 103.215 58.4911C103.59 58.5328 103.923 58.5848 104.215 58.6473C104.756 58.7515 105.027 59.0275 105.027 59.4755C105.027 59.715 104.939 59.913 104.762 60.0692C104.585 60.2359 104.397 60.3192 104.199 60.3192ZM101.934 39.7723C101.934 40.5536 101.663 41.2098 101.121 41.7411C100.559 42.2828 99.8971 42.5536 99.1367 42.5536C98.3659 42.5536 97.7096 42.2828 97.1679 41.7411C96.6263 41.1994 96.3554 40.5432 96.3554 39.7723C96.3554 39.0015 96.6263 38.3453 97.1679 37.8036C97.7096 37.2619 98.3659 36.9911 99.1367 36.9911C99.8971 36.9911 100.559 37.2619 101.121 37.8036C101.663 38.3348 101.934 38.9911 101.934 39.7723ZM112.574 58.8036C111.189 57.3557 110.496 55.3192 110.496 52.6942C110.496 51.0484 110.767 49.4703 111.309 47.9598C111.84 46.5119 112.444 45.564 113.121 45.1161C109.809 45.9286 108.152 48.3921 108.152 52.5067C108.152 54.9338 108.996 56.7359 110.684 57.913C111.236 58.2984 111.866 58.5953 112.574 58.8036ZM121.699 49.5536C121.668 49.7619 121.569 49.9338 121.402 50.0692C121.246 50.2046 121.064 50.2723 120.855 50.2723C120.647 50.2723 120.465 50.1994 120.309 50.0536C120.163 49.9078 120.085 49.6682 120.074 49.3348C120.064 48.9911 119.965 48.5744 119.777 48.0848C119.59 47.5953 119.335 47.1473 119.012 46.7411C118.262 45.8036 117.449 45.3348 116.574 45.3348C115.501 45.3348 114.595 45.7828 113.855 46.6786C112.97 47.7515 112.423 49.288 112.215 51.288C112.152 51.8192 112.121 52.3765 112.121 52.9598C112.121 53.5328 112.199 54.1838 112.355 54.913C112.522 55.6421 112.772 56.2932 113.105 56.8661C113.855 58.1786 114.902 58.8348 116.246 58.8348C117.246 58.8348 118.163 58.4078 118.996 57.5536C119.756 56.7723 120.262 55.9025 120.512 54.9442C120.626 54.4963 120.892 54.2723 121.309 54.2723C121.538 54.2723 121.73 54.3609 121.887 54.538C122.053 54.7046 122.137 54.8557 122.137 54.9911C122.137 55.1265 122.111 55.2932 122.059 55.4911C122.017 55.6786 121.908 55.9755 121.73 56.3817C121.553 56.788 121.319 57.1942 121.027 57.6005C120.746 58.0067 120.402 58.4025 119.996 58.788C119.59 59.163 119.126 59.4963 118.605 59.788C117.449 60.4338 116.22 60.7567 114.918 60.7567C113.626 60.7567 112.475 60.5536 111.465 60.1473C110.454 59.7515 109.585 59.189 108.855 58.4598C107.303 56.9286 106.527 54.9442 106.527 52.5067C106.527 49.7984 107.236 47.6057 108.652 45.9286C110.131 44.1682 112.152 43.288 114.715 43.288C115.902 43.288 117.006 43.5275 118.027 44.0067C119.048 44.4755 119.887 45.1838 120.543 46.1317L121.059 42.9442C121.09 42.7463 121.178 42.5848 121.324 42.4598C121.48 42.3348 121.673 42.2723 121.902 42.2723C122.131 42.2723 122.319 42.3609 122.465 42.538C122.611 42.715 122.684 42.8921 122.684 43.0692V43.1942L121.699 49.5536ZM128.715 58.1942H129.293C129.553 58.1942 129.986 58.2203 130.59 58.2723V39.3505C129.913 39.413 129.199 39.4442 128.449 39.4442H128.324V58.2255C128.449 58.2046 128.579 58.1942 128.715 58.1942ZM136.637 51.8036C136.324 51.9911 135.652 52.3088 134.621 52.7567C135.371 55.2775 136.428 57.0015 137.793 57.9286C138.345 58.3036 138.975 58.4911 139.684 58.4911C139.923 58.4911 140.277 58.4494 140.746 58.3661C139.309 57.5953 137.939 55.4078 136.637 51.8036ZM141.824 56.9911C142.408 56.9911 142.699 56.4442 142.699 55.3505V54.7723C142.699 53.9807 142.658 53.3713 142.574 52.9442C142.491 52.5067 142.444 52.288 142.434 52.288V52.0848C142.434 51.8661 142.512 51.6734 142.668 51.5067C142.835 51.34 143.017 51.2567 143.215 51.2567C143.673 51.2567 143.949 51.4703 144.043 51.8973C144.251 52.5223 144.355 53.34 144.355 54.3505C144.355 55.3505 144.267 56.1838 144.09 56.8505C143.913 57.5067 143.631 58.0744 143.246 58.5536C142.434 59.5953 141.246 60.1161 139.684 60.1161C137.517 60.1161 135.725 58.8609 134.309 56.3505C133.777 55.4025 133.35 54.3557 133.027 53.2098L132.23 53.3348V58.4286C132.772 58.4911 133.21 58.5432 133.543 58.5848C134.137 58.6682 134.434 58.9442 134.434 59.413C134.434 59.6734 134.345 59.8765 134.168 60.0223C133.991 60.1682 133.814 60.2411 133.637 60.2411H133.512C131.762 59.9911 130.23 59.8661 128.918 59.8661C127.616 59.8661 126.35 59.9911 125.121 60.2411H124.965C124.725 60.2411 124.527 60.1525 124.371 59.9755C124.215 59.8088 124.137 59.6265 124.137 59.4286C124.137 59.0015 124.361 58.7307 124.809 58.6161C125.434 58.4911 126.064 58.3973 126.699 58.3348V39.3817C126.699 39.3817 125.897 39.3192 124.293 39.1942C124.085 39.163 123.913 39.0692 123.777 38.913C123.652 38.7567 123.59 38.564 123.59 38.3348C123.59 38.0953 123.684 37.9078 123.871 37.7723C124.059 37.6265 124.241 37.5536 124.418 37.5536H124.512C124.522 37.5536 124.642 37.5692 124.871 37.6005C125.1 37.6213 125.402 37.6473 125.777 37.6786C126.673 37.7723 127.574 37.8192 128.48 37.8192C129.658 37.8192 130.585 37.7307 131.262 37.5536H131.434C131.673 37.5536 131.871 37.6369 132.027 37.8036C132.184 37.9703 132.262 38.1578 132.262 38.3661V51.7098C133.908 51.3869 135.319 50.7984 136.496 49.9442C137.684 49.0796 138.642 47.8557 139.371 46.2723H139.012L136.965 46.163C136.756 46.1317 136.585 46.038 136.449 45.8817C136.324 45.7255 136.262 45.5328 136.262 45.3036C136.262 45.064 136.355 44.8765 136.543 44.7411C136.73 44.6057 136.913 44.538 137.09 44.538H137.184L139.012 44.6317C140.616 44.6317 141.918 44.4078 142.918 43.9598C143.012 43.8973 143.147 43.8661 143.324 43.8661C143.501 43.8661 143.668 43.9546 143.824 44.1317C143.991 44.2984 144.074 44.4755 144.074 44.663C144.074 45.0484 143.913 45.3036 143.59 45.4286C142.902 45.7619 142.1 45.9963 141.184 46.1317C140.486 48.0588 139.444 49.6057 138.059 50.7723C139.027 53.6161 139.986 55.5223 140.934 56.4911C141.246 56.8244 141.543 56.9911 141.824 56.9911ZM162.355 39.413C161.824 39.4963 161.105 39.538 160.199 39.538H160.074V57.9755C160.272 57.9546 160.465 57.9442 160.652 57.9442C161.027 57.9442 161.355 57.9442 161.637 57.9442C161.918 57.9442 162.158 57.9546 162.355 57.9755V39.413ZM164.012 46.3973C165.199 44.564 166.819 43.6473 168.871 43.6473C170.892 43.6473 172.392 44.3817 173.371 45.8505C174.215 47.1005 174.637 48.7671 174.637 50.8505C174.637 52.9234 174.361 55.2671 173.809 57.8817C174.465 57.8817 174.996 57.913 175.402 57.9755C176.09 58.0796 176.434 58.3661 176.434 58.8348C176.434 59.064 176.345 59.2619 176.168 59.4286C175.991 59.5953 175.84 59.6786 175.715 59.6786C175.59 59.6786 175.434 59.6578 175.246 59.6161C173.944 59.3765 172.256 59.439 170.184 59.8036C170.163 59.8244 170.142 59.8348 170.121 59.8348C170.1 59.8348 170.022 59.8348 169.887 59.8348C169.762 59.8348 169.621 59.7515 169.465 59.5848C169.309 59.4078 169.23 59.2203 169.23 59.0223C169.23 58.564 169.454 58.288 169.902 58.1942C170.642 58.038 171.387 57.9442 172.137 57.913C172.71 55.2775 172.996 53.0275 172.996 51.163C172.996 48.3609 172.303 46.5536 170.918 45.7411C170.387 45.4286 169.793 45.2723 169.137 45.2723C168.491 45.2723 167.954 45.3609 167.527 45.538C167.111 45.715 166.72 45.9546 166.355 46.2567C166.001 46.5484 165.678 46.8921 165.387 47.288C165.095 47.6838 164.85 48.0953 164.652 48.5223C164.225 49.4286 164.012 50.2984 164.012 51.1317L163.98 58.1005C164.616 58.1525 165.194 58.2359 165.715 58.3505C166.246 58.4546 166.574 58.5848 166.699 58.7411C166.824 58.8869 166.887 59.0692 166.887 59.288C166.887 59.5067 166.798 59.689 166.621 59.8348C166.454 59.9807 166.267 60.0536 166.059 60.0536H165.902C164.163 59.7307 162.605 59.5692 161.23 59.5692C159.855 59.5692 158.309 59.7307 156.59 60.0536H156.434C156.194 60.0536 155.996 59.9755 155.84 59.8192C155.694 59.6525 155.621 59.4703 155.621 59.2723C155.621 59.064 155.678 58.8869 155.793 58.7411C155.918 58.5848 156.116 58.4807 156.387 58.4286C156.668 58.3661 156.991 58.3088 157.355 58.2567C157.73 58.2046 158.095 58.1525 158.449 58.1005V39.4755L156.043 39.288C155.835 39.2567 155.663 39.163 155.527 39.0067C155.402 38.8505 155.34 38.6578 155.34 38.4286C155.34 38.189 155.434 38.0015 155.621 37.8661C155.809 37.7307 155.991 37.663 156.168 37.663H156.262C156.272 37.663 156.392 37.6786 156.621 37.7098C156.85 37.7307 157.152 37.7567 157.527 37.788C158.506 37.8713 159.408 37.913 160.23 37.913C161.376 37.913 162.309 37.8296 163.027 37.663H163.184C163.423 37.663 163.621 37.7463 163.777 37.913C163.934 38.0692 164.012 38.2515 164.012 38.4598V46.3973ZM184.105 45.9442C181.366 46.9338 179.996 49.0119 179.996 52.1786C179.996 54.1682 180.684 55.8348 182.059 57.1786C182.486 57.5953 182.975 57.9442 183.527 58.2255C182.631 56.8921 182.184 55.0692 182.184 52.7567C182.184 51.1213 182.303 49.9025 182.543 49.1005C182.918 47.8296 183.439 46.7775 184.105 45.9442ZM183.84 52.0848C185.006 52.4494 186.345 52.6317 187.855 52.6317C189.366 52.6317 190.835 52.314 192.262 51.6786V51.413C192.262 48.8921 191.454 47.1525 189.84 46.1942C189.277 45.8609 188.6 45.6369 187.809 45.5223C185.267 45.814 183.944 48.0015 183.84 52.0848ZM193.887 51.3817L193.855 52.288C193.751 53.1525 192.376 53.7671 189.73 54.1317C188.887 54.2463 187.991 54.3036 187.043 54.3036C186.105 54.3036 185.048 54.1421 183.871 53.8192C184.1 56.1838 184.892 57.7828 186.246 58.6161C186.746 58.9182 187.236 59.0692 187.715 59.0692C188.204 59.0692 188.616 59.038 188.949 58.9755C189.283 58.9025 189.611 58.8036 189.934 58.6786C190.663 58.3765 191.173 58.0119 191.465 57.5848C191.642 57.3765 191.845 57.2723 192.074 57.2723C192.314 57.2723 192.517 57.3609 192.684 57.538C192.85 57.7046 192.934 57.8973 192.934 58.1161C192.934 58.3244 192.866 58.4911 192.73 58.6161C192.283 59.314 191.449 59.8661 190.23 60.2723C187.97 61.0119 185.798 60.9494 183.715 60.0848C181.527 59.189 179.975 57.6786 179.059 55.5536C178.6 54.5119 178.371 53.3609 178.371 52.1005C178.371 50.8296 178.569 49.6786 178.965 48.6473C179.361 47.6057 179.923 46.7307 180.652 46.0223C182.142 44.564 184.199 43.8348 186.824 43.8348C191.533 44.0328 193.887 46.5484 193.887 51.3817ZM202.809 46.3661C202.413 46.4286 201.694 46.4598 200.652 46.4598H200.527V57.9442C200.725 57.9234 200.918 57.913 201.105 57.913C201.105 57.913 201.673 57.913 202.809 57.913V46.3661ZM211.543 49.8348C211.605 49.6994 211.637 49.5119 211.637 49.2723C211.637 49.0328 211.522 48.8036 211.293 48.5848C211.074 48.3557 210.803 48.2411 210.48 48.2411C210.158 48.2411 209.881 48.3557 209.652 48.5848C209.434 48.8036 209.324 49.0328 209.324 49.2723C209.324 49.5119 209.355 49.6994 209.418 49.8348C209.48 49.9703 209.564 50.0953 209.668 50.2098C209.887 50.439 210.158 50.5536 210.48 50.5536C210.97 50.5536 211.324 50.314 211.543 49.8348ZM204.465 46.5223C205.506 45.0744 206.881 44.3505 208.59 44.3505C210.006 44.3921 211.152 44.8244 212.027 45.6473C212.923 46.4703 213.371 47.5484 213.371 48.8817C213.371 49.7671 213.111 50.5328 212.59 51.1786C212.048 51.8453 211.345 52.1786 210.48 52.1786C209.71 52.1786 209.053 51.9078 208.512 51.3661C207.97 50.8244 207.699 50.1682 207.699 49.3973C207.699 48.6369 207.97 47.9807 208.512 47.4286C209.053 46.8661 209.71 46.5848 210.48 46.5848C210.533 46.5848 210.579 46.59 210.621 46.6005C210.673 46.6109 210.725 46.6161 210.777 46.6161C210.225 46.189 209.574 45.9755 208.824 45.9755C208.074 45.9755 207.48 46.1005 207.043 46.3505C206.605 46.59 206.23 46.8973 205.918 47.2723C205.616 47.6369 205.371 48.038 205.184 48.4755C204.996 48.9025 204.85 49.3036 204.746 49.6786C204.559 50.314 204.465 50.7984 204.465 51.1317L204.434 58.0692C204.798 58.1005 205.163 58.1473 205.527 58.2098C205.902 58.2723 206.236 58.3348 206.527 58.3973C207.069 58.5015 207.34 58.7775 207.34 59.2255C207.34 59.4546 207.251 59.6473 207.074 59.8036C206.897 59.9494 206.71 60.0223 206.512 60.0223H206.355C204.616 59.6994 203.059 59.538 201.684 59.538C200.329 59.538 198.783 59.6994 197.043 60.0223H196.887C196.647 60.0223 196.454 59.9442 196.309 59.788C196.163 59.6213 196.09 59.439 196.09 59.2411C196.09 58.7932 196.303 58.5119 196.73 58.3973C197.095 58.3348 197.46 58.2723 197.824 58.2098C198.189 58.1473 198.548 58.1005 198.902 58.0692V46.4286C197.527 46.3661 196.725 46.288 196.496 46.1942C196.288 46.1734 196.116 46.09 195.98 45.9442C195.855 45.788 195.793 45.5953 195.793 45.3661C195.793 45.1265 195.881 44.9338 196.059 44.788C196.246 44.6421 196.434 44.5692 196.621 44.5692H196.73C196.803 44.6421 197.355 44.7046 198.387 44.7567C199.428 44.7984 200.194 44.8192 200.684 44.8192C201.84 44.8192 202.6 44.7775 202.965 44.6942C203.329 44.6109 203.59 44.5692 203.746 44.5692C203.913 44.5692 204.074 44.6578 204.23 44.8348C204.387 45.0015 204.465 45.189 204.465 45.3973V46.5223ZM221.012 45.9442C218.272 46.9338 216.902 49.0119 216.902 52.1786C216.902 54.1682 217.59 55.8348 218.965 57.1786C219.392 57.5953 219.881 57.9442 220.434 58.2255C219.538 56.8921 219.09 55.0692 219.09 52.7567C219.09 51.1213 219.21 49.9025 219.449 49.1005C219.824 47.8296 220.345 46.7775 221.012 45.9442ZM220.746 52.0848C221.913 52.4494 223.251 52.6317 224.762 52.6317C226.272 52.6317 227.741 52.314 229.168 51.6786V51.413C229.168 48.8921 228.361 47.1525 226.746 46.1942C226.184 45.8609 225.506 45.6369 224.715 45.5223C222.173 45.814 220.85 48.0015 220.746 52.0848ZM230.793 51.3817L230.762 52.288C230.658 53.1525 229.283 53.7671 226.637 54.1317C225.793 54.2463 224.897 54.3036 223.949 54.3036C223.012 54.3036 221.954 54.1421 220.777 53.8192C221.006 56.1838 221.798 57.7828 223.152 58.6161C223.652 58.9182 224.142 59.0692 224.621 59.0692C225.111 59.0692 225.522 59.038 225.855 58.9755C226.189 58.9025 226.517 58.8036 226.84 58.6786C227.569 58.3765 228.079 58.0119 228.371 57.5848C228.548 57.3765 228.751 57.2723 228.98 57.2723C229.22 57.2723 229.423 57.3609 229.59 57.538C229.756 57.7046 229.84 57.8973 229.84 58.1161C229.84 58.3244 229.772 58.4911 229.637 58.6161C229.189 59.314 228.355 59.8661 227.137 60.2723C224.876 61.0119 222.704 60.9494 220.621 60.0848C218.434 59.189 216.881 57.6786 215.965 55.5536C215.506 54.5119 215.277 53.3609 215.277 52.1005C215.277 50.8296 215.475 49.6786 215.871 48.6473C216.267 47.6057 216.829 46.7307 217.559 46.0223C219.048 44.564 221.105 43.8348 223.73 43.8348C228.439 44.0328 230.793 46.5484 230.793 51.3817ZM249.98 59.038C249.272 58.4234 248.918 57.6525 248.918 56.7255V38.8036L246.684 39.4442V54.8661C246.684 57.1369 247.381 58.4703 248.777 58.8661C249.173 58.9703 249.574 59.0275 249.98 59.038ZM250.559 44.1473C251.85 44.1057 253.147 44.0328 254.449 43.9286H254.512C254.741 43.9286 254.934 44.0119 255.09 44.1786C255.246 44.3348 255.324 44.5171 255.324 44.7255C255.324 44.9338 255.251 45.1213 255.105 45.288C254.97 45.4442 254.798 45.5328 254.59 45.5536C252.996 45.6786 251.652 45.7567 250.559 45.788V56.7255C250.559 57.3505 250.876 57.7932 251.512 58.0536C251.689 58.1265 251.892 58.163 252.121 58.163C252.361 58.163 252.569 58.09 252.746 57.9442C252.934 57.788 253.09 57.5953 253.215 57.3661C253.381 57.064 253.517 56.7098 253.621 56.3036C253.777 55.6682 254.074 55.3505 254.512 55.3505C254.751 55.3505 254.944 55.4442 255.09 55.6317C255.246 55.8088 255.324 55.9911 255.324 56.1786V56.3505C255.022 57.7359 254.428 58.8088 253.543 59.5692C252.658 60.3192 251.564 60.6942 250.262 60.6942C247.908 60.6942 246.319 59.7307 245.496 57.8036C245.173 57.0536 245.012 56.0744 245.012 54.8661V45.7567C244.543 45.7255 244.069 45.6942 243.59 45.663C243.121 45.6317 242.715 45.5953 242.371 45.5536C241.746 45.4911 241.434 45.215 241.434 44.7255C241.434 44.4859 241.522 44.2932 241.699 44.1473C241.887 44.0015 242.074 43.9286 242.262 43.9286H242.324L245.012 44.1161V38.8036C245.012 38.6265 245.069 38.465 245.184 38.3192C245.298 38.163 245.444 38.0588 245.621 38.0067L249.527 36.9598C249.569 36.9286 249.673 36.913 249.84 36.913C250.017 36.913 250.178 37.0015 250.324 37.1786C250.48 37.3557 250.559 37.5484 250.559 37.7567V44.1473ZM263.027 45.8505C261.163 46.5692 259.934 47.9182 259.34 49.8973C259.131 50.5848 259.027 51.3609 259.027 52.2255C259.027 53.09 259.126 53.8661 259.324 54.5536C259.522 55.2411 259.788 55.8453 260.121 56.3661C260.767 57.3348 261.663 58.0536 262.809 58.5223C261.767 57.0744 261.246 54.9494 261.246 52.1473C261.246 49.3453 261.84 47.2463 263.027 45.8505ZM270.98 56.8192C271.47 56.1942 271.84 55.4807 272.09 54.6786C272.35 53.8765 272.48 53.1369 272.48 52.4598C272.48 51.7828 272.423 51.1838 272.309 50.663C272.194 50.1421 272.027 49.6369 271.809 49.1473C271.59 48.6578 271.324 48.1994 271.012 47.7723C270.699 47.3453 270.35 46.9703 269.965 46.6473C269.121 45.9703 268.199 45.6317 267.199 45.6317C265.178 45.6317 263.861 46.8192 263.246 49.1942C263.017 50.0692 262.902 50.8817 262.902 51.6317C262.902 52.3713 262.923 53.0015 262.965 53.5223C263.006 54.0328 263.079 54.5432 263.184 55.0536C263.288 55.5536 263.428 56.038 263.605 56.5067C263.783 56.9755 264.012 57.3869 264.293 57.7411C264.908 58.5119 265.694 58.8973 266.652 58.8973C267.621 58.8973 268.46 58.7098 269.168 58.3348C269.887 57.9494 270.491 57.4442 270.98 56.8192ZM274.105 52.288C274.105 53.4859 273.881 54.6057 273.434 55.6473C272.986 56.689 272.381 57.5848 271.621 58.3348C270.006 59.9078 268.048 60.6942 265.746 60.6942C263.215 60.6942 261.189 59.9234 259.668 58.3817C258.158 56.8505 257.402 54.7932 257.402 52.2098C257.402 49.7619 258.204 47.7307 259.809 46.1161C261.392 44.5119 263.371 43.7098 265.746 43.7098C268.163 43.7098 270.173 44.5536 271.777 46.2411C273.329 47.8661 274.105 49.8817 274.105 52.288ZM292.262 58.8036C290.876 57.3557 290.184 55.3192 290.184 52.6942C290.184 51.0484 290.454 49.4703 290.996 47.9598C291.527 46.5119 292.131 45.564 292.809 45.1161C289.496 45.9286 287.84 48.3921 287.84 52.5067C287.84 54.9338 288.684 56.7359 290.371 57.913C290.923 58.2984 291.553 58.5953 292.262 58.8036ZM301.387 49.5536C301.355 49.7619 301.256 49.9338 301.09 50.0692C300.934 50.2046 300.751 50.2723 300.543 50.2723C300.335 50.2723 300.152 50.1994 299.996 50.0536C299.85 49.9078 299.772 49.6682 299.762 49.3348C299.751 48.9911 299.652 48.5744 299.465 48.0848C299.277 47.5953 299.022 47.1473 298.699 46.7411C297.949 45.8036 297.137 45.3348 296.262 45.3348C295.189 45.3348 294.283 45.7828 293.543 46.6786C292.658 47.7515 292.111 49.288 291.902 51.288C291.84 51.8192 291.809 52.3765 291.809 52.9598C291.809 53.5328 291.887 54.1838 292.043 54.913C292.21 55.6421 292.46 56.2932 292.793 56.8661C293.543 58.1786 294.59 58.8348 295.934 58.8348C296.934 58.8348 297.85 58.4078 298.684 57.5536C299.444 56.7723 299.949 55.9025 300.199 54.9442C300.314 54.4963 300.579 54.2723 300.996 54.2723C301.225 54.2723 301.418 54.3609 301.574 54.538C301.741 54.7046 301.824 54.8557 301.824 54.9911C301.824 55.1265 301.798 55.2932 301.746 55.4911C301.704 55.6786 301.595 55.9755 301.418 56.3817C301.241 56.788 301.006 57.1942 300.715 57.6005C300.434 58.0067 300.09 58.4025 299.684 58.788C299.277 59.163 298.814 59.4963 298.293 59.788C297.137 60.4338 295.908 60.7567 294.605 60.7567C293.314 60.7567 292.163 60.5536 291.152 60.1473C290.142 59.7515 289.272 59.189 288.543 58.4598C286.991 56.9286 286.215 54.9442 286.215 52.5067C286.215 49.7984 286.923 47.6057 288.34 45.9286C289.819 44.1682 291.84 43.288 294.402 43.288C295.59 43.288 296.694 43.5275 297.715 44.0067C298.736 44.4755 299.574 45.1838 300.23 46.1317L300.746 42.9442C300.777 42.7463 300.866 42.5848 301.012 42.4598C301.168 42.3348 301.361 42.2723 301.59 42.2723C301.819 42.2723 302.006 42.3609 302.152 42.538C302.298 42.715 302.371 42.8921 302.371 43.0692V43.1942L301.387 49.5536ZM310.246 45.8505C308.381 46.5692 307.152 47.9182 306.559 49.8973C306.35 50.5848 306.246 51.3609 306.246 52.2255C306.246 53.09 306.345 53.8661 306.543 54.5536C306.741 55.2411 307.006 55.8453 307.34 56.3661C307.986 57.3348 308.881 58.0536 310.027 58.5223C308.986 57.0744 308.465 54.9494 308.465 52.1473C308.465 49.3453 309.059 47.2463 310.246 45.8505ZM318.199 56.8192C318.689 56.1942 319.059 55.4807 319.309 54.6786C319.569 53.8765 319.699 53.1369 319.699 52.4598C319.699 51.7828 319.642 51.1838 319.527 50.663C319.413 50.1421 319.246 49.6369 319.027 49.1473C318.809 48.6578 318.543 48.1994 318.23 47.7723C317.918 47.3453 317.569 46.9703 317.184 46.6473C316.34 45.9703 315.418 45.6317 314.418 45.6317C312.397 45.6317 311.079 46.8192 310.465 49.1942C310.236 50.0692 310.121 50.8817 310.121 51.6317C310.121 52.3713 310.142 53.0015 310.184 53.5223C310.225 54.0328 310.298 54.5432 310.402 55.0536C310.506 55.5536 310.647 56.038 310.824 56.5067C311.001 56.9755 311.23 57.3869 311.512 57.7411C312.126 58.5119 312.913 58.8973 313.871 58.8973C314.84 58.8973 315.678 58.7098 316.387 58.3348C317.105 57.9494 317.71 57.4442 318.199 56.8192ZM321.324 52.288C321.324 53.4859 321.1 54.6057 320.652 55.6473C320.204 56.689 319.6 57.5848 318.84 58.3348C317.225 59.9078 315.267 60.6942 312.965 60.6942C310.434 60.6942 308.408 59.9234 306.887 58.3817C305.376 56.8505 304.621 54.7932 304.621 52.2098C304.621 49.7619 305.423 47.7307 307.027 46.1161C308.611 44.5119 310.59 43.7098 312.965 43.7098C315.381 43.7098 317.392 44.5536 318.996 46.2411C320.548 47.8661 321.324 49.8817 321.324 52.288ZM339.246 45.7255H338.621C338.309 45.7255 337.913 45.7046 337.434 45.663L337.027 58.8036C337.798 58.6786 338.564 58.5953 339.324 58.5536L339.574 45.6942C339.46 45.715 339.35 45.7255 339.246 45.7255ZM336.73 43.9286C337.293 44.0119 338.225 44.0536 339.527 44.0536C340.829 44.0536 342.064 43.9078 343.23 43.6161C343.47 43.6161 343.668 43.7046 343.824 43.8817C343.98 44.0484 344.059 44.2307 344.059 44.4286C344.059 44.6265 343.996 44.8036 343.871 44.9598C343.756 45.1161 343.553 45.2255 343.262 45.288C342.98 45.34 342.658 45.3921 342.293 45.4442C341.928 45.4859 341.569 45.5328 341.215 45.5848L340.965 58.5223C341.871 58.5223 342.527 58.5484 342.934 58.6005C343.6 58.6838 343.934 58.965 343.934 59.4442C343.934 59.7046 343.845 59.9078 343.668 60.0536C343.501 60.2098 343.324 60.288 343.137 60.288H343.043C340.741 60.0067 338.512 60.1109 336.355 60.6005H336.184C335.965 60.6005 335.772 60.5171 335.605 60.3505C335.439 60.1942 335.355 60.0119 335.355 59.8036V59.7723L335.449 56.913C334.105 59.3713 332.366 60.6005 330.23 60.6005C328.387 60.6005 327.006 59.7723 326.09 58.1161C325.361 56.7723 324.996 55.189 324.996 53.3661C324.996 50.5432 325.527 47.965 326.59 45.6317L323.777 45.5536C323.548 45.5328 323.355 45.4494 323.199 45.3036C323.053 45.1473 322.98 44.9598 322.98 44.7411C322.98 44.5223 323.059 44.3348 323.215 44.1786C323.371 44.0119 323.569 43.9286 323.809 43.9286L327.934 44.0223C328.163 44.0536 328.35 44.1473 328.496 44.3036C328.652 44.4494 328.73 44.5953 328.73 44.7411C328.73 44.9286 328.689 45.1057 328.605 45.2723C327.908 45.9703 327.329 47.8036 326.871 50.7723C326.704 51.8557 326.621 52.7255 326.621 53.3817C326.621 54.038 326.673 54.6994 326.777 55.3661C326.892 56.0223 327.085 56.6161 327.355 57.1473C327.97 58.3661 328.918 58.9755 330.199 58.9755C331.48 58.9755 332.6 58.2619 333.559 56.8348C334.517 55.4286 335.204 53.4755 335.621 50.9755L335.809 44.6942C335.809 44.465 335.897 44.2828 336.074 44.1473C336.251 44.0015 336.439 43.9286 336.637 43.9286H336.73ZM352.074 46.4598C351.543 46.5432 350.829 46.5848 349.934 46.5848H349.809V58.3348C350.329 58.3348 350.777 58.3348 351.152 58.3348C351.538 58.3348 351.845 58.3453 352.074 58.3661V46.4598ZM349.965 44.913C351.09 44.913 352.069 44.8296 352.902 44.663C353.142 44.663 353.34 44.7515 353.496 44.9286C353.663 45.0953 353.746 45.2828 353.746 45.4911V47.1005C354.965 45.3088 356.637 44.413 358.762 44.413C360.897 44.413 362.288 45.7255 362.934 48.3505C363.163 49.2463 363.277 50.1161 363.277 50.9598C363.277 51.8036 363.251 52.538 363.199 53.163C363.147 53.7775 363.079 54.3921 362.996 55.0067C362.85 56.2255 362.668 57.2775 362.449 58.163C362.845 58.1838 363.251 58.2046 363.668 58.2255C364.095 58.2463 364.475 58.2723 364.809 58.3036C365.413 58.3765 365.715 58.6838 365.715 59.2255C365.694 59.4338 365.6 59.6109 365.434 59.7567C365.267 59.8921 365.079 59.9598 364.871 59.9598H364.809C363.809 59.8557 362.715 59.8036 361.527 59.8036C360.35 59.8036 359.246 59.9182 358.215 60.1473C357.996 60.1473 357.803 60.064 357.637 59.8973C357.47 59.7203 357.387 59.5328 357.387 59.3348C357.387 59.1369 357.449 58.9598 357.574 58.8036C357.71 58.6473 357.934 58.5432 358.246 58.4911C358.715 58.3973 359.548 58.2984 360.746 58.1942C361.09 57.0067 361.324 55.715 361.449 54.3192C361.574 52.913 361.637 51.9546 361.637 51.4442C361.637 47.84 360.678 46.038 358.762 46.038C357.387 46.038 356.194 46.6682 355.184 47.9286C354.225 49.1057 353.746 50.3348 353.746 51.6161V51.6473L353.715 58.5223C353.902 58.5432 354.085 58.564 354.262 58.5848C354.439 58.5953 354.621 58.6161 354.809 58.6473C355.006 58.6682 355.173 58.7567 355.309 58.913C355.454 59.0588 355.527 59.2411 355.527 59.4598C355.527 59.6786 355.439 59.8713 355.262 60.038C355.095 60.2046 354.949 60.288 354.824 60.288C354.699 60.288 354.626 60.2723 354.605 60.2411C352.73 60.0536 351.439 59.9598 350.73 59.9598C349.345 59.9598 348.251 60.0328 347.449 60.1786C346.647 60.3348 346.168 60.413 346.012 60.413C345.866 60.413 345.72 60.3244 345.574 60.1473C345.428 59.9703 345.355 59.7828 345.355 59.5848C345.355 59.3869 345.413 59.2098 345.527 59.0536C345.642 58.8973 345.845 58.7932 346.137 58.7411C346.72 58.6265 347.397 58.5328 348.168 58.4598V46.5223C346.772 46.4598 345.975 46.3869 345.777 46.3036C345.569 46.2828 345.397 46.1942 345.262 46.038C345.137 45.8817 345.074 45.689 345.074 45.4598C345.074 45.2307 345.163 45.0432 345.34 44.8973C345.517 44.7411 345.663 44.663 345.777 44.663C345.902 44.663 345.97 44.6682 345.98 44.6786C346.001 44.689 346.126 44.7046 346.355 44.7255C346.585 44.7463 346.881 44.7723 347.246 44.8036C348.111 44.8765 349.017 44.913 349.965 44.913ZM374.262 59.038C373.553 58.4234 373.199 57.6525 373.199 56.7255V38.8036L370.965 39.4442V54.8661C370.965 57.1369 371.663 58.4703 373.059 58.8661C373.454 58.9703 373.855 59.0275 374.262 59.038ZM374.84 44.1473C376.131 44.1057 377.428 44.0328 378.73 43.9286H378.793C379.022 43.9286 379.215 44.0119 379.371 44.1786C379.527 44.3348 379.605 44.5171 379.605 44.7255C379.605 44.9338 379.533 45.1213 379.387 45.288C379.251 45.4442 379.079 45.5328 378.871 45.5536C377.277 45.6786 375.934 45.7567 374.84 45.788V56.7255C374.84 57.3505 375.158 57.7932 375.793 58.0536C375.97 58.1265 376.173 58.163 376.402 58.163C376.642 58.163 376.85 58.09 377.027 57.9442C377.215 57.788 377.371 57.5953 377.496 57.3661C377.663 57.064 377.798 56.7098 377.902 56.3036C378.059 55.6682 378.355 55.3505 378.793 55.3505C379.033 55.3505 379.225 55.4442 379.371 55.6317C379.527 55.8088 379.605 55.9911 379.605 56.1786V56.3505C379.303 57.7359 378.71 58.8088 377.824 59.5692C376.939 60.3192 375.845 60.6942 374.543 60.6942C372.189 60.6942 370.6 59.7307 369.777 57.8036C369.454 57.0536 369.293 56.0744 369.293 54.8661V45.7567C368.824 45.7255 368.35 45.6942 367.871 45.663C367.402 45.6317 366.996 45.5953 366.652 45.5536C366.027 45.4911 365.715 45.215 365.715 44.7255C365.715 44.4859 365.803 44.2932 365.98 44.1473C366.168 44.0015 366.355 43.9286 366.543 43.9286H366.605L369.293 44.1161V38.8036C369.293 38.6265 369.35 38.465 369.465 38.3192C369.579 38.163 369.725 38.0588 369.902 38.0067L373.809 36.9598C373.85 36.9286 373.954 36.913 374.121 36.913C374.298 36.913 374.46 37.0015 374.605 37.1786C374.762 37.3557 374.84 37.5484 374.84 37.7567V44.1473ZM388.012 46.3036C387.48 46.3869 386.767 46.4286 385.871 46.4286H385.746V58.1942C385.944 58.1734 386.137 58.163 386.324 58.163C386.699 58.163 387.027 58.163 387.309 58.163C387.59 58.163 387.824 58.1734 388.012 58.1942V46.3036ZM387.824 39.7723C387.824 39.4494 387.71 39.1786 387.48 38.9598C387.262 38.7307 386.991 38.6161 386.668 38.6161C386.345 38.6161 386.074 38.7307 385.855 38.9598C385.637 39.1786 385.527 39.4494 385.527 39.7723C385.527 40.0953 385.637 40.3661 385.855 40.5848C386.074 40.8036 386.345 40.913 386.668 40.913C386.991 40.913 387.262 40.8036 387.48 40.5848C387.71 40.3661 387.824 40.0953 387.824 39.7723ZM391.73 60.3192C390.012 59.9755 388.408 59.8036 386.918 59.8036C385.428 59.8036 383.824 59.9755 382.105 60.3192C381.866 60.3192 381.668 60.2307 381.512 60.0536C381.366 59.8765 381.293 59.689 381.293 59.4911C381.293 59.2932 381.35 59.1161 381.465 58.9598C381.59 58.8036 381.788 58.6994 382.059 58.6473C382.34 58.5848 382.663 58.5328 383.027 58.4911C383.402 58.439 383.767 58.3869 384.121 58.3348V46.3661L381.715 46.163C381.506 46.1317 381.335 46.038 381.199 45.8817C381.074 45.7255 381.012 45.5328 381.012 45.3036C381.012 45.064 381.105 44.8765 381.293 44.7411C381.48 44.6057 381.663 44.538 381.84 44.538H381.934C381.944 44.538 382.064 44.5536 382.293 44.5848C382.522 44.6057 382.819 44.6317 383.184 44.663C384.173 44.7463 385.079 44.788 385.902 44.788C387.048 44.788 387.975 44.7046 388.684 44.538H388.855C389.095 44.538 389.293 44.6213 389.449 44.788C389.605 44.9442 389.684 45.1265 389.684 45.3348L389.652 58.3348C390.017 58.3869 390.381 58.439 390.746 58.4911C391.121 58.5328 391.454 58.5848 391.746 58.6473C392.288 58.7515 392.559 59.0275 392.559 59.4755C392.559 59.715 392.47 59.913 392.293 60.0692C392.116 60.2359 391.928 60.3192 391.73 60.3192ZM389.465 39.7723C389.465 40.5536 389.194 41.2098 388.652 41.7411C388.09 42.2828 387.428 42.5536 386.668 42.5536C385.897 42.5536 385.241 42.2828 384.699 41.7411C384.158 41.1994 383.887 40.5432 383.887 39.7723C383.887 39.0015 384.158 38.3453 384.699 37.8036C385.241 37.2619 385.897 36.9911 386.668 36.9911C387.428 36.9911 388.09 37.2619 388.652 37.8036C389.194 38.3348 389.465 38.9911 389.465 39.7723ZM400.23 46.4598C399.699 46.5432 398.986 46.5848 398.09 46.5848H397.965V58.3348C398.486 58.3348 398.934 58.3348 399.309 58.3348C399.694 58.3348 400.001 58.3453 400.23 58.3661V46.4598ZM398.121 44.913C399.246 44.913 400.225 44.8296 401.059 44.663C401.298 44.663 401.496 44.7515 401.652 44.9286C401.819 45.0953 401.902 45.2828 401.902 45.4911V47.1005C403.121 45.3088 404.793 44.413 406.918 44.413C409.053 44.413 410.444 45.7255 411.09 48.3505C411.319 49.2463 411.434 50.1161 411.434 50.9598C411.434 51.8036 411.408 52.538 411.355 53.163C411.303 53.7775 411.236 54.3921 411.152 55.0067C411.006 56.2255 410.824 57.2775 410.605 58.163C411.001 58.1838 411.408 58.2046 411.824 58.2255C412.251 58.2463 412.631 58.2723 412.965 58.3036C413.569 58.3765 413.871 58.6838 413.871 59.2255C413.85 59.4338 413.756 59.6109 413.59 59.7567C413.423 59.8921 413.236 59.9598 413.027 59.9598H412.965C411.965 59.8557 410.871 59.8036 409.684 59.8036C408.506 59.8036 407.402 59.9182 406.371 60.1473C406.152 60.1473 405.96 60.064 405.793 59.8973C405.626 59.7203 405.543 59.5328 405.543 59.3348C405.543 59.1369 405.605 58.9598 405.73 58.8036C405.866 58.6473 406.09 58.5432 406.402 58.4911C406.871 58.3973 407.704 58.2984 408.902 58.1942C409.246 57.0067 409.48 55.715 409.605 54.3192C409.73 52.913 409.793 51.9546 409.793 51.4442C409.793 47.84 408.835 46.038 406.918 46.038C405.543 46.038 404.35 46.6682 403.34 47.9286C402.381 49.1057 401.902 50.3348 401.902 51.6161V51.6473L401.871 58.5223C402.059 58.5432 402.241 58.564 402.418 58.5848C402.595 58.5953 402.777 58.6161 402.965 58.6473C403.163 58.6682 403.329 58.7567 403.465 58.913C403.611 59.0588 403.684 59.2411 403.684 59.4598C403.684 59.6786 403.595 59.8713 403.418 60.038C403.251 60.2046 403.105 60.288 402.98 60.288C402.855 60.288 402.783 60.2723 402.762 60.2411C400.887 60.0536 399.595 59.9598 398.887 59.9598C397.501 59.9598 396.408 60.0328 395.605 60.1786C394.803 60.3348 394.324 60.413 394.168 60.413C394.022 60.413 393.876 60.3244 393.73 60.1473C393.585 59.9703 393.512 59.7828 393.512 59.5848C393.512 59.3869 393.569 59.2098 393.684 59.0536C393.798 58.8973 394.001 58.7932 394.293 58.7411C394.876 58.6265 395.553 58.5328 396.324 58.4598V46.5223C394.928 46.4598 394.131 46.3869 393.934 46.3036C393.725 46.2828 393.553 46.1942 393.418 46.038C393.293 45.8817 393.23 45.689 393.23 45.4598C393.23 45.2307 393.319 45.0432 393.496 44.8973C393.673 44.7411 393.819 44.663 393.934 44.663C394.059 44.663 394.126 44.6682 394.137 44.6786C394.158 44.689 394.283 44.7046 394.512 44.7255C394.741 44.7463 395.038 44.7723 395.402 44.8036C396.267 44.8765 397.173 44.913 398.121 44.913ZM430.621 45.7255H429.996C429.684 45.7255 429.288 45.7046 428.809 45.663L428.402 58.8036C429.173 58.6786 429.939 58.5953 430.699 58.5536L430.949 45.6942C430.835 45.715 430.725 45.7255 430.621 45.7255ZM428.105 43.9286C428.668 44.0119 429.6 44.0536 430.902 44.0536C432.204 44.0536 433.439 43.9078 434.605 43.6161C434.845 43.6161 435.043 43.7046 435.199 43.8817C435.355 44.0484 435.434 44.2307 435.434 44.4286C435.434 44.6265 435.371 44.8036 435.246 44.9598C435.131 45.1161 434.928 45.2255 434.637 45.288C434.355 45.34 434.033 45.3921 433.668 45.4442C433.303 45.4859 432.944 45.5328 432.59 45.5848L432.34 58.5223C433.246 58.5223 433.902 58.5484 434.309 58.6005C434.975 58.6838 435.309 58.965 435.309 59.4442C435.309 59.7046 435.22 59.9078 435.043 60.0536C434.876 60.2098 434.699 60.288 434.512 60.288H434.418C432.116 60.0067 429.887 60.1109 427.73 60.6005H427.559C427.34 60.6005 427.147 60.5171 426.98 60.3505C426.814 60.1942 426.73 60.0119 426.73 59.8036V59.7723L426.824 56.913C425.48 59.3713 423.741 60.6005 421.605 60.6005C419.762 60.6005 418.381 59.7723 417.465 58.1161C416.736 56.7723 416.371 55.189 416.371 53.3661C416.371 50.5432 416.902 47.965 417.965 45.6317L415.152 45.5536C414.923 45.5328 414.73 45.4494 414.574 45.3036C414.428 45.1473 414.355 44.9598 414.355 44.7411C414.355 44.5223 414.434 44.3348 414.59 44.1786C414.746 44.0119 414.944 43.9286 415.184 43.9286L419.309 44.0223C419.538 44.0536 419.725 44.1473 419.871 44.3036C420.027 44.4494 420.105 44.5953 420.105 44.7411C420.105 44.9286 420.064 45.1057 419.98 45.2723C419.283 45.9703 418.704 47.8036 418.246 50.7723C418.079 51.8557 417.996 52.7255 417.996 53.3817C417.996 54.038 418.048 54.6994 418.152 55.3661C418.267 56.0223 418.46 56.6161 418.73 57.1473C419.345 58.3661 420.293 58.9755 421.574 58.9755C422.855 58.9755 423.975 58.2619 424.934 56.8348C425.892 55.4286 426.579 53.4755 426.996 50.9755L427.184 44.6942C427.184 44.465 427.272 44.2828 427.449 44.1473C427.626 44.0015 427.814 43.9286 428.012 43.9286H428.105ZM443.043 45.9442C440.303 46.9338 438.934 49.0119 438.934 52.1786C438.934 54.1682 439.621 55.8348 440.996 57.1786C441.423 57.5953 441.913 57.9442 442.465 58.2255C441.569 56.8921 441.121 55.0692 441.121 52.7567C441.121 51.1213 441.241 49.9025 441.48 49.1005C441.855 47.8296 442.376 46.7775 443.043 45.9442ZM442.777 52.0848C443.944 52.4494 445.283 52.6317 446.793 52.6317C448.303 52.6317 449.772 52.314 451.199 51.6786V51.413C451.199 48.8921 450.392 47.1525 448.777 46.1942C448.215 45.8609 447.538 45.6369 446.746 45.5223C444.204 45.814 442.881 48.0015 442.777 52.0848ZM452.824 51.3817L452.793 52.288C452.689 53.1525 451.314 53.7671 448.668 54.1317C447.824 54.2463 446.928 54.3036 445.98 54.3036C445.043 54.3036 443.986 54.1421 442.809 53.8192C443.038 56.1838 443.829 57.7828 445.184 58.6161C445.684 58.9182 446.173 59.0692 446.652 59.0692C447.142 59.0692 447.553 59.038 447.887 58.9755C448.22 58.9025 448.548 58.8036 448.871 58.6786C449.6 58.3765 450.111 58.0119 450.402 57.5848C450.579 57.3765 450.783 57.2723 451.012 57.2723C451.251 57.2723 451.454 57.3609 451.621 57.538C451.788 57.7046 451.871 57.8973 451.871 58.1161C451.871 58.3244 451.803 58.4911 451.668 58.6161C451.22 59.314 450.387 59.8661 449.168 60.2723C446.908 61.0119 444.736 60.9494 442.652 60.0848C440.465 59.189 438.913 57.6786 437.996 55.5536C437.538 54.5119 437.309 53.3609 437.309 52.1005C437.309 50.8296 437.506 49.6786 437.902 48.6473C438.298 47.6057 438.861 46.7307 439.59 46.0223C441.079 44.564 443.137 43.8348 445.762 43.8348C450.47 44.0328 452.824 46.5484 452.824 51.3817Z" fill="black"/>
</svg>
