<svg width="26" height="17" viewBox="0 0 26 17" fill="none" xmlns="http://www.w3.org/2000/svg">
<g clip-path="url(#clip0)">
<path d="M19.552 10.1244C16.7223 5.94444 13.6624 3.81177 10.4553 3.81177C5.0225 3.81177 1.21933 9.88666 1.06062 10.1359L0.822563 10.5145L1.0703 10.8814C3.97929 15.1099 7.06827 17.2518 10.2753 17.2518C15.7178 17.2518 19.4107 11.1053 19.5597 10.8445L19.7881 10.466L19.552 10.1244ZM10.3953 15.2276C8.22955 15.2276 6.46248 13.1203 6.46248 10.5375C6.46248 7.95479 8.22955 5.8475 10.3953 5.8475C12.5611 5.8475 14.3282 7.95479 14.3282 10.5375C14.3282 13.1318 12.5708 15.2276 10.3953 15.2276ZM2.14254 10.5029C2.81802 9.53121 4.82315 6.92538 7.55407 5.70671C6.2728 6.77304 5.43862 8.54796 5.43862 10.5514C5.43862 12.624 6.34248 14.459 7.7031 15.5138C5.80829 14.7083 3.95026 13.0372 2.14254 10.5029ZM13.3546 15.2876C14.5662 14.2097 15.3598 12.4809 15.3598 10.5398C15.3598 8.5018 14.4965 6.7038 13.1746 5.63747C15.0017 6.44299 16.7804 8.07711 18.4971 10.5168C17.8526 11.4746 15.9772 14.0089 13.3546 15.2876ZM9.30372 10.5398C9.30372 11.26 9.79339 11.8416 10.3953 11.8416C10.9992 11.8416 11.4869 11.2577 11.4869 10.5398C11.4869 9.82203 10.9972 9.23808 10.3953 9.23808C9.79146 9.23577 9.30372 9.81972 9.30372 10.5398Z" fill="black"/>
</g>
<defs>
<clipPath id="clip0">
<rect width="25" height="16" fill="white" transform="translate(0.572571 0.470947)"/>
</clipPath>
</defs>
</svg>
